<svg xmlns="http://www.w3.org/2000/svg" viewBox="0 0 1050 230">
  <defs>
    <style>
      @import url('https://fonts.googleapis.com/css?family=Montserrat|Montserrat:700');
      .jj {
        fill: #eff8ff 
      }
      .b,
      .c {
        fill: #cfe8fc
      }
      .c {
        opacity: .24
      }
      .d,
      .l {
        font-size: 12px
      }
      .d {
        font-family: Montserrat-Bold, Montserrat
      }
      .d,
      .l {
        font-weight: 700
      }
      .e {
        letter-spacing: .01em
      }
      .f,
      .ii {
        fill: none;
        stroke-width: 2px;
        animation: dash 5s linear reverse infinite;
        stroke-dasharray: 6 9;
      }
      @keyframes dash {
        to {
          stroke-dashoffset: 30;
        }
      }
      .f {
        stroke: #1db846
      }
      .f,
      .ii,
      .jj {
        stroke-miterlimit: 10
      }
      .g {
        fill: #1db846
      }
      .h {
        fill: #fa582d
      }
      .ii {
        stroke: #fa582d
      }
      .jj {
        stroke: #cfe8fc
      }
      .k {
        letter-spacing: 0
      }
      .l {
        font-family: Montserrat-BoldItalic, Montserrat;
        font-style: italic
      }
      .o {
        letter-spacing: 0
      }
      .p {
        letter-spacing: .01em
      }
      .s {
        letter-spacing: -.01em
      }
    </style>
  </defs>
  <path fill="#eff8ff" d="M66.28 228.09L.58 114.3 66.28.5h131.4l65.7 113.8-65.7 113.79H66.28z"/>
  <path class="b" d="M197.39 1l65.41 113.3-65.41 113.29H66.57L1.15 114.3 66.57 1h130.82m.61-1H66L0 114.3l66 114.29h132l66-114.29L198 0z"/>
  <path class="c" d="M79.78 121.62h320.07v62.33H79.78zM79.63 47.07h319.9v57.38H79.63z"/>
  <text class="d" transform="translate(18.76 119.18)">
    subject
  </text>
  <path class="f" d="M87 59.87h45.65"/>
  <path class="g" d="M132 55.01v9.72l4.85-4.86-4.85-4.86z"/>
  <path class="h" d="M136.48 96.75h-2.36l-2-3.28-2 3.28h-2.36l3.32-5-3.45-5.17h2.35l2.1 3.37 2.09-3.37h2.36l-3.35 5.17z"/>
  <path class="ii" d="M86.2 91.84h47.2"/>
  <path class="f" d="M136.03 169.46H89.57"/>  
  <path class="g" d="M90.22 174.32v-9.72l-4.86 4.86 4.86 4.86z"/>
  <path class="jj" d="M398.61 40.47h110.71v63.68H398.61z"/>
  <text class="d" transform="translate(434.07 75.81)">
    object
  </text>
  <path class="f" d="M395.5 169.46H214.37"/>  
  <path class="g" d="M215.02 174.32v-9.72l-4.86 4.86 4.86 4.86z"/>
  <path class="f" d="M208.72 59.87h182"/>
  <path class="g" d="M390.07 55.01v9.72l4.86-4.86-4.86-4.86z"/>
  <path class="h" d="M209 130.78h2.36l1.95 3.27 2-3.27h2.36l-3.32 5 3.45 5.17h-2.35l-2.1-3.37-2.09 3.37h-2.36l3.35-5.17z"/>
  <path class="ii" d="M396.68 135.68H214.04"/>
  <text class="l" transform="translate(280.53 156.93)">
    incoming rule
  </text>
  <text class="l" transform="translate(279.55 82.71)">
    outgoing rule
  </text>
  <path class="b" d="M141.79 40.5h64.04v150.13h-64.04z"/>
  <text transform="translate(147.91 106.39)" font-family="Montserrat-Medium,Montserrat" font-weight="500" fill="#85c8ff" font-size="12">
    enforcer
  </text>
  <path class="jj" d="M398.98 120.95h110.71v63.68H398.98z"/>
  <text class="d" transform="translate(434.43 156.3)">
    object
  </text>
  <path d="M172.42 112.5l11.8 5.29v7.88a16.26 16.26 0 01-3.38 10 14.68 14.68 0 01-8.42 5.75 14.71 14.71 0 01-8.43-5.75 16.33 16.33 0 01-3.38-10v-7.88zm0 14.46v11.74a12.62 12.62 0 006.14-4.39 14.51 14.51 0 003-7.35zm0 0V115.4l-9.17 4v7.6z" fill="#85c8ff"/>
</svg>
