<svg xmlns="http://www.w3.org/2000/svg" viewBox="0 0 1407.73 611.71">
  <defs>
    <style>
      @import url('https://fonts.googleapis.com/css?family=Montserrat|Montserrat:600');
      .a{fill:#eaebeb}.ar,.b{fill:none}.b{stroke:#eaebeb}.ar,.b,.p,.q{stroke-linecap:round;stroke-linejoin:round}.b,.q,.y{stroke-width:2.97px}.ah,.c{isolation:isolate}.ah,.ba,.be,.c{font-size:13px;font-family:Montserrat-SemiBold,Montserrat;font-weight:600}.d{letter-spacing:-.03em}.e,.f,.g,.h{letter-spacing:0}.i{letter-spacing:-.01em}.j{letter-spacing:-.02em}.k{letter-spacing:0}.l,.m,.n,.o{letter-spacing:-.01em}.as,.p{fill:#585959}.ar,.p{stroke:#585959;stroke-width:2.23px}.ag,.q,.y{fill:#3dbb61}.q,.y{stroke:#3dbb61}.r{fill:#9cf}.ah{fill:#231f20}.t{letter-spacing:0}.u{letter-spacing:-.01em}.y{stroke-miterlimit:7.43}.z{letter-spacing:-.01em}.aa{letter-spacing:-.02em}.ab{fill:#0009cf}.ac{fill:#fff}.ad{fill:#424a60}.ae{fill:#ccf}.af{fill:#cfe8fc}.ai{letter-spacing:0}.aj{letter-spacing:-.01em}.ak{letter-spacing:-.02em}.al,.am{letter-spacing:0}.au{letter-spacing:-.02em}.av,.aw{letter-spacing:0}.ax,.ay{letter-spacing:-.01em}.az{letter-spacing:.01em}.bb{letter-spacing:-.06em}.bc{letter-spacing:-.01em}.bd{letter-spacing:.01em}.be{letter-spacing:-.03em}.bf{letter-spacing:0}.bg{letter-spacing:-.01em}.bh{letter-spacing:-.07em}.bi{letter-spacing:-.01em}
    </style>
  </defs>
  <path class="a" d="M792.38 349.29h214.12v166.6H792.38zM658.74 109.2h229.32v88.2H658.74zm-130.5 120.72h223.8v282.13h-223.8z"/>
  <path class="b" d="M857.97 183.46h54.46"/>
  <path class="a" d="M122.18 109.2h229.33v88.2H122.18z"/>
  <path class="b" d="M95.35 321.09l-.08 64.78"/>
  <path class="a" d="M0 349.29h214.12v166.6H0zM417.59 0h178.99v72.06H417.59z"/>
  <text class="c" transform="translate(435.78 21.87)">
    /826920578209172635
  </text>
  <text class="c" transform="translate(3.79 181.28)">
    developer
  </text>
  <path class="b" d="M237.44 59.05h189.85m-190.05.98l-.07 64.77"/>
  <path class="p" d="M507.88 60.76l-.08 34.72m-177.82.2l349.81-.01"/>
  <path class="b" d="M773.43 59.05l-.06 64.36M586.15 59.05h186.91"/>
  <path class="q" d="M113.08 292h2.23"/>
  <path class="r" d="M433.55 35.44h148.74v25.32H433.55z"/>
  <text transform="translate(452.28 52.26)" style="isolation:isolate" fill="#231f20" font-size="13.38" font-family="Montserrat-SemiBold,Montserrat" font-weight="600">
    network ruleset
  </text>
  <path class="y" d="M107.68 153.68l9.65-5.49-9.65-5.58z"/>
  <path class="q" d="M106.35 148.27l-55.1-.05"/>
  <path class="y" d="M403.39 35.85l8.39-5.57-8.39-5.57z"/>
  <path class="q" d="M51.25 30.07l352.89.29"/>
  <text class="c" transform="translate(5.48 60.27)">
    operator
  </text>
  <path class="ab" d="M17.28 15.62h30.28v28.91H17.28z"/>
  <path class="ac" d="M32.27 24.7a1.52 1.52 0 11-1.51 1.51 1.52 1.52 0 011.51-1.51zm0 7.57c2 0 4.39 1 4.54 1.52h-9.08c.15-.53 2.5-1.52 4.54-1.52zm0-9.08a3 3 0 103 3 3 3 0 00-3-3zm0 7.57c-2 0-6.06 1-6.06 3v1.54h12.12v-1.51c0-2.05-4.09-3.03-6.06-3.03z"/>
  <path class="ab" d="M17.28 135.65h30.28v28.92H17.28z"/>
  <path class="ac" d="M32.27 144.73a1.52 1.52 0 11-1.51 1.52 1.52 1.52 0 011.51-1.52zm0 7.57c2 0 4.39 1 4.54 1.52h-9.08c.15-.53 2.5-1.52 4.54-1.52zm0-9.08a3 3 0 103 3 3 3 0 00-3-3zm0 7.57c-2 0-6.06 1-6.06 3v1.51h12.12v-1.51c0-2.02-4.09-3-6.06-3z"/>
  <path class="a" d="M0 229.16h215.58v107.72H0z"/>
  <path class="b" d="M95.05 182.69h72.69m-72.39 0l-.08 64.78m285.5-64.78l-.06 60.91m-68.98-60.91h68.93"/>
  <path class="ad" d="M68.28 579c-.91-3.1-13.85-5.6-29.68-5.6S9.76 575.94 8.93 579h-.08v26h.08c.91 3.11 13.85 5.6 29.67 5.6s28.85-2.49 29.68-5.6h.07v-25.58z"/>
  <path class="ae" d="M38.53 602.2c-16.43 0-29.83-2.64-29.83-5.9v8.78h.08c.91 3.11 13.85 5.6 29.67 5.6s28.84-2.49 29.68-5.6h.07v-8.78c.15 3.18-13.17 5.9-29.67 5.9zm29.75-6.35a.7.7 0 01.07.37z"/>
  <path class="ae" d="M38.53 593.8c-16.43 0-29.83-2.65-29.83-5.9v8.78h.08c.91 3.1 13.85 5.6 29.67 5.6s28.84-2.5 29.68-5.6h.07v-8.78c.15 3.18-13.17 5.9-29.67 5.9zm29.75-6.36a.74.74 0 01.07.38z"/>
  <ellipse class="af" cx="38.53" cy="579.42" rx="29.83" ry="5.9"/>
  <path class="ae" d="M38.53 585.4c-16.43 0-29.83-2.65-29.83-5.91v8.79h.08c.91 3.1 13.85 5.6 29.67 5.6s28.84-2.5 29.68-5.6h.07v-8.79c.15 3.18-13.17 5.91-29.67 5.91zm29.75-6.4a.74.74 0 01.07.38z"/>
  <path class="ag" d="M31.1 529.55l7.43-9.89 7.43 9.89H31.1zm0 30.41l7.43 9.96 7.43-9.96H31.1z"/>
  <path class="q" d="M38.53 527v35.91"/>
  <path class="a" d="M254.84 229.92h223.8v282.13h-223.8z"/>
  <path class="ae" d="M267.75 337.51h195.76v162.23H267.75V337.51z"/>
  <text class="ah" transform="translate(329.26 398.4)">
    <tspan class="ai">m</tspan><tspan x="13.75" y="0">o</tspan><tspan class="ai" x="22.14" y="0">n</tspan><tspan x="31.11" y="0">olithic</tspan><tspan class="o" x="20.19" y="15.6">w</tspan><tspan x="31.95" y="15.6">eb </tspan><tspan x="-1.25" y="31.2">application</tspan>
  </text>
  <path class="r" d="M267.81 298.61h195.7V324h-195.7z"/>
  <text class="ah" transform="translate(312.52 315.2)">
    network ruleset
  </text>
  <path class="af" d="M290 610.41c14.84 0 26.88-7 26.88-15.52 0-7.34-8.86-13.55-20.74-15.14-.23-15.59-22.18-28.16-49.21-28.16-18.55 0-34.67 5.91-43.07 14.69a36.22 36.22 0 00-8.33-1c-10.67 0-19.46 4.62-20.74 10.53-13.86 1.59-24.3 8.63-24.3 17.1 0 9.62 13.55 17.42 30.2 17.42 4.62.07 106.13.07 109.31.07z"/>
  <text transform="translate(207.86 581)" style="isolation:isolate" font-size="13.38" font-family="Montserrat-SemiBold,Montserrat" font-weight="600">
    d<tspan x="9.19" y="0" letter-spacing="-.01em">e</tspan><tspan x="17.37" y="0" letter-spacing="-.02em">v</tspan><tspan x="24.9" y="0">eloper</tspan><tspan x="-9.1" y="16.05">IP </tspan><tspan class="t" x="8.57" y="16.05">a</tspan><tspan x="16.76" y="16.05">dd</tspan><tspan class="u" x="35.14" y="16.05">r</tspan><tspan x="40.62" y="16.05" letter-spacing="0">esses</tspan>
  </text>
  <path class="ag" d="M163.56 559.96l7.43 9.96 7.43-9.96h-14.86zm0-30.41l7.43-9.89 7.43 9.89h-14.86z"/>
  <path class="q" d="M171 527v35.91"/>
  <path class="ag" d="M300.88 563.96l7.43 9.96 7.43-9.96h-14.86zm0-34.41l7.43-9.89 7.43 9.89h-14.86z"/>
  <path class="q" d="M308.31 529v35.91"/>
  <path class="b" d="M629.03 183.46h61.38m-61.46 0l-.08 64.77"/>
  <text class="c" transform="translate(729.98 130.2)">
    /826920578209172635
  </text>
  <path class="ar" d="M680.07 95.66l-.07 56.19"/>
  <path class="as" d="M674.42 149.21l5.57 9.66 5.58-9.66z"/>
  <path class="ad" d="M997.12 579c-.91-3.1-13.85-5.6-29.67-5.6s-28.85 2.5-29.68 5.6h-.08v26h.08c.91 3.11 13.85 5.6 29.68 5.6s28.84-2.49 29.67-5.6h.08v-25.58z"/>
  <path class="ae" d="M967.37 602.2c-16.43 0-29.83-2.64-29.83-5.9v8.78h.08c.91 3.11 13.85 5.6 29.67 5.6s28.85-2.49 29.68-5.6h.03v-8.78c.16 3.18-13.17 5.9-29.67 5.9zm-29.75-6.35h59.5a.62.62 0 01.08.37z"/>
  <path class="ae" d="M967.37 593.8c-16.43 0-29.83-2.65-29.83-5.9v8.78h.08c.91 3.1 13.85 5.6 29.67 5.6s28.85-2.5 29.68-5.6h.03v-8.78c.16 3.18-13.17 5.9-29.67 5.9zm-29.75-6.36h59.5a.66.66 0 01.08.38z"/>
  <ellipse class="af" cx="967.37" cy="579.42" rx="29.83" ry="5.9"/>
  <path class="ae" d="M967.37 585.4c-16.43 0-29.83-2.65-29.83-5.91v8.79h.08c.91 3.1 13.85 5.6 29.67 5.6s28.85-2.5 29.68-5.6h.03v-8.79c.16 3.18-13.17 5.91-29.67 5.91zm29.75-6.4a.66.66 0 01.08.38z"/>
  <path class="ag" d="M959.94 529.55l7.43-9.89 7.43 9.89h-14.86zm0 30.41l7.43 9.96 7.43-9.96h-14.86z"/>
  <path class="q" d="M967.37 527v35.91"/>
  <path class="af" d="M815.7 611.71c14.84 0 26.88-7 26.88-15.52 0-7.34-8.86-13.55-20.75-15.14-.22-15.59-22.18-28.16-49.2-28.16-18.55 0-34.67 5.91-43.08 14.69a36.07 36.07 0 00-8.32-1c-10.68 0-19.46 4.61-20.74 10.52-13.86 1.59-24.3 8.63-24.3 17.11 0 9.61 13.55 17.41 30.2 17.41 4.62.07 106.13.07 109.31.07z"/>
  <text class="c" transform="translate(747.07 582.3)">
    public<tspan x="-6.12" y="15.6">in</tspan><tspan x="6.54" y="15.6" letter-spacing="-.02em">t</tspan><tspan x="11.82" y="15.6">e</tspan><tspan class="am" x="19.91" y="15.6">r</tspan><tspan class="ai" x="25.3" y="15.6">n</tspan><tspan x="34.27" y="15.6">et</tspan>
  </text>
  <path class="ag" d="M687.5 559.96l7.42 9.96 7.43-9.96H687.5zm0-30.41l7.42-9.89 7.43 9.89H687.5z"/>
  <path class="q" d="M694.92 527v35.91"/>
  <path class="ag" d="M825.62 563.96l7.43 9.96 7.42-9.96h-14.85zm0-34.41l7.43-9.89 7.42 9.89h-14.85z"/>
  <path class="q" d="M833.05 529v35.91"/>
  <text class="c" transform="translate(136.76 130.2)">
    /826920578209172635
  </text>
  <path class="as" d="M182.61 286.5l5.57 9.65 5.58-9.65z"/>
  <path class="ar" d="M188.26 218.79l-.08 69.33"/>
  <path class="as" d="M271.81 286.5l5.58 9.65 5.61-9.65z"/>
  <path class="ar" d="M277.46 217.94l-.07 70.18"/>
  <path class="p" d="M237.24 181.11l-.08 35.68m-48.77 1.19h88.23"/>
  <path class="ar" d="M330.07 95.66l-.07 55.19"/>
  <path class="as" d="M324.47 148.21l5.58 9.66 5.57-9.66z"/>
  <text class="c" transform="translate(319 251.25)">
    /826920578209172635
  </text>
  <path class="r" d="M11.84 442h185.92v25.34H11.84z"/>
  <text class="ah" transform="translate(51.94 458.61)">
    network ruleset
  </text>
  <path class="as" d="M182.61 429.36l5.57 9.65 5.58-9.65z"/>
  <path class="ar" d="M188.26 322.2l-.08 108.8"/>
  <path class="ae" d="M144.31 477.33h53.37v28.93h-53.37v-28.93z"/>
  <text class="ah" transform="translate(157.88 496.73)">
    pod
  </text>
  <path class="ae" d="M78.14 477.33h53.37v28.93H78.14v-28.93z"/>
  <text class="ah" transform="translate(91.71 496.73)">
    pod
  </text>
  <path class="ae" d="M11.84 477.33h53.37v28.93H11.84v-28.93z"/>
  <text class="ah" transform="translate(25.41 496.73)">
    pod
  </text>
  <path class="r" d="M11.84 298.45h187.83v25.34H11.84z"/>
  <text class="ah" transform="translate(51.94 315.03)">
    network ruleset
  </text>
  <path class="r" d="M134.78 160.64h204.84V186H134.78z"/>
  <text class="ah" transform="translate(184.06 177.1)">
    network ruleset
  </text>
  <path class="r" d="M544 300h195.7v25.34H544z"/>
  <text class="ah" transform="translate(588.69 316.58)">
    network ruleset
  </text>
  <text class="c" transform="translate(544.37 251.25)">
    /826920578209172635
  </text>
  <path class="ar" d="M730.18 218.79l-.08 70.09"/>
  <path class="as" d="M724.53 287.26l5.57 9.66 5.58-9.66z"/>
  <path class="p" d="M773.44 181.87l-.08 35.69m-43.1 1.19h85.66"/>
  <path class="b" d="M912.74 321.75l-.08 64.78"/>
  <path class="q" d="M902.47 292.65h2.23"/>
  <path class="a" d="M790.91 229.7h215.58v107.17H790.91z"/>
  <path class="b" d="M912.74 184.35l-.08 64.78"/>
  <path class="r" d="M808.14 442h185.92v25.34H808.14z"/>
  <text class="ah" transform="translate(846.33 458.61)">
    network ruleset
  </text>
  <path class="ae" d="M940.68 477.33h53.38v28.93h-53.38v-28.93z"/>
  <text class="ah" transform="translate(954.25 496.73)">
    pod
  </text>
  <path class="ae" d="M872.53 477.33h53.37v28.93h-53.37v-28.93z"/>
  <text class="ah" transform="translate(886.1 496.73)">
    pod
  </text>
  <path class="ae" d="M806.36 477.33h53.37v28.93h-53.37v-28.93z"/>
  <text class="ah" transform="translate(819.93 496.73)">
    pod
  </text>
  <path class="ar" d="M815.88 218.79l-.08 70.09"/>
  <path class="as" d="M810.23 287.26l5.57 9.66 5.58-9.66zM810.23 429.36l5.57 9.64 5.58-9.65z"/>
  <path class="ar" d="M815.88 316.63L815.8 431"/>
  <path class="r" d="M806.23 299.11h187.83v25.34H806.23z"/>
  <text class="ah" transform="translate(846.33 315.69)">
    network ruleset
  </text>
  <path class="r" d="M670.42 160.64h204.84V186H670.42z"/>
  <text class="ah" transform="translate(719.7 177.1)">
    network ruleset
  </text>
  <text class="ba" transform="translate(136.76 149.34)">
    /aws-dev-826088932159
  </text>
  <text class="ba" transform="translate(305.24 269.41)">
    /aws-dev-826088932159
  </text>
  <text class="c" transform="translate(12.23 251.25)">
    /826920578209172635
  </text>
  <text class="ba" transform="translate(12.23 269.41)">
    /aws-dev-826088932159
  </text>
  <text class="ba" transform="translate(12.23 287.57)">
    /k8s-cluster
  </text>
  <text class="be" transform="translate(437.88 287.57)">
    /vm
  </text>
  <text class="ba" transform="translate(12.23 429.02)">
    /k8s-namespace
  </text>
  <g>
    <path class="ae" d="M543.91 337.51h195.77v162.23H543.91V337.51z"/>
    <text class="ah" transform="translate(605.43 398.4)">
      <tspan class="ai">m</tspan><tspan x="13.75" y="0">o</tspan><tspan class="ai" x="22.14" y="0">n</tspan><tspan x="31.11" y="0">olithic</tspan><tspan class="o" x="20.19" y="15.6">w</tspan><tspan x="31.95" y="15.6">eb </tspan><tspan x="-1.25" y="31.2">application</tspan>
    </text>
  </g>
  <text class="ba" transform="translate(544.37 269.41)">
    /aws-prod-826088932159
  </text>
  <text class="be" transform="translate(544.37 287.57)">
    /vm
  </text>
  <text class="ba" transform="translate(709.76 149.34)">
    /aws-prod-826088932159
  </text>
  <g>
    <text class="c" transform="translate(849.55 251.25)">
      /826920578209172635
    </text>
    <text class="ba" transform="translate(828.55 269.41)">
      /aws-prod-826088932159
    </text>
    <text class="ba" transform="translate(915.17 287.57)">
      /k8s-cluster
    </text>
  </g>
  <g>
    <text class="c" transform="translate(849.55 373.04)">
      /826920578209172635
    </text>
    <text class="ba" transform="translate(828.55 391.2)">
      /aws-prod-826088932159
    </text>
    <text class="ba" transform="translate(915.17 409.36)">
      /k8s-cluster
    </text>
  </g>
  <text class="ba" transform="translate(883.27 428.66)">
    /k8s-namespace
  </text>
  <g>
    <text class="c" transform="translate(12.23 373.04)">
      /826920578209172635
    </text>
    <text class="ba" transform="translate(12.23 391.2)">
      /aws-dev-826088932159
    </text>
    <text class="ba" transform="translate(12.23 409.36)">
      /k8s-cluster
    </text>
  </g>
</svg>
