<svg xmlns="http://www.w3.org/2000/svg" viewBox="0 0 1217.22 445.52">
  <defs>
    <style>
      @import url('https://fonts.googleapis.com/css?family=Montserrat|Montserrat:600');
      .n {
        fill: none;
        stroke-linecap: round;
        stroke-linejoin: round
      }
      .b {
        fill: #eaebeb
      }
      .c {
        isolation: isolate
      }
      .aa,
      .af,
      .c {
        font-size: 13px
      }
      .aa,
      .af,
      .ai,
      .c {
        font-family: Montserrat-SemiBold, Montserrat, Helvetica, Arial, sans-serif;
        font-weight: 600
      }
      .m {
        letter-spacing: -0.01em
      }
      .n,
      .r {
        stroke: #000
      }
      .n {
        stroke-width: 4px
      }
      .r {
        fill: #fa582d
      }
      .ah,
      .r {
        stroke-miterlimit: 7
      }
      .s {
        fill: #fff
      }
      .ag {
        fill: #cccaca
      }
      .ah {
        fill: #ffea8f;
        stroke: #777776;
        stroke-width: 1.63px
      }
      .ai {
        font-size: 12px
      }
    </style>
  </defs>
  <path d="M253.18 42.25h140.5m-141.19.98l-.07 64.78m452.32-65.76l-.07 64.37M549.53 42.25h154.98M101.67 123.9h54.46m-54.46 0l-.07 86.23m258.59-86.23l-.07 84.62m-54-84.62h54.07m253.15 0h54.45m-56.45 0l-.08 80.43m260.59-80.43l-.07 82.85m-54-82.85h54.07" stroke="#eaebeb" stroke-width="2.97" fill="none" stroke-linecap="round" stroke-linejoin="round"/>
  <path class="b" d="M128.36 76.39h203.03v74.54H128.36zM388.02 0h177.42v60.14H388.02z"/>
  <text class="c" transform="translate(404.68 34.72)">
    /826920578209172635
  </text>
  <path class="b" d="M640.19 73.97h203.03v74.54H640.19z"/>
  <path class="n" d="M101.49 372.73l.05-81.31"/>
  <path d="M109.52 293.76l-7.97-13.82-7.99 13.81 15.96.01z"/>
  <text class="c" transform="translate(60.72 426.47)">
    DaemonSet
  </text>
  <text class="c" transform="translate(855.63 426.47)">
    host
  </text>
  <path class="n" d="M614.22 376.21l-495.34-.36"/>
  <path class="b" d="M0 188.41h203.03v84.27H0z"/>
  <path class="n" d="M614.58 375.1l.05-85.3"/>
  <path d="M622.61 292.14l-7.97-13.82-7.99 13.81 15.96.01z"/>
  <path class="n" d="M870.38 370.63l.05-82.22"/>
  <path d="M878.41 290.74l-7.97-13.82-7.99 13.82h15.96z"/>
  <path class="n" d="M851.05 399.47l-493.09-.36m.09-1.22l.05-108.09"/>
  <path d="M366.07 292.14l-7.97-13.82-7.98 13.81 15.95.01z"/>
  <path class="r" d="M80.53 368.65h42v40.09h-42z"/>
  <path class="s" d="M102.31 374.67l11.81 5.33v7.87a16.35 16.35 0 01-3.38 10 14.74 14.74 0 01-8.43 5.75 14.68 14.68 0 01-8.42-5.75 16.3 16.3 0 01-3.39-10V380zm0 14.46v11.74a12.56 12.56 0 006.15-4.4 14.43 14.43 0 003-7.34zm0 0v-11.57l-9.16 4.06v7.51z"/>
  <path class="r" d="M849.42 368.65h42v40.09h-42z"/>
  <path class="s" d="M871.2 374.67L883 380v7.87a16.35 16.35 0 01-3.38 10 9 9 0 01-16.85 0 16.29 16.29 0 01-3.38-10V380zm0 14.46v11.74a12.56 12.56 0 006.15-4.4 14.53 14.53 0 003-7.34zm0 0v-11.57l-9.2 4.06v7.51z"/>
  <text class="c" transform="translate(10.4 212.19)">
    /826920578209172635
  </text>
  <text class="aa" transform="translate(10.4 245.77)">
    /k8s
  </text>
  <text class="aa" transform="translate(10.4 228.41)">
    /aws-dev-826088932159
  </text>
  <text class="c" transform="translate(147.08 109.35)">
    /826920578209172635
  </text>
  <text class="aa" transform="translate(147.08 125.57)">
    /aws-dev-826088932159
  </text>
  <text class="c" transform="translate(655.3 106.93)">
    /826920578209172635
  </text>
  <text class="aa" transform="translate(655.3 123.15)">
    /aws-prod-826088932159
  </text>
  <path class="b" d="M256.52 188.41h203.03v84.27H256.52z"/>
  <text class="c" transform="translate(272.25 212.18)">
    /826920578209172635
  </text>
  <text class="af" transform="translate(272.25 245.77)">
    /vm
  </text>
  <text class="aa" transform="translate(272.25 228.41)">
    /aws-dev-826088932159
  </text>
  <path class="b" d="M513.17 188.41H716.2v84.27H513.17z"/>
  <text class="c" transform="translate(525.09 212.19)">
    /826920578209172635
  </text>
  <text class="aa" transform="translate(525.09 245.77)">
    /k8s
  </text>
  <text class="aa" transform="translate(525.09 228.41)">
    /aws-prod-826088932159
  </text>
  <path class="b" d="M769.11 188.41h203.03v84.27H769.11z"/>
  <text class="c" transform="translate(779.94 212.19)">
    /826920578209172635
  </text>
  <text class="af" transform="translate(779.94 245.77)">
    /vm
  </text>
  <text class="aa" transform="translate(779.94 228.41)">
    /aws-prod-826088932159
  </text>
  <path class="ag" d="M203 215.96l-1.44 3.99 1.24 29.5 2.88-1.92-2.68-31.57zm38.06 36.44l-2.57.17-19.08 17.14 3.33 1.02 18.32-18.33zm.58 19.89l-2.2-.49-18.91 11 3.04 1.69 18.07-12.2z"/>
  <path class="ag" d="M242.79 303.92l5.16 2.66-24.21-25.96-1.08 3.29 20.13 20.01z"/>
  <path class="ag" d="M248.22 306.58l-11.32-5.81-22.93-11.46.27 3.45 33.98 13.82z"/>
  <path class="ag" d="M215.82 300.95l1.76 2.69-.69-12.7-4.36-2.48 3.29 12.49zm-38.59 3.77l.4 5.59 14.1-17.43-3.71-2.52-10.79 14.36zm-26.89-16.67l-4.58 2.49 31.69-.96-.02-3.25-27.09 1.72zm47.26 10.4l1.09 2.5 4.24-10.23-2.04-1.37-3.29 9.1z"/>
  <path class="ag" d="M198.73 301l-2-4.27-7.84-9-2.06 1.74zm18.85 2.71l-1.31-3.16-14.74-9.74-2.24 1.89 18.29 11.01zm3.01-68.68l-1.85 1.45-7.66 22.33 3.41-.68 6.1-23.1z"/>
  <path class="ah" d="M201.07 223.08l-11.82 27.49-12-12.93.14 18.86-25.83-9.53 18.64 17.83-11.54 6.2 13.81 4.71-19.81 11.89 24.73-1.76.69 18.21 10.82-16.32 8.44 9.27 3.34-7.73 13.88 9.81-1.98-10.95 25.74 12.54-18.38-18.45 17.26-9.91-18.47-2.88 17.16-15.59-25.45 4.2 6.7-19.34-14.18 10.89-1.89-26.51z"/>
  <text class="ai" transform="translate(174.8 268.56)">
    create
  </text>
  <text class="ai" transform="translate(186.42 282)">
    me!
  </text>
  <g>
    <path class="ag" d="M458.74 215.96l-1.45 3.99 1.24 29.5 2.89-1.92-2.68-31.57zm38.06 36.44l-2.58.17-19.07 17.14 3.32 1.02 18.33-18.33zm.57 19.89l-2.2-.49-18.9 11 3.03 1.69 18.07-12.2z"/>
    <path class="ag" d="M498.53 303.92l5.15 2.66-24.21-25.96-1.07 3.29 20.13 20.01z"/>
    <path class="ag" d="M503.95 306.58l-11.31-5.81-22.94-11.46.27 3.45 33.98 13.82z"/>
    <path class="ag" d="M471.56 300.95l1.75 2.69-.68-12.7-4.36-2.48 3.29 12.49zm-38.59 3.77l.4 5.59 14.1-17.43-3.72-2.52-10.78 14.36zm-26.89-16.67l-4.58 2.49 31.69-.96-.02-3.25-27.09 1.72zm47.26 10.4l1.09 2.5 4.24-10.23-2.05-1.37-3.28 9.1z"/>
    <path class="ag" d="M454.47 301l-2-4.27-7.84-9-2.06 1.74zm18.84 2.71l-1.31-3.16-14.73-9.74-2.25 1.89 18.29 11.01zm3.02-68.68l-1.85 1.45-7.66 22.33 3.4-.68 6.11-23.1z"/>
    <path class="ah" d="M456.81 223.08l-11.83 27.49-11.99-12.93.14 18.86-25.83-9.53 18.63 17.83-11.53 6.2 13.81 4.71-19.82 11.89 24.73-1.76.7 18.21 10.81-16.32 8.44 9.27 3.34-7.73 13.89 9.81-1.98-10.95 25.74 12.54-18.38-18.45 17.25-9.91-18.46-2.88 17.15-15.59-25.44 4.2 6.7-19.34-14.19 10.89-1.88-26.51z"/>
    <text class="ai" transform="translate(430.53 268.56)">
      create
    </text>
    <text class="ai" transform="translate(442.16 282)">
      me!
    </text>
  </g>
  <g>
    <path class="ag" d="M716.01 215.96l-1.45 3.99 1.24 29.5 2.89-1.92-2.68-31.57zm38.06 36.44l-2.58.17-19.07 17.14 3.32 1.02 18.33-18.33zm.57 19.89l-2.2-.49-18.9 11 3.03 1.69 18.07-12.2z"/>
    <path class="ag" d="M755.8 303.92l5.15 2.66-24.21-25.96-1.07 3.29 20.13 20.01z"/>
    <path class="ag" d="M761.22 306.58l-11.32-5.81-22.93-11.46.27 3.45 33.98 13.82z"/>
    <path class="ag" d="M728.83 300.95l1.75 2.69-.69-12.7-4.35-2.48 3.29 12.49zm-38.59 3.77l.39 5.59 14.11-17.43-3.72-2.52-10.78 14.36zm-26.89-16.67l-4.58 2.49 31.69-.96-.02-3.25-27.09 1.72zm47.26 10.4l1.09 2.5 4.24-10.23-2.05-1.37-3.28 9.1z"/>
    <path class="ag" d="M711.74 301l-2-4.27-7.85-9-2.06 1.74zm18.84 2.71l-1.31-3.16-14.73-9.74-2.25 1.89 18.29 11.01zm3.02-68.68l-1.85 1.45-7.66 22.33 3.4-.68 6.11-23.1z"/>
    <path class="ah" d="M714.08 223.08l-11.83 27.49-11.99-12.93.14 18.86-25.83-9.53 18.63 17.83-11.54 6.2 13.82 4.71-19.82 11.89 24.73-1.76.7 18.21 10.81-16.32 8.44 9.27 3.34-7.73 13.88 9.81-1.97-10.95 25.74 12.54-18.38-18.45 17.25-9.91-18.46-2.88 17.15-15.59-25.44 4.2 6.7-19.34-14.19 10.89-1.88-26.51z"/>
    <text class="ai" transform="translate(687.8 268.56)">
      create
    </text>
    <text class="ai" transform="translate(699.42 282)">
      me!
    </text>
  </g>
  <g>
    <path class="ag" d="M971.24 215.96l-1.45 3.99 1.24 29.5 2.89-1.92-2.68-31.57zm38.06 36.44l-2.58.17-19.07 17.14 3.32 1.02 18.33-18.33zm.57 19.89l-2.2-.49-18.9 11 3.03 1.69 18.07-12.2z"/>
    <path class="ag" d="M1011.03 303.92l5.15 2.66-24.21-25.96-1.07 3.29 20.13 20.01z"/>
    <path class="ag" d="M1016.46 306.58l-11.32-5.81-22.94-11.46.27 3.45 33.99 13.82z"/>
    <path class="ag" d="M984.06 300.95l1.75 2.69-.68-12.7-4.36-2.48 3.29 12.49zm-38.59 3.77l.4 5.59 14.1-17.43-3.72-2.52-10.78 14.36zm-26.89-16.67l-4.58 2.49 31.69-.96-.02-3.25-27.09 1.72zm47.26 10.4l1.09 2.5 4.24-10.23-2.05-1.37-3.28 9.1z"/>
    <path class="ag" d="M967 301l-2-4.27-7.84-9-2.06 1.74zm18.81 2.71l-1.31-3.16-14.73-9.74-2.25 1.89 18.29 11.01zm3.02-68.68l-1.85 1.45-7.66 22.33 3.4-.68 6.11-23.1z"/>
    <path class="ah" d="M969.31 223.08l-11.83 27.49-11.99-12.93.14 18.86-25.83-9.53 18.63 17.83-11.53 6.2 13.81 4.71-19.82 11.89 24.73-1.76.7 18.21 10.81-16.32 8.44 9.27 3.34-7.73 13.88 9.81-1.97-10.95 25.74 12.54-18.38-18.45 17.25-9.91-18.46-2.88 17.15-15.59-25.44 4.2 6.7-19.34-14.19 10.89-1.88-26.51z"/>
    <text class="ai" transform="translate(943.03 268.56)">
      create
    </text>
    <text class="ai" transform="translate(954.66 282)">
      me!
    </text>
  </g>
  <text class="aa" transform="translate(73.53 442.4)">
    enforcer
  </text>
  <text class="aa" transform="translate(844.8 440.53)">
    enforcer
  </text>
  <g>
    <path class="ag" d="M858.74 9.41l-1.45 3.99 1.24 29.5 2.89-1.92-2.68-31.57zm38.06 36.43l-2.58.18-19.07 17.14 3.32 1.02 18.33-18.34zm.57 19.9l-2.2-.5-18.9 11 3.03 1.7 18.07-12.2z"/>
    <path class="ag" d="M898.53 97.36l5.15 2.67-24.21-25.97-1.07 3.3 20.13 20z"/>
    <path class="ag" d="M903.96 100.03l-11.32-5.81-22.94-11.47.27 3.46 33.99 13.82z"/>
    <path class="ag" d="M871.56 94.39l1.75 2.7-.68-12.7-4.36-2.48 3.29 12.48zm-38.59 3.77l.4 5.59 14.1-17.42-3.72-2.53-10.78 14.36zM806.08 81.5l-4.58 2.48 31.69-.96-.02-3.24-27.09 1.72zm47.26 10.4l1.09 2.5 4.24-10.24-2.05-1.36-3.28 9.1z"/>
    <path class="ag" d="M854.47 94.41l-2-4.26-7.84-9-2.06 1.74zm18.84 2.75L872 94l-14.73-9.74-2.25 1.88 18.29 11.02zm3.02-68.69l-1.85 1.45-7.66 22.34 3.4-.68 6.11-23.11z"/>
    <path class="ah" d="M856.81 16.52l-11.83 27.5-11.99-12.94.14 18.87-25.83-9.54 18.63 17.83-11.53 6.21 13.81 4.7-19.82 11.9 24.73-1.76.7 18.21 10.81-16.33 8.44 9.28 3.34-7.73 13.88 9.8-1.97-10.95 25.74 12.55-18.38-18.46 17.25-9.91-18.46-2.87 17.15-15.6-25.44 4.21 6.7-19.35-14.19 10.9-1.88-26.52z"/>
    <text class="ai" transform="translate(827.1 62.01)">
      create2
    </text>
    <text class="ai" transform="translate(842.16 75.44)">
      me!
    </text>
  </g>
  <g>
    <path class="ag" d="M150.51 2.51l-1.45 3.99L150.3 36l2.88-1.92-2.67-31.57zm38.05 36.43l-2.57.18-19.07 17.14 3.32 1.02 18.32-18.34zm.58 19.9l-2.2-.5-18.91 11 3.04 1.7 18.07-12.2z"/>
    <path class="ag" d="M190.29 90.46l5.16 2.67-24.21-25.97-1.08 3.3 20.13 20z"/>
    <path class="ag" d="M195.72 93.13l-11.32-5.81-22.93-11.47.27 3.46 33.98 13.82z"/>
    <path class="ag" d="M163.32 87.5l1.76 2.69-.69-12.71-4.36-2.47 3.29 12.49zm-38.59 3.76l.4 5.59 14.1-17.42-3.71-2.53-10.79 14.36zM97.84 74.6l-4.58 2.48 31.69-.96-.01-3.24-27.1 1.72zM145.1 85l1.09 2.5 4.25-10.23-2.05-1.37-3.29 9.1z"/>
    <path class="ag" d="M146.23 87.51c-.5-1.06-1.5-3.2-2-4.26l-7.85-9-2.05 1.75zm18.85 2.75l-1.31-3.16-14.73-9.74-2.25 1.88 18.29 11.02zm3.01-68.69l-1.85 1.45-7.65 22.34 3.4-.68 6.1-23.11z"/>
    <path class="ah" d="M148.57 9.62l-11.82 27.5-11.99-12.94.13 18.87-25.83-9.54 18.64 17.83-11.54 6.21 13.81 4.7-19.81 11.9 24.73-1.76.69 18.21 10.82-16.33 8.44 9.28 3.34-7.73 13.88 9.8-1.98-10.95 25.74 12.55-18.38-18.46 17.26-9.91-18.47-2.87 17.16-15.6-25.45 4.21 6.71-19.35-14.19 10.9-1.89-26.52z"/>
    <text class="ai" transform="translate(118.87 55.11)">
      create2
    </text>
    <text class="ai" transform="translate(133.92 68.54)">
      me!
    </text>
  </g>
</svg>
