<svg version="1.1" id="namespace-simple"
    xmlns="http://www.w3.org/2000/svg" width="550" height="405" viewBox="100 0 450 535" xml:space="preserve">
    <style>
      @import url('https://fonts.googleapis.com/css?family=Open+Sans');
      .st0 {
        fill: #e8e8e8
      }
      .st1 {
        font-family: &apos;Open Sans&apos;, sans-serif;
      }
      .st2 {
        font-size: 18px
      }
      .st3 {
        fill: #6ea6ff
      }
      .st4 {
        fill: #231f20
      }
      .st5 {
        fill: #0530ad
      }
      .st6 {
        fill: #fff
      }
      .st7 {
        fill: #c9deff
      }
      .st8,
      .st9 {
        stroke-linecap: round;
        stroke-linejoin: round;
        stroke-miterlimit: 17.234
      }
      .st8 {
        fill: none;
        stroke: #e8e8e8;
        stroke-width: 4
      }
      .st9 {
        stroke: #585959;
        stroke-width: 3
      }
      .st10,
      .st9 {
        fill: #585959
      }
      .st11 {
        fill: none;
        stroke: #585959;
        stroke-width: 3;
        stroke-linecap: round;
        stroke-linejoin: round
      }
      .st12 {
        fill: #424a60
      }
      .st13 {
        fill: #b3bcf5
      }
      .st14 {
        fill: #3dbb61;
        stroke-linecap: round;
        stroke-linejoin: round
      }
      .st14,
      .st16,
      .st18 {
        stroke: #3dbb61;
        stroke-width: 4
      }
      .st16 {
        stroke-miterlimit: 10;
        fill: #3dbb61
      }
      .st18 {
        fill: none;
        stroke-linecap: round;
        stroke-linejoin: round;
        stroke-dasharray: 6, 5.727
      }
      .st19 {
        fill: #3dbb61
      }
    </style>
    <switch>
        <g>
            <path class="st0" d="M440.1 158.2H666v188.3H440.1zM305.7 0h221v97h-221zM164.6 158.2h225.9v188.3H164.6z"/>
            <text transform="translate(387.494 29.45)" class="st1 st2">/acme</text>
            <text transform="translate(556.1 189.113)" class="st1 st2">/acme/prod</text>
            <text transform="translate(180.395 189.113)" class="st1 st2">/acme/dev</text>
            <path class="st3" d="M180.7 211.4h195v34.1h-195z"/>
            <text transform="translate(249.805 234.059)" class="st4 st1 st2">policy</text>
            <path class="st5" d="M24.9 16h40v38.2h-40z"/>
            <path class="st6" d="M44.7 28c1.1 0 2 .9 2 2s-.9 2-2 2-2-.9-2-2 .9-2 2-2zm0 10c2.7 0 5.8 1.3 6 2h-12c.2-.7 3.3-2 6-2zm0-12c-2.2 0-4 1.8-4 4s1.8 4 4 4 4-1.8 4-4-1.8-4-4-4zm0 10c-2.7 0-8 1.3-8 4v2h16v-2c0-2.7-5.4-4-8-4z"/>
            <text transform="translate(8.28 76.76)" class="st1 st2">operator</text>
            <path class="st5" d="M24.9 237.2h40v38.2h-40z"/>
            <path class="st6" d="M44.7 249.2c1.1 0 2 .9 2 2s-.9 2-2 2-2-.9-2-2 .9-2 2-2zm0 10c2.7 0 5.8 1.3 6 2h-12c.2-.7 3.3-2 6-2zm0-12c-2.2 0-4 1.8-4 4s1.8 4 4 4 4-1.8 4-4-1.8-4-4-4zm0 10c-2.7 0-8 1.3-8 4v2h16v-2c0-2.6-5.4-4-8-4z"/>
            <text transform="translate(2.267 304.033)" class="st1 st2">developer</text>
            <path class="st7" d="M483.4 466.8c19.6 0 35.5-9.2 35.5-20.5 0-9.7-11.7-17.9-27.4-20-.3-20.6-29.3-37.2-65-37.2-24.5 0-45.8 7.8-56.9 19.4-3.4-.8-7.1-1.3-11-1.3-14.1 0-25.7 6.1-27.4 13.9-18.3 2.1-32.1 11.4-32.1 22.6 0 12.7 17.9 23 39.9 23 6.1.1 140.2.1 144.4.1z"/>
            <text transform="translate(386.907 442.206)" class="st1 st2">internet</text>
            <path class="st8" d="M231.8 80.8h117.7M603.6 80.8l-.1 77.4M232.6 80.8l-.1 87.2"/>
            <path class="st9" d="M416 81.8l-.1 45.4M320.3 128.8h185.1"/>
            <path class="st10" d="M320.3 128.8l-.1 79.5"/>
            <path class="st11" d="M320.3 128.8l-.1 68.7"/>
            <path class="st10" d="M312.7 195.3l7.5 13 7.5-13zM505.4 128.8l-.1 79.5"/>
            <path class="st11" d="M505.4 128.8l-.1 68.7"/>
            <path class="st10" d="M497.8 195.3l7.5 13 7.5-13z"/>
            <path class="st8" d="M485.9 80.8h117.7"/>
            <path class="st12" d="M259.3 425.1c-1.2-4.1-18.3-7.4-39.2-7.4s-38.1 3.3-39.2 7.4h-.1v34.4h.1c1.2 4.1 18.3 7.4 39.2 7.4s38.1-3.3 39.2-7.4h.1v-33.9l-.1-.5z"/>
            <path class="st13" d="M220 455.7c-21.7 0-39.4-3.5-39.4-7.8v11.6h.1c1.2 4.1 18.3 7.4 39.2 7.4s38.1-3.3 39.2-7.4h.1v-11.6c.1 4.2-17.5 7.8-39.2 7.8zM180.7 447.3v0zM259.3 447.3c.1.2.1.3.1.5l-.1-.5z"/>
            <path class="st13" d="M220 444.6c-21.7 0-39.4-3.5-39.4-7.8v11.6h.1c1.2 4.1 18.3 7.4 39.2 7.4s38.1-3.3 39.2-7.4h.1v-11.6c.1 4.2-17.5 7.8-39.2 7.8zM180.7 436.2v0zM259.3 436.2c.1.2.1.3.1.5l-.1-.5z"/>
            <ellipse class="st7" cx="220" cy="425.6" rx="39.4" ry="7.8"/>
            <path class="st13" d="M220 433.5c-21.7 0-39.4-3.5-39.4-7.8v11.6h.1c1.2 4.1 18.3 7.4 39.2 7.4s38.1-3.3 39.2-7.4h.1v-11.6c.1 4.2-17.5 7.8-39.2 7.8zM180.7 425.1v0zM259.3 425.1c.1.2.1.3.1.5l-.1-.5z"/>
            <path class="st14" d="M72.6 34.9h2.6"/>
            <path fill="#3dbb61" stroke="#3dbb61" stroke-width="4" stroke-linecap="round" stroke-linejoin="round" stroke-dasharray="5.9321,5.9321" d="M80.4 34.9l204.1.2"/>
            <path class="st14" d="M287.1 35.1h2.7"/>
            <path class="st16" d="M287.8 42.6l11.3-7.5-11.3-7.5z"/>
            <path class="st14" d="M72.6 256.2h3"/>
            <path fill="#3dbb61" stroke="#3dbb61" stroke-width="4" stroke-linecap="round" stroke-linejoin="round" stroke-dasharray="6.2606,6.2606" d="M81.8 256.2l59.5.1"/>
            <path class="st14" d="M144.4 256.3h3"/>
            <path class="st16" d="M145.2 263.7l13-7.4-13-7.5z"/>
            <g>
                <path class="st12" d="M651.4 425.1c-1.2-4.1-18.3-7.4-39.2-7.4-20.9 0-38.1 3.3-39.2 7.4h-.1v34.4h.1c1.2 4.1 18.3 7.4 39.2 7.4 20.9 0 38.1-3.3 39.2-7.4h.1v-33.9l-.1-.5z"/>
                <path class="st13" d="M612.1 455.7c-21.7 0-39.4-3.5-39.4-7.8v11.6h.1c1.2 4.1 18.3 7.4 39.2 7.4 20.9 0 38.1-3.3 39.2-7.4h.1v-11.6c.2 4.2-17.4 7.8-39.2 7.8zM572.8 447.3v0zM651.4 447.3c.1.2.1.3.1.5l-.1-.5z"/>
                <path class="st13" d="M612.1 444.6c-21.7 0-39.4-3.5-39.4-7.8v11.6h.1c1.2 4.1 18.3 7.4 39.2 7.4 20.9 0 38.1-3.3 39.2-7.4h.1v-11.6c.2 4.2-17.4 7.8-39.2 7.8zM572.8 436.2v0zM651.4 436.2c.1.2.1.3.1.5l-.1-.5z"/>
                <ellipse class="st7" cx="612.1" cy="425.6" rx="39.4" ry="7.8"/>
                <g>
                    <path class="st13" d="M612.1 433.5c-21.7 0-39.4-3.5-39.4-7.8v11.6h.1c1.2 4.1 18.3 7.4 39.2 7.4 20.9 0 38.1-3.3 39.2-7.4h.1v-11.6c.2 4.2-17.4 7.8-39.2 7.8zM572.8 425.1v0zM651.4 425.1c.1.2.1.3.1.5l-.1-.5z"/>
                </g>
            </g>
            <path class="st13" d="M284.5 261.1h90v72.7h-90v-72.7z"/>
            <text transform="translate(303.3 293.45)" class="st4 st1 st2">web</text>
            <text transform="translate(303.3 315.05)" class="st4 st1 st2">server</text>
            <path class="st13" d="M180.4 261.1h90v72.7h-90v-72.7z"/>
            <text transform="translate(189.01 293.45)" class="st4 st1 st2">backend</text>
            <text transform="translate(189.01 315.05)" class="st4 st1 st2">app</text>
            <path class="st13" d="M560.6 261.1h90v72.7h-90v-72.7zM457.6 261.1h90v72.7h-90v-72.7z"/>
            <text transform="translate(571.358 292.55)" class="st4 st1 st2">backend</text>
            <text transform="translate(571.358 314.15)" class="st4 st1 st2">app</text>
            <text transform="translate(471.967 292.55)" class="st4 st1 st2">web</text>
            <text transform="translate(471.967 314.15)" class="st4 st1 st2">server</text>
            <path class="st3" d="M457.6 211.4h195v34.1h-195z"/>
            <text transform="translate(526.684 234.059)" class="st4 st1 st2">policy</text>
            <path class="st3" d="M318.4 47.7h195v34.1h-195z"/>
            <text transform="translate(387.495 70.359)" class="st4 st1 st2">policy</text>
            <g>
                <path class="st18" d="M216 352.3v48.3"/>
                <path class="st19" d="M206 355.2l10-17.2 10 17.2zM206 397.6l10 17.3 10-17.3z"/>
            </g>
            <g>
                <path class="st18" d="M622.5 352.3v48.3"/>
                <path class="st19" d="M612.5 355.2l10-17.2 10 17.2zM612.5 397.6l10 17.3 10-17.3z"/>
            </g>
            <g>
                <path class="st18" d="M496.4 352.3v48.3"/>
                <path class="st19" d="M486.4 355.2l10-17.2 10 17.2zM486.4 397.6l10 17.3 10-17.3z"/>
            </g>
        </g>
    </switch>
</svg>