<?xml version="1.0" encoding="utf-8"?>
<!-- Generator: Adobe Illustrator 24.3.0, SVG Export Plug-In . SVG Version: 6.00 Build 0)  -->
<svg version="1.1" id="Layer_1" xmlns="http://www.w3.org/2000/svg" xmlns:xlink="http://www.w3.org/1999/xlink" x="0px" y="0px"
	 viewBox="0 0 1000 448" style="enable-background:new 0 0 1000 448;" xml:space="preserve">
<style type="text/css">
	.st0{fill:#FFFFFF;}
	.st1{fill:#F2F4F8;}
	.st2{fill:#004C9D;}
	.st3{fill-rule:evenodd;clip-rule:evenodd;fill:#FFFFFF;}
	.st4{fill:#0062FF;}
	.st5{fill:#13171A;}
	.st6{fill:#9FA5AD;}
	.st7{font-family:'OpenSans-Bold';}
	.st8{font-size:18px;}
	.st9{font-size:22px;}
</style>
<rect class="st0" width="1000" height="448"/>
<rect x="371.8" y="40" class="st1" width="255" height="120"/>
<rect x="155" y="249" class="st1" width="318" height="159"/>
<rect x="214" y="313" class="st2" width="40" height="40"/>
<path class="st3" d="M241,326h-14v14h14V326z M239,328h-10v10h10V328z"/>
<path class="st0" d="M229,324v2h2v-2H229z M233,324v2h2v-2H233z M237,324v2h4h-2v-2H237z M225,328v2h3v-2H225z M240,328v2h3v-2H240z
	 M225,332v2h3v-2H225z M240,332v2h3v-2H240z M225,336v2h3v-2H225z M240,336v2h3v-2H240z M229,340v2h2v-2H229z M233,340v2h2v-2H233z
	 M237,340v2h2v-2h2H237z"/>
<path class="st0" d="M231,330h6v6h-6V330z"/>
<path d="M184.7,370.6c-1.2,0-2.1,0.6-2.6,1.6l0,0v-1.4h-1.9v11h1.9v-4.1l0,0c0.5,0.9,1.4,1.5,2.6,1.5c2.1,0,3.4-1.6,3.4-4.3
	C188.2,372.2,186.8,370.6,184.7,370.6z M184.1,377.5c-1.2,0-2-1.1-2-2.7s0.8-2.7,2-2.7c1.3,0,2,1,2,2.7
	C186.2,376.5,185.4,377.5,184.1,377.5z M189.4,379h1.9v-4.8c0-1.2,0.7-1.9,1.8-1.9c0.3,0,0.6,0,0.8,0.1v-1.8c-0.1,0-0.4-0.1-0.6-0.1
	c-1,0-1.7,0.6-2,1.6l0,0v-1.4h-1.9V379z M198.3,379.2c2.4,0,4-1.6,4-4.3c0-2.7-1.6-4.3-4-4.3s-4,1.6-4,4.3
	C194.3,377.5,195.8,379.2,198.3,379.2z M198.3,377.6c-1.2,0-2-1-2-2.8s0.8-2.8,2-2.8s2,1,2,2.8S199.5,377.6,198.3,377.6z
	 M210.8,373.7c-0.1-1.7-1.5-3.1-3.7-3.1c-2.4,0-4,1.7-4,4.3c0,2.7,1.6,4.3,4,4.3c2.1,0,3.5-1.2,3.7-3.1H209
	c-0.2,0.9-0.8,1.5-1.8,1.5c-1.2,0-2-1-2-2.7s0.8-2.7,2-2.7c1,0,1.7,0.7,1.8,1.5L210.8,373.7L210.8,373.7z M217.5,376.5
	c-0.2,0.7-0.9,1.1-1.8,1.1c-1.3,0-2.1-0.9-2.1-2.2v-0.1h5.8v-0.6c0-2.5-1.5-4.1-3.8-4.1c-2.4,0-3.9,1.7-3.9,4.3c0,2.6,1.5,4.3,4,4.3
	c2,0,3.4-1.1,3.7-2.6L217.5,376.5L217.5,376.5z M215.6,372.1c1.1,0,1.9,0.8,1.9,2h-3.9C213.7,372.9,214.5,372.1,215.6,372.1z
	 M220.5,373.1c0,1.2,0.8,2,2.4,2.4l1.4,0.3c0.9,0.2,1.2,0.5,1.2,1c0,0.6-0.6,1-1.5,1c-1,0-1.5-0.4-1.7-1.2h-1.9
	c0.2,1.6,1.4,2.6,3.6,2.6c2,0,3.5-1.1,3.5-2.6c0-1.2-0.7-1.9-2.4-2.2l-1.4-0.3c-0.9-0.2-1.2-0.5-1.2-1c0-0.6,0.6-1,1.4-1
	c0.9,0,1.5,0.5,1.5,1.2h1.8c0-1.6-1.3-2.7-3.3-2.7C221.8,370.5,220.5,371.6,220.5,373.1z M228.4,373.1c0,1.2,0.8,2,2.4,2.4l1.4,0.3
	c0.9,0.2,1.2,0.5,1.2,1c0,0.6-0.6,1-1.5,1c-1,0-1.5-0.4-1.7-1.2h-1.9c0.2,1.6,1.4,2.6,3.6,2.6c2,0,3.5-1.1,3.5-2.6
	c0-1.2-0.7-1.9-2.4-2.2l-1.4-0.3c-0.9-0.2-1.2-0.5-1.2-1c0-0.6,0.6-1,1.4-1c0.9,0,1.5,0.5,1.5,1.2h1.8c0-1.6-1.3-2.7-3.3-2.7
	C229.8,370.5,228.4,371.6,228.4,373.1z M237.6,369.5c0.6,0,1.1-0.5,1.1-1.1s-0.5-1.1-1.1-1.1s-1.1,0.5-1.1,1.1
	S237,369.5,237.6,369.5z M236.6,379h1.9v-8.3h-1.9V379z M240.2,379h1.9v-4.8c0-1.2,0.7-2,1.8-2s1.7,0.7,1.7,1.8v5h1.9v-5.4
	c0-1.9-1-3.1-2.9-3.1c-1.3,0-2.2,0.6-2.6,1.6l0,0v-1.4h-1.9v8.3H240.2z M252.8,382.1c2.4,0,4-1.3,4-3.3v-8.1h-1.9v1.4l0,0
	c-0.5-1-1.4-1.6-2.6-1.6c-2.1,0-3.4,1.6-3.4,4.2s1.4,4.2,3.4,4.2c1.2,0,2.2-0.6,2.6-1.5l0,0v1.4c0,1.1-0.7,1.8-2,1.8
	c-0.9,0-1.6-0.4-1.8-1.1H249C249.2,381.1,250.7,382.1,252.8,382.1z M252.8,377.5c-1.2,0-2-1-2-2.6s0.8-2.7,2-2.7s2,1,2,2.7
	C254.8,376.5,254,377.5,252.8,377.5z M268.9,370.7H267v4.8c0,1.2-0.7,2-1.8,2c-1.1,0-1.7-0.6-1.7-1.8v-5h-1.9v5.4
	c0,1.9,1.1,3.1,2.9,3.1c1.3,0,2.1-0.6,2.5-1.6l0,0v1.4h1.9V370.7z M270.5,379h1.9v-4.8c0-1.2,0.7-2,1.8-2c1.1,0,1.7,0.7,1.7,1.8v5
	h1.9v-5.4c0-1.9-1-3.1-2.9-3.1c-1.3,0-2.2,0.6-2.6,1.6l0,0v-1.4h-1.9v8.3H270.5z M280.4,369.5c0.6,0,1.1-0.5,1.1-1.1
	s-0.5-1.1-1.1-1.1s-1.1,0.5-1.1,1.1C279.4,369,279.8,369.5,280.4,369.5z M279.5,379h1.9v-8.3h-1.9V379z M283.6,368.8v1.9h-1.2v1.5
	h1.2v4.6c0,1.6,0.7,2.2,2.5,2.2c0.4,0,0.8,0,1-0.1v-1.5c-0.1,0-0.4,0-0.6,0c-0.7,0-1-0.3-1-1v-4.3h1.6v-1.5h-1.6v-1.9L283.6,368.8
	L283.6,368.8z"/>
<rect x="375" y="313" class="st2" width="40" height="40"/>
<path class="st3" d="M402,326h-14v14h14V326z M400,328h-10v10h10V328z"/>
<path class="st0" d="M390,324v2h2v-2H390z M394,324v2h2v-2H394z M398,324v2h4h-2v-2H398z M386,328v2h3v-2H386z M401,328v2h3v-2H401z
	 M386,332v2h3v-2H386z M401,332v2h3v-2H401z M386,336v2h3v-2H386z M401,336v2h3v-2H401z M390,340v2h2v-2H390z M394,340v2h2v-2H394z
	 M398,340v2h2v-2h2H398z"/>
<path class="st0" d="M392,330h6v6h-6V330z"/>
<path d="M345.7,370.6c-1.2,0-2.1,0.6-2.6,1.6l0,0v-1.4h-1.9v11h1.9v-4.1l0,0c0.5,0.9,1.4,1.5,2.6,1.5c2.1,0,3.4-1.6,3.4-4.3
	C349.2,372.2,347.8,370.6,345.7,370.6z M345.1,377.5c-1.2,0-2-1.1-2-2.7s0.8-2.7,2-2.7c1.3,0,2,1,2,2.7
	C347.2,376.5,346.4,377.5,345.1,377.5z M350.4,379h1.9v-4.8c0-1.2,0.7-1.9,1.8-1.9c0.3,0,0.6,0,0.8,0.1v-1.8c-0.1,0-0.4-0.1-0.6-0.1
	c-1,0-1.7,0.6-2,1.6l0,0v-1.4h-1.9L350.4,379L350.4,379z M359.3,379.2c2.4,0,4-1.6,4-4.3c0-2.7-1.6-4.3-4-4.3s-4,1.6-4,4.3
	C355.3,377.5,356.8,379.2,359.3,379.2z M359.3,377.6c-1.2,0-2-1-2-2.8s0.8-2.8,2-2.8s2,1,2,2.8S360.5,377.6,359.3,377.6z
	 M371.8,373.7c-0.1-1.7-1.5-3.1-3.7-3.1c-2.4,0-4,1.7-4,4.3c0,2.7,1.6,4.3,4,4.3c2.1,0,3.5-1.2,3.7-3.1H370
	c-0.2,0.9-0.8,1.5-1.8,1.5c-1.2,0-2-1-2-2.7s0.8-2.7,2-2.7c1,0,1.7,0.7,1.8,1.5L371.8,373.7L371.8,373.7z M378.5,376.5
	c-0.2,0.7-0.9,1.1-1.8,1.1c-1.3,0-2.1-0.9-2.1-2.2v-0.1h5.8v-0.6c0-2.5-1.5-4.1-3.8-4.1c-2.4,0-3.9,1.7-3.9,4.3c0,2.6,1.5,4.3,4,4.3
	c2,0,3.4-1.1,3.7-2.6L378.5,376.5L378.5,376.5z M376.6,372.1c1.1,0,1.9,0.8,1.9,2h-3.9C374.7,372.9,375.5,372.1,376.6,372.1z
	 M381.5,373.1c0,1.2,0.8,2,2.4,2.4l1.4,0.3c0.9,0.2,1.2,0.5,1.2,1c0,0.6-0.6,1-1.5,1c-1,0-1.5-0.4-1.7-1.2h-1.9
	c0.2,1.6,1.4,2.6,3.6,2.6c2,0,3.5-1.1,3.5-2.6c0-1.2-0.7-1.9-2.4-2.2l-1.4-0.3c-0.9-0.2-1.2-0.5-1.2-1c0-0.6,0.6-1,1.4-1
	c0.9,0,1.5,0.5,1.5,1.2h1.8c0-1.6-1.3-2.7-3.3-2.7C382.8,370.5,381.5,371.6,381.5,373.1z M389.4,373.1c0,1.2,0.8,2,2.4,2.4l1.4,0.3
	c0.9,0.2,1.2,0.5,1.2,1c0,0.6-0.6,1-1.5,1c-1,0-1.5-0.4-1.7-1.2h-1.9c0.2,1.6,1.4,2.6,3.6,2.6c2,0,3.5-1.1,3.5-2.6
	c0-1.2-0.7-1.9-2.4-2.2l-1.4-0.3c-0.9-0.2-1.2-0.5-1.2-1c0-0.6,0.6-1,1.4-1c0.9,0,1.5,0.5,1.5,1.2h1.8c0-1.6-1.3-2.7-3.3-2.7
	C390.8,370.5,389.4,371.6,389.4,373.1z M398.6,369.5c0.6,0,1.1-0.5,1.1-1.1s-0.5-1.1-1.1-1.1s-1.1,0.5-1.1,1.1
	S398,369.5,398.6,369.5z M397.6,379h1.9v-8.3h-1.9V379z M401.2,379h1.9v-4.8c0-1.2,0.7-2,1.8-2c1.1,0,1.7,0.7,1.7,1.8v5h1.9v-5.4
	c0-1.9-1-3.1-2.9-3.1c-1.3,0-2.2,0.6-2.6,1.6l0,0v-1.4h-1.9v8.3H401.2z M413.8,382.1c2.4,0,4-1.3,4-3.3v-8.1h-1.9v1.4l0,0
	c-0.5-1-1.4-1.6-2.6-1.6c-2.1,0-3.4,1.6-3.4,4.2s1.4,4.2,3.4,4.2c1.2,0,2.2-0.6,2.6-1.5l0,0v1.4c0,1.1-0.7,1.8-2,1.8
	c-0.9,0-1.6-0.4-1.8-1.1H410C410.2,381.1,411.7,382.1,413.8,382.1z M413.8,377.5c-1.2,0-2-1-2-2.6s0.8-2.7,2-2.7s2,1,2,2.7
	C415.8,376.5,415,377.5,413.8,377.5z M429.9,370.7H428v4.8c0,1.2-0.7,2-1.8,2c-1.1,0-1.7-0.6-1.7-1.8v-5h-1.9v5.4
	c0,1.9,1.1,3.1,2.9,3.1c1.3,0,2.1-0.6,2.5-1.6l0,0v1.4h1.9V370.7z M431.5,379h1.9v-4.8c0-1.2,0.7-2,1.8-2c1.1,0,1.7,0.7,1.7,1.8v5
	h1.9v-5.4c0-1.9-1-3.1-2.9-3.1c-1.3,0-2.2,0.6-2.6,1.6l0,0v-1.4h-1.9v8.3H431.5z M441.4,369.5c0.6,0,1.1-0.5,1.1-1.1
	s-0.5-1.1-1.1-1.1s-1.1,0.5-1.1,1.1C440.4,369,440.8,369.5,441.4,369.5z M440.5,379h1.9v-8.3h-1.9V379z M444.6,368.8v1.9h-1.2v1.5
	h1.2v4.6c0,1.6,0.7,2.2,2.5,2.2c0.4,0,0.8,0,1-0.1v-1.5c-0.1,0-0.4,0-0.6,0c-0.7,0-1-0.3-1-1v-4.3h1.6v-1.5h-1.6v-1.9L444.6,368.8
	L444.6,368.8z"/>
<rect x="531" y="249" class="st1" width="318" height="159"/>
<rect x="590" y="313" class="st4" width="40" height="40"/>
<path class="st3" d="M617,326h-14v14h14V326z M615,328h-10v10h10V328z"/>
<path class="st0" d="M605,324v2h2v-2H605z M609,324v2h2v-2H609z M613,324v2h4h-2v-2H613z M601,328v2h3v-2H601z M616,328v2h3v-2H616z
	 M601,332v2h3v-2H601z M616,332v2h3v-2H616z M601,336v2h3v-2H601z M616,336v2h3v-2H616z M605,340v2h2v-2H605z M609,340v2h2v-2H609z
	 M613,340v2h2v-2h2H613z"/>
<path class="st0" d="M607,330h6v6h-6V330z"/>
<rect x="590" y="313" class="st2" width="40" height="40"/>
<path class="st3" d="M617,326h-14v14h14V326z M615,328h-10v10h10V328z"/>
<path class="st0" d="M605,324v2h2v-2H605z M609,324v2h2v-2H609z M613,324v2h4h-2v-2H613z M601,328v2h3v-2H601z M616,328v2h3v-2H616z
	 M601,332v2h3v-2H601z M616,332v2h3v-2H616z M601,336v2h3v-2H601z M616,336v2h3v-2H616z M605,340v2h2v-2H605z M609,340v2h2v-2H609z
	 M613,340v2h2v-2h2H613z"/>
<path class="st0" d="M607,330h6v6h-6V330z"/>
<path d="M560.7,369.6c-1.2,0-2.1,0.6-2.6,1.6l0,0v-1.4h-1.9v11h1.9v-4.1l0,0c0.5,0.9,1.4,1.5,2.6,1.5c2.1,0,3.4-1.6,3.4-4.3
	C564.2,371.2,562.8,369.6,560.7,369.6z M560.1,376.5c-1.2,0-2-1.1-2-2.7s0.8-2.7,2-2.7c1.3,0,2,1,2,2.7
	C562.2,375.5,561.4,376.5,560.1,376.5z M565.4,378h1.9v-4.8c0-1.2,0.7-1.9,1.8-1.9c0.3,0,0.6,0,0.8,0.1v-1.8c-0.1,0-0.4-0.1-0.6-0.1
	c-1,0-1.7,0.6-2,1.6l0,0v-1.4h-1.9V378z M574.3,378.2c2.4,0,4-1.6,4-4.3c0-2.7-1.6-4.3-4-4.3s-4,1.6-4,4.3
	C570.3,376.5,571.8,378.2,574.3,378.2z M574.3,376.6c-1.2,0-2-1-2-2.8s0.8-2.8,2-2.8s2,1,2,2.8S575.5,376.6,574.3,376.6z
	 M586.8,372.7c-0.1-1.7-1.5-3.1-3.7-3.1c-2.4,0-4,1.7-4,4.3c0,2.7,1.6,4.3,4,4.3c2.1,0,3.5-1.2,3.7-3.1H585
	c-0.2,0.9-0.8,1.5-1.8,1.5c-1.2,0-2-1-2-2.7s0.8-2.7,2-2.7c1,0,1.7,0.7,1.8,1.5L586.8,372.7L586.8,372.7z M593.5,375.5
	c-0.2,0.7-0.9,1.1-1.8,1.1c-1.3,0-2.1-0.9-2.1-2.2v-0.1h5.8v-0.6c0-2.5-1.5-4.1-3.8-4.1c-2.4,0-3.9,1.7-3.9,4.3c0,2.6,1.5,4.3,4,4.3
	c2,0,3.4-1.1,3.7-2.6L593.5,375.5L593.5,375.5z M591.6,371.1c1.1,0,1.9,0.8,1.9,2h-3.9C589.7,371.9,590.5,371.1,591.6,371.1z
	 M596.5,372.1c0,1.2,0.8,2,2.4,2.4l1.4,0.3c0.9,0.2,1.2,0.5,1.2,1c0,0.6-0.6,1-1.5,1c-1,0-1.5-0.4-1.7-1.2h-1.9
	c0.2,1.6,1.4,2.6,3.6,2.6c2,0,3.5-1.1,3.5-2.6c0-1.2-0.7-1.9-2.4-2.2l-1.4-0.3c-0.9-0.2-1.2-0.5-1.2-1c0-0.6,0.6-1,1.4-1
	c0.9,0,1.5,0.5,1.5,1.2h1.8c0-1.6-1.3-2.7-3.3-2.7C597.8,369.5,596.5,370.6,596.5,372.1z M604.4,372.1c0,1.2,0.8,2,2.4,2.4l1.4,0.3
	c0.9,0.2,1.2,0.5,1.2,1c0,0.6-0.6,1-1.5,1c-1,0-1.5-0.4-1.7-1.2h-1.9c0.2,1.6,1.4,2.6,3.6,2.6c2,0,3.5-1.1,3.5-2.6
	c0-1.2-0.7-1.9-2.4-2.2l-1.4-0.3c-0.9-0.2-1.2-0.5-1.2-1c0-0.6,0.6-1,1.4-1c0.9,0,1.5,0.5,1.5,1.2h1.8c0-1.6-1.3-2.7-3.3-2.7
	C605.8,369.5,604.4,370.6,604.4,372.1z M613.6,368.5c0.6,0,1.1-0.5,1.1-1.1s-0.5-1.1-1.1-1.1s-1.1,0.5-1.1,1.1
	S613,368.5,613.6,368.5z M612.6,378h1.9v-8.3h-1.9V378z M616.2,378h1.9v-4.8c0-1.2,0.7-2,1.8-2s1.7,0.7,1.7,1.8v5h1.9v-5.4
	c0-1.9-1-3.1-2.9-3.1c-1.3,0-2.2,0.6-2.6,1.6l0,0v-1.4h-1.9L616.2,378L616.2,378z M628.8,381.1c2.4,0,4-1.3,4-3.3v-8.1h-1.9v1.4l0,0
	c-0.5-1-1.4-1.6-2.6-1.6c-2.1,0-3.4,1.6-3.4,4.2s1.4,4.2,3.4,4.2c1.2,0,2.2-0.6,2.6-1.5l0,0v1.4c0,1.1-0.7,1.8-2,1.8
	c-0.9,0-1.6-0.4-1.8-1.1H625C625.2,380.1,626.7,381.1,628.8,381.1z M628.8,376.5c-1.2,0-2-1-2-2.6s0.8-2.7,2-2.7s2,1,2,2.7
	C630.8,375.5,630,376.5,628.8,376.5z M644.9,369.7H643v4.8c0,1.2-0.7,2-1.8,2s-1.7-0.6-1.7-1.8v-5h-1.9v5.4c0,1.9,1.1,3.1,2.9,3.1
	c1.3,0,2.1-0.6,2.5-1.6l0,0v1.4h1.9V369.7z M646.5,378h1.9v-4.8c0-1.2,0.7-2,1.8-2s1.7,0.7,1.7,1.8v5h1.9v-5.4c0-1.9-1-3.1-2.9-3.1
	c-1.3,0-2.2,0.6-2.6,1.6l0,0v-1.4h-1.9L646.5,378L646.5,378z M656.4,368.5c0.6,0,1.1-0.5,1.1-1.1s-0.5-1.1-1.1-1.1s-1.1,0.5-1.1,1.1
	C655.4,368,655.8,368.5,656.4,368.5z M655.5,378h1.9v-8.3h-1.9V378z M659.6,367.8v1.9h-1.2v1.5h1.2v4.6c0,1.6,0.7,2.2,2.5,2.2
	c0.4,0,0.8,0,1-0.1v-1.5c-0.1,0-0.4,0-0.6,0c-0.7,0-1-0.3-1-1v-4.3h1.6v-1.5h-1.6v-1.9L659.6,367.8L659.6,367.8z"/>
<rect x="752" y="313" class="st2" width="40" height="40"/>
<path class="st3" d="M779,326h-14v14h14V326z M777,328h-10v10h10V328z"/>
<path class="st0" d="M767,324v2h2v-2H767z M771,324v2h2v-2H771z M775,324v2h4h-2v-2H775z M763,328v2h3v-2H763z M778,328v2h3v-2H778z
	 M763,332v2h3v-2H763z M778,332v2h3v-2H778z M763,336v2h3v-2H763z M778,336v2h3v-2H778z M767,340v2h2v-2H767z M771,340v2h2v-2H771z
	 M775,340v2h2v-2h2H775z"/>
<path class="st0" d="M769,330h6v6h-6V330z"/>
<path d="M721.7,369.6c-1.2,0-2.1,0.6-2.6,1.6l0,0v-1.4h-1.9v11h1.9v-4.1l0,0c0.5,0.9,1.4,1.5,2.6,1.5c2.1,0,3.4-1.6,3.4-4.3
	C725.2,371.2,723.8,369.6,721.7,369.6z M721.1,376.5c-1.2,0-2-1.1-2-2.7s0.8-2.7,2-2.7c1.3,0,2,1,2,2.7
	C723.2,375.5,722.4,376.5,721.1,376.5z M726.4,378h1.9v-4.8c0-1.2,0.7-1.9,1.8-1.9c0.3,0,0.6,0,0.8,0.1v-1.8c-0.1,0-0.4-0.1-0.6-0.1
	c-1,0-1.7,0.6-2,1.6l0,0v-1.4h-1.9V378z M735.3,378.2c2.4,0,4-1.6,4-4.3c0-2.7-1.6-4.3-4-4.3s-4,1.6-4,4.3
	C731.3,376.5,732.8,378.2,735.3,378.2z M735.3,376.6c-1.2,0-2-1-2-2.8s0.8-2.8,2-2.8s2,1,2,2.8S736.5,376.6,735.3,376.6z
	 M747.8,372.7c-0.1-1.7-1.5-3.1-3.7-3.1c-2.4,0-4,1.7-4,4.3c0,2.7,1.6,4.3,4,4.3c2.1,0,3.5-1.2,3.7-3.1H746
	c-0.2,0.9-0.8,1.5-1.8,1.5c-1.2,0-2-1-2-2.7s0.8-2.7,2-2.7c1,0,1.7,0.7,1.8,1.5L747.8,372.7L747.8,372.7z M754.5,375.5
	c-0.2,0.7-0.9,1.1-1.8,1.1c-1.3,0-2.1-0.9-2.1-2.2v-0.1h5.8v-0.6c0-2.5-1.5-4.1-3.8-4.1c-2.4,0-3.9,1.7-3.9,4.3c0,2.6,1.5,4.3,4,4.3
	c2,0,3.4-1.1,3.7-2.6L754.5,375.5L754.5,375.5z M752.6,371.1c1.1,0,1.9,0.8,1.9,2h-3.9C750.7,371.9,751.5,371.1,752.6,371.1z
	 M757.5,372.1c0,1.2,0.8,2,2.4,2.4l1.4,0.3c0.9,0.2,1.2,0.5,1.2,1c0,0.6-0.6,1-1.5,1c-1,0-1.5-0.4-1.7-1.2h-1.9
	c0.2,1.6,1.4,2.6,3.6,2.6c2,0,3.5-1.1,3.5-2.6c0-1.2-0.7-1.9-2.4-2.2l-1.4-0.3c-0.9-0.2-1.2-0.5-1.2-1c0-0.6,0.6-1,1.4-1
	c0.9,0,1.5,0.5,1.5,1.2h1.8c0-1.6-1.3-2.7-3.3-2.7C758.8,369.5,757.5,370.6,757.5,372.1z M765.4,372.1c0,1.2,0.8,2,2.4,2.4l1.4,0.3
	c0.9,0.2,1.2,0.5,1.2,1c0,0.6-0.6,1-1.5,1c-1,0-1.5-0.4-1.7-1.2h-1.9c0.2,1.6,1.4,2.6,3.6,2.6c2,0,3.5-1.1,3.5-2.6
	c0-1.2-0.7-1.9-2.4-2.2l-1.4-0.3c-0.9-0.2-1.2-0.5-1.2-1c0-0.6,0.6-1,1.4-1c0.9,0,1.5,0.5,1.5,1.2h1.8c0-1.6-1.3-2.7-3.3-2.7
	C766.8,369.5,765.4,370.6,765.4,372.1z M774.6,368.5c0.6,0,1.1-0.5,1.1-1.1s-0.5-1.1-1.1-1.1s-1.1,0.5-1.1,1.1
	S774,368.5,774.6,368.5z M773.6,378h1.9v-8.3h-1.9V378z M777.2,378h1.9v-4.8c0-1.2,0.7-2,1.8-2s1.7,0.7,1.7,1.8v5h1.9v-5.4
	c0-1.9-1-3.1-2.9-3.1c-1.3,0-2.2,0.6-2.6,1.6l0,0v-1.4h-1.9L777.2,378L777.2,378z M789.8,381.1c2.4,0,4-1.3,4-3.3v-8.1h-1.9v1.4l0,0
	c-0.5-1-1.4-1.6-2.6-1.6c-2.1,0-3.4,1.6-3.4,4.2s1.4,4.2,3.4,4.2c1.2,0,2.2-0.6,2.6-1.5l0,0v1.4c0,1.1-0.7,1.8-2,1.8
	c-0.9,0-1.6-0.4-1.8-1.1H786C786.2,380.1,787.7,381.1,789.8,381.1z M789.8,376.5c-1.2,0-2-1-2-2.6s0.8-2.7,2-2.7s2,1,2,2.7
	C791.8,375.5,791,376.5,789.8,376.5z M805.9,369.7H804v4.8c0,1.2-0.7,2-1.8,2s-1.7-0.6-1.7-1.8v-5h-1.9v5.4c0,1.9,1.1,3.1,2.9,3.1
	c1.3,0,2.1-0.6,2.5-1.6l0,0v1.4h1.9V369.7z M807.5,378h1.9v-4.8c0-1.2,0.7-2,1.8-2s1.7,0.7,1.7,1.8v5h1.9v-5.4c0-1.9-1-3.1-2.9-3.1
	c-1.3,0-2.2,0.6-2.6,1.6l0,0v-1.4h-1.9L807.5,378L807.5,378z M817.4,368.5c0.6,0,1.1-0.5,1.1-1.1s-0.5-1.1-1.1-1.1s-1.1,0.5-1.1,1.1
	C816.4,368,816.8,368.5,817.4,368.5z M816.5,378h1.9v-8.3h-1.9V378z M820.6,367.8v1.9h-1.2v1.5h1.2v4.6c0,1.6,0.7,2.2,2.5,2.2
	c0.4,0,0.8,0,1-0.1v-1.5c-0.1,0-0.4,0-0.6,0c-0.7,0-1-0.3-1-1v-4.3h1.6v-1.5h-1.6v-1.9L820.6,367.8L820.6,367.8z"/>
<path class="st5" d="M313.3,248.7c0.4,0.4,1,0.4,1.4,0l6.4-6.4c0.4-0.4,0.4-1,0-1.4s-1-0.4-1.4,0l-5.7,5.7l-5.7-5.7
	c-0.4-0.4-1-0.4-1.4,0s-0.4,1,0,1.4L313.3,248.7z M504.5,161c0,6.5-2.8,11.5-7.9,15.5c-5.1,4.1-12.4,7.1-21.3,9.5
	c-17.9,4.8-41.7,6.9-65.7,9.6c-23.9,2.7-48,6.2-66.1,13.7c-9.1,3.8-16.7,8.6-22.1,14.9c-5.4,6.3-8.5,14.2-8.5,23.8h2
	c0-9.2,2.9-16.6,8-22.5c5.1-6,12.4-10.6,21.3-14.3c17.8-7.4,41.6-10.8,65.6-13.5c23.9-2.7,47.9-4.8,66-9.7c9-2.4,16.7-5.6,22.1-9.9
	c5.4-4.3,8.6-9.9,8.6-17.1H504.5z"/>
<path class="st5" d="M698.2,248.7c-0.4,0.4-1,0.4-1.4,0l-6.4-6.4c-0.4-0.4-0.4-1,0-1.4s1-0.4,1.4,0l5.7,5.7l5.7-5.7
	c0.4-0.4,1-0.4,1.4,0s0.4,1,0,1.4L698.2,248.7z M507,161c0,6.5,2.8,11.5,7.9,15.5c5.1,4.1,12.4,7.1,21.3,9.5
	c17.9,4.8,41.7,6.9,65.7,9.6c23.9,2.7,48,6.2,66.1,13.7c9.1,3.8,16.7,8.6,22.1,14.9c5.4,6.3,8.5,14.2,8.5,23.8h-2
	c0-9.2-2.9-16.6-8-22.5c-5.1-6-12.4-10.6-21.3-14.3c-17.8-7.4-41.6-10.8-65.6-13.5c-23.9-2.7-47.9-4.8-66-9.7
	c-9-2.4-16.7-5.6-22.1-9.9c-5.4-4.3-8.6-9.9-8.6-17.1H507z"/>
<path class="st6" d="M454.1,215.7c-1.2,0-2.1,0.6-2.6,1.5l0,0v-1.4h-1.3v10.8h1.4v-4l0,0c0.5,0.9,1.4,1.5,2.6,1.5
	c2,0,3.4-1.7,3.4-4.2C457.6,217.4,456.2,215.7,454.1,215.7z M453.9,222.9c-1.4,0-2.3-1.2-2.3-3s0.9-3,2.3-3s2.4,1.2,2.4,3
	C456.2,221.8,455.3,222.9,453.9,222.9z M465.6,215.9h-1.4v4.8c0,1.4-0.8,2.3-2.1,2.3c-1.3,0-1.9-0.7-1.9-2v-5h-1.4v5.3
	c0,1.8,1,3,2.8,3c1.2,0,2.1-0.5,2.6-1.5l0,0v1.3h1.3v-8.2L465.6,215.9L465.6,215.9z M467.3,218.1c0,1.2,0.7,1.9,2.3,2.2l1.3,0.3
	c0.9,0.2,1.2,0.6,1.2,1.1c0,0.7-0.7,1.2-1.8,1.2c-1.1,0-1.7-0.4-1.9-1.4H467c0.2,1.5,1.3,2.5,3.2,2.5c1.8,0,3.1-1,3.1-2.4
	c0-1.2-0.6-1.8-2.2-2.2l-1.3-0.3c-0.9-0.2-1.3-0.6-1.3-1.2c0-0.7,0.7-1.2,1.6-1.2c1,0,1.6,0.5,1.7,1.4h1.3c-0.1-1.4-1.2-2.5-3-2.5
	C468.5,215.7,467.3,216.7,467.3,218.1z M474.9,224h1.4v-4.7c0-1.4,0.8-2.3,2.2-2.3c1.3,0,1.9,0.8,1.9,2.1v5h1.4v-5.2
	c0-1.8-1.1-3-2.9-3c-1.2,0-2.1,0.5-2.6,1.4l0,0v-4.4h-1.4V224z M488.9,221.7c-0.2,0.8-1,1.3-2,1.3c-1.5,0-2.4-1-2.4-2.6v-0.1h5.8
	v-0.5c0-2.5-1.4-4.1-3.5-4.1c-2.2,0-3.7,1.7-3.7,4.2c0,2.6,1.4,4.2,3.7,4.2c1.8,0,3.1-1,3.4-2.5h-1.3V221.7z M486.7,216.9
	c1.3,0,2.1,1,2.2,2.3h-4.4C484.6,217.9,485.5,216.9,486.7,216.9z M494.8,224.1c1.2,0,2.1-0.6,2.6-1.5l0,0v1.4h1.3v-11.3h-1.4v4.5
	l0,0c-0.5-0.9-1.4-1.5-2.6-1.5c-2,0-3.4,1.7-3.4,4.2C491.3,222.5,492.7,224.1,494.8,224.1z M495,216.9c1.4,0,2.3,1.2,2.3,3
	s-0.9,3-2.3,3s-2.3-1.2-2.3-3C492.7,218.1,493.6,216.9,495,216.9z M507.8,215.7c-1.2,0-2.1,0.6-2.6,1.5l0,0v-1.4h-1.3v10.8h1.4v-4
	l0,0c0.5,0.9,1.4,1.5,2.6,1.5c2,0,3.4-1.7,3.4-4.2C511.2,217.4,509.8,215.7,507.8,215.7z M507.5,222.9c-1.4,0-2.3-1.2-2.3-3
	s0.9-3,2.3-3s2.4,1.2,2.4,3C509.9,221.8,509,222.9,507.5,222.9z M516,224.1c2.2,0,3.8-1.6,3.8-4.2c0-2.6-1.5-4.2-3.8-4.2
	c-2.2,0-3.8,1.6-3.8,4.2S513.7,224.1,516,224.1z M516,222.9c-1.4,0-2.4-1.1-2.4-3s0.9-3,2.4-3c1.4,0,2.4,1.1,2.4,3
	C518.4,221.9,517.4,222.9,516,222.9z M521.2,224h1.4v-11.3h-1.4V224z M525.1,214.4c0.5,0,0.9-0.4,0.9-0.9s-0.4-0.9-0.9-0.9
	s-0.9,0.4-0.9,0.9C524.3,214,524.7,214.4,525.1,214.4z M524.5,224h1.4v-8.1h-1.4V224z M534.4,218.5c-0.2-1.5-1.4-2.8-3.4-2.8
	c-2.2,0-3.7,1.6-3.7,4.2c0,2.6,1.5,4.2,3.8,4.2c1.8,0,3.2-1.1,3.4-2.8h-1.3c-0.2,1-1,1.6-2.1,1.6c-1.4,0-2.4-1.1-2.4-3
	c0-1.8,1-3,2.4-3c1.2,0,1.9,0.7,2.1,1.6H534.4z M536.4,214.4c0.5,0,0.9-0.4,0.9-0.9s-0.4-0.9-0.9-0.9s-0.9,0.4-0.9,0.9
	C535.6,214,536,214.4,536.4,214.4z M535.7,224h1.4v-8.1h-1.4V224z M544.3,221.7c-0.2,0.8-1,1.3-2,1.3c-1.5,0-2.4-1-2.4-2.6v-0.1h5.8
	v-0.5c0-2.5-1.4-4.1-3.5-4.1c-2.2,0-3.7,1.7-3.7,4.2c0,2.6,1.4,4.2,3.7,4.2c1.8,0,3.1-1,3.4-2.5h-1.3V221.7z M542.2,216.9
	c1.3,0,2.1,1,2.2,2.3H540C540,217.9,540.9,216.9,542.2,216.9z M547,218.1c0,1.2,0.7,1.9,2.3,2.2l1.3,0.3c0.9,0.2,1.2,0.6,1.2,1.1
	c0,0.7-0.7,1.2-1.8,1.2s-1.7-0.4-1.9-1.4h-1.4c0.2,1.5,1.3,2.5,3.2,2.5c1.8,0,3.1-1,3.1-2.4c0-1.2-0.6-1.8-2.2-2.2l-1.3-0.3
	c-0.9-0.2-1.3-0.6-1.3-1.2c0-0.7,0.7-1.2,1.6-1.2c1,0,1.6,0.5,1.7,1.4h1.3c-0.1-1.4-1.2-2.5-3-2.5C548.2,215.7,547,216.7,547,218.1z
	"/>
<text transform="matrix(1 0 0 1 268.0065 285.4034)" class="st7 st8">enforcer</text>
<text transform="matrix(1 0 0 1 656.4771 285.4037)" class="st7 st8">enforcer</text>
<text transform="matrix(1 0 0 1 396.4315 87.9999)" class="st7 st9">Microsegmentation</text>
<text transform="matrix(1 0 0 1 465.6396 124.3999)" class="st7 st9">Console</text>
</svg>
