<?xml version="1.0" encoding="utf-8"?>
<!-- Generator: Adobe Illustrator 24.3.0, SVG Export Plug-In . SVG Version: 6.00 Build 0)  -->
<svg version="1.1" id="Layer_1" xmlns="http://www.w3.org/2000/svg" xmlns:xlink="http://www.w3.org/1999/xlink" x="0px" y="0px"
	 viewBox="0 0 1000 352" style="enable-background:new 0 0 1000 352;" xml:space="preserve">
<style type="text/css">
	.st0{fill:#FFFFFF;}
	.st1{fill:#004C9D;}
	.st2{fill-rule:evenodd;clip-rule:evenodd;fill:#FFFFFF;}
	.st3{fill:#F2F4F8;}
	.st4{fill:#13171A;}
</style>
<rect class="st0" width="1000" height="352"/>
<rect x="198" y="240" class="st1" width="40" height="40"/>
<path class="st2" d="M225,253h-14v14h14V253z M223,255h-10v10h10V255z"/>
<path class="st0" d="M213,251v2h2v-2H213z M217,251v2h2v-2H217z M221,251v2h4h-2v-2H221z M209,255v2h3v-2H209z M224,255v2h3v-2H224z
	 M209,259v2h3v-2H209z M224,259v2h3v-2H224z M209,263v2h3v-2H209z M224,263v2h3v-2H224z M213,267v2h2v-2H213z M217,267v2h2v-2H217z
	 M221,267v2h2v-2h2H221z"/>
<path class="st0" d="M215,257h6v6h-6V257z"/>
<path d="M169.7,297.6c-1.2,0-2.1,0.6-2.6,1.6h0v-1.4h-1.9v11h1.9v-4.1h0c0.5,0.9,1.4,1.5,2.6,1.5c2.1,0,3.4-1.6,3.4-4.3
	C173.2,299.2,171.8,297.6,169.7,297.6z M169.1,304.5c-1.2,0-2-1.1-2-2.7c0-1.6,0.8-2.7,2-2.7c1.3,0,2,1,2,2.7
	C171.2,303.5,170.4,304.5,169.1,304.5z M174.4,306h1.9v-4.8c0-1.2,0.7-1.9,1.8-1.9c0.3,0,0.6,0,0.8,0.1v-1.8c-0.1,0-0.4-0.1-0.6-0.1
	c-1,0-1.7,0.6-2,1.6h0v-1.4h-1.9V306z M183.3,306.2c2.4,0,4-1.6,4-4.3c0-2.7-1.6-4.3-4-4.3c-2.4,0-4,1.6-4,4.3
	C179.3,304.5,180.8,306.2,183.3,306.2z M183.3,304.6c-1.2,0-2-1-2-2.8c0-1.8,0.8-2.8,2-2.8c1.2,0,2,1,2,2.8
	C185.3,303.6,184.5,304.6,183.3,304.6z M195.8,300.7c-0.1-1.7-1.5-3.1-3.7-3.1c-2.4,0-4,1.7-4,4.3c0,2.7,1.6,4.3,4,4.3
	c2.1,0,3.5-1.2,3.7-3.1H194c-0.2,0.9-0.8,1.5-1.8,1.5c-1.2,0-2-1-2-2.7c0-1.7,0.8-2.7,2-2.7c1,0,1.7,0.7,1.8,1.5H195.8z
	 M202.5,303.5c-0.2,0.7-0.9,1.1-1.8,1.1c-1.3,0-2.1-0.9-2.1-2.2v-0.1h5.8v-0.6c0-2.5-1.5-4.1-3.8-4.1c-2.4,0-3.9,1.7-3.9,4.3
	c0,2.6,1.5,4.3,4,4.3c2,0,3.4-1.1,3.7-2.6H202.5z M200.6,299.1c1.1,0,1.9,0.8,1.9,2h-3.9C198.7,299.9,199.5,299.1,200.6,299.1z
	 M205.5,300.1c0,1.2,0.8,2,2.4,2.4l1.4,0.3c0.9,0.2,1.2,0.5,1.2,1c0,0.6-0.6,1-1.5,1c-1,0-1.5-0.4-1.7-1.2h-1.9
	c0.2,1.6,1.4,2.6,3.6,2.6c2,0,3.5-1.1,3.5-2.6c0-1.2-0.7-1.9-2.4-2.2l-1.4-0.3c-0.9-0.2-1.2-0.5-1.2-1c0-0.6,0.6-1,1.4-1
	c0.9,0,1.5,0.5,1.5,1.2h1.8c0-1.6-1.3-2.7-3.3-2.7C206.8,297.5,205.5,298.6,205.5,300.1z M213.4,300.1c0,1.2,0.8,2,2.4,2.4l1.4,0.3
	c0.9,0.2,1.2,0.5,1.2,1c0,0.6-0.6,1-1.5,1c-1,0-1.5-0.4-1.7-1.2h-1.9c0.2,1.6,1.4,2.6,3.6,2.6c2,0,3.5-1.1,3.5-2.6
	c0-1.2-0.7-1.9-2.4-2.2l-1.4-0.3c-0.9-0.2-1.2-0.5-1.2-1c0-0.6,0.6-1,1.4-1c0.9,0,1.5,0.5,1.5,1.2h1.8c0-1.6-1.3-2.7-3.3-2.7
	C214.8,297.5,213.4,298.6,213.4,300.1z M222.6,296.5c0.6,0,1.1-0.5,1.1-1.1c0-0.6-0.5-1.1-1.1-1.1c-0.6,0-1.1,0.5-1.1,1.1
	C221.5,296,222,296.5,222.6,296.5z M221.6,306h1.9v-8.3h-1.9V306z M225.2,306h1.9v-4.8c0-1.2,0.7-2,1.8-2c1.1,0,1.7,0.7,1.7,1.8v5
	h1.9v-5.4c0-1.9-1-3.1-2.9-3.1c-1.3,0-2.2,0.6-2.6,1.6h0v-1.4h-1.9V306z M237.8,309.1c2.4,0,4-1.3,4-3.3v-8.1h-1.9v1.4h0
	c-0.5-1-1.4-1.6-2.6-1.6c-2.1,0-3.4,1.6-3.4,4.2c0,2.6,1.4,4.2,3.4,4.2c1.2,0,2.2-0.6,2.6-1.5h0v1.4c0,1.1-0.7,1.8-2,1.8
	c-0.9,0-1.6-0.4-1.8-1.1H234C234.2,308.1,235.7,309.1,237.8,309.1z M237.8,304.5c-1.2,0-2-1-2-2.6c0-1.6,0.8-2.7,2-2.7
	c1.2,0,2,1,2,2.7C239.8,303.5,239,304.5,237.8,304.5z M253.9,297.7h-1.9v4.8c0,1.2-0.7,2-1.8,2c-1.1,0-1.7-0.6-1.7-1.8v-5h-1.9v5.4
	c0,1.9,1.1,3.1,2.9,3.1c1.3,0,2.1-0.6,2.5-1.6h0v1.4h1.9V297.7z M255.5,306h1.9v-4.8c0-1.2,0.7-2,1.8-2c1.1,0,1.7,0.7,1.7,1.8v5h1.9
	v-5.4c0-1.9-1-3.1-2.9-3.1c-1.3,0-2.2,0.6-2.6,1.6h0v-1.4h-1.9V306z M265.4,296.5c0.6,0,1.1-0.5,1.1-1.1c0-0.6-0.5-1.1-1.1-1.1
	c-0.6,0-1.1,0.5-1.1,1.1C264.4,296,264.8,296.5,265.4,296.5z M264.5,306h1.9v-8.3h-1.9V306z M268.6,295.8v1.9h-1.2v1.5h1.2v4.6
	c0,1.6,0.7,2.2,2.5,2.2c0.4,0,0.8,0,1-0.1v-1.5c-0.1,0-0.4,0-0.6,0c-0.7,0-1-0.3-1-1v-4.3h1.6v-1.5h-1.6v-1.9H268.6z"/>
<rect x="479" y="240" class="st1" width="40" height="40"/>
<path class="st2" d="M506,253h-14v14h14V253z M504,255h-10v10h10V255z"/>
<path class="st0" d="M494,251v2h2v-2H494z M498,251v2h2v-2H498z M502,251v2h4h-2v-2H502z M490,255v2h3v-2H490z M505,255v2h3v-2H505z
	 M490,259v2h3v-2H490z M505,259v2h3v-2H505z M490,263v2h3v-2H490z M505,263v2h3v-2H505z M494,267v2h2v-2H494z M498,267v2h2v-2H498z
	 M502,267v2h2v-2h2H502z"/>
<path class="st0" d="M496,257h6v6h-6V257z"/>
<path d="M450.7,297.6c-1.2,0-2.1,0.6-2.6,1.6h0v-1.4h-1.9v11h1.9v-4.1h0c0.5,0.9,1.4,1.5,2.6,1.5c2.1,0,3.4-1.6,3.4-4.3
	C454.2,299.2,452.8,297.6,450.7,297.6z M450.1,304.5c-1.2,0-2-1.1-2-2.7c0-1.6,0.8-2.7,2-2.7c1.3,0,2,1,2,2.7
	C452.2,303.5,451.4,304.5,450.1,304.5z M455.4,306h1.9v-4.8c0-1.2,0.7-1.9,1.8-1.9c0.3,0,0.6,0,0.8,0.1v-1.8c-0.1,0-0.4-0.1-0.6-0.1
	c-1,0-1.7,0.6-2,1.6h0v-1.4h-1.9V306z M464.3,306.2c2.4,0,4-1.6,4-4.3c0-2.7-1.6-4.3-4-4.3s-4,1.6-4,4.3
	C460.3,304.5,461.8,306.2,464.3,306.2z M464.3,304.6c-1.2,0-2-1-2-2.8c0-1.8,0.8-2.8,2-2.8c1.2,0,2,1,2,2.8
	C466.3,303.6,465.5,304.6,464.3,304.6z M476.8,300.7c-0.1-1.7-1.5-3.1-3.7-3.1c-2.4,0-4,1.7-4,4.3c0,2.7,1.6,4.3,4,4.3
	c2.1,0,3.5-1.2,3.7-3.1H475c-0.2,0.9-0.8,1.5-1.8,1.5c-1.2,0-2-1-2-2.7c0-1.7,0.8-2.7,2-2.7c1,0,1.7,0.7,1.8,1.5H476.8z
	 M483.5,303.5c-0.2,0.7-0.9,1.1-1.8,1.1c-1.3,0-2.1-0.9-2.1-2.2v-0.1h5.8v-0.6c0-2.5-1.5-4.1-3.8-4.1c-2.4,0-3.9,1.7-3.9,4.3
	c0,2.6,1.5,4.3,4,4.3c2,0,3.4-1.1,3.7-2.6H483.5z M481.6,299.1c1.1,0,1.9,0.8,1.9,2h-3.9C479.7,299.9,480.5,299.1,481.6,299.1z
	 M486.5,300.1c0,1.2,0.8,2,2.4,2.4l1.4,0.3c0.9,0.2,1.2,0.5,1.2,1c0,0.6-0.6,1-1.5,1c-1,0-1.5-0.4-1.7-1.2h-1.9
	c0.2,1.6,1.4,2.6,3.6,2.6c2,0,3.5-1.1,3.5-2.6c0-1.2-0.7-1.9-2.4-2.2l-1.4-0.3c-0.9-0.2-1.2-0.5-1.2-1c0-0.6,0.6-1,1.4-1
	c0.9,0,1.5,0.5,1.5,1.2h1.8c0-1.6-1.3-2.7-3.3-2.7C487.8,297.5,486.5,298.6,486.5,300.1z M494.4,300.1c0,1.2,0.8,2,2.4,2.4l1.4,0.3
	c0.9,0.2,1.2,0.5,1.2,1c0,0.6-0.6,1-1.5,1c-1,0-1.5-0.4-1.7-1.2h-1.9c0.2,1.6,1.4,2.6,3.6,2.6c2,0,3.5-1.1,3.5-2.6
	c0-1.2-0.7-1.9-2.4-2.2l-1.4-0.3c-0.9-0.2-1.2-0.5-1.2-1c0-0.6,0.6-1,1.4-1c0.9,0,1.5,0.5,1.5,1.2h1.8c0-1.6-1.3-2.7-3.3-2.7
	C495.8,297.5,494.4,298.6,494.4,300.1z M503.6,296.5c0.6,0,1.1-0.5,1.1-1.1c0-0.6-0.5-1.1-1.1-1.1c-0.6,0-1.1,0.5-1.1,1.1
	C502.5,296,503,296.5,503.6,296.5z M502.6,306h1.9v-8.3h-1.9V306z M506.2,306h1.9v-4.8c0-1.2,0.7-2,1.8-2c1.1,0,1.7,0.7,1.7,1.8v5
	h1.9v-5.4c0-1.9-1-3.1-2.9-3.1c-1.3,0-2.2,0.6-2.6,1.6h0v-1.4h-1.9V306z M518.8,309.1c2.4,0,4-1.3,4-3.3v-8.1h-1.9v1.4h0
	c-0.5-1-1.4-1.6-2.6-1.6c-2.1,0-3.4,1.6-3.4,4.2c0,2.6,1.4,4.2,3.4,4.2c1.2,0,2.2-0.6,2.6-1.5h0v1.4c0,1.1-0.7,1.8-2,1.8
	c-0.9,0-1.6-0.4-1.8-1.1H515C515.2,308.1,516.7,309.1,518.8,309.1z M518.8,304.5c-1.2,0-2-1-2-2.6c0-1.6,0.8-2.7,2-2.7
	c1.2,0,2,1,2,2.7C520.8,303.5,520,304.5,518.8,304.5z M534.9,297.7h-1.9v4.8c0,1.2-0.7,2-1.8,2c-1.1,0-1.7-0.6-1.7-1.8v-5h-1.9v5.4
	c0,1.9,1.1,3.1,2.9,3.1c1.3,0,2.1-0.6,2.5-1.6h0v1.4h1.9V297.7z M536.5,306h1.9v-4.8c0-1.2,0.7-2,1.8-2c1.1,0,1.7,0.7,1.7,1.8v5h1.9
	v-5.4c0-1.9-1-3.1-2.9-3.1c-1.3,0-2.2,0.6-2.6,1.6h0v-1.4h-1.9V306z M546.4,296.5c0.6,0,1.1-0.5,1.1-1.1c0-0.6-0.5-1.1-1.1-1.1
	c-0.6,0-1.1,0.5-1.1,1.1C545.4,296,545.8,296.5,546.4,296.5z M545.5,306h1.9v-8.3h-1.9V306z M549.6,295.8v1.9h-1.2v1.5h1.2v4.6
	c0,1.6,0.7,2.2,2.5,2.2c0.4,0,0.8,0,1-0.1v-1.5c-0.1,0-0.4,0-0.6,0c-0.7,0-1-0.3-1-1v-4.3h1.6v-1.5h-1.6v-1.9H549.6z"/>
<rect x="759" y="240" class="st1" width="40" height="40"/>
<path class="st2" d="M786,253h-14v14h14V253z M784,255h-10v10h10V255z"/>
<path class="st0" d="M774,251v2h2v-2H774z M778,251v2h2v-2H778z M782,251v2h4h-2v-2H782z M770,255v2h3v-2H770z M785,255v2h3v-2H785z
	 M770,259v2h3v-2H770z M785,259v2h3v-2H785z M770,263v2h3v-2H770z M785,263v2h3v-2H785z M774,267v2h2v-2H774z M778,267v2h2v-2H778z
	 M782,267v2h2v-2h2H782z"/>
<path class="st0" d="M776,257h6v6h-6V257z"/>
<path d="M730.8,306h1.9v-4.8c0-1.2,0.7-1.9,1.8-1.9c0.3,0,0.6,0,0.8,0.1v-1.8c-0.1,0-0.4-0.1-0.6-0.1c-1,0-1.7,0.6-2,1.6h0v-1.4
	h-1.9V306z M739.6,306.2c2.4,0,4-1.6,4-4.3c0-2.7-1.6-4.3-4-4.3s-4,1.6-4,4.3C735.6,304.5,737.2,306.2,739.6,306.2z M739.6,304.6
	c-1.2,0-2-1-2-2.8c0-1.8,0.8-2.8,2-2.8c1.2,0,2,1,2,2.8C741.7,303.6,740.9,304.6,739.6,304.6z M752.2,300.7
	c-0.1-1.7-1.5-3.1-3.7-3.1c-2.4,0-4,1.7-4,4.3c0,2.7,1.6,4.3,4,4.3c2.1,0,3.5-1.2,3.7-3.1h-1.8c-0.2,0.9-0.8,1.5-1.8,1.5
	c-1.2,0-2-1-2-2.7c0-1.7,0.8-2.7,2-2.7c1,0,1.7,0.7,1.8,1.5H752.2z M758.9,303.5c-0.2,0.7-0.9,1.1-1.8,1.1c-1.3,0-2.1-0.9-2.1-2.2
	v-0.1h5.8v-0.6c0-2.5-1.5-4.1-3.8-4.1c-2.4,0-3.9,1.7-3.9,4.3c0,2.6,1.5,4.3,4,4.3c2,0,3.4-1.1,3.7-2.6H758.9z M756.9,299.1
	c1.1,0,1.9,0.8,1.9,2H755C755.1,299.9,755.9,299.1,756.9,299.1z M761.9,300.1c0,1.2,0.8,2,2.4,2.4l1.4,0.3c0.9,0.2,1.2,0.5,1.2,1
	c0,0.6-0.6,1-1.5,1c-1,0-1.5-0.4-1.7-1.2h-1.9c0.2,1.6,1.4,2.6,3.6,2.6c2,0,3.5-1.1,3.5-2.6c0-1.2-0.7-1.9-2.4-2.2L765,301
	c-0.9-0.2-1.2-0.5-1.2-1c0-0.6,0.6-1,1.4-1c0.9,0,1.5,0.5,1.5,1.2h1.8c0-1.6-1.3-2.7-3.3-2.7C763.2,297.5,761.9,298.6,761.9,300.1z
	 M769.8,300.1c0,1.2,0.8,2,2.4,2.4l1.4,0.3c0.9,0.2,1.2,0.5,1.2,1c0,0.6-0.6,1-1.5,1c-1,0-1.5-0.4-1.7-1.2h-1.9
	c0.2,1.6,1.4,2.6,3.6,2.6c2,0,3.5-1.1,3.5-2.6c0-1.2-0.7-1.9-2.4-2.2l-1.4-0.3c-0.9-0.2-1.2-0.5-1.2-1c0-0.6,0.6-1,1.4-1
	c0.9,0,1.5,0.5,1.5,1.2h1.8c0-1.6-1.3-2.7-3.3-2.7C771.1,297.5,769.8,298.6,769.8,300.1z M778.9,296.5c0.6,0,1.1-0.5,1.1-1.1
	c0-0.6-0.5-1.1-1.1-1.1c-0.6,0-1.1,0.5-1.1,1.1C777.9,296,778.3,296.5,778.9,296.5z M778,306h1.9v-8.3H778V306z M781.5,306h1.9v-4.8
	c0-1.2,0.7-2,1.8-2c1.1,0,1.7,0.7,1.7,1.8v5h1.9v-5.4c0-1.9-1-3.1-2.9-3.1c-1.3,0-2.2,0.6-2.6,1.6h0v-1.4h-1.9V306z M794.1,309.1
	c2.4,0,4-1.3,4-3.3v-8.1h-1.9v1.4h0c-0.5-1-1.4-1.6-2.6-1.6c-2.1,0-3.4,1.6-3.4,4.2c0,2.6,1.4,4.2,3.4,4.2c1.2,0,2.2-0.6,2.6-1.5h0
	v1.4c0,1.1-0.7,1.8-2,1.8c-0.9,0-1.6-0.4-1.8-1.1h-1.9C790.6,308.1,792.1,309.1,794.1,309.1z M794.1,304.5c-1.2,0-2-1-2-2.6
	c0-1.6,0.8-2.7,2-2.7c1.2,0,2,1,2,2.7C796.2,303.5,795.4,304.5,794.1,304.5z M810.3,297.7h-1.9v4.8c0,1.2-0.7,2-1.8,2
	c-1.1,0-1.7-0.6-1.7-1.8v-5h-1.9v5.4c0,1.9,1.1,3.1,2.9,3.1c1.3,0,2.1-0.6,2.5-1.6h0v1.4h1.9V297.7z M811.9,306h1.9v-4.8
	c0-1.2,0.7-2,1.8-2c1.1,0,1.7,0.7,1.7,1.8v5h1.9v-5.4c0-1.9-1-3.1-2.9-3.1c-1.3,0-2.2,0.6-2.6,1.6h0v-1.4h-1.9V306z M821.8,296.5
	c0.6,0,1.1-0.5,1.1-1.1c0-0.6-0.5-1.1-1.1-1.1c-0.6,0-1.1,0.5-1.1,1.1C820.7,296,821.2,296.5,821.8,296.5z M820.8,306h1.9v-8.3h-1.9
	V306z M825,295.8v1.9h-1.2v1.5h1.2v4.6c0,1.6,0.7,2.2,2.5,2.2c0.4,0,0.8,0,1-0.1v-1.5c-0.1,0-0.4,0-0.6,0c-0.7,0-1-0.3-1-1v-4.3h1.6
	v-1.5h-1.6v-1.9H825z"/>
<rect x="120" y="40" class="st3" width="200" height="136"/>
<path d="M142.7,69.4c0,0.3,0,0.5,0.1,0.7c0.1,0.1,0.2,0.2,0.5,0.3l-0.3,0.8c-0.3,0-0.6-0.1-0.8-0.3c-0.2-0.2-0.4-0.4-0.5-0.7
	c-0.3,0.3-0.6,0.6-1,0.8c-0.4,0.2-0.8,0.3-1.3,0.3c-0.7,0-1.3-0.2-1.7-0.6c-0.4-0.4-0.6-1-0.6-1.7c0-0.8,0.3-1.3,0.9-1.8
	c0.6-0.4,1.4-0.6,2.6-0.6h1.1v-0.6c0-0.5-0.2-0.9-0.5-1.1c-0.3-0.2-0.7-0.3-1.3-0.3c-0.2,0-0.5,0-0.9,0.1c-0.3,0.1-0.7,0.2-1.1,0.3
	l-0.3-0.9c0.4-0.2,0.9-0.3,1.3-0.4c0.4-0.1,0.8-0.1,1.1-0.1c0.9,0,1.6,0.2,2.1,0.6c0.5,0.4,0.7,1,0.7,1.7V69.4z M139.6,70.3
	c0.4,0,0.7-0.1,1-0.3c0.3-0.2,0.6-0.4,0.8-0.8v-1.9h-1.1c-0.8,0-1.4,0.1-1.7,0.4c-0.3,0.3-0.5,0.7-0.5,1.1
	C138.2,69.8,138.7,70.3,139.6,70.3z M149.1,63.5c0.7,0,1.2,0.2,1.6,0.5c0.4,0.3,0.7,0.8,0.8,1.3c0.2,0.6,0.3,1.2,0.3,2
	c0,0.7-0.1,1.4-0.3,2c-0.2,0.6-0.5,1-0.9,1.4s-0.9,0.5-1.6,0.5c-0.8,0-1.5-0.3-1.9-0.9v3.5l-1.2,0.1V63.6h1l0.1,1
	c0.3-0.4,0.6-0.7,1-0.9C148.2,63.6,148.7,63.5,149.1,63.5z M148.8,64.4c-0.4,0-0.8,0.1-1.1,0.4c-0.3,0.2-0.6,0.5-0.8,0.8v3.7
	c0.2,0.3,0.4,0.5,0.7,0.7c0.3,0.2,0.6,0.2,1,0.2c0.6,0,1.1-0.2,1.4-0.7c0.3-0.5,0.5-1.2,0.5-2.2C150.5,65.4,149.9,64.4,148.8,64.4z
	 M157.5,63.5c0.7,0,1.2,0.2,1.6,0.5c0.4,0.3,0.7,0.8,0.8,1.3c0.2,0.6,0.3,1.2,0.3,2c0,0.7-0.1,1.4-0.3,2c-0.2,0.6-0.5,1-0.9,1.4
	s-0.9,0.5-1.6,0.5c-0.8,0-1.5-0.3-1.9-0.9v3.5l-1.2,0.1V63.6h1l0.1,1c0.3-0.4,0.6-0.7,1-0.9S157,63.5,157.5,63.5z M157.2,64.4
	c-0.4,0-0.8,0.1-1.1,0.4c-0.3,0.2-0.6,0.5-0.8,0.8v3.7c0.2,0.3,0.4,0.5,0.7,0.7c0.3,0.2,0.6,0.2,1,0.2c0.6,0,1.1-0.2,1.4-0.7
	c0.3-0.5,0.5-1.2,0.5-2.2C158.9,65.4,158.3,64.4,157.2,64.4z M168.1,64.8v1h-5.4v-1H168.1z M168.1,67.5v1h-5.4v-1H168.1z
	 M173.5,70.2c0.6,0,1-0.1,1.3-0.3c0.3-0.2,0.5-0.5,0.5-0.9c0-0.2,0-0.4-0.1-0.6c-0.1-0.2-0.2-0.3-0.5-0.4c-0.3-0.1-0.6-0.3-1.2-0.4
	c-0.5-0.1-1-0.3-1.3-0.4c-0.4-0.2-0.7-0.4-0.9-0.7c-0.2-0.3-0.3-0.6-0.3-1c0-0.6,0.3-1.1,0.8-1.5s1.2-0.5,2-0.5
	c0.6,0,1.1,0.1,1.5,0.2c0.4,0.2,0.8,0.4,1.1,0.6l-0.5,0.8c-0.3-0.2-0.6-0.3-0.9-0.5c-0.3-0.1-0.7-0.2-1.2-0.2c-0.6,0-1,0.1-1.2,0.3
	c-0.2,0.2-0.4,0.4-0.4,0.7c0,0.2,0.1,0.4,0.2,0.5c0.1,0.1,0.3,0.3,0.6,0.4c0.3,0.1,0.7,0.2,1.2,0.4c0.5,0.1,0.9,0.3,1.3,0.5
	c0.4,0.2,0.6,0.4,0.8,0.7c0.2,0.3,0.3,0.7,0.3,1.1c0,0.5-0.1,0.9-0.4,1.3c-0.3,0.3-0.7,0.6-1.2,0.7c-0.5,0.1-1,0.2-1.5,0.2
	c-0.7,0-1.2-0.1-1.7-0.3c-0.5-0.2-0.9-0.4-1.2-0.7l0.7-0.8c0.3,0.2,0.6,0.4,1,0.6C172.7,70.1,173.1,70.2,173.5,70.2z M185.2,70.6
	c-0.3,0.2-0.6,0.3-0.9,0.4c-0.4,0.1-0.7,0.1-1.1,0.1c-0.8,0-1.4-0.2-1.8-0.6c-0.4-0.4-0.6-0.9-0.6-1.6v-4.4h-1.7v-0.9h1.7V62
	l1.2-0.1v1.8h2.5l-0.1,0.9H182v4.4c0,0.4,0.1,0.7,0.3,0.9c0.2,0.2,0.6,0.3,1.1,0.3c0.3,0,0.5,0,0.8-0.1c0.2-0.1,0.4-0.1,0.7-0.3
	L185.2,70.6z M190.6,63.5c1,0,1.8,0.3,2.4,1c0.5,0.7,0.8,1.6,0.8,2.8c0,0.8-0.1,1.4-0.4,2c-0.2,0.6-0.6,1-1.1,1.4
	c-0.5,0.3-1,0.5-1.7,0.5c-1,0-1.8-0.4-2.4-1.1c-0.5-0.7-0.8-1.6-0.8-2.8c0-0.8,0.1-1.4,0.4-2c0.2-0.6,0.6-1,1.1-1.4
	C189.3,63.6,189.9,63.5,190.6,63.5z M190.6,64.4c-0.6,0-1.1,0.2-1.4,0.7c-0.3,0.5-0.5,1.2-0.5,2.2c0,1,0.2,1.7,0.5,2.2
	c0.3,0.5,0.8,0.7,1.4,0.7c0.6,0,1.1-0.2,1.4-0.7c0.3-0.5,0.5-1.2,0.5-2.2c0-1-0.2-1.7-0.5-2.2C191.7,64.7,191.2,64.4,190.6,64.4z
	 M196.2,71v-0.9h1.1v-5.6h-1.1v-0.9h2l0.2,1.7c0.3-0.6,0.6-1.1,1-1.4c0.4-0.3,0.9-0.5,1.6-0.5c0.2,0,0.4,0,0.5,0
	c0.2,0,0.3,0.1,0.5,0.1l-0.2,2.5h-1v-1.6c0,0,0,0-0.1,0c-1.1,0-1.9,0.8-2.4,2.4v3.1h1.5V71H196.2z M205.5,67.7
	c0,0.9,0.3,1.5,0.7,1.9c0.4,0.4,0.9,0.6,1.5,0.6c0.4,0,0.7-0.1,1-0.2c0.3-0.1,0.6-0.3,0.9-0.5l0.6,0.8c-0.3,0.3-0.7,0.5-1.2,0.6
	c-0.4,0.2-0.9,0.2-1.4,0.2c-0.7,0-1.3-0.2-1.8-0.5c-0.5-0.3-0.9-0.8-1.1-1.3c-0.3-0.6-0.4-1.2-0.4-2c0-0.7,0.1-1.4,0.4-2
	c0.3-0.6,0.6-1,1.1-1.4c0.5-0.3,1.1-0.5,1.7-0.5c0.9,0,1.7,0.3,2.2,1c0.5,0.6,0.8,1.5,0.8,2.6c0,0.1,0,0.2,0,0.4c0,0.1,0,0.2,0,0.3
	H205.5z M207.5,64.4c-0.5,0-1,0.2-1.4,0.6c-0.4,0.4-0.6,1-0.6,1.8h3.8c0-0.8-0.2-1.4-0.5-1.8C208.5,64.6,208,64.4,207.5,64.4z
	 M139.9,90.2c0.6,0,1-0.1,1.3-0.3c0.3-0.2,0.5-0.5,0.5-0.9c0-0.2,0-0.4-0.1-0.6c-0.1-0.2-0.2-0.3-0.5-0.4c-0.3-0.1-0.6-0.3-1.2-0.4
	c-0.5-0.1-1-0.3-1.3-0.4c-0.4-0.2-0.7-0.4-0.9-0.7c-0.2-0.3-0.3-0.6-0.3-1c0-0.6,0.3-1.1,0.8-1.5s1.2-0.5,2-0.5
	c0.6,0,1.1,0.1,1.5,0.2c0.4,0.2,0.8,0.4,1.1,0.6l-0.5,0.8c-0.3-0.2-0.6-0.3-0.9-0.5c-0.3-0.1-0.7-0.2-1.2-0.2c-0.6,0-1,0.1-1.2,0.3
	c-0.2,0.2-0.4,0.4-0.4,0.7c0,0.2,0.1,0.4,0.2,0.5c0.1,0.1,0.3,0.3,0.6,0.4c0.3,0.1,0.7,0.2,1.2,0.4c0.5,0.1,0.9,0.3,1.3,0.5
	c0.4,0.2,0.6,0.4,0.8,0.7c0.2,0.3,0.3,0.7,0.3,1.1c0,0.5-0.1,0.9-0.4,1.3c-0.3,0.3-0.7,0.6-1.2,0.7c-0.5,0.1-1,0.2-1.5,0.2
	c-0.7,0-1.2-0.1-1.7-0.3c-0.5-0.2-0.9-0.4-1.2-0.7l0.7-0.8c0.3,0.2,0.6,0.4,1,0.6C139.1,90.1,139.5,90.2,139.9,90.2z M146.7,87.7
	c0,0.9,0.3,1.5,0.7,1.9c0.4,0.4,0.9,0.6,1.5,0.6c0.4,0,0.7-0.1,1-0.2c0.3-0.1,0.6-0.3,0.9-0.5l0.6,0.8c-0.3,0.3-0.7,0.5-1.2,0.6
	c-0.4,0.2-0.9,0.2-1.4,0.2c-0.7,0-1.3-0.2-1.8-0.5c-0.5-0.3-0.9-0.8-1.1-1.3c-0.3-0.6-0.4-1.2-0.4-2c0-0.7,0.1-1.4,0.4-2
	c0.3-0.6,0.6-1,1.1-1.4c0.5-0.3,1.1-0.5,1.7-0.5c0.9,0,1.7,0.3,2.2,1c0.5,0.6,0.8,1.5,0.8,2.6c0,0.1,0,0.2,0,0.4c0,0.1,0,0.2,0,0.3
	H146.7z M148.7,84.4c-0.5,0-1,0.2-1.4,0.6c-0.4,0.4-0.6,1-0.6,1.8h3.8c0-0.8-0.2-1.4-0.5-1.8C149.7,84.6,149.3,84.4,148.7,84.4z
	 M154.3,91v-0.9h1.1v-5.6h-1.1v-0.9h2l0.2,1.7c0.3-0.6,0.6-1.1,1-1.4c0.4-0.3,0.9-0.5,1.6-0.5c0.2,0,0.4,0,0.5,0
	c0.2,0,0.3,0.1,0.5,0.1l-0.2,2.5h-1v-1.6c0,0,0,0-0.1,0c-1.1,0-1.9,0.8-2.4,2.4v3.1h1.5V91H154.3z M168.7,83.6l-2.7,7.4h-1.4
	l-2.7-7.4h1.2l2.1,6.3l2.1-6.3H168.7z M173.8,80.2c0.3,0,0.5,0.1,0.6,0.2c0.2,0.2,0.2,0.4,0.2,0.6c0,0.2-0.1,0.4-0.2,0.6
	c-0.2,0.2-0.4,0.2-0.6,0.2c-0.2,0-0.4-0.1-0.6-0.2c-0.2-0.2-0.2-0.4-0.2-0.6c0-0.2,0.1-0.4,0.2-0.6
	C173.3,80.3,173.5,80.2,173.8,80.2z M174.7,83.6v6.4h2.1V91h-5.5v-0.9h2.3v-5.5h-2.2v-0.9H174.7z M182.7,90.1c0.4,0,0.7-0.1,1-0.2
	c0.3-0.1,0.6-0.3,0.9-0.5l0.6,0.8c-0.3,0.3-0.7,0.5-1.2,0.7c-0.5,0.2-0.9,0.2-1.3,0.2c-0.7,0-1.4-0.2-1.9-0.5
	c-0.5-0.3-0.9-0.8-1.2-1.3c-0.3-0.6-0.4-1.2-0.4-2c0-0.7,0.1-1.4,0.4-2c0.3-0.6,0.7-1,1.2-1.4c0.5-0.3,1.1-0.5,1.9-0.5
	c0.9,0,1.8,0.3,2.5,0.9l-0.6,0.8c-0.6-0.4-1.3-0.7-1.9-0.7c-0.6,0-1.2,0.2-1.6,0.7c-0.4,0.5-0.6,1.2-0.6,2.2c0,1,0.2,1.7,0.6,2.1
	C181.6,89.9,182.1,90.1,182.7,90.1z M188.7,87.7c0,0.9,0.3,1.5,0.7,1.9c0.4,0.4,0.9,0.6,1.5,0.6c0.4,0,0.7-0.1,1-0.2
	c0.3-0.1,0.6-0.3,0.9-0.5l0.6,0.8c-0.3,0.3-0.7,0.5-1.2,0.6c-0.4,0.2-0.9,0.2-1.4,0.2c-0.7,0-1.3-0.2-1.8-0.5
	c-0.5-0.3-0.9-0.8-1.1-1.3c-0.3-0.6-0.4-1.2-0.4-2c0-0.7,0.1-1.4,0.4-2c0.3-0.6,0.6-1,1.1-1.4c0.5-0.3,1.1-0.5,1.7-0.5
	c0.9,0,1.7,0.3,2.2,1c0.5,0.6,0.8,1.5,0.8,2.6c0,0.1,0,0.2,0,0.4c0,0.1,0,0.2,0,0.3H188.7z M190.7,84.4c-0.5,0-1,0.2-1.4,0.6
	c-0.4,0.4-0.6,1-0.6,1.8h3.8c0-0.8-0.2-1.4-0.5-1.8C191.7,84.6,191.3,84.4,190.7,84.4z M201.7,84.8v1h-5.4v-1H201.7z M201.7,87.5v1
	h-5.4v-1H201.7z M208.9,80.5c0.4,0,0.8,0,1.1,0.1c0.3,0.1,0.6,0.2,0.9,0.3l-0.4,0.9c-0.2-0.1-0.5-0.2-0.8-0.2
	c-0.3-0.1-0.5-0.1-0.8-0.1c-1,0-1.5,0.4-1.5,1.2v1.5h2.5l-0.1,0.9h-2.4V91h-1.2v-5.9h-1.8v-0.9h1.8v-1.5c0-0.5,0.1-0.9,0.3-1.2
	c0.2-0.3,0.6-0.6,1-0.8C208,80.6,208.4,80.5,208.9,80.5z M213,91v-0.9h1.1v-5.6H213v-0.9h2l0.2,1.7c0.3-0.6,0.6-1.1,1-1.4
	c0.4-0.3,0.9-0.5,1.6-0.5c0.2,0,0.4,0,0.5,0c0.2,0,0.3,0.1,0.5,0.1l-0.2,2.5h-1v-1.6c0,0,0,0-0.1,0c-1.1,0-1.9,0.8-2.4,2.4v3.1h1.5
	V91H213z M224.2,83.5c1,0,1.8,0.3,2.4,1c0.5,0.7,0.8,1.6,0.8,2.8c0,0.8-0.1,1.4-0.4,2c-0.2,0.6-0.6,1-1.1,1.4
	c-0.5,0.3-1.1,0.5-1.7,0.5c-1,0-1.8-0.4-2.4-1.1c-0.5-0.7-0.8-1.6-0.8-2.8c0-0.8,0.1-1.4,0.4-2c0.2-0.6,0.6-1,1.1-1.4
	C222.9,83.6,223.5,83.5,224.2,83.5z M224.2,84.4c-0.6,0-1.1,0.2-1.4,0.7c-0.3,0.5-0.5,1.2-0.5,2.2c0,1,0.2,1.7,0.5,2.2
	c0.3,0.5,0.8,0.7,1.4,0.7c0.6,0,1.1-0.2,1.4-0.7c0.3-0.5,0.5-1.2,0.5-2.2c0-1-0.2-1.7-0.5-2.2C225.3,84.7,224.8,84.4,224.2,84.4z
	 M229.7,91v-7.4h1l0.1,1c0.3-0.4,0.7-0.7,1.1-0.9c0.4-0.2,0.9-0.3,1.3-0.3c0.7,0,1.2,0.2,1.6,0.6c0.3,0.4,0.5,0.9,0.5,1.6V91h-1.2
	v-4.5c0-0.5,0-0.9-0.1-1.2s-0.2-0.5-0.4-0.7c-0.2-0.1-0.4-0.2-0.8-0.2c-0.3,0-0.6,0.1-0.8,0.2c-0.3,0.1-0.5,0.3-0.7,0.5
	c-0.2,0.2-0.4,0.4-0.5,0.6V91H229.7z M244,90.6c-0.3,0.2-0.6,0.3-0.9,0.4c-0.4,0.1-0.7,0.1-1.1,0.1c-0.8,0-1.4-0.2-1.8-0.6
	c-0.4-0.4-0.6-0.9-0.6-1.6v-4.4h-1.7v-0.9h1.7V82l1.2-0.1v1.8h2.5l-0.1,0.9h-2.4v4.4c0,0.4,0.1,0.7,0.3,0.9c0.2,0.2,0.6,0.3,1.1,0.3
	c0.3,0,0.5,0,0.8-0.1c0.2-0.1,0.5-0.1,0.7-0.3L244,90.6z M247.5,87.7c0,0.9,0.3,1.5,0.7,1.9c0.4,0.4,0.9,0.6,1.5,0.6
	c0.4,0,0.7-0.1,1-0.2s0.6-0.3,0.9-0.5l0.6,0.8c-0.3,0.3-0.7,0.5-1.2,0.6c-0.4,0.2-0.9,0.2-1.4,0.2c-0.7,0-1.3-0.2-1.8-0.5
	c-0.5-0.3-0.9-0.8-1.1-1.3c-0.3-0.6-0.4-1.2-0.4-2c0-0.7,0.1-1.4,0.4-2c0.3-0.6,0.6-1,1.1-1.4c0.5-0.3,1.1-0.5,1.7-0.5
	c0.9,0,1.7,0.3,2.2,1c0.5,0.6,0.8,1.5,0.8,2.6c0,0.1,0,0.2,0,0.4c0,0.1,0,0.2,0,0.3H247.5z M249.5,84.4c-0.5,0-1,0.2-1.4,0.6
	c-0.4,0.4-0.6,1-0.6,1.8h3.8c0-0.8-0.2-1.4-0.5-1.8C250.5,84.6,250,84.4,249.5,84.4z M254.9,91v-7.4h1l0.1,1
	c0.3-0.4,0.7-0.7,1.1-0.9c0.4-0.2,0.9-0.3,1.3-0.3c0.7,0,1.2,0.2,1.6,0.6c0.3,0.4,0.5,0.9,0.5,1.6V91h-1.2v-4.5c0-0.5,0-0.9-0.1-1.2
	s-0.2-0.5-0.4-0.7c-0.2-0.1-0.4-0.2-0.8-0.2c-0.3,0-0.6,0.1-0.8,0.2c-0.3,0.1-0.5,0.3-0.7,0.5c-0.2,0.2-0.4,0.4-0.5,0.6V91H254.9z
	 M267.7,80.5l1.2,0.1V91h-1l-0.1-1c-0.3,0.4-0.6,0.7-1,0.9c-0.4,0.2-0.7,0.3-1.1,0.3c-0.6,0-1.2-0.2-1.6-0.5s-0.7-0.8-0.9-1.3
	c-0.2-0.6-0.3-1.2-0.3-2c0-0.7,0.1-1.4,0.3-2c0.2-0.6,0.6-1,1-1.4c0.4-0.3,1-0.5,1.6-0.5c0.8,0,1.5,0.3,2,0.9V80.5z M266.1,84.4
	c-0.6,0-1.1,0.2-1.4,0.7c-0.3,0.5-0.5,1.2-0.5,2.2c0,1.9,0.6,2.9,1.8,2.9c0.4,0,0.8-0.1,1.1-0.3c0.3-0.2,0.5-0.5,0.7-0.8v-3.7
	c-0.2-0.3-0.4-0.5-0.7-0.7C266.7,84.5,266.4,84.4,266.1,84.4z M142.7,109.4c0,0.3,0,0.5,0.1,0.7c0.1,0.1,0.2,0.2,0.5,0.3l-0.3,0.8
	c-0.3,0-0.6-0.1-0.8-0.3c-0.2-0.2-0.4-0.4-0.5-0.7c-0.3,0.3-0.6,0.6-1,0.8c-0.4,0.2-0.8,0.3-1.3,0.3c-0.7,0-1.3-0.2-1.7-0.6
	c-0.4-0.4-0.6-1-0.6-1.7c0-0.8,0.3-1.3,0.9-1.8c0.6-0.4,1.4-0.6,2.6-0.6h1.1v-0.6c0-0.5-0.2-0.9-0.5-1.1c-0.3-0.2-0.7-0.3-1.3-0.3
	c-0.2,0-0.5,0-0.9,0.1c-0.3,0.1-0.7,0.2-1.1,0.3l-0.3-0.9c0.4-0.2,0.9-0.3,1.3-0.4c0.4-0.1,0.8-0.1,1.1-0.1c0.9,0,1.6,0.2,2.1,0.6
	c0.5,0.4,0.7,1,0.7,1.7V109.4z M139.6,110.3c0.4,0,0.7-0.1,1-0.3c0.3-0.2,0.6-0.4,0.8-0.8v-1.9h-1.1c-0.8,0-1.4,0.1-1.7,0.4
	c-0.3,0.3-0.5,0.7-0.5,1.1C138.2,109.8,138.7,110.3,139.6,110.3z M149.1,110.1c0.4,0,0.7-0.1,1-0.2c0.3-0.1,0.6-0.3,0.9-0.5l0.6,0.8
	c-0.3,0.3-0.7,0.5-1.2,0.7c-0.5,0.2-0.9,0.2-1.3,0.2c-0.7,0-1.4-0.2-1.9-0.5c-0.5-0.3-0.9-0.8-1.2-1.3c-0.3-0.6-0.4-1.2-0.4-2
	c0-0.7,0.1-1.4,0.4-2c0.3-0.6,0.7-1,1.2-1.4c0.5-0.3,1.1-0.5,1.9-0.5c0.9,0,1.8,0.3,2.5,0.9l-0.6,0.8c-0.6-0.4-1.3-0.7-1.9-0.7
	c-0.6,0-1.2,0.2-1.6,0.7c-0.4,0.5-0.6,1.2-0.6,2.2c0,1,0.2,1.7,0.6,2.1C148,109.9,148.5,110.1,149.1,110.1z M157.5,110.1
	c0.4,0,0.7-0.1,1-0.2c0.3-0.1,0.6-0.3,0.9-0.5l0.6,0.8c-0.3,0.3-0.7,0.5-1.2,0.7c-0.5,0.2-0.9,0.2-1.3,0.2c-0.7,0-1.4-0.2-1.9-0.5
	c-0.5-0.3-0.9-0.8-1.2-1.3c-0.3-0.6-0.4-1.2-0.4-2c0-0.7,0.1-1.4,0.4-2s0.7-1,1.2-1.4c0.5-0.3,1.1-0.5,1.9-0.5
	c0.9,0,1.8,0.3,2.5,0.9l-0.6,0.8c-0.6-0.4-1.3-0.7-1.9-0.7c-0.6,0-1.2,0.2-1.6,0.7c-0.4,0.5-0.6,1.2-0.6,2.2c0,1,0.2,1.7,0.6,2.1
	C156.4,109.9,156.9,110.1,157.5,110.1z M163.5,107.7c0,0.9,0.3,1.5,0.7,1.9c0.4,0.4,0.9,0.6,1.5,0.6c0.4,0,0.7-0.1,1-0.2
	c0.3-0.1,0.6-0.3,0.9-0.5l0.6,0.8c-0.3,0.3-0.7,0.5-1.2,0.6c-0.4,0.2-0.9,0.2-1.4,0.2c-0.7,0-1.3-0.2-1.8-0.5
	c-0.5-0.3-0.9-0.8-1.1-1.3c-0.3-0.6-0.4-1.2-0.4-2c0-0.7,0.1-1.4,0.4-2c0.3-0.6,0.6-1,1.1-1.4c0.5-0.3,1.1-0.5,1.7-0.5
	c0.9,0,1.7,0.3,2.2,1c0.5,0.6,0.8,1.5,0.8,2.6c0,0.1,0,0.2,0,0.4c0,0.1,0,0.2,0,0.3H163.5z M165.5,104.4c-0.5,0-1,0.2-1.4,0.6
	c-0.4,0.4-0.6,1-0.6,1.8h3.8c0-0.8-0.2-1.4-0.5-1.8C166.5,104.6,166.1,104.4,165.5,104.4z M173.5,110.2c0.6,0,1-0.1,1.3-0.3
	c0.3-0.2,0.5-0.5,0.5-0.9c0-0.2,0-0.4-0.1-0.6c-0.1-0.2-0.2-0.3-0.5-0.4c-0.3-0.1-0.6-0.3-1.2-0.4c-0.5-0.1-1-0.3-1.3-0.4
	c-0.4-0.2-0.7-0.4-0.9-0.7c-0.2-0.3-0.3-0.6-0.3-1c0-0.6,0.3-1.1,0.8-1.5s1.2-0.5,2-0.5c0.6,0,1.1,0.1,1.5,0.2
	c0.4,0.2,0.8,0.4,1.1,0.6l-0.5,0.8c-0.3-0.2-0.6-0.3-0.9-0.5c-0.3-0.1-0.7-0.2-1.2-0.2c-0.6,0-1,0.1-1.2,0.3
	c-0.2,0.2-0.4,0.4-0.4,0.7c0,0.2,0.1,0.4,0.2,0.5c0.1,0.1,0.3,0.3,0.6,0.4c0.3,0.1,0.7,0.2,1.2,0.4c0.5,0.1,0.9,0.3,1.3,0.5
	c0.4,0.2,0.6,0.4,0.8,0.7c0.2,0.3,0.3,0.7,0.3,1.1c0,0.5-0.1,0.9-0.4,1.3c-0.3,0.3-0.7,0.6-1.2,0.7c-0.5,0.1-1,0.2-1.5,0.2
	c-0.7,0-1.2-0.1-1.7-0.3c-0.5-0.2-0.9-0.4-1.2-0.7l0.7-0.8c0.3,0.2,0.6,0.4,1,0.6C172.7,110.1,173.1,110.2,173.5,110.2z
	 M181.9,110.2c0.6,0,1-0.1,1.3-0.3c0.3-0.2,0.5-0.5,0.5-0.9c0-0.2,0-0.4-0.1-0.6c-0.1-0.2-0.2-0.3-0.5-0.4c-0.3-0.1-0.6-0.3-1.2-0.4
	c-0.5-0.1-1-0.3-1.3-0.4c-0.4-0.2-0.7-0.4-0.9-0.7c-0.2-0.3-0.3-0.6-0.3-1c0-0.6,0.3-1.1,0.8-1.5c0.5-0.4,1.2-0.5,2-0.5
	c0.6,0,1.1,0.1,1.5,0.2c0.4,0.2,0.8,0.4,1.1,0.6l-0.5,0.8c-0.3-0.2-0.6-0.3-0.9-0.5c-0.3-0.1-0.7-0.2-1.2-0.2c-0.6,0-1,0.1-1.2,0.3
	c-0.2,0.2-0.4,0.4-0.4,0.7c0,0.2,0.1,0.4,0.2,0.5c0.1,0.1,0.3,0.3,0.6,0.4c0.3,0.1,0.7,0.2,1.2,0.4c0.5,0.1,0.9,0.3,1.3,0.5
	c0.4,0.2,0.6,0.4,0.8,0.7c0.2,0.3,0.3,0.7,0.3,1.1c0,0.5-0.2,0.9-0.4,1.3c-0.3,0.3-0.7,0.6-1.2,0.7c-0.5,0.1-1,0.2-1.5,0.2
	c-0.7,0-1.2-0.1-1.7-0.3c-0.5-0.2-0.9-0.4-1.2-0.7l0.7-0.8c0.3,0.2,0.6,0.4,1,0.6C181,110.1,181.5,110.2,181.9,110.2z M193.3,104.8
	v1h-5.4v-1H193.3z M193.3,107.5v1h-5.4v-1H193.3z M199.5,103.5c0.7,0,1.2,0.2,1.6,0.5c0.4,0.3,0.7,0.8,0.8,1.3
	c0.2,0.6,0.3,1.2,0.3,2c0,0.7-0.1,1.4-0.3,2c-0.2,0.6-0.5,1-0.9,1.4s-1,0.5-1.6,0.5c-0.8,0-1.5-0.3-1.9-0.9v3.5l-1.2,0.1v-10.3h1
	l0.1,1c0.3-0.4,0.6-0.7,1-0.9C198.6,103.6,199,103.5,199.5,103.5z M199.2,104.4c-0.4,0-0.8,0.1-1.1,0.4c-0.3,0.2-0.6,0.5-0.8,0.8
	v3.7c0.2,0.3,0.4,0.5,0.7,0.7c0.3,0.2,0.6,0.2,1,0.2c0.6,0,1.1-0.2,1.4-0.7c0.3-0.5,0.5-1.2,0.5-2.2
	C200.9,105.4,200.3,104.4,199.2,104.4z M205.7,103.6v5.2c0,0.5,0.1,0.8,0.3,1.1c0.2,0.2,0.5,0.3,0.9,0.3c0.4,0,0.8-0.1,1.1-0.3
	c0.4-0.2,0.6-0.5,0.8-0.8v-5.4h1.2v7.4h-1l-0.1-1c-0.3,0.4-0.6,0.7-1.1,0.9c-0.4,0.2-0.9,0.3-1.3,0.3c-0.7,0-1.2-0.2-1.6-0.6
	c-0.3-0.4-0.5-0.9-0.5-1.6v-5.4H205.7z M214.1,104.6c0.3-0.4,0.6-0.6,0.9-0.8c0.4-0.2,0.7-0.3,1.2-0.3c0.7,0,1.2,0.2,1.6,0.5
	c0.4,0.3,0.7,0.8,0.9,1.3c0.2,0.6,0.3,1.2,0.3,2c0,0.7-0.1,1.4-0.3,2c-0.2,0.6-0.5,1-1,1.4s-1,0.5-1.6,0.5c-0.9,0-1.5-0.3-2-0.9
	L214,111h-1v-10.3l1.2-0.1V104.6z M215.8,110.2c0.6,0,1.1-0.2,1.4-0.7c0.3-0.5,0.5-1.2,0.5-2.2c0-1.9-0.6-2.9-1.7-2.9
	c-0.4,0-0.8,0.1-1.1,0.4c-0.3,0.2-0.6,0.5-0.8,0.8v3.7c0.2,0.3,0.4,0.5,0.7,0.7C215.1,110.1,215.5,110.2,215.8,110.2z M224.2,100.7
	v8.5c0,0.4,0.1,0.6,0.3,0.8c0.2,0.1,0.5,0.2,0.9,0.2c0.2,0,0.4,0,0.6-0.1c0.2,0,0.4-0.1,0.6-0.2l0.3,0.9c-0.2,0.1-0.4,0.2-0.7,0.3
	c-0.3,0.1-0.6,0.1-1,0.1c-0.7,0-1.2-0.2-1.6-0.5c-0.4-0.4-0.6-0.9-0.6-1.5v-7.5h-2.3v-0.9H224.2z M232.5,100.2
	c0.3,0,0.5,0.1,0.6,0.2c0.2,0.2,0.2,0.4,0.2,0.6c0,0.2-0.1,0.4-0.2,0.6c-0.2,0.2-0.4,0.2-0.6,0.2c-0.2,0-0.4-0.1-0.6-0.2
	c-0.2-0.2-0.2-0.4-0.2-0.6c0-0.2,0.1-0.4,0.2-0.6S232.3,100.2,232.5,100.2z M233.5,103.6v6.4h2.1v0.9H230v-0.9h2.3v-5.5h-2.2v-0.9
	H233.5z M241.5,110.1c0.4,0,0.7-0.1,1-0.2c0.3-0.1,0.6-0.3,0.9-0.5l0.6,0.8c-0.3,0.3-0.7,0.5-1.2,0.7c-0.5,0.2-0.9,0.2-1.3,0.2
	c-0.7,0-1.4-0.2-1.9-0.5c-0.5-0.3-0.9-0.8-1.2-1.3c-0.3-0.6-0.4-1.2-0.4-2c0-0.7,0.1-1.4,0.4-2c0.3-0.6,0.7-1,1.2-1.4
	c0.5-0.3,1.1-0.5,1.9-0.5c0.9,0,1.8,0.3,2.5,0.9l-0.6,0.8c-0.6-0.4-1.3-0.7-1.9-0.7c-0.6,0-1.2,0.2-1.6,0.7
	c-0.4,0.5-0.6,1.2-0.6,2.2c0,1,0.2,1.7,0.6,2.1C240.3,109.9,240.8,110.1,241.5,110.1z M139.9,130.2c0.6,0,1-0.1,1.3-0.3
	c0.3-0.2,0.5-0.5,0.5-0.9c0-0.2,0-0.4-0.1-0.6c-0.1-0.2-0.2-0.3-0.5-0.4c-0.3-0.1-0.6-0.3-1.2-0.4c-0.5-0.1-1-0.3-1.3-0.4
	c-0.4-0.2-0.7-0.4-0.9-0.7c-0.2-0.3-0.3-0.6-0.3-1c0-0.6,0.3-1.1,0.8-1.5s1.2-0.5,2-0.5c0.6,0,1.1,0.1,1.5,0.2
	c0.4,0.2,0.8,0.4,1.1,0.6l-0.5,0.8c-0.3-0.2-0.6-0.3-0.9-0.5c-0.3-0.1-0.7-0.2-1.2-0.2c-0.6,0-1,0.1-1.2,0.3
	c-0.2,0.2-0.4,0.4-0.4,0.7c0,0.2,0.1,0.4,0.2,0.5c0.1,0.1,0.3,0.3,0.6,0.4c0.3,0.1,0.7,0.2,1.2,0.4c0.5,0.1,0.9,0.3,1.3,0.5
	c0.4,0.2,0.6,0.4,0.8,0.7c0.2,0.3,0.3,0.7,0.3,1.1c0,0.5-0.1,0.9-0.4,1.3c-0.3,0.3-0.7,0.6-1.2,0.7c-0.5,0.1-1,0.2-1.5,0.2
	c-0.7,0-1.2-0.1-1.7-0.3c-0.5-0.2-0.9-0.4-1.2-0.7l0.7-0.8c0.3,0.2,0.6,0.4,1,0.6C139.1,130.1,139.5,130.2,139.9,130.2z
	 M148.6,123.5c1,0,1.8,0.3,2.4,1s0.8,1.6,0.8,2.8c0,0.8-0.1,1.4-0.4,2c-0.2,0.6-0.6,1-1.1,1.4c-0.5,0.3-1,0.5-1.7,0.5
	c-1,0-1.8-0.3-2.4-1.1c-0.5-0.7-0.8-1.6-0.8-2.8c0-0.8,0.1-1.4,0.4-2c0.2-0.6,0.6-1,1.1-1.4C147.3,123.6,147.9,123.5,148.6,123.5z
	 M148.6,124.4c-0.6,0-1.1,0.2-1.4,0.7c-0.3,0.5-0.5,1.2-0.5,2.2c0,1,0.2,1.7,0.5,2.2c0.3,0.5,0.8,0.7,1.4,0.7c0.6,0,1.1-0.2,1.4-0.7
	c0.3-0.5,0.5-1.2,0.5-2.2c0-1-0.2-1.7-0.5-2.2C149.7,124.7,149.2,124.4,148.6,124.4z M158.6,120.5c0.4,0,0.8,0,1.1,0.1
	c0.3,0.1,0.6,0.2,0.9,0.3l-0.4,0.9c-0.2-0.1-0.5-0.2-0.8-0.2c-0.3-0.1-0.5-0.1-0.8-0.1c-1,0-1.5,0.4-1.5,1.2v1.5h2.5l-0.1,0.9H157
	v5.9h-1.2v-5.9h-1.8v-0.9h1.8v-1.5c0-0.5,0.1-0.9,0.4-1.2c0.2-0.3,0.6-0.6,1-0.8C157.6,120.6,158,120.5,158.6,120.5z M168.4,130.6
	c-0.3,0.2-0.6,0.3-0.9,0.4c-0.4,0.1-0.7,0.1-1.1,0.1c-0.8,0-1.4-0.2-1.8-0.6c-0.4-0.4-0.6-0.9-0.6-1.6v-4.4h-1.7v-0.9h1.7V122
	l1.2-0.1v1.8h2.5l-0.1,0.9h-2.4v4.4c0,0.4,0.1,0.7,0.3,0.9c0.2,0.2,0.6,0.3,1.1,0.3c0.3,0,0.5,0,0.8-0.1c0.2-0.1,0.4-0.1,0.7-0.3
	L168.4,130.6z M176.4,131h-1.7l-1-5.4l-1,5.4h-1.6l-1.3-7.4h1.2l0.9,6.6l1.2-5.7h1.4l1.1,5.7l0.9-6.6h1.1L176.4,131z M184.7,129.4
	c0,0.3,0,0.5,0.1,0.7c0.1,0.1,0.2,0.2,0.5,0.3l-0.3,0.8c-0.3,0-0.6-0.1-0.8-0.3c-0.2-0.2-0.4-0.4-0.5-0.7c-0.3,0.3-0.6,0.6-1,0.8
	c-0.4,0.2-0.8,0.3-1.3,0.3c-0.7,0-1.3-0.2-1.7-0.6c-0.4-0.4-0.6-1-0.6-1.7c0-0.8,0.3-1.3,0.9-1.8c0.6-0.4,1.4-0.6,2.6-0.6h1.1v-0.6
	c0-0.5-0.2-0.9-0.5-1.1c-0.3-0.2-0.7-0.3-1.3-0.3c-0.2,0-0.5,0-0.9,0.1c-0.3,0.1-0.7,0.2-1.1,0.3l-0.3-0.9c0.4-0.2,0.9-0.3,1.3-0.4
	c0.4-0.1,0.8-0.1,1.1-0.1c0.9,0,1.6,0.2,2.1,0.6c0.5,0.4,0.7,1,0.7,1.7V129.4z M181.6,130.3c0.4,0,0.7-0.1,1-0.3
	c0.3-0.2,0.6-0.4,0.8-0.8v-1.9h-1.1c-0.8,0-1.4,0.1-1.7,0.4c-0.3,0.3-0.5,0.7-0.5,1.1C180.2,129.8,180.7,130.3,181.6,130.3z
	 M187.8,131v-0.9h1.1v-5.6h-1.1v-0.9h2l0.2,1.7c0.3-0.6,0.6-1.1,1-1.4c0.4-0.3,0.9-0.5,1.6-0.5c0.2,0,0.4,0,0.5,0
	c0.2,0,0.3,0.1,0.5,0.1l-0.2,2.5h-1v-1.6c0,0,0,0-0.1,0c-1.1,0-1.9,0.8-2.4,2.4v3.1h1.5v0.9H187.8z M197.1,127.7
	c0,0.9,0.3,1.5,0.7,1.9c0.4,0.4,0.9,0.6,1.5,0.6c0.4,0,0.7-0.1,1-0.2c0.3-0.1,0.6-0.3,0.9-0.5l0.6,0.8c-0.3,0.3-0.7,0.5-1.2,0.6
	c-0.4,0.2-0.9,0.2-1.4,0.2c-0.7,0-1.3-0.2-1.8-0.5c-0.5-0.3-0.9-0.8-1.1-1.3c-0.3-0.6-0.4-1.2-0.4-2c0-0.7,0.1-1.4,0.4-2
	c0.3-0.6,0.6-1,1.1-1.4c0.5-0.3,1.1-0.5,1.7-0.5c0.9,0,1.7,0.3,2.2,1c0.5,0.6,0.8,1.5,0.8,2.6c0,0.1,0,0.2,0,0.4c0,0.1,0,0.2,0,0.3
	H197.1z M199.1,124.4c-0.5,0-1,0.2-1.4,0.6c-0.4,0.4-0.6,1-0.6,1.8h3.8c0-0.8-0.2-1.4-0.5-1.8C200.1,124.6,199.6,124.4,199.1,124.4z
	 M210.1,124.8v1h-5.4v-1H210.1z M210.1,127.5v1h-5.4v-1H210.1z M213,131v-7.4h1l0.1,1c0.3-0.4,0.7-0.7,1.1-0.9
	c0.4-0.2,0.9-0.3,1.3-0.3c0.7,0,1.2,0.2,1.6,0.6c0.3,0.4,0.5,0.9,0.5,1.6v5.4h-1.2v-4.5c0-0.5,0-0.9-0.1-1.2s-0.2-0.5-0.4-0.7
	c-0.2-0.1-0.5-0.2-0.8-0.2c-0.3,0-0.6,0.1-0.8,0.2c-0.3,0.1-0.5,0.3-0.7,0.5c-0.2,0.2-0.4,0.4-0.5,0.6v5.4H213z M227.3,122.8
	l0.4,1.1c-0.3,0.1-0.7,0.2-1,0.2c-0.3,0-0.7,0-1.1,0c0.9,0.4,1.3,1,1.3,1.9c0,0.7-0.2,1.3-0.7,1.8c-0.5,0.5-1.2,0.7-2,0.7
	c-0.2,0-0.5,0-0.6,0c-0.2,0-0.3-0.1-0.5-0.1c-0.1,0.1-0.2,0.2-0.3,0.3c-0.1,0.1-0.1,0.3-0.1,0.4c0,0.2,0.1,0.3,0.2,0.4
	c0.1,0.1,0.4,0.2,0.8,0.2h1.3c0.5,0,0.9,0.1,1.3,0.3s0.7,0.4,0.9,0.7c0.2,0.3,0.3,0.6,0.3,1c0,0.7-0.3,1.3-0.9,1.7
	c-0.6,0.4-1.5,0.6-2.6,0.6c-0.8,0-1.4-0.1-1.9-0.2c-0.5-0.2-0.8-0.4-1-0.7c-0.2-0.3-0.3-0.7-0.3-1.2h1.1c0,0.3,0.1,0.5,0.2,0.7
	c0.1,0.2,0.3,0.3,0.6,0.4c0.3,0.1,0.7,0.1,1.3,0.1c0.8,0,1.4-0.1,1.8-0.3c0.4-0.2,0.6-0.5,0.6-0.9c0-0.4-0.2-0.6-0.5-0.8
	c-0.3-0.2-0.7-0.3-1.2-0.3h-1.3c-0.6,0-1.1-0.1-1.4-0.4c-0.3-0.3-0.4-0.6-0.4-1c0-0.5,0.3-0.9,0.8-1.3c-0.8-0.4-1.2-1.1-1.2-2
	c0-0.5,0.1-0.9,0.4-1.3c0.2-0.4,0.6-0.7,1-0.9c0.4-0.2,1-0.3,1.5-0.3c0.6,0,1.1,0,1.5-0.1c0.4-0.1,0.7-0.1,1-0.2
	C226.8,123.1,227.1,123,227.3,122.8z M224,124.3c-0.6,0-1,0.2-1.3,0.5c-0.3,0.3-0.4,0.7-0.4,1.2c0,0.5,0.1,0.9,0.4,1.2
	c0.3,0.3,0.7,0.5,1.3,0.5c0.5,0,0.9-0.2,1.2-0.5c0.3-0.3,0.4-0.7,0.4-1.3C225.6,124.9,225.1,124.3,224,124.3z M232.5,120.2
	c0.3,0,0.5,0.1,0.6,0.2c0.2,0.2,0.2,0.4,0.2,0.6c0,0.2-0.1,0.4-0.2,0.6c-0.2,0.2-0.4,0.2-0.6,0.2c-0.2,0-0.4-0.1-0.6-0.2
	c-0.2-0.2-0.2-0.4-0.2-0.6c0-0.2,0.1-0.4,0.2-0.6S232.3,120.2,232.5,120.2z M233.5,123.6v6.4h2.1v0.9H230v-0.9h2.3v-5.5h-2.2v-0.9
	H233.5z M238.1,131v-7.4h1l0.1,1c0.3-0.4,0.7-0.7,1.1-0.9c0.4-0.2,0.9-0.3,1.3-0.3c0.7,0,1.2,0.2,1.6,0.6c0.3,0.4,0.5,0.9,0.5,1.6
	v5.4h-1.2v-4.5c0-0.5,0-0.9-0.1-1.2s-0.2-0.5-0.4-0.7c-0.2-0.1-0.4-0.2-0.8-0.2c-0.3,0-0.6,0.1-0.8,0.2c-0.3,0.1-0.5,0.3-0.7,0.5
	c-0.2,0.2-0.4,0.4-0.5,0.6v5.4H238.1z M247.2,131h-1.3l2.7-3.9l-2.4-3.5h1.4l1.7,2.7l1.7-2.7h1.3l-2.4,3.4l2.7,3.9h-1.4l-2-3.2
	L247.2,131z"/>
<rect x="400" y="40" class="st3" width="200" height="136"/>
<path d="M422.7,69.4c0,0.3,0,0.5,0.1,0.7s0.2,0.2,0.5,0.3l-0.3,0.8c-0.3,0-0.6-0.1-0.8-0.3c-0.2-0.2-0.4-0.4-0.5-0.7
	c-0.3,0.3-0.6,0.6-1,0.8c-0.4,0.2-0.8,0.3-1.3,0.3c-0.7,0-1.3-0.2-1.7-0.6c-0.4-0.4-0.6-1-0.6-1.7c0-0.8,0.3-1.3,0.9-1.8
	c0.6-0.4,1.4-0.6,2.6-0.6h1.1v-0.6c0-0.5-0.2-0.9-0.5-1.1c-0.3-0.2-0.7-0.3-1.3-0.3c-0.2,0-0.5,0-0.9,0.1c-0.3,0.1-0.7,0.2-1.1,0.3
	l-0.3-0.9c0.4-0.2,0.9-0.3,1.3-0.4c0.4-0.1,0.8-0.1,1.1-0.1c0.9,0,1.6,0.2,2.1,0.6c0.5,0.4,0.7,1,0.7,1.7V69.4z M419.6,70.3
	c0.4,0,0.7-0.1,1-0.3c0.3-0.2,0.6-0.4,0.8-0.8v-1.9h-1.1c-0.8,0-1.4,0.1-1.7,0.4c-0.3,0.3-0.5,0.7-0.5,1.1
	C418.2,69.8,418.7,70.3,419.6,70.3z M429.1,63.5c0.7,0,1.2,0.2,1.6,0.5c0.4,0.3,0.7,0.8,0.8,1.3c0.2,0.6,0.3,1.2,0.3,2
	c0,0.7-0.1,1.4-0.3,2c-0.2,0.6-0.5,1-0.9,1.4s-1,0.5-1.6,0.5c-0.8,0-1.5-0.3-1.9-0.9v3.5l-1.2,0.1V63.6h1l0.1,1
	c0.3-0.4,0.6-0.7,1-0.9C428.2,63.6,428.7,63.5,429.1,63.5z M428.8,64.4c-0.4,0-0.8,0.1-1.1,0.4c-0.3,0.2-0.6,0.5-0.8,0.8v3.7
	c0.2,0.3,0.4,0.5,0.7,0.7c0.3,0.2,0.6,0.2,1,0.2c0.6,0,1.1-0.2,1.4-0.7c0.3-0.5,0.5-1.2,0.5-2.2C430.5,65.4,429.9,64.4,428.8,64.4z
	 M437.5,63.5c0.7,0,1.2,0.2,1.6,0.5c0.4,0.3,0.7,0.8,0.8,1.3c0.2,0.6,0.3,1.2,0.3,2c0,0.7-0.1,1.4-0.3,2c-0.2,0.6-0.5,1-0.9,1.4
	c-0.4,0.3-1,0.5-1.6,0.5c-0.8,0-1.5-0.3-1.9-0.9v3.5l-1.2,0.1V63.6h1l0.1,1c0.3-0.4,0.6-0.7,1-0.9C436.6,63.6,437,63.5,437.5,63.5z
	 M437.2,64.4c-0.4,0-0.8,0.1-1.1,0.4c-0.3,0.2-0.6,0.5-0.8,0.8v3.7c0.2,0.3,0.4,0.5,0.7,0.7c0.3,0.2,0.6,0.2,1,0.2
	c0.6,0,1.1-0.2,1.4-0.7c0.3-0.5,0.5-1.2,0.5-2.2C438.9,65.4,438.3,64.4,437.2,64.4z M448.1,64.8v1h-5.4v-1H448.1z M448.1,67.5v1
	h-5.4v-1H448.1z M453.5,70.2c0.6,0,1-0.1,1.3-0.3s0.5-0.5,0.5-0.9c0-0.2,0-0.4-0.1-0.6c-0.1-0.2-0.2-0.3-0.5-0.4
	c-0.3-0.1-0.6-0.3-1.2-0.4c-0.5-0.1-1-0.3-1.3-0.4c-0.4-0.2-0.7-0.4-0.9-0.7c-0.2-0.3-0.3-0.6-0.3-1c0-0.6,0.3-1.1,0.8-1.5
	c0.5-0.4,1.2-0.5,2-0.5c0.6,0,1.1,0.1,1.5,0.2c0.4,0.2,0.8,0.4,1.1,0.6l-0.5,0.8c-0.3-0.2-0.6-0.3-0.9-0.5c-0.3-0.1-0.7-0.2-1.2-0.2
	c-0.6,0-1,0.1-1.2,0.3c-0.2,0.2-0.4,0.4-0.4,0.7c0,0.2,0.1,0.4,0.2,0.5c0.1,0.1,0.3,0.3,0.6,0.4s0.7,0.2,1.2,0.4
	c0.5,0.1,0.9,0.3,1.3,0.5s0.6,0.4,0.8,0.7c0.2,0.3,0.3,0.7,0.3,1.1c0,0.5-0.1,0.9-0.4,1.3c-0.3,0.3-0.7,0.6-1.2,0.7
	c-0.5,0.1-1,0.2-1.5,0.2c-0.7,0-1.2-0.1-1.7-0.3c-0.5-0.2-0.9-0.4-1.2-0.7l0.7-0.8c0.3,0.2,0.6,0.4,1,0.6
	C452.7,70.1,453.1,70.2,453.5,70.2z M465.2,70.6c-0.3,0.2-0.6,0.3-0.9,0.4c-0.4,0.1-0.7,0.1-1.1,0.1c-0.8,0-1.4-0.2-1.8-0.6
	c-0.4-0.4-0.6-0.9-0.6-1.6v-4.4h-1.7v-0.9h1.7V62l1.2-0.1v1.8h2.5l-0.1,0.9H462v4.4c0,0.4,0.1,0.7,0.3,0.9c0.2,0.2,0.6,0.3,1.1,0.3
	c0.3,0,0.5,0,0.8-0.1c0.2-0.1,0.4-0.1,0.7-0.3L465.2,70.6z M470.6,63.5c1,0,1.8,0.3,2.4,1c0.5,0.7,0.8,1.6,0.8,2.8
	c0,0.8-0.1,1.4-0.4,2c-0.2,0.6-0.6,1-1.1,1.4c-0.5,0.3-1.1,0.5-1.7,0.5c-1,0-1.8-0.4-2.4-1.1c-0.5-0.7-0.8-1.6-0.8-2.8
	c0-0.8,0.1-1.4,0.4-2c0.2-0.6,0.6-1,1.1-1.4C469.3,63.6,469.9,63.5,470.6,63.5z M470.6,64.4c-0.6,0-1.1,0.2-1.4,0.7
	c-0.3,0.5-0.5,1.2-0.5,2.2c0,1,0.2,1.7,0.5,2.2c0.3,0.5,0.8,0.7,1.4,0.7c0.6,0,1.1-0.2,1.4-0.7c0.3-0.5,0.5-1.2,0.5-2.2
	c0-1-0.2-1.7-0.5-2.2C471.7,64.7,471.2,64.4,470.6,64.4z M476.2,71v-0.9h1.1v-5.6h-1.1v-0.9h2l0.2,1.7c0.3-0.6,0.6-1.1,1-1.4
	c0.4-0.3,0.9-0.5,1.6-0.5c0.2,0,0.4,0,0.5,0c0.2,0,0.3,0.1,0.5,0.1l-0.2,2.5h-1v-1.6c0,0,0,0-0.1,0c-1.1,0-1.9,0.8-2.4,2.4v3.1h1.5
	V71H476.2z M485.5,67.7c0,0.9,0.3,1.5,0.7,1.9c0.4,0.4,0.9,0.6,1.5,0.6c0.4,0,0.7-0.1,1-0.2c0.3-0.1,0.6-0.3,0.9-0.5l0.6,0.8
	c-0.3,0.3-0.7,0.5-1.2,0.6c-0.4,0.2-0.9,0.2-1.4,0.2c-0.7,0-1.3-0.2-1.8-0.5c-0.5-0.3-0.9-0.8-1.1-1.3c-0.3-0.6-0.4-1.2-0.4-2
	c0-0.7,0.1-1.4,0.4-2c0.3-0.6,0.6-1,1.1-1.4c0.5-0.3,1.1-0.5,1.7-0.5c0.9,0,1.7,0.3,2.2,1c0.5,0.6,0.8,1.5,0.8,2.6
	c0,0.1,0,0.2,0,0.4c0,0.1,0,0.2,0,0.3H485.5z M487.5,64.4c-0.5,0-1,0.2-1.4,0.6c-0.4,0.4-0.6,1-0.6,1.8h3.8c0-0.8-0.2-1.4-0.5-1.8
	C488.5,64.6,488,64.4,487.5,64.4z M419.9,90.2c0.6,0,1-0.1,1.3-0.3c0.3-0.2,0.5-0.5,0.5-0.9c0-0.2,0-0.4-0.1-0.6
	c-0.1-0.2-0.2-0.3-0.5-0.4c-0.3-0.1-0.6-0.3-1.2-0.4c-0.5-0.1-1-0.3-1.3-0.4c-0.4-0.2-0.7-0.4-0.9-0.7c-0.2-0.3-0.3-0.6-0.3-1
	c0-0.6,0.3-1.1,0.8-1.5c0.5-0.4,1.2-0.5,2-0.5c0.6,0,1.1,0.1,1.5,0.2c0.4,0.2,0.8,0.4,1.1,0.6l-0.5,0.8c-0.3-0.2-0.6-0.3-0.9-0.5
	c-0.3-0.1-0.7-0.2-1.2-0.2c-0.6,0-1,0.1-1.2,0.3c-0.2,0.2-0.4,0.4-0.4,0.7c0,0.2,0.1,0.4,0.2,0.5c0.1,0.1,0.3,0.3,0.6,0.4
	s0.7,0.2,1.2,0.4c0.5,0.1,0.9,0.3,1.3,0.5c0.4,0.2,0.6,0.4,0.8,0.7c0.2,0.3,0.3,0.7,0.3,1.1c0,0.5-0.1,0.9-0.4,1.3
	c-0.3,0.3-0.7,0.6-1.2,0.7c-0.5,0.1-1,0.2-1.5,0.2c-0.7,0-1.2-0.1-1.7-0.3c-0.5-0.2-0.9-0.4-1.2-0.7l0.7-0.8c0.3,0.2,0.6,0.4,1,0.6
	C419.1,90.1,419.5,90.2,419.9,90.2z M426.7,87.7c0,0.9,0.3,1.5,0.7,1.9c0.4,0.4,0.9,0.6,1.5,0.6c0.4,0,0.7-0.1,1-0.2
	c0.3-0.1,0.6-0.3,0.9-0.5l0.6,0.8c-0.3,0.3-0.7,0.5-1.2,0.6c-0.4,0.2-0.9,0.2-1.4,0.2c-0.7,0-1.3-0.2-1.8-0.5
	c-0.5-0.3-0.9-0.8-1.1-1.3c-0.3-0.6-0.4-1.2-0.4-2c0-0.7,0.1-1.4,0.4-2c0.3-0.6,0.6-1,1.1-1.4c0.5-0.3,1.1-0.5,1.7-0.5
	c0.9,0,1.7,0.3,2.2,1c0.5,0.6,0.8,1.5,0.8,2.6c0,0.1,0,0.2,0,0.4c0,0.1,0,0.2,0,0.3H426.7z M428.7,84.4c-0.5,0-1,0.2-1.4,0.6
	c-0.4,0.4-0.6,1-0.6,1.8h3.8c0-0.8-0.2-1.4-0.5-1.8C429.7,84.6,429.3,84.4,428.7,84.4z M434.3,91v-0.9h1.1v-5.6h-1.1v-0.9h2l0.2,1.7
	c0.3-0.6,0.6-1.1,1-1.4c0.4-0.3,0.9-0.5,1.6-0.5c0.2,0,0.4,0,0.5,0c0.2,0,0.3,0.1,0.5,0.1l-0.2,2.5h-1v-1.6c0,0,0,0-0.1,0
	c-1.1,0-1.9,0.8-2.4,2.4v3.1h1.5V91H434.3z M448.7,83.6l-2.7,7.4h-1.4l-2.7-7.4h1.2l2.1,6.3l2.1-6.3H448.7z M453.8,80.2
	c0.3,0,0.5,0.1,0.6,0.2c0.2,0.2,0.2,0.4,0.2,0.6c0,0.2-0.1,0.4-0.2,0.6c-0.2,0.2-0.4,0.2-0.6,0.2c-0.2,0-0.5-0.1-0.6-0.2
	c-0.2-0.2-0.2-0.4-0.2-0.6c0-0.2,0.1-0.4,0.2-0.6S453.5,80.2,453.8,80.2z M454.7,83.6v6.4h2.1V91h-5.5v-0.9h2.3v-5.5h-2.2v-0.9
	H454.7z M462.7,90.1c0.4,0,0.7-0.1,1-0.2c0.3-0.1,0.6-0.3,0.9-0.5l0.6,0.8c-0.3,0.3-0.7,0.5-1.2,0.7c-0.5,0.2-0.9,0.2-1.3,0.2
	c-0.7,0-1.4-0.2-1.9-0.5c-0.5-0.3-0.9-0.8-1.2-1.3c-0.3-0.6-0.4-1.2-0.4-2c0-0.7,0.1-1.4,0.4-2c0.3-0.6,0.7-1,1.2-1.4
	c0.5-0.3,1.1-0.5,1.9-0.5c0.9,0,1.8,0.3,2.5,0.9l-0.6,0.8c-0.6-0.4-1.3-0.7-1.9-0.7c-0.6,0-1.2,0.2-1.6,0.7
	c-0.4,0.5-0.6,1.2-0.6,2.2c0,1,0.2,1.7,0.6,2.1C461.6,89.9,462.1,90.1,462.7,90.1z M468.7,87.7c0,0.9,0.3,1.5,0.7,1.9
	c0.4,0.4,0.9,0.6,1.5,0.6c0.4,0,0.7-0.1,1-0.2c0.3-0.1,0.6-0.3,0.9-0.5l0.6,0.8c-0.3,0.3-0.7,0.5-1.2,0.6c-0.4,0.2-0.9,0.2-1.4,0.2
	c-0.7,0-1.3-0.2-1.8-0.5c-0.5-0.3-0.9-0.8-1.1-1.3c-0.3-0.6-0.4-1.2-0.4-2c0-0.7,0.1-1.4,0.4-2c0.3-0.6,0.6-1,1.1-1.4
	c0.5-0.3,1.1-0.5,1.7-0.5c0.9,0,1.7,0.3,2.2,1c0.5,0.6,0.8,1.5,0.8,2.6c0,0.1,0,0.2,0,0.4c0,0.1,0,0.2,0,0.3H468.7z M470.7,84.4
	c-0.5,0-1,0.2-1.4,0.6c-0.4,0.4-0.6,1-0.6,1.8h3.8c0-0.8-0.2-1.4-0.5-1.8C471.7,84.6,471.3,84.4,470.7,84.4z M481.7,84.8v1h-5.4v-1
	H481.7z M481.7,87.5v1h-5.4v-1H481.7z M485.7,84.6c0.3-0.4,0.6-0.6,0.9-0.8c0.4-0.2,0.7-0.3,1.2-0.3c0.7,0,1.2,0.2,1.6,0.5
	c0.4,0.3,0.7,0.8,0.9,1.3c0.2,0.6,0.3,1.2,0.3,2c0,0.7-0.1,1.4-0.3,2c-0.2,0.6-0.5,1-1,1.4s-1,0.5-1.6,0.5c-0.9,0-1.5-0.3-2-0.9
	l-0.1,0.8h-1V80.7l1.2-0.1V84.6z M487.4,90.2c0.6,0,1.1-0.2,1.4-0.7c0.3-0.5,0.5-1.2,0.5-2.2c0-1.9-0.6-2.9-1.7-2.9
	c-0.4,0-0.8,0.1-1.1,0.4c-0.3,0.2-0.6,0.5-0.8,0.8v3.7c0.2,0.3,0.4,0.5,0.7,0.7C486.8,90.1,487.1,90.2,487.4,90.2z M498.2,89.4
	c0,0.3,0,0.5,0.1,0.7s0.2,0.2,0.5,0.3l-0.3,0.8c-0.3,0-0.6-0.1-0.8-0.3c-0.2-0.2-0.4-0.4-0.5-0.7c-0.3,0.3-0.6,0.6-1,0.8
	c-0.4,0.2-0.8,0.3-1.3,0.3c-0.7,0-1.3-0.2-1.7-0.6c-0.4-0.4-0.6-1-0.6-1.7c0-0.8,0.3-1.3,0.9-1.8c0.6-0.4,1.4-0.6,2.6-0.6h1.1v-0.6
	c0-0.5-0.2-0.9-0.5-1.1c-0.3-0.2-0.7-0.3-1.3-0.3c-0.2,0-0.5,0-0.9,0.1c-0.3,0.1-0.7,0.2-1.1,0.3l-0.3-0.9c0.4-0.2,0.9-0.3,1.3-0.4
	c0.4-0.1,0.8-0.1,1.1-0.1c0.9,0,1.6,0.2,2.1,0.6c0.5,0.4,0.7,1,0.7,1.7V89.4z M495.2,90.3c0.4,0,0.7-0.1,1-0.3
	c0.3-0.2,0.6-0.4,0.8-0.8v-1.9H496c-0.8,0-1.4,0.1-1.7,0.4c-0.3,0.3-0.5,0.7-0.5,1.1C493.8,89.8,494.2,90.3,495.2,90.3z M504.7,90.1
	c0.4,0,0.7-0.1,1-0.2c0.3-0.1,0.6-0.3,0.9-0.5l0.6,0.8c-0.3,0.3-0.7,0.5-1.2,0.7c-0.5,0.2-0.9,0.2-1.3,0.2c-0.7,0-1.4-0.2-1.9-0.5
	c-0.5-0.3-0.9-0.8-1.2-1.3c-0.3-0.6-0.4-1.2-0.4-2c0-0.7,0.1-1.4,0.4-2c0.3-0.6,0.7-1,1.2-1.4c0.5-0.3,1.1-0.5,1.9-0.5
	c0.9,0,1.8,0.3,2.5,0.9l-0.6,0.8c-0.6-0.4-1.3-0.7-1.9-0.7c-0.6,0-1.2,0.2-1.6,0.7c-0.4,0.5-0.6,1.2-0.6,2.2c0,1,0.2,1.7,0.6,2.1
	C503.5,89.9,504,90.1,504.7,90.1z M511,80.5V91h-1.2V80.7L511,80.5z M515.9,83.6l-3.3,3.3l3.7,4.1h-1.5l-3.6-4l3.3-3.3H515.9z
	 M519.1,87.7c0,0.9,0.3,1.5,0.7,1.9c0.4,0.4,0.9,0.6,1.5,0.6c0.4,0,0.7-0.1,1-0.2c0.3-0.1,0.6-0.3,0.9-0.5l0.6,0.8
	c-0.3,0.3-0.7,0.5-1.2,0.6c-0.4,0.2-0.9,0.2-1.4,0.2c-0.7,0-1.3-0.2-1.8-0.5c-0.5-0.3-0.9-0.8-1.1-1.3c-0.3-0.6-0.4-1.2-0.4-2
	c0-0.7,0.1-1.4,0.4-2c0.3-0.6,0.6-1,1.1-1.4c0.5-0.3,1.1-0.5,1.7-0.5c0.9,0,1.7,0.3,2.2,1c0.5,0.6,0.8,1.5,0.8,2.6
	c0,0.1,0,0.2,0,0.4c0,0.1,0,0.2,0,0.3H519.1z M521.1,84.4c-0.5,0-1,0.2-1.4,0.6c-0.4,0.4-0.6,1-0.6,1.8h3.8c0-0.8-0.2-1.4-0.5-1.8
	C522.1,84.6,521.6,84.4,521.1,84.4z M526.5,91v-7.4h1l0.1,1c0.3-0.4,0.7-0.7,1.1-0.9c0.4-0.2,0.9-0.3,1.3-0.3c0.7,0,1.2,0.2,1.6,0.6
	c0.3,0.4,0.5,0.9,0.5,1.6V91H531v-4.5c0-0.5,0-0.9-0.1-1.2c-0.1-0.3-0.2-0.5-0.4-0.7c-0.2-0.1-0.5-0.2-0.8-0.2
	c-0.3,0-0.6,0.1-0.8,0.2c-0.3,0.1-0.5,0.3-0.7,0.5c-0.2,0.2-0.4,0.4-0.5,0.6V91H526.5z M539.3,80.5l1.2,0.1V91h-1l-0.1-1
	c-0.3,0.4-0.6,0.7-1,0.9c-0.4,0.2-0.7,0.3-1.1,0.3c-0.6,0-1.2-0.2-1.6-0.5c-0.4-0.3-0.7-0.8-0.9-1.3c-0.2-0.6-0.3-1.2-0.3-2
	c0-0.7,0.1-1.4,0.3-2c0.2-0.6,0.6-1,1-1.4c0.4-0.3,1-0.5,1.6-0.5c0.8,0,1.5,0.3,2,0.9V80.5z M537.7,84.4c-0.6,0-1.1,0.2-1.4,0.7
	c-0.3,0.5-0.5,1.2-0.5,2.2c0,1.9,0.6,2.9,1.8,2.9c0.4,0,0.8-0.1,1.1-0.3c0.3-0.2,0.5-0.5,0.7-0.8v-3.7c-0.2-0.3-0.4-0.5-0.7-0.7
	C538.3,84.5,538,84.4,537.7,84.4z M422.7,109.4c0,0.3,0,0.5,0.1,0.7s0.2,0.2,0.5,0.3l-0.3,0.8c-0.3,0-0.6-0.1-0.8-0.3
	c-0.2-0.2-0.4-0.4-0.5-0.7c-0.3,0.3-0.6,0.6-1,0.8c-0.4,0.2-0.8,0.3-1.3,0.3c-0.7,0-1.3-0.2-1.7-0.6c-0.4-0.4-0.6-1-0.6-1.7
	c0-0.8,0.3-1.3,0.9-1.8c0.6-0.4,1.4-0.6,2.6-0.6h1.1v-0.6c0-0.5-0.2-0.9-0.5-1.1c-0.3-0.2-0.7-0.3-1.3-0.3c-0.2,0-0.5,0-0.9,0.1
	c-0.3,0.1-0.7,0.2-1.1,0.3l-0.3-0.9c0.4-0.2,0.9-0.3,1.3-0.4c0.4-0.1,0.8-0.1,1.1-0.1c0.9,0,1.6,0.2,2.1,0.6c0.5,0.4,0.7,1,0.7,1.7
	V109.4z M419.6,110.3c0.4,0,0.7-0.1,1-0.3c0.3-0.2,0.6-0.4,0.8-0.8v-1.9h-1.1c-0.8,0-1.4,0.1-1.7,0.4c-0.3,0.3-0.5,0.7-0.5,1.1
	C418.2,109.8,418.7,110.3,419.6,110.3z M429.1,110.1c0.4,0,0.7-0.1,1-0.2c0.3-0.1,0.6-0.3,0.9-0.5l0.6,0.8c-0.3,0.3-0.7,0.5-1.2,0.7
	c-0.5,0.2-0.9,0.2-1.3,0.2c-0.7,0-1.4-0.2-1.9-0.5c-0.5-0.3-0.9-0.8-1.2-1.3c-0.3-0.6-0.4-1.2-0.4-2c0-0.7,0.1-1.4,0.4-2
	c0.3-0.6,0.7-1,1.2-1.4c0.5-0.3,1.1-0.5,1.9-0.5c0.9,0,1.8,0.3,2.5,0.9l-0.6,0.8c-0.6-0.4-1.3-0.7-1.9-0.7c-0.6,0-1.2,0.2-1.6,0.7
	c-0.4,0.5-0.6,1.2-0.6,2.2c0,1,0.2,1.7,0.6,2.1C428,109.9,428.5,110.1,429.1,110.1z M437.5,110.1c0.4,0,0.7-0.1,1-0.2
	c0.3-0.1,0.6-0.3,0.9-0.5l0.6,0.8c-0.3,0.3-0.7,0.5-1.2,0.7c-0.5,0.2-0.9,0.2-1.3,0.2c-0.7,0-1.4-0.2-1.9-0.5
	c-0.5-0.3-0.9-0.8-1.2-1.3c-0.3-0.6-0.4-1.2-0.4-2c0-0.7,0.1-1.4,0.4-2c0.3-0.6,0.7-1,1.2-1.4c0.5-0.3,1.1-0.5,1.9-0.5
	c0.9,0,1.8,0.3,2.5,0.9l-0.6,0.8c-0.6-0.4-1.3-0.7-1.9-0.7c-0.6,0-1.2,0.2-1.6,0.7c-0.4,0.5-0.6,1.2-0.6,2.2c0,1,0.2,1.7,0.6,2.1
	C436.4,109.9,436.9,110.1,437.5,110.1z M443.5,107.7c0,0.9,0.3,1.5,0.7,1.9c0.4,0.4,0.9,0.6,1.5,0.6c0.4,0,0.7-0.1,1-0.2
	c0.3-0.1,0.6-0.3,0.9-0.5l0.6,0.8c-0.3,0.3-0.7,0.5-1.2,0.6c-0.4,0.2-0.9,0.2-1.4,0.2c-0.7,0-1.3-0.2-1.8-0.5
	c-0.5-0.3-0.9-0.8-1.1-1.3c-0.3-0.6-0.4-1.2-0.4-2c0-0.7,0.1-1.4,0.4-2c0.3-0.6,0.6-1,1.1-1.4c0.5-0.3,1.1-0.5,1.7-0.5
	c0.9,0,1.7,0.3,2.2,1c0.5,0.6,0.8,1.5,0.8,2.6c0,0.1,0,0.2,0,0.4c0,0.1,0,0.2,0,0.3H443.5z M445.5,104.4c-0.5,0-1,0.2-1.4,0.6
	c-0.4,0.4-0.6,1-0.6,1.8h3.8c0-0.8-0.2-1.4-0.5-1.8C446.5,104.6,446.1,104.4,445.5,104.4z M453.5,110.2c0.6,0,1-0.1,1.3-0.3
	s0.5-0.5,0.5-0.9c0-0.2,0-0.4-0.1-0.6c-0.1-0.2-0.2-0.3-0.5-0.4c-0.3-0.1-0.6-0.3-1.2-0.4c-0.5-0.1-1-0.3-1.3-0.4
	c-0.4-0.2-0.7-0.4-0.9-0.7c-0.2-0.3-0.3-0.6-0.3-1c0-0.6,0.3-1.1,0.8-1.5c0.5-0.4,1.2-0.5,2-0.5c0.6,0,1.1,0.1,1.5,0.2
	c0.4,0.2,0.8,0.4,1.1,0.6l-0.5,0.8c-0.3-0.2-0.6-0.3-0.9-0.5c-0.3-0.1-0.7-0.2-1.2-0.2c-0.6,0-1,0.1-1.2,0.3
	c-0.2,0.2-0.4,0.4-0.4,0.7c0,0.2,0.1,0.4,0.2,0.5c0.1,0.1,0.3,0.3,0.6,0.4s0.7,0.2,1.2,0.4c0.5,0.1,0.9,0.3,1.3,0.5s0.6,0.4,0.8,0.7
	c0.2,0.3,0.3,0.7,0.3,1.1c0,0.5-0.1,0.9-0.4,1.3c-0.3,0.3-0.7,0.6-1.2,0.7c-0.5,0.1-1,0.2-1.5,0.2c-0.7,0-1.2-0.1-1.7-0.3
	c-0.5-0.2-0.9-0.4-1.2-0.7l0.7-0.8c0.3,0.2,0.6,0.4,1,0.6C452.7,110.1,453.1,110.2,453.5,110.2z M461.9,110.2c0.6,0,1-0.1,1.3-0.3
	c0.3-0.2,0.5-0.5,0.5-0.9c0-0.2,0-0.4-0.1-0.6c-0.1-0.2-0.2-0.3-0.5-0.4c-0.3-0.1-0.6-0.3-1.2-0.4c-0.5-0.1-1-0.3-1.3-0.4
	c-0.4-0.2-0.7-0.4-0.9-0.7c-0.2-0.3-0.3-0.6-0.3-1c0-0.6,0.3-1.1,0.8-1.5s1.2-0.5,2-0.5c0.6,0,1.1,0.1,1.5,0.2
	c0.4,0.2,0.8,0.4,1.1,0.6l-0.5,0.8c-0.3-0.2-0.6-0.3-0.9-0.5c-0.3-0.1-0.7-0.2-1.2-0.2c-0.6,0-1,0.1-1.2,0.3
	c-0.2,0.2-0.4,0.4-0.4,0.7c0,0.2,0.1,0.4,0.2,0.5c0.1,0.1,0.3,0.3,0.6,0.4c0.3,0.1,0.7,0.2,1.2,0.4c0.5,0.1,0.9,0.3,1.3,0.5
	c0.4,0.2,0.6,0.4,0.8,0.7c0.2,0.3,0.3,0.7,0.3,1.1c0,0.5-0.1,0.9-0.4,1.3c-0.3,0.3-0.7,0.6-1.2,0.7c-0.5,0.1-1,0.2-1.5,0.2
	c-0.7,0-1.2-0.1-1.7-0.3c-0.5-0.2-0.9-0.4-1.2-0.7l0.7-0.8c0.3,0.2,0.6,0.4,1,0.6C461,110.1,461.5,110.2,461.9,110.2z M473.3,104.8
	v1h-5.4v-1H473.3z M473.3,107.5v1h-5.4v-1H473.3z M479.5,103.5c0.7,0,1.2,0.2,1.6,0.5c0.4,0.3,0.7,0.8,0.8,1.3
	c0.2,0.6,0.3,1.2,0.3,2c0,0.7-0.1,1.4-0.3,2c-0.2,0.6-0.5,1-0.9,1.4c-0.4,0.3-1,0.5-1.6,0.5c-0.8,0-1.5-0.3-1.9-0.9v3.5l-1.2,0.1
	v-10.3h1l0.1,1c0.3-0.4,0.6-0.7,1-0.9C478.6,103.6,479,103.5,479.5,103.5z M479.2,104.4c-0.4,0-0.8,0.1-1.1,0.4
	c-0.3,0.2-0.6,0.5-0.8,0.8v3.7c0.2,0.3,0.4,0.5,0.7,0.7c0.3,0.2,0.6,0.2,1,0.2c0.6,0,1.1-0.2,1.4-0.7c0.3-0.5,0.5-1.2,0.5-2.2
	C480.9,105.4,480.3,104.4,479.2,104.4z M484.6,111v-0.9h1.1v-5.6h-1.1v-0.9h2l0.2,1.7c0.3-0.6,0.6-1.1,1-1.4
	c0.4-0.3,0.9-0.5,1.6-0.5c0.2,0,0.4,0,0.5,0c0.2,0,0.3,0.1,0.5,0.1l-0.2,2.5h-1v-1.6c0,0,0,0-0.1,0c-1.1,0-1.9,0.8-2.4,2.4v3.1h1.5
	v0.9H484.6z M495.8,100.2c0.3,0,0.5,0.1,0.6,0.2c0.2,0.2,0.2,0.4,0.2,0.6c0,0.2-0.1,0.4-0.2,0.6c-0.2,0.2-0.4,0.2-0.6,0.2
	c-0.2,0-0.5-0.1-0.6-0.2c-0.2-0.2-0.2-0.4-0.2-0.6c0-0.2,0.1-0.4,0.2-0.6C495.3,100.3,495.5,100.2,495.8,100.2z M496.7,103.6v6.4
	h2.1v0.9h-5.5v-0.9h2.3v-5.5h-2.2v-0.9H496.7z M507.5,103.6l-2.7,7.4h-1.4l-2.7-7.4h1.2l2.1,6.3l2.1-6.3H507.5z M515,109.4
	c0,0.3,0,0.5,0.1,0.7s0.2,0.2,0.5,0.3l-0.3,0.8c-0.3,0-0.6-0.1-0.8-0.3c-0.2-0.2-0.4-0.4-0.5-0.7c-0.3,0.3-0.6,0.6-1,0.8
	c-0.4,0.2-0.8,0.3-1.3,0.3c-0.7,0-1.3-0.2-1.7-0.6c-0.4-0.4-0.6-1-0.6-1.7c0-0.8,0.3-1.3,0.9-1.8c0.6-0.4,1.4-0.6,2.6-0.6h1.1v-0.6
	c0-0.5-0.2-0.9-0.5-1.1c-0.3-0.2-0.7-0.3-1.3-0.3c-0.2,0-0.5,0-0.9,0.1c-0.3,0.1-0.7,0.2-1.1,0.3l-0.3-0.9c0.4-0.2,0.9-0.3,1.3-0.4
	c0.4-0.1,0.8-0.1,1.1-0.1c0.9,0,1.6,0.2,2.1,0.6c0.5,0.4,0.7,1,0.7,1.7V109.4z M512,110.3c0.4,0,0.7-0.1,1-0.3
	c0.3-0.2,0.6-0.4,0.8-0.8v-1.9h-1.1c-0.8,0-1.4,0.1-1.7,0.4c-0.3,0.3-0.5,0.7-0.5,1.1C510.6,109.8,511,110.3,512,110.3z M524,110.6
	c-0.3,0.2-0.6,0.3-0.9,0.4c-0.4,0.1-0.7,0.1-1.1,0.1c-0.8,0-1.4-0.2-1.8-0.6c-0.4-0.4-0.6-1-0.6-1.6v-4.4h-1.7v-0.9h1.7V102l1.2-0.1
	v1.8h2.5l-0.1,0.9h-2.4v4.4c0,0.4,0.1,0.7,0.3,0.9c0.2,0.2,0.6,0.3,1.1,0.3c0.3,0,0.5,0,0.8-0.1c0.2-0.1,0.5-0.1,0.7-0.3L524,110.6z
	 M527.5,107.7c0,0.9,0.3,1.5,0.7,1.9c0.4,0.4,0.9,0.6,1.5,0.6c0.4,0,0.7-0.1,1-0.2s0.6-0.3,0.9-0.5l0.6,0.8
	c-0.3,0.3-0.7,0.5-1.2,0.6s-0.9,0.2-1.4,0.2c-0.7,0-1.3-0.2-1.8-0.5c-0.5-0.3-0.9-0.8-1.1-1.3c-0.3-0.6-0.4-1.2-0.4-2
	c0-0.7,0.1-1.4,0.4-2c0.3-0.6,0.6-1,1.1-1.4c0.5-0.3,1.1-0.5,1.7-0.5c0.9,0,1.7,0.3,2.2,1c0.5,0.6,0.8,1.5,0.8,2.6
	c0,0.1,0,0.2,0,0.4c0,0.1,0,0.2,0,0.3H527.5z M529.5,104.4c-0.5,0-1,0.2-1.4,0.6c-0.4,0.4-0.6,1-0.6,1.8h3.8c0-0.8-0.2-1.4-0.5-1.8
	C530.5,104.6,530,104.4,529.5,104.4z M419.9,130.2c0.6,0,1-0.1,1.3-0.3c0.3-0.2,0.5-0.5,0.5-0.9c0-0.2,0-0.4-0.1-0.6
	c-0.1-0.2-0.2-0.3-0.5-0.4c-0.3-0.1-0.6-0.3-1.2-0.4c-0.5-0.1-1-0.3-1.3-0.4c-0.4-0.2-0.7-0.4-0.9-0.7c-0.2-0.3-0.3-0.6-0.3-1
	c0-0.6,0.3-1.1,0.8-1.5c0.5-0.4,1.2-0.5,2-0.5c0.6,0,1.1,0.1,1.5,0.2c0.4,0.2,0.8,0.4,1.1,0.6l-0.5,0.8c-0.3-0.2-0.6-0.3-0.9-0.5
	c-0.3-0.1-0.7-0.2-1.2-0.2c-0.6,0-1,0.1-1.2,0.3c-0.2,0.2-0.4,0.4-0.4,0.7c0,0.2,0.1,0.4,0.2,0.5c0.1,0.1,0.3,0.3,0.6,0.4
	s0.7,0.2,1.2,0.4c0.5,0.1,0.9,0.3,1.3,0.5c0.4,0.2,0.6,0.4,0.8,0.7c0.2,0.3,0.3,0.7,0.3,1.1c0,0.5-0.1,0.9-0.4,1.3
	c-0.3,0.3-0.7,0.6-1.2,0.7c-0.5,0.1-1,0.2-1.5,0.2c-0.7,0-1.2-0.1-1.7-0.3c-0.5-0.2-0.9-0.4-1.2-0.7l0.7-0.8c0.3,0.2,0.6,0.4,1,0.6
	C419.1,130.1,419.5,130.2,419.9,130.2z M428.6,123.5c1,0,1.8,0.3,2.4,1c0.5,0.7,0.8,1.6,0.8,2.8c0,0.8-0.1,1.4-0.4,2
	c-0.2,0.6-0.6,1-1.1,1.4c-0.5,0.3-1,0.5-1.7,0.5c-1,0-1.8-0.3-2.4-1.1c-0.5-0.7-0.8-1.6-0.8-2.8c0-0.8,0.1-1.4,0.4-2
	c0.2-0.6,0.6-1,1.1-1.4C427.3,123.6,427.9,123.5,428.6,123.5z M428.6,124.4c-0.6,0-1.1,0.2-1.4,0.7c-0.3,0.5-0.5,1.2-0.5,2.2
	c0,1,0.2,1.7,0.5,2.2c0.3,0.5,0.8,0.7,1.4,0.7c0.6,0,1.1-0.2,1.4-0.7c0.3-0.5,0.5-1.2,0.5-2.2c0-1-0.2-1.7-0.5-2.2
	C429.7,124.7,429.2,124.4,428.6,124.4z M438.5,120.5c0.4,0,0.8,0,1.1,0.1c0.3,0.1,0.6,0.2,0.9,0.3l-0.4,0.9
	c-0.2-0.1-0.5-0.2-0.8-0.2c-0.3-0.1-0.5-0.1-0.8-0.1c-1,0-1.5,0.4-1.5,1.2v1.5h2.5l-0.1,0.9H437v5.9h-1.2v-5.9h-1.8v-0.9h1.8v-1.5
	c0-0.5,0.1-0.9,0.4-1.2c0.2-0.3,0.6-0.6,1-0.8C437.6,120.6,438,120.5,438.5,120.5z M448.4,130.6c-0.3,0.2-0.6,0.3-0.9,0.4
	c-0.4,0.1-0.7,0.1-1.1,0.1c-0.8,0-1.4-0.2-1.8-0.6c-0.4-0.4-0.6-0.9-0.6-1.6v-4.4h-1.7v-0.9h1.7V122l1.2-0.1v1.8h2.5l-0.1,0.9h-2.4
	v4.4c0,0.4,0.1,0.7,0.3,0.9c0.2,0.2,0.6,0.3,1.1,0.3c0.3,0,0.5,0,0.8-0.1c0.2-0.1,0.4-0.1,0.7-0.3L448.4,130.6z M456.4,131h-1.7
	l-1-5.4l-1,5.4h-1.6l-1.3-7.4h1.2l0.9,6.6l1.2-5.7h1.4l1.1,5.7l0.9-6.6h1.1L456.4,131z M464.7,129.4c0,0.3,0,0.5,0.1,0.7
	c0.1,0.1,0.2,0.2,0.5,0.3l-0.3,0.8c-0.3,0-0.6-0.1-0.8-0.3c-0.2-0.2-0.4-0.4-0.5-0.7c-0.3,0.3-0.6,0.6-1,0.8
	c-0.4,0.2-0.8,0.3-1.3,0.3c-0.7,0-1.3-0.2-1.7-0.6c-0.4-0.4-0.6-1-0.6-1.7c0-0.8,0.3-1.3,0.9-1.8c0.6-0.4,1.4-0.6,2.6-0.6h1.1v-0.6
	c0-0.5-0.2-0.9-0.5-1.1c-0.3-0.2-0.7-0.3-1.3-0.3c-0.2,0-0.5,0-0.9,0.1c-0.3,0.1-0.7,0.2-1.1,0.3l-0.3-0.9c0.4-0.2,0.9-0.3,1.3-0.4
	c0.4-0.1,0.8-0.1,1.1-0.1c0.9,0,1.6,0.2,2.1,0.6c0.5,0.4,0.7,1,0.7,1.7V129.4z M461.6,130.3c0.4,0,0.7-0.1,1-0.3
	c0.3-0.2,0.6-0.4,0.8-0.8v-1.9h-1.1c-0.8,0-1.4,0.1-1.7,0.4c-0.3,0.3-0.5,0.7-0.5,1.1C460.2,129.8,460.7,130.3,461.6,130.3z
	 M467.8,131v-0.9h1.1v-5.6h-1.1v-0.9h2l0.2,1.7c0.3-0.6,0.6-1.1,1-1.4c0.4-0.3,0.9-0.5,1.6-0.5c0.2,0,0.4,0,0.5,0
	c0.2,0,0.3,0.1,0.5,0.1l-0.2,2.5h-1v-1.6c0,0,0,0-0.1,0c-1.1,0-1.9,0.8-2.4,2.4v3.1h1.5v0.9H467.8z M477.1,127.7
	c0,0.9,0.3,1.5,0.7,1.9c0.4,0.4,0.9,0.6,1.5,0.6c0.4,0,0.7-0.1,1-0.2c0.3-0.1,0.6-0.3,0.9-0.5l0.6,0.8c-0.3,0.3-0.7,0.5-1.2,0.6
	c-0.4,0.2-0.9,0.2-1.4,0.2c-0.7,0-1.3-0.2-1.8-0.5c-0.5-0.3-0.9-0.8-1.1-1.3c-0.3-0.6-0.4-1.2-0.4-2c0-0.7,0.1-1.4,0.4-2
	c0.3-0.6,0.6-1,1.1-1.4c0.5-0.3,1.1-0.5,1.7-0.5c0.9,0,1.7,0.3,2.2,1c0.5,0.6,0.8,1.5,0.8,2.6c0,0.1,0,0.2,0,0.4c0,0.1,0,0.2,0,0.3
	H477.1z M479.1,124.4c-0.5,0-1,0.2-1.4,0.6c-0.4,0.4-0.6,1-0.6,1.8h3.8c0-0.8-0.2-1.4-0.5-1.8C480.1,124.6,479.6,124.4,479.1,124.4z
	 M490.1,124.8v1h-5.4v-1H490.1z M490.1,127.5v1h-5.4v-1H490.1z M494.1,124.6c0.3-0.4,0.6-0.6,0.9-0.8c0.4-0.2,0.7-0.3,1.2-0.3
	c0.7,0,1.2,0.2,1.6,0.5c0.4,0.3,0.7,0.8,0.9,1.3c0.2,0.6,0.3,1.2,0.3,2c0,0.7-0.1,1.4-0.3,2c-0.2,0.6-0.5,1-1,1.4
	c-0.4,0.3-1,0.5-1.6,0.5c-0.9,0-1.5-0.3-2-0.9L494,131h-1v-10.3l1.2-0.1V124.6z M495.8,130.2c0.6,0,1.1-0.2,1.4-0.7
	c0.3-0.5,0.5-1.2,0.5-2.2c0-1.9-0.6-2.9-1.7-2.9c-0.4,0-0.8,0.1-1.1,0.4c-0.3,0.2-0.6,0.5-0.8,0.8v3.7c0.2,0.3,0.4,0.5,0.7,0.7
	C495.1,130.1,495.5,130.2,495.8,130.2z M506.6,129.4c0,0.3,0,0.5,0.1,0.7c0.1,0.1,0.2,0.2,0.5,0.3l-0.3,0.8c-0.3,0-0.6-0.1-0.8-0.3
	c-0.2-0.2-0.4-0.4-0.5-0.7c-0.3,0.3-0.6,0.6-1,0.8c-0.4,0.2-0.8,0.3-1.3,0.3c-0.7,0-1.3-0.2-1.7-0.6c-0.4-0.4-0.6-1-0.6-1.7
	c0-0.8,0.3-1.3,0.9-1.8c0.6-0.4,1.4-0.6,2.6-0.6h1.1v-0.6c0-0.5-0.2-0.9-0.5-1.1c-0.3-0.2-0.7-0.3-1.3-0.3c-0.2,0-0.5,0-0.9,0.1
	c-0.3,0.1-0.7,0.2-1.1,0.3l-0.3-0.9c0.4-0.2,0.9-0.3,1.3-0.4c0.4-0.1,0.8-0.1,1.1-0.1c0.9,0,1.6,0.2,2.1,0.6c0.5,0.4,0.7,1,0.7,1.7
	V129.4z M503.6,130.3c0.4,0,0.7-0.1,1-0.3c0.3-0.2,0.6-0.4,0.8-0.8v-1.9h-1.1c-0.8,0-1.4,0.1-1.7,0.4c-0.3,0.3-0.5,0.7-0.5,1.1
	C502.2,129.8,502.6,130.3,503.6,130.3z M510.9,120.5v4.1c0.3-0.4,0.6-0.7,1.1-0.9c0.4-0.2,0.9-0.3,1.3-0.3c0.7,0,1.2,0.2,1.6,0.6
	c0.3,0.4,0.5,0.9,0.5,1.6v5.4h-1.2v-5.3c0-0.4-0.1-0.8-0.3-1c-0.2-0.2-0.5-0.3-1-0.3c-0.3,0-0.5,0.1-0.8,0.2s-0.5,0.3-0.7,0.5
	c-0.2,0.2-0.4,0.4-0.5,0.6v5.4h-1.2v-10.3L510.9,120.5z M523.4,129.4c0,0.3,0,0.5,0.1,0.7c0.1,0.1,0.2,0.2,0.5,0.3l-0.3,0.8
	c-0.3,0-0.6-0.1-0.8-0.3c-0.2-0.2-0.4-0.4-0.5-0.7c-0.3,0.3-0.6,0.6-1,0.8c-0.4,0.2-0.8,0.3-1.3,0.3c-0.7,0-1.3-0.2-1.7-0.6
	c-0.4-0.4-0.6-1-0.6-1.7c0-0.8,0.3-1.3,0.9-1.8c0.6-0.4,1.4-0.6,2.6-0.6h1.1v-0.6c0-0.5-0.2-0.9-0.5-1.1c-0.3-0.2-0.7-0.3-1.3-0.3
	c-0.2,0-0.5,0-0.9,0.1c-0.3,0.1-0.7,0.2-1.1,0.3l-0.3-0.9c0.4-0.2,0.9-0.3,1.3-0.4c0.4-0.1,0.8-0.1,1.1-0.1c0.9,0,1.6,0.2,2.1,0.6
	c0.5,0.4,0.7,1,0.7,1.7V129.4z M520.4,130.3c0.4,0,0.7-0.1,1-0.3c0.3-0.2,0.6-0.4,0.8-0.8v-1.9h-1.1c-0.8,0-1.4,0.1-1.7,0.4
	c-0.3,0.3-0.5,0.7-0.5,1.1C519,129.8,519.4,130.3,520.4,130.3z M531.4,123.5c0.2,0,0.5,0.1,0.7,0.2c0.2,0.1,0.4,0.3,0.5,0.6
	s0.2,0.7,0.2,1.3v5.5h-1.1v-5.3c0-0.5,0-0.8-0.1-1c-0.1-0.2-0.2-0.3-0.5-0.3c-0.2,0-0.4,0.1-0.7,0.2c-0.2,0.1-0.4,0.4-0.6,0.7v5.7
	h-1.1v-5.3c0-0.5,0-0.8-0.1-1c-0.1-0.2-0.2-0.3-0.5-0.3c-0.2,0-0.5,0.1-0.7,0.2c-0.2,0.1-0.4,0.4-0.6,0.7v5.7h-1.1v-7.4h0.9l0.1,0.9
	c0.2-0.3,0.4-0.5,0.7-0.7c0.3-0.2,0.6-0.3,0.9-0.3c0.3,0,0.5,0.1,0.8,0.2c0.2,0.1,0.4,0.4,0.5,0.8c0.2-0.3,0.4-0.5,0.7-0.7
	C530.7,123.6,531,123.5,531.4,123.5z M540.2,129.4c0,0.3,0,0.5,0.1,0.7c0.1,0.1,0.2,0.2,0.5,0.3l-0.3,0.8c-0.3,0-0.6-0.1-0.8-0.3
	c-0.2-0.2-0.4-0.4-0.5-0.7c-0.3,0.3-0.6,0.6-1,0.8c-0.4,0.2-0.8,0.3-1.3,0.3c-0.7,0-1.3-0.2-1.7-0.6c-0.4-0.4-0.6-1-0.6-1.7
	c0-0.8,0.3-1.3,0.9-1.8c0.6-0.4,1.4-0.6,2.6-0.6h1.1v-0.6c0-0.5-0.2-0.9-0.5-1.1c-0.3-0.2-0.7-0.3-1.3-0.3c-0.2,0-0.5,0-0.9,0.1
	c-0.3,0.1-0.7,0.2-1.1,0.3l-0.3-0.9c0.4-0.2,0.9-0.3,1.3-0.4c0.4-0.1,0.8-0.1,1.1-0.1c0.9,0,1.6,0.2,2.1,0.6c0.5,0.4,0.7,1,0.7,1.7
	V129.4z M537.2,130.3c0.4,0,0.7-0.1,1-0.3c0.3-0.2,0.6-0.4,0.8-0.8v-1.9H538c-0.8,0-1.4,0.1-1.7,0.4c-0.3,0.3-0.5,0.7-0.5,1.1
	C535.7,129.8,536.2,130.3,537.2,130.3z M549.2,130.6c-0.3,0.2-0.6,0.3-0.9,0.4s-0.7,0.1-1.1,0.1c-0.8,0-1.4-0.2-1.8-0.6
	c-0.4-0.4-0.6-0.9-0.6-1.6v-4.4H543v-0.9h1.7V122l1.2-0.1v1.8h2.5l-0.1,0.9h-2.4v4.4c0,0.4,0.1,0.7,0.3,0.9c0.2,0.2,0.6,0.3,1.1,0.3
	c0.3,0,0.5,0,0.8-0.1c0.2-0.1,0.5-0.1,0.7-0.3L549.2,130.6z"/>
<rect x="680" y="40" class="st3" width="200" height="136"/>
<path d="M702.7,69.4c0,0.3,0,0.5,0.1,0.7c0.1,0.1,0.2,0.2,0.5,0.3l-0.3,0.8c-0.3,0-0.6-0.1-0.8-0.3c-0.2-0.2-0.4-0.4-0.5-0.7
	c-0.3,0.3-0.6,0.6-1,0.8c-0.4,0.2-0.8,0.3-1.3,0.3c-0.7,0-1.3-0.2-1.7-0.6s-0.6-1-0.6-1.7c0-0.8,0.3-1.3,0.9-1.8
	c0.6-0.4,1.4-0.6,2.6-0.6h1.1v-0.6c0-0.5-0.2-0.9-0.5-1.1c-0.3-0.2-0.7-0.3-1.3-0.3c-0.2,0-0.5,0-0.9,0.1c-0.3,0.1-0.7,0.2-1.1,0.3
	l-0.3-0.9c0.4-0.2,0.9-0.3,1.3-0.4c0.4-0.1,0.8-0.1,1.1-0.1c0.9,0,1.6,0.2,2.1,0.6c0.5,0.4,0.7,1,0.7,1.7V69.4z M699.6,70.3
	c0.4,0,0.7-0.1,1-0.3c0.3-0.2,0.6-0.4,0.8-0.8v-1.9h-1.1c-0.8,0-1.4,0.1-1.7,0.4c-0.3,0.3-0.5,0.7-0.5,1.1
	C698.2,69.8,698.7,70.3,699.6,70.3z M709.1,63.5c0.7,0,1.2,0.2,1.6,0.5c0.4,0.3,0.7,0.8,0.8,1.3c0.2,0.6,0.3,1.2,0.3,2
	c0,0.7-0.1,1.4-0.3,2c-0.2,0.6-0.5,1-0.9,1.4s-1,0.5-1.6,0.5c-0.8,0-1.5-0.3-1.9-0.9v3.5l-1.2,0.1V63.6h1l0.1,1
	c0.3-0.4,0.6-0.7,1-0.9C708.2,63.6,708.7,63.5,709.1,63.5z M708.8,64.4c-0.4,0-0.8,0.1-1.1,0.4c-0.3,0.2-0.6,0.5-0.8,0.8v3.7
	c0.2,0.3,0.4,0.5,0.7,0.7c0.3,0.2,0.6,0.2,1,0.2c0.6,0,1.1-0.2,1.4-0.7c0.3-0.5,0.5-1.2,0.5-2.2C710.5,65.4,709.9,64.4,708.8,64.4z
	 M717.5,63.5c0.7,0,1.2,0.2,1.6,0.5c0.4,0.3,0.7,0.8,0.8,1.3c0.2,0.6,0.3,1.2,0.3,2c0,0.7-0.1,1.4-0.3,2c-0.2,0.6-0.5,1-0.9,1.4
	c-0.4,0.3-1,0.5-1.6,0.5c-0.8,0-1.5-0.3-1.9-0.9v3.5l-1.2,0.1V63.6h1l0.1,1c0.3-0.4,0.6-0.7,1-0.9S717,63.5,717.5,63.5z M717.2,64.4
	c-0.4,0-0.8,0.1-1.1,0.4c-0.3,0.2-0.6,0.5-0.8,0.8v3.7c0.2,0.3,0.4,0.5,0.7,0.7c0.3,0.2,0.6,0.2,1,0.2c0.6,0,1.1-0.2,1.4-0.7
	c0.3-0.5,0.5-1.2,0.5-2.2C718.9,65.4,718.3,64.4,717.2,64.4z M728.1,64.8v1h-5.4v-1H728.1z M728.1,67.5v1h-5.4v-1H728.1z
	 M733.5,70.2c0.6,0,1-0.1,1.3-0.3c0.3-0.2,0.5-0.5,0.5-0.9c0-0.2,0-0.4-0.1-0.6c-0.1-0.2-0.2-0.3-0.5-0.4c-0.3-0.1-0.6-0.3-1.2-0.4
	c-0.5-0.1-1-0.3-1.3-0.4c-0.4-0.2-0.7-0.4-0.9-0.7c-0.2-0.3-0.3-0.6-0.3-1c0-0.6,0.3-1.1,0.8-1.5s1.2-0.5,2-0.5
	c0.6,0,1.1,0.1,1.5,0.2c0.4,0.2,0.8,0.4,1.1,0.6l-0.5,0.8c-0.3-0.2-0.6-0.3-0.9-0.5c-0.3-0.1-0.7-0.2-1.2-0.2c-0.6,0-1,0.1-1.2,0.3
	c-0.2,0.2-0.4,0.4-0.4,0.7c0,0.2,0.1,0.4,0.2,0.5c0.1,0.1,0.3,0.3,0.6,0.4c0.3,0.1,0.7,0.2,1.2,0.4c0.5,0.1,0.9,0.3,1.3,0.5
	c0.4,0.2,0.6,0.4,0.8,0.7c0.2,0.3,0.3,0.7,0.3,1.1c0,0.5-0.1,0.9-0.4,1.3c-0.3,0.3-0.7,0.6-1.2,0.7c-0.5,0.1-1,0.2-1.5,0.2
	c-0.7,0-1.2-0.1-1.7-0.3c-0.5-0.2-0.9-0.4-1.2-0.7l0.7-0.8c0.3,0.2,0.6,0.4,1,0.6C732.7,70.1,733.1,70.2,733.5,70.2z M745.2,70.6
	c-0.3,0.2-0.6,0.3-0.9,0.4c-0.4,0.1-0.7,0.1-1.1,0.1c-0.8,0-1.4-0.2-1.8-0.6c-0.4-0.4-0.6-0.9-0.6-1.6v-4.4h-1.7v-0.9h1.7V62
	l1.2-0.1v1.8h2.5l-0.1,0.9H742v4.4c0,0.4,0.1,0.7,0.3,0.9c0.2,0.2,0.6,0.3,1.1,0.3c0.3,0,0.5,0,0.8-0.1c0.2-0.1,0.5-0.1,0.7-0.3
	L745.2,70.6z M750.6,63.5c1,0,1.8,0.3,2.4,1c0.5,0.7,0.8,1.6,0.8,2.8c0,0.8-0.1,1.4-0.4,2c-0.2,0.6-0.6,1-1.1,1.4
	c-0.5,0.3-1,0.5-1.7,0.5c-1,0-1.8-0.4-2.4-1.1c-0.5-0.7-0.8-1.6-0.8-2.8c0-0.8,0.1-1.4,0.4-2c0.2-0.6,0.6-1,1.1-1.4
	C749.3,63.6,749.9,63.5,750.6,63.5z M750.6,64.4c-0.6,0-1.1,0.2-1.4,0.7c-0.3,0.5-0.5,1.2-0.5,2.2c0,1,0.2,1.7,0.5,2.2
	c0.3,0.5,0.8,0.7,1.4,0.7c0.6,0,1.1-0.2,1.4-0.7c0.3-0.5,0.5-1.2,0.5-2.2c0-1-0.2-1.7-0.5-2.2C751.7,64.7,751.2,64.4,750.6,64.4z
	 M756.2,71v-0.9h1.1v-5.6h-1.1v-0.9h2l0.2,1.7c0.3-0.6,0.6-1.1,1-1.4c0.4-0.3,0.9-0.5,1.6-0.5c0.2,0,0.4,0,0.5,0
	c0.2,0,0.3,0.1,0.5,0.1l-0.2,2.5h-1v-1.6c0,0,0,0-0.1,0c-1.1,0-1.9,0.8-2.4,2.4v3.1h1.5V71H756.2z M765.5,67.7
	c0,0.9,0.3,1.5,0.7,1.9c0.4,0.4,0.9,0.6,1.5,0.6c0.4,0,0.7-0.1,1-0.2c0.3-0.1,0.6-0.3,0.9-0.5l0.6,0.8c-0.3,0.3-0.7,0.5-1.2,0.6
	c-0.4,0.2-0.9,0.2-1.4,0.2c-0.7,0-1.3-0.2-1.8-0.5c-0.5-0.3-0.9-0.8-1.1-1.3c-0.3-0.6-0.4-1.2-0.4-2c0-0.7,0.1-1.4,0.4-2
	c0.3-0.6,0.6-1,1.1-1.4c0.5-0.3,1.1-0.5,1.7-0.5c0.9,0,1.7,0.3,2.2,1c0.5,0.6,0.8,1.5,0.8,2.6c0,0.1,0,0.2,0,0.4c0,0.1,0,0.2,0,0.3
	H765.5z M767.5,64.4c-0.5,0-1,0.2-1.4,0.6c-0.4,0.4-0.6,1-0.6,1.8h3.8c0-0.8-0.2-1.4-0.5-1.8C768.5,64.6,768,64.4,767.5,64.4z
	 M699.9,90.2c0.6,0,1-0.1,1.3-0.3c0.3-0.2,0.5-0.5,0.5-0.9c0-0.2,0-0.4-0.1-0.6c-0.1-0.2-0.2-0.3-0.5-0.4c-0.3-0.1-0.6-0.3-1.2-0.4
	c-0.5-0.1-1-0.3-1.3-0.4c-0.4-0.2-0.7-0.4-0.9-0.7c-0.2-0.3-0.3-0.6-0.3-1c0-0.6,0.3-1.1,0.8-1.5s1.2-0.5,2-0.5
	c0.6,0,1.1,0.1,1.5,0.2c0.4,0.2,0.8,0.4,1.1,0.6l-0.5,0.8c-0.3-0.2-0.6-0.3-0.9-0.5c-0.3-0.1-0.7-0.2-1.2-0.2c-0.6,0-1,0.1-1.2,0.3
	c-0.2,0.2-0.4,0.4-0.4,0.7c0,0.2,0.1,0.4,0.2,0.5c0.1,0.1,0.3,0.3,0.6,0.4c0.3,0.1,0.7,0.2,1.2,0.4c0.5,0.1,0.9,0.3,1.3,0.5
	c0.4,0.2,0.6,0.4,0.8,0.7c0.2,0.3,0.3,0.7,0.3,1.1c0,0.5-0.1,0.9-0.4,1.3c-0.3,0.3-0.7,0.6-1.2,0.7c-0.5,0.1-1,0.2-1.5,0.2
	c-0.7,0-1.2-0.1-1.7-0.3c-0.5-0.2-0.9-0.4-1.2-0.7l0.7-0.8c0.3,0.2,0.6,0.4,1,0.6C699.1,90.1,699.5,90.2,699.9,90.2z M706.7,87.7
	c0,0.9,0.3,1.5,0.7,1.9c0.4,0.4,0.9,0.6,1.5,0.6c0.4,0,0.7-0.1,1-0.2c0.3-0.1,0.6-0.3,0.9-0.5l0.6,0.8c-0.3,0.3-0.7,0.5-1.2,0.6
	c-0.4,0.2-0.9,0.2-1.4,0.2c-0.7,0-1.3-0.2-1.8-0.5c-0.5-0.3-0.9-0.8-1.1-1.3c-0.3-0.6-0.4-1.2-0.4-2c0-0.7,0.1-1.4,0.4-2
	c0.3-0.6,0.6-1,1.1-1.4c0.5-0.3,1.1-0.5,1.7-0.5c0.9,0,1.7,0.3,2.2,1c0.5,0.6,0.8,1.5,0.8,2.6c0,0.1,0,0.2,0,0.4c0,0.1,0,0.2,0,0.3
	H706.7z M708.7,84.4c-0.5,0-1,0.2-1.4,0.6c-0.4,0.4-0.6,1-0.6,1.8h3.8c0-0.8-0.2-1.4-0.5-1.8C709.7,84.6,709.3,84.4,708.7,84.4z
	 M714.3,91v-0.9h1.1v-5.6h-1.1v-0.9h2l0.2,1.7c0.3-0.6,0.6-1.1,1-1.4c0.4-0.3,0.9-0.5,1.6-0.5c0.2,0,0.4,0,0.5,0
	c0.2,0,0.3,0.1,0.5,0.1l-0.2,2.5h-1v-1.6c0,0,0,0-0.1,0c-1.1,0-1.9,0.8-2.4,2.4v3.1h1.5V91H714.3z M728.7,83.6l-2.7,7.4h-1.4
	l-2.7-7.4h1.2l2.1,6.3l2.1-6.3H728.7z M733.8,80.2c0.3,0,0.5,0.1,0.6,0.2c0.2,0.2,0.2,0.4,0.2,0.6c0,0.2-0.1,0.4-0.2,0.6
	c-0.2,0.2-0.4,0.2-0.6,0.2c-0.2,0-0.5-0.1-0.6-0.2c-0.2-0.2-0.2-0.4-0.2-0.6c0-0.2,0.1-0.4,0.2-0.6S733.5,80.2,733.8,80.2z
	 M734.7,83.6v6.4h2.1V91h-5.5v-0.9h2.3v-5.5h-2.2v-0.9H734.7z M742.7,90.1c0.4,0,0.7-0.1,1-0.2c0.3-0.1,0.6-0.3,0.9-0.5l0.6,0.8
	c-0.3,0.3-0.7,0.5-1.2,0.7c-0.5,0.2-0.9,0.2-1.3,0.2c-0.7,0-1.4-0.2-1.9-0.5c-0.5-0.3-0.9-0.8-1.2-1.3c-0.3-0.6-0.4-1.2-0.4-2
	c0-0.7,0.1-1.4,0.4-2c0.3-0.6,0.7-1,1.2-1.4c0.5-0.3,1.1-0.5,1.9-0.5c0.9,0,1.8,0.3,2.5,0.9l-0.6,0.8c-0.6-0.4-1.3-0.7-1.9-0.7
	c-0.6,0-1.2,0.2-1.6,0.7c-0.4,0.5-0.6,1.2-0.6,2.2c0,1,0.2,1.7,0.6,2.1C741.6,89.9,742.1,90.1,742.7,90.1z M748.7,87.7
	c0,0.9,0.3,1.5,0.7,1.9c0.4,0.4,0.9,0.6,1.5,0.6c0.4,0,0.7-0.1,1-0.2c0.3-0.1,0.6-0.3,0.9-0.5l0.6,0.8c-0.3,0.3-0.7,0.5-1.2,0.6
	c-0.4,0.2-0.9,0.2-1.4,0.2c-0.7,0-1.3-0.2-1.8-0.5c-0.5-0.3-0.9-0.8-1.1-1.3c-0.3-0.6-0.4-1.2-0.4-2c0-0.7,0.1-1.4,0.4-2
	c0.3-0.6,0.6-1,1.1-1.4c0.5-0.3,1.1-0.5,1.7-0.5c0.9,0,1.7,0.3,2.2,1c0.5,0.6,0.8,1.5,0.8,2.6c0,0.1,0,0.2,0,0.4c0,0.1,0,0.2,0,0.3
	H748.7z M750.7,84.4c-0.5,0-1,0.2-1.4,0.6c-0.4,0.4-0.6,1-0.6,1.8h3.8c0-0.8-0.2-1.4-0.5-1.8C751.7,84.6,751.3,84.4,750.7,84.4z
	 M761.7,84.8v1h-5.4v-1H761.7z M761.7,87.5v1h-5.4v-1H761.7z M769,80.5l1.2,0.1V91h-1l-0.1-1c-0.3,0.4-0.6,0.7-1,0.9
	c-0.4,0.2-0.7,0.3-1.1,0.3c-0.6,0-1.2-0.2-1.6-0.5c-0.4-0.3-0.7-0.8-0.9-1.3c-0.2-0.6-0.3-1.2-0.3-2c0-0.7,0.1-1.4,0.3-2
	c0.2-0.6,0.6-1,1-1.4c0.4-0.3,1-0.5,1.6-0.5c0.8,0,1.5,0.3,2,0.9V80.5z M767.3,84.4c-0.6,0-1.1,0.2-1.4,0.7
	c-0.3,0.5-0.5,1.2-0.5,2.2c0,1.9,0.6,2.9,1.8,2.9c0.4,0,0.8-0.1,1.1-0.3c0.3-0.2,0.5-0.5,0.7-0.8v-3.7c-0.2-0.3-0.4-0.5-0.7-0.7
	C768,84.5,767.6,84.4,767.3,84.4z M778.2,89.4c0,0.3,0,0.5,0.1,0.7s0.2,0.2,0.5,0.3l-0.3,0.8c-0.3,0-0.6-0.1-0.8-0.3
	c-0.2-0.2-0.4-0.4-0.5-0.7c-0.3,0.3-0.6,0.6-1,0.8c-0.4,0.2-0.8,0.3-1.3,0.3c-0.7,0-1.3-0.2-1.7-0.6c-0.4-0.4-0.6-1-0.6-1.7
	c0-0.8,0.3-1.3,0.9-1.8c0.6-0.4,1.4-0.6,2.6-0.6h1.1v-0.6c0-0.5-0.2-0.9-0.5-1.1c-0.3-0.2-0.7-0.3-1.3-0.3c-0.2,0-0.5,0-0.9,0.1
	c-0.3,0.1-0.7,0.2-1.1,0.3l-0.3-0.9c0.4-0.2,0.9-0.3,1.3-0.4c0.4-0.1,0.8-0.1,1.1-0.1c0.9,0,1.6,0.2,2.1,0.6c0.5,0.4,0.7,1,0.7,1.7
	V89.4z M775.2,90.3c0.4,0,0.7-0.1,1-0.3c0.3-0.2,0.6-0.4,0.8-0.8v-1.9H776c-0.8,0-1.4,0.1-1.7,0.4c-0.3,0.3-0.5,0.7-0.5,1.1
	C773.8,89.8,774.2,90.3,775.2,90.3z M787.2,90.6c-0.3,0.2-0.6,0.3-0.9,0.4c-0.4,0.1-0.7,0.1-1.1,0.1c-0.8,0-1.4-0.2-1.8-0.6
	c-0.4-0.4-0.6-0.9-0.6-1.6v-4.4h-1.7v-0.9h1.7V82l1.2-0.1v1.8h2.5l-0.1,0.9h-2.4v4.4c0,0.4,0.1,0.7,0.3,0.9c0.2,0.2,0.6,0.3,1.1,0.3
	c0.3,0,0.5,0,0.8-0.1c0.2-0.1,0.5-0.1,0.7-0.3L787.2,90.6z M795,89.4c0,0.3,0,0.5,0.1,0.7s0.2,0.2,0.5,0.3l-0.3,0.8
	c-0.3,0-0.6-0.1-0.8-0.3c-0.2-0.2-0.4-0.4-0.5-0.7c-0.3,0.3-0.6,0.6-1,0.8c-0.4,0.2-0.8,0.3-1.3,0.3c-0.7,0-1.3-0.2-1.7-0.6
	c-0.4-0.4-0.6-1-0.6-1.7c0-0.8,0.3-1.3,0.9-1.8s1.4-0.6,2.6-0.6h1.1v-0.6c0-0.5-0.2-0.9-0.5-1.1c-0.3-0.2-0.7-0.3-1.3-0.3
	c-0.2,0-0.5,0-0.9,0.1c-0.3,0.1-0.7,0.2-1.1,0.3l-0.3-0.9c0.4-0.2,0.9-0.3,1.3-0.4c0.4-0.1,0.8-0.1,1.1-0.1c0.9,0,1.6,0.2,2.1,0.6
	c0.5,0.4,0.7,1,0.7,1.7V89.4z M792,90.3c0.4,0,0.7-0.1,1-0.3c0.3-0.2,0.6-0.4,0.8-0.8v-1.9h-1.1c-0.8,0-1.4,0.1-1.7,0.4
	c-0.3,0.3-0.5,0.7-0.5,1.1C790.6,89.8,791,90.3,792,90.3z M799.3,84.6c0.3-0.4,0.6-0.6,0.9-0.8c0.4-0.2,0.7-0.3,1.2-0.3
	c0.7,0,1.2,0.2,1.6,0.5c0.4,0.3,0.7,0.8,0.9,1.3c0.2,0.6,0.3,1.2,0.3,2c0,0.7-0.1,1.4-0.3,2c-0.2,0.6-0.5,1-1,1.4
	c-0.4,0.3-1,0.5-1.6,0.5c-0.9,0-1.5-0.3-2-0.9l-0.1,0.8h-1V80.7l1.2-0.1V84.6z M801,90.2c0.6,0,1.1-0.2,1.4-0.7
	c0.3-0.5,0.5-1.2,0.5-2.2c0-1.9-0.6-2.9-1.7-2.9c-0.4,0-0.8,0.1-1.1,0.4c-0.3,0.2-0.6,0.5-0.8,0.8v3.7c0.2,0.3,0.4,0.5,0.7,0.7
	C800.3,90.1,800.6,90.2,801,90.2z M811.8,89.4c0,0.3,0,0.5,0.1,0.7s0.2,0.2,0.5,0.3l-0.3,0.8c-0.3,0-0.6-0.1-0.8-0.3
	c-0.2-0.2-0.4-0.4-0.5-0.7c-0.3,0.3-0.6,0.6-1,0.8c-0.4,0.2-0.8,0.3-1.3,0.3c-0.7,0-1.3-0.2-1.7-0.6c-0.4-0.4-0.6-1-0.6-1.7
	c0-0.8,0.3-1.3,0.9-1.8s1.4-0.6,2.6-0.6h1.1v-0.6c0-0.5-0.2-0.9-0.5-1.1c-0.3-0.2-0.7-0.3-1.3-0.3c-0.2,0-0.5,0-0.9,0.1
	c-0.3,0.1-0.7,0.2-1.1,0.3l-0.3-0.9c0.4-0.2,0.9-0.3,1.3-0.4c0.4-0.1,0.8-0.1,1.1-0.1c0.9,0,1.6,0.2,2.1,0.6c0.5,0.4,0.7,1,0.7,1.7
	V89.4z M808.8,90.3c0.4,0,0.7-0.1,1-0.3c0.3-0.2,0.6-0.4,0.8-0.8v-1.9h-1.1c-0.8,0-1.4,0.1-1.7,0.4c-0.3,0.3-0.5,0.7-0.5,1.1
	C807.3,89.8,807.8,90.3,808.8,90.3z M817.4,90.2c0.6,0,1-0.1,1.3-0.3c0.3-0.2,0.5-0.5,0.5-0.9c0-0.2,0-0.4-0.1-0.6
	c-0.1-0.2-0.2-0.3-0.5-0.4c-0.3-0.1-0.6-0.3-1.2-0.4c-0.5-0.1-1-0.3-1.3-0.4c-0.4-0.2-0.7-0.4-0.9-0.7c-0.2-0.3-0.3-0.6-0.3-1
	c0-0.6,0.3-1.1,0.8-1.5s1.2-0.5,2-0.5c0.6,0,1.1,0.1,1.5,0.2c0.4,0.2,0.8,0.4,1.1,0.6l-0.5,0.8c-0.3-0.2-0.6-0.3-0.9-0.5
	c-0.3-0.1-0.7-0.2-1.2-0.2c-0.6,0-1,0.1-1.2,0.3c-0.2,0.2-0.4,0.4-0.4,0.7c0,0.2,0.1,0.4,0.2,0.5c0.1,0.1,0.3,0.3,0.6,0.4
	c0.3,0.1,0.7,0.2,1.2,0.4c0.5,0.1,0.9,0.3,1.3,0.5c0.4,0.2,0.6,0.4,0.8,0.7c0.2,0.3,0.3,0.7,0.3,1.1c0,0.5-0.1,0.9-0.4,1.3
	c-0.3,0.3-0.7,0.6-1.2,0.7c-0.5,0.1-1,0.2-1.5,0.2c-0.7,0-1.2-0.1-1.7-0.3c-0.5-0.2-0.9-0.4-1.2-0.7l0.7-0.8c0.3,0.2,0.6,0.4,1,0.6
	C816.6,90.1,817,90.2,817.4,90.2z M824.2,87.7c0,0.9,0.3,1.5,0.7,1.9c0.4,0.4,0.9,0.6,1.5,0.6c0.4,0,0.7-0.1,1-0.2s0.6-0.3,0.9-0.5
	l0.6,0.8c-0.3,0.3-0.7,0.5-1.2,0.6s-0.9,0.2-1.4,0.2c-0.7,0-1.3-0.2-1.8-0.5c-0.5-0.3-0.9-0.8-1.1-1.3c-0.3-0.6-0.4-1.2-0.4-2
	c0-0.7,0.1-1.4,0.4-2c0.3-0.6,0.6-1,1.1-1.4c0.5-0.3,1.1-0.5,1.7-0.5c0.9,0,1.7,0.3,2.2,1c0.5,0.6,0.8,1.5,0.8,2.6
	c0,0.1,0,0.2,0,0.4c0,0.1,0,0.2,0,0.3H824.2z M826.3,84.4c-0.5,0-1,0.2-1.4,0.6c-0.4,0.4-0.6,1-0.6,1.8h3.8c0-0.8-0.2-1.4-0.5-1.8
	C827.2,84.6,826.8,84.4,826.3,84.4z M702.7,109.4c0,0.3,0,0.5,0.1,0.7c0.1,0.1,0.2,0.2,0.5,0.3l-0.3,0.8c-0.3,0-0.6-0.1-0.8-0.3
	c-0.2-0.2-0.4-0.4-0.5-0.7c-0.3,0.3-0.6,0.6-1,0.8c-0.4,0.2-0.8,0.3-1.3,0.3c-0.7,0-1.3-0.2-1.7-0.6s-0.6-1-0.6-1.7
	c0-0.8,0.3-1.3,0.9-1.8c0.6-0.4,1.4-0.6,2.6-0.6h1.1v-0.6c0-0.5-0.2-0.9-0.5-1.1c-0.3-0.2-0.7-0.3-1.3-0.3c-0.2,0-0.5,0-0.9,0.1
	c-0.3,0.1-0.7,0.2-1.1,0.3l-0.3-0.9c0.4-0.2,0.9-0.3,1.3-0.4c0.4-0.1,0.8-0.1,1.1-0.1c0.9,0,1.6,0.2,2.1,0.6c0.5,0.4,0.7,1,0.7,1.7
	V109.4z M699.6,110.3c0.4,0,0.7-0.1,1-0.3c0.3-0.2,0.6-0.4,0.8-0.8v-1.9h-1.1c-0.8,0-1.4,0.1-1.7,0.4c-0.3,0.3-0.5,0.7-0.5,1.1
	C698.2,109.8,698.7,110.3,699.6,110.3z M709.1,110.1c0.4,0,0.7-0.1,1-0.2c0.3-0.1,0.6-0.3,0.9-0.5l0.6,0.8c-0.3,0.3-0.7,0.5-1.2,0.7
	c-0.5,0.2-0.9,0.2-1.3,0.2c-0.7,0-1.4-0.2-1.9-0.5c-0.5-0.3-0.9-0.8-1.2-1.3c-0.3-0.6-0.4-1.2-0.4-2c0-0.7,0.1-1.4,0.4-2
	c0.3-0.6,0.7-1,1.2-1.4c0.5-0.3,1.1-0.5,1.9-0.5c0.9,0,1.8,0.3,2.5,0.9l-0.6,0.8c-0.6-0.4-1.3-0.7-1.9-0.7c-0.6,0-1.2,0.2-1.6,0.7
	c-0.4,0.5-0.6,1.2-0.6,2.2c0,1,0.2,1.7,0.6,2.1C708,109.9,708.5,110.1,709.1,110.1z M717.5,110.1c0.4,0,0.7-0.1,1-0.2
	c0.3-0.1,0.6-0.3,0.9-0.5l0.6,0.8c-0.3,0.3-0.7,0.5-1.2,0.7c-0.5,0.2-0.9,0.2-1.3,0.2c-0.7,0-1.4-0.2-1.9-0.5
	c-0.5-0.3-0.9-0.8-1.2-1.3c-0.3-0.6-0.4-1.2-0.4-2c0-0.7,0.1-1.4,0.4-2s0.7-1,1.2-1.4c0.5-0.3,1.1-0.5,1.9-0.5
	c0.9,0,1.8,0.3,2.5,0.9l-0.6,0.8c-0.6-0.4-1.3-0.7-1.9-0.7c-0.6,0-1.2,0.2-1.6,0.7c-0.4,0.5-0.6,1.2-0.6,2.2c0,1,0.2,1.7,0.6,2.1
	C716.4,109.9,716.9,110.1,717.5,110.1z M723.5,107.7c0,0.9,0.3,1.5,0.7,1.9c0.4,0.4,0.9,0.6,1.5,0.6c0.4,0,0.7-0.1,1-0.2
	c0.3-0.1,0.6-0.3,0.9-0.5l0.6,0.8c-0.3,0.3-0.7,0.5-1.2,0.6c-0.4,0.2-0.9,0.2-1.4,0.2c-0.7,0-1.3-0.2-1.8-0.5
	c-0.5-0.3-0.9-0.8-1.1-1.3c-0.3-0.6-0.4-1.2-0.4-2c0-0.7,0.1-1.4,0.4-2c0.3-0.6,0.6-1,1.1-1.4c0.5-0.3,1.1-0.5,1.7-0.5
	c0.9,0,1.7,0.3,2.2,1c0.5,0.6,0.8,1.5,0.8,2.6c0,0.1,0,0.2,0,0.4c0,0.1,0,0.2,0,0.3H723.5z M725.5,104.4c-0.5,0-1,0.2-1.4,0.6
	c-0.4,0.4-0.6,1-0.6,1.8h3.8c0-0.8-0.2-1.4-0.5-1.8C726.5,104.6,726.1,104.4,725.5,104.4z M733.5,110.2c0.6,0,1-0.1,1.3-0.3
	c0.3-0.2,0.5-0.5,0.5-0.9c0-0.2,0-0.4-0.1-0.6c-0.1-0.2-0.2-0.3-0.5-0.4c-0.3-0.1-0.6-0.3-1.2-0.4c-0.5-0.1-1-0.3-1.3-0.4
	c-0.4-0.2-0.7-0.4-0.9-0.7c-0.2-0.3-0.3-0.6-0.3-1c0-0.6,0.3-1.1,0.8-1.5s1.2-0.5,2-0.5c0.6,0,1.1,0.1,1.5,0.2
	c0.4,0.2,0.8,0.4,1.1,0.6l-0.5,0.8c-0.3-0.2-0.6-0.3-0.9-0.5c-0.3-0.1-0.7-0.2-1.2-0.2c-0.6,0-1,0.1-1.2,0.3
	c-0.2,0.2-0.4,0.4-0.4,0.7c0,0.2,0.1,0.4,0.2,0.5c0.1,0.1,0.3,0.3,0.6,0.4c0.3,0.1,0.7,0.2,1.2,0.4c0.5,0.1,0.9,0.3,1.3,0.5
	c0.4,0.2,0.6,0.4,0.8,0.7c0.2,0.3,0.3,0.7,0.3,1.1c0,0.5-0.1,0.9-0.4,1.3c-0.3,0.3-0.7,0.6-1.2,0.7c-0.5,0.1-1,0.2-1.5,0.2
	c-0.7,0-1.2-0.1-1.7-0.3c-0.5-0.2-0.9-0.4-1.2-0.7l0.7-0.8c0.3,0.2,0.6,0.4,1,0.6C732.7,110.1,733.1,110.2,733.5,110.2z
	 M741.9,110.2c0.6,0,1-0.1,1.3-0.3c0.3-0.2,0.5-0.5,0.5-0.9c0-0.2,0-0.4-0.1-0.6c-0.1-0.2-0.2-0.3-0.5-0.4c-0.3-0.1-0.6-0.3-1.2-0.4
	c-0.5-0.1-1-0.3-1.3-0.4c-0.4-0.2-0.7-0.4-0.9-0.7c-0.2-0.3-0.3-0.6-0.3-1c0-0.6,0.3-1.1,0.8-1.5c0.5-0.4,1.2-0.5,2-0.5
	c0.6,0,1.1,0.1,1.5,0.2c0.4,0.2,0.8,0.4,1.1,0.6l-0.5,0.8c-0.3-0.2-0.6-0.3-0.9-0.5c-0.3-0.1-0.7-0.2-1.2-0.2c-0.6,0-1,0.1-1.2,0.3
	c-0.2,0.2-0.4,0.4-0.4,0.7c0,0.2,0.1,0.4,0.2,0.5c0.1,0.1,0.3,0.3,0.6,0.4c0.3,0.1,0.7,0.2,1.2,0.4c0.5,0.1,0.9,0.3,1.3,0.5
	c0.4,0.2,0.6,0.4,0.8,0.7c0.2,0.3,0.3,0.7,0.3,1.1c0,0.5-0.2,0.9-0.4,1.3c-0.3,0.3-0.7,0.6-1.2,0.7c-0.5,0.1-1,0.2-1.5,0.2
	c-0.7,0-1.2-0.1-1.7-0.3c-0.5-0.2-0.9-0.4-1.2-0.7l0.7-0.8c0.3,0.2,0.6,0.4,1,0.6C741,110.1,741.5,110.2,741.9,110.2z M753.3,104.8
	v1h-5.4v-1H753.3z M753.3,107.5v1h-5.4v-1H753.3z M759.5,103.5c0.7,0,1.2,0.2,1.6,0.5c0.4,0.3,0.7,0.8,0.8,1.3
	c0.2,0.6,0.3,1.2,0.3,2c0,0.7-0.1,1.4-0.3,2c-0.2,0.6-0.5,1-0.9,1.4s-1,0.5-1.6,0.5c-0.8,0-1.5-0.3-1.9-0.9v3.5l-1.2,0.1v-10.3h1
	l0.1,1c0.3-0.4,0.6-0.7,1-0.9C758.6,103.6,759,103.5,759.5,103.5z M759.2,104.4c-0.4,0-0.8,0.1-1.1,0.4c-0.3,0.2-0.6,0.5-0.8,0.8
	v3.7c0.2,0.3,0.4,0.5,0.7,0.7c0.3,0.2,0.6,0.2,1,0.2c0.6,0,1.1-0.2,1.4-0.7c0.3-0.5,0.5-1.2,0.5-2.2
	C760.9,105.4,760.3,104.4,759.2,104.4z M765.7,103.6v5.2c0,0.5,0.1,0.8,0.3,1.1c0.2,0.2,0.5,0.3,0.9,0.3c0.4,0,0.8-0.1,1.1-0.3
	c0.4-0.2,0.6-0.5,0.8-0.8v-5.4h1.2v7.4h-1l-0.1-1c-0.3,0.4-0.6,0.7-1.1,0.9c-0.4,0.2-0.9,0.3-1.3,0.3c-0.7,0-1.2-0.2-1.6-0.6
	c-0.4-0.4-0.5-0.9-0.5-1.6v-5.4H765.7z M774.1,104.6c0.3-0.4,0.6-0.6,0.9-0.8c0.4-0.2,0.7-0.3,1.2-0.3c0.7,0,1.2,0.2,1.6,0.5
	c0.4,0.3,0.7,0.8,0.9,1.3c0.2,0.6,0.3,1.2,0.3,2c0,0.7-0.1,1.4-0.3,2c-0.2,0.6-0.5,1-1,1.4c-0.4,0.3-1,0.5-1.6,0.5
	c-0.9,0-1.5-0.3-2-0.9L774,111h-1v-10.3l1.2-0.1V104.6z M775.8,110.2c0.6,0,1.1-0.2,1.4-0.7c0.3-0.5,0.5-1.2,0.5-2.2
	c0-1.9-0.6-2.9-1.7-2.9c-0.4,0-0.8,0.1-1.1,0.4c-0.3,0.2-0.6,0.5-0.8,0.8v3.7c0.2,0.3,0.4,0.5,0.7,0.7
	C775.1,110.1,775.5,110.2,775.8,110.2z M784.2,100.7v8.5c0,0.4,0.1,0.6,0.3,0.8c0.2,0.1,0.5,0.2,0.9,0.2c0.2,0,0.4,0,0.6-0.1
	c0.2,0,0.4-0.1,0.6-0.2l0.3,0.9c-0.2,0.1-0.5,0.2-0.7,0.3c-0.3,0.1-0.6,0.1-1,0.1c-0.7,0-1.2-0.2-1.6-0.5c-0.4-0.4-0.6-0.9-0.6-1.5
	v-7.5h-2.3v-0.9H784.2z M792.5,100.2c0.3,0,0.5,0.1,0.6,0.2c0.2,0.2,0.2,0.4,0.2,0.6c0,0.2-0.1,0.4-0.2,0.6
	c-0.2,0.2-0.4,0.2-0.6,0.2c-0.2,0-0.4-0.1-0.6-0.2c-0.2-0.2-0.2-0.4-0.2-0.6c0-0.2,0.1-0.4,0.2-0.6
	C792.1,100.3,792.3,100.2,792.5,100.2z M793.5,103.6v6.4h2.1v0.9H790v-0.9h2.3v-5.5h-2.2v-0.9H793.5z M801.5,110.1
	c0.4,0,0.7-0.1,1-0.2c0.3-0.1,0.6-0.3,0.9-0.5l0.6,0.8c-0.3,0.3-0.7,0.5-1.2,0.7c-0.5,0.2-0.9,0.2-1.3,0.2c-0.7,0-1.4-0.2-1.9-0.5
	c-0.5-0.3-0.9-0.8-1.2-1.3c-0.3-0.6-0.4-1.2-0.4-2c0-0.7,0.1-1.4,0.4-2c0.3-0.6,0.7-1,1.2-1.4c0.5-0.3,1.1-0.5,1.9-0.5
	c0.9,0,1.8,0.3,2.5,0.9l-0.6,0.8c-0.6-0.4-1.3-0.7-1.9-0.7c-0.6,0-1.2,0.2-1.6,0.7c-0.4,0.5-0.6,1.2-0.6,2.2c0,1,0.2,1.7,0.6,2.1
	C800.3,109.9,800.8,110.1,801.5,110.1z M699.9,130.2c0.6,0,1-0.1,1.3-0.3c0.3-0.2,0.5-0.5,0.5-0.9c0-0.2,0-0.4-0.1-0.6
	c-0.1-0.2-0.2-0.3-0.5-0.4c-0.3-0.1-0.6-0.3-1.2-0.4c-0.5-0.1-1-0.3-1.3-0.4c-0.4-0.2-0.7-0.4-0.9-0.7c-0.2-0.3-0.3-0.6-0.3-1
	c0-0.6,0.3-1.1,0.8-1.5s1.2-0.5,2-0.5c0.6,0,1.1,0.1,1.5,0.2c0.4,0.2,0.8,0.4,1.1,0.6l-0.5,0.8c-0.3-0.2-0.6-0.3-0.9-0.5
	c-0.3-0.1-0.7-0.2-1.2-0.2c-0.6,0-1,0.1-1.2,0.3c-0.2,0.2-0.4,0.4-0.4,0.7c0,0.2,0.1,0.4,0.2,0.5c0.1,0.1,0.3,0.3,0.6,0.4
	c0.3,0.1,0.7,0.2,1.2,0.4c0.5,0.1,0.9,0.3,1.3,0.5c0.4,0.2,0.6,0.4,0.8,0.7c0.2,0.3,0.3,0.7,0.3,1.1c0,0.5-0.1,0.9-0.4,1.3
	c-0.3,0.3-0.7,0.6-1.2,0.7c-0.5,0.1-1,0.2-1.5,0.2c-0.7,0-1.2-0.1-1.7-0.3c-0.5-0.2-0.9-0.4-1.2-0.7l0.7-0.8c0.3,0.2,0.6,0.4,1,0.6
	C699.1,130.1,699.5,130.2,699.9,130.2z M708.6,123.5c1,0,1.8,0.3,2.4,1c0.5,0.7,0.8,1.6,0.8,2.8c0,0.8-0.1,1.4-0.4,2
	c-0.2,0.6-0.6,1-1.1,1.4c-0.5,0.3-1,0.5-1.7,0.5c-1,0-1.8-0.3-2.4-1.1c-0.5-0.7-0.8-1.6-0.8-2.8c0-0.8,0.1-1.4,0.4-2
	c0.2-0.6,0.6-1,1.1-1.4C707.3,123.6,707.9,123.5,708.6,123.5z M708.6,124.4c-0.6,0-1.1,0.2-1.4,0.7c-0.3,0.5-0.5,1.2-0.5,2.2
	c0,1,0.2,1.7,0.5,2.2c0.3,0.5,0.8,0.7,1.4,0.7c0.6,0,1.1-0.2,1.4-0.7c0.3-0.5,0.5-1.2,0.5-2.2c0-1-0.2-1.7-0.5-2.2
	C709.7,124.7,709.2,124.4,708.6,124.4z M718.5,120.5c0.4,0,0.8,0,1.1,0.1c0.3,0.1,0.6,0.2,0.9,0.3l-0.4,0.9
	c-0.2-0.1-0.5-0.2-0.8-0.2c-0.3-0.1-0.5-0.1-0.8-0.1c-1,0-1.5,0.4-1.5,1.2v1.5h2.5l-0.1,0.9H717v5.9h-1.2v-5.9h-1.8v-0.9h1.8v-1.5
	c0-0.5,0.1-0.9,0.3-1.2c0.2-0.3,0.6-0.6,1-0.8C717.6,120.6,718,120.5,718.5,120.5z M728.4,130.6c-0.3,0.2-0.6,0.3-0.9,0.4
	c-0.4,0.1-0.7,0.1-1.1,0.1c-0.8,0-1.4-0.2-1.8-0.6c-0.4-0.4-0.6-0.9-0.6-1.6v-4.4h-1.7v-0.9h1.7V122l1.2-0.1v1.8h2.5l-0.1,0.9h-2.4
	v4.4c0,0.4,0.1,0.7,0.3,0.9c0.2,0.2,0.6,0.3,1.1,0.3c0.3,0,0.5,0,0.8-0.1c0.2-0.1,0.5-0.1,0.7-0.3L728.4,130.6z M736.4,131h-1.7
	l-1-5.4l-1,5.4h-1.6l-1.3-7.4h1.2l0.9,6.6l1.2-5.7h1.4l1.1,5.7l0.9-6.6h1.1L736.4,131z M744.7,129.4c0,0.3,0,0.5,0.1,0.7
	s0.2,0.2,0.5,0.3l-0.3,0.8c-0.3,0-0.6-0.1-0.8-0.3c-0.2-0.2-0.4-0.4-0.5-0.7c-0.3,0.3-0.6,0.6-1,0.8c-0.4,0.2-0.8,0.3-1.3,0.3
	c-0.7,0-1.3-0.2-1.7-0.6c-0.4-0.4-0.6-1-0.6-1.7c0-0.8,0.3-1.3,0.9-1.8c0.6-0.4,1.4-0.6,2.6-0.6h1.1v-0.6c0-0.5-0.2-0.9-0.5-1.1
	c-0.3-0.2-0.7-0.3-1.3-0.3c-0.2,0-0.5,0-0.9,0.1c-0.3,0.1-0.7,0.2-1.1,0.3l-0.3-0.9c0.4-0.2,0.9-0.3,1.3-0.4
	c0.4-0.1,0.8-0.1,1.1-0.1c0.9,0,1.6,0.2,2.1,0.6c0.5,0.4,0.7,1,0.7,1.7V129.4z M741.6,130.3c0.4,0,0.7-0.1,1-0.3
	c0.3-0.2,0.6-0.4,0.8-0.8v-1.9h-1.1c-0.8,0-1.4,0.1-1.7,0.4c-0.3,0.3-0.5,0.7-0.5,1.1C740.2,129.8,740.7,130.3,741.6,130.3z
	 M747.8,131v-0.9h1.1v-5.6h-1.1v-0.9h2l0.2,1.7c0.3-0.6,0.6-1.1,1-1.4c0.4-0.3,0.9-0.5,1.6-0.5c0.2,0,0.4,0,0.5,0
	c0.2,0,0.3,0.1,0.5,0.1l-0.2,2.5h-1v-1.6c0,0,0,0-0.1,0c-1.1,0-1.9,0.8-2.4,2.4v3.1h1.5v0.9H747.8z M757.1,127.7
	c0,0.9,0.3,1.5,0.7,1.9c0.4,0.4,0.9,0.6,1.5,0.6c0.4,0,0.7-0.1,1-0.2c0.3-0.1,0.6-0.3,0.9-0.5l0.6,0.8c-0.3,0.3-0.7,0.5-1.2,0.6
	c-0.4,0.2-0.9,0.2-1.4,0.2c-0.7,0-1.3-0.2-1.8-0.5c-0.5-0.3-0.9-0.8-1.1-1.3c-0.3-0.6-0.4-1.2-0.4-2c0-0.7,0.1-1.4,0.4-2
	c0.3-0.6,0.6-1,1.1-1.4c0.5-0.3,1.1-0.5,1.7-0.5c0.9,0,1.7,0.3,2.2,1c0.5,0.6,0.8,1.5,0.8,2.6c0,0.1,0,0.2,0,0.4c0,0.1,0,0.2,0,0.3
	H757.1z M759.1,124.4c-0.5,0-1,0.2-1.4,0.6c-0.4,0.4-0.6,1-0.6,1.8h3.8c0-0.8-0.2-1.4-0.5-1.8C760.1,124.6,759.7,124.4,759.1,124.4z
	 M770.1,124.8v1h-5.4v-1H770.1z M770.1,127.5v1h-5.4v-1H770.1z M777.8,123.5c0.2,0,0.5,0.1,0.7,0.2c0.2,0.1,0.4,0.3,0.5,0.6
	s0.2,0.7,0.2,1.3v5.5h-1.1v-5.3c0-0.5,0-0.8-0.1-1c-0.1-0.2-0.2-0.3-0.5-0.3c-0.2,0-0.4,0.1-0.7,0.2c-0.2,0.1-0.4,0.4-0.6,0.7v5.7
	h-1.1v-5.3c0-0.5,0-0.8-0.1-1c-0.1-0.2-0.2-0.3-0.5-0.3c-0.2,0-0.5,0.1-0.7,0.2c-0.2,0.1-0.4,0.4-0.6,0.7v5.7h-1.1v-7.4h0.9l0.1,0.9
	c0.2-0.3,0.4-0.5,0.7-0.7c0.3-0.2,0.6-0.3,0.9-0.3c0.3,0,0.5,0.1,0.8,0.2c0.2,0.1,0.4,0.4,0.5,0.8c0.2-0.3,0.4-0.5,0.7-0.7
	C777.1,123.6,777.4,123.5,777.8,123.5z M784.2,123.5c1,0,1.8,0.3,2.4,1s0.8,1.6,0.8,2.8c0,0.8-0.1,1.4-0.4,2c-0.2,0.6-0.6,1-1.1,1.4
	c-0.5,0.3-1,0.5-1.7,0.5c-1,0-1.8-0.3-2.4-1.1c-0.5-0.7-0.8-1.6-0.8-2.8c0-0.8,0.1-1.4,0.4-2c0.2-0.6,0.6-1,1.1-1.4
	C782.9,123.6,783.5,123.5,784.2,123.5z M784.2,124.4c-0.6,0-1.1,0.2-1.4,0.7c-0.3,0.5-0.5,1.2-0.5,2.2c0,1,0.2,1.7,0.5,2.2
	c0.3,0.5,0.8,0.7,1.4,0.7c0.6,0,1.1-0.2,1.4-0.7c0.3-0.5,0.5-1.2,0.5-2.2c0-1-0.2-1.7-0.5-2.2C785.3,124.7,784.8,124.4,784.2,124.4z
	 M789.7,131v-7.4h1l0.1,1c0.3-0.4,0.7-0.7,1.1-0.9c0.4-0.2,0.9-0.3,1.3-0.3c0.7,0,1.2,0.2,1.6,0.6c0.3,0.4,0.5,0.9,0.5,1.6v5.4h-1.2
	v-4.5c0-0.5,0-0.9-0.1-1.2c-0.1-0.3-0.2-0.5-0.4-0.7c-0.2-0.1-0.4-0.2-0.8-0.2c-0.3,0-0.6,0.1-0.8,0.2c-0.3,0.1-0.5,0.3-0.7,0.5
	c-0.2,0.2-0.4,0.4-0.5,0.6v5.4H789.7z M804.1,122.8l0.4,1.1c-0.3,0.1-0.7,0.2-1,0.2c-0.4,0-0.7,0-1.1,0c0.9,0.4,1.3,1,1.3,1.9
	c0,0.7-0.2,1.3-0.7,1.8c-0.5,0.5-1.2,0.7-2,0.7c-0.2,0-0.5,0-0.6,0c-0.2,0-0.3-0.1-0.5-0.1c-0.1,0.1-0.2,0.2-0.3,0.3
	c-0.1,0.1-0.1,0.3-0.1,0.4c0,0.2,0.1,0.3,0.2,0.4c0.1,0.1,0.4,0.2,0.8,0.2h1.3c0.5,0,0.9,0.1,1.3,0.3s0.7,0.4,0.9,0.7
	c0.2,0.3,0.3,0.6,0.3,1c0,0.7-0.3,1.3-0.9,1.7c-0.6,0.4-1.5,0.6-2.6,0.6c-0.8,0-1.4-0.1-1.9-0.2c-0.5-0.2-0.8-0.4-1-0.7
	c-0.2-0.3-0.3-0.7-0.3-1.2h1.1c0,0.3,0.1,0.5,0.2,0.7c0.1,0.2,0.3,0.3,0.6,0.4c0.3,0.1,0.7,0.1,1.3,0.1c0.8,0,1.4-0.1,1.8-0.3
	c0.4-0.2,0.6-0.5,0.6-0.9c0-0.4-0.2-0.6-0.5-0.8c-0.3-0.2-0.7-0.3-1.2-0.3h-1.3c-0.6,0-1.1-0.1-1.4-0.4c-0.3-0.3-0.4-0.6-0.4-1
	c0-0.5,0.3-0.9,0.8-1.3c-0.8-0.4-1.2-1.1-1.2-2c0-0.5,0.1-0.9,0.4-1.3c0.2-0.4,0.6-0.7,1-0.9c0.4-0.2,1-0.3,1.5-0.3
	c0.6,0,1.1,0,1.5-0.1c0.4-0.1,0.7-0.1,1-0.2C803.6,123.1,803.8,123,804.1,122.8z M800.8,124.3c-0.6,0-1,0.2-1.3,0.5
	c-0.3,0.3-0.4,0.7-0.4,1.2c0,0.5,0.1,0.9,0.4,1.2c0.3,0.3,0.7,0.5,1.3,0.5c0.5,0,0.9-0.2,1.2-0.5c0.3-0.3,0.4-0.7,0.4-1.3
	C802.4,124.9,801.9,124.3,800.8,124.3z M809.3,123.5c1,0,1.8,0.3,2.4,1c0.5,0.7,0.8,1.6,0.8,2.8c0,0.8-0.1,1.4-0.4,2
	c-0.2,0.6-0.6,1-1.1,1.4c-0.5,0.3-1,0.5-1.7,0.5c-1,0-1.8-0.3-2.4-1.1c-0.5-0.7-0.8-1.6-0.8-2.8c0-0.8,0.1-1.4,0.4-2
	c0.2-0.6,0.6-1,1.1-1.4C808.1,123.6,808.7,123.5,809.3,123.5z M809.3,124.4c-0.6,0-1.1,0.2-1.4,0.7c-0.3,0.5-0.5,1.2-0.5,2.2
	c0,1,0.2,1.7,0.5,2.2c0.3,0.5,0.8,0.7,1.4,0.7s1.1-0.2,1.4-0.7c0.3-0.5,0.5-1.2,0.5-2.2c0-1-0.2-1.7-0.5-2.2
	C810.4,124.7,810,124.4,809.3,124.4z M819.3,120.5l1.2,0.1V131h-1l-0.1-1c-0.3,0.4-0.6,0.7-1,0.9c-0.4,0.2-0.7,0.3-1.1,0.3
	c-0.6,0-1.2-0.2-1.6-0.5c-0.4-0.3-0.7-0.8-0.9-1.3c-0.2-0.6-0.3-1.2-0.3-2c0-0.7,0.1-1.4,0.3-2c0.2-0.6,0.6-1,1-1.4
	c0.4-0.3,1-0.5,1.6-0.5c0.8,0,1.5,0.3,2,0.9V120.5z M817.7,124.4c-0.6,0-1.1,0.2-1.4,0.7c-0.3,0.5-0.5,1.2-0.5,2.2
	c0,1.9,0.6,2.9,1.8,2.9c0.4,0,0.8-0.1,1.1-0.4c0.3-0.2,0.5-0.5,0.7-0.8v-3.7c-0.2-0.3-0.4-0.5-0.7-0.7
	C818.3,124.5,818,124.4,817.7,124.4z M824.5,124.6c0.3-0.4,0.6-0.6,0.9-0.8c0.4-0.2,0.7-0.3,1.2-0.3c0.7,0,1.2,0.2,1.6,0.5
	c0.4,0.3,0.7,0.8,0.9,1.3c0.2,0.6,0.3,1.2,0.3,2c0,0.7-0.1,1.4-0.3,2c-0.2,0.6-0.5,1-1,1.4c-0.4,0.3-1,0.5-1.6,0.5
	c-0.9,0-1.5-0.3-2-0.9l-0.1,0.8h-1v-10.3l1.2-0.1V124.6z M826.2,130.2c0.6,0,1.1-0.2,1.4-0.7s0.5-1.2,0.5-2.2c0-1.9-0.6-2.9-1.7-2.9
	c-0.4,0-0.8,0.1-1.1,0.4c-0.3,0.2-0.6,0.5-0.8,0.8v3.7c0.2,0.3,0.4,0.5,0.7,0.7C825.5,130.1,825.8,130.2,826.2,130.2z"/>
<path class="st4" d="M218.3,240.7c0.4,0.4,1,0.4,1.4,0l6.4-6.4c0.4-0.4,0.4-1,0-1.4c-0.4-0.4-1-0.4-1.4,0l-5.7,5.7l-5.7-5.7
	c-0.4-0.4-1-0.4-1.4,0c-0.4,0.4-0.4,1,0,1.4L218.3,240.7z M218,176v64h2v-64H218z"/>
<path class="st4" d="M499.3,240.7c0.4,0.4,1,0.4,1.4,0l6.4-6.4c0.4-0.4,0.4-1,0-1.4c-0.4-0.4-1-0.4-1.4,0l-5.7,5.7l-5.7-5.7
	c-0.4-0.4-1-0.4-1.4,0c-0.4,0.4-0.4,1,0,1.4L499.3,240.7z M499,176v64h2v-64H499z"/>
<path class="st4" d="M779.3,240.7c0.4,0.4,1,0.4,1.4,0l6.4-6.4c0.4-0.4,0.4-1,0-1.4c-0.4-0.4-1-0.4-1.4,0l-5.7,5.7l-5.7-5.7
	c-0.4-0.4-1-0.4-1.4,0c-0.4,0.4-0.4,1,0,1.4L779.3,240.7z M779,176v64h2v-64H779z"/>
</svg>
