<svg xmlns="http://www.w3.org/2000/svg" width="1090" height="400" viewBox="0 0 1050 330">
  <defs>
    <style>
      @import url('https://fonts.googleapis.com/css?family=Montserrat|Montserrat:700');
      .i {
        fill: #4dc6e0;
      }
      .i,
      .k,
      .m {
        stroke: #000;
        stroke-miterlimit: 10;
        stroke-width: 2px
      }
      .j,
      .l {
        font-size: 12px;
        font-family: Montserrat, Helvetica, Arial, sans-serif;
        font-weight: 600
      }
      .j {
        fill: #fff
      }
      .k {
        fill: none
      }
      .m {
        fill: #1db846
      }
    </style>
  </defs>
  <path class="i" d="M78.11 1.13l78.01 41.61-75.99 40.52-78-41.6L78.11 1.13z"/>
  <text class="j" transform="translate(51.97 35.84)">
    Does any<tspan x="-13.06" y="14.4">policy match?</tspan>
  </text>
  <path class="k" d="M79.78 83.11v47.1"/>
  <path d="M88.79 128.88l-9.01 5.69-9.01-5.69v-.06h18.02v.06z"/>
  <text class="l" transform="translate(85.84 111.48)">
    Yes
  </text>
  <path class="i" d="M79.31 138.25l78.01 41.61-75.99 40.52-78-41.6 75.98-40.53z"/>
  <text class="j" transform="translate(58.94 172.96)">
    Is it an <tspan x="-15.86" y="14.4">allow policy?</tspan>
  </text>
  <text class="l" transform="translate(172.31 172.05)">
    No
  </text>
  <path class="m" d="M289.16 139.89l78.01 41.6-75.99 40.53-78.01-41.61 75.99-40.52z"/>
  <text class="j" transform="translate(273.42 184.95)">
    Reject
  </text>
  <text class="l" transform="translate(85.86 250.35)">
    Yes
  </text>
  <path fill="#1db846" stroke="#000" stroke-miterlimit="10" stroke-width="2" d="M80.43 276.02l78.01 41.61-75.99 40.52-78.01-41.6 75.99-40.53z"/>
  <text class="j" transform="translate(64.92 321.74)">
    Allow
  </text>
  <path class="k" d="M81.04 221.31v47.1"/>
  <path d="M90.06 267.08l-9.01 5.69-9.02-5.69v-.06h18.03v.06z"/>
  <path class="k" d="M157.59 179.82h47.1"/>
  <path d="M203.36 170.81l5.69 9.01-5.69 9.02h-.06v-18.03h.06z"/>
  <text class="l" transform="translate(170.79 34.86)">
    No
  </text>
  <path class="m" d="M287.63 2.69l78.01 41.61-75.98 40.52-78.01-41.6 75.98-40.53z"/>
  <text class="j" transform="translate(271.89 47.76)">
    Reject
  </text>
  <path class="k" d="M156.07 42.63h47.1"/>
  <path d="M201.84 33.62l5.69 9.01-5.69 9.01h-.06V33.62h.06z"/>
</svg>
