<svg xmlns="http://www.w3.org/2000/svg" viewBox="0 0 1010 136.85">
  <defs>
    <style>
      .a{fill:#006fcc}.b{fill:none;stroke:#000;stroke-linecap:round}.b{stroke-miterlimit:10}
    </style>
  </defs>
  <path class="a" d="M49.68 52a5 5 0 01-.32 1.81 3 3 0 01-.89 1.28 2.09 2.09 0 01-1.33.46 1.69 1.69 0 01-.9-.25 1.34 1.34 0 01-.56-.64h-.11a2.36 2.36 0 01-1.88.89 2.52 2.52 0 01-1.9-.73 2.75 2.75 0 01-.7-2 3.1 3.1 0 01.91-2.27 3.27 3.27 0 012.4-.88 9.05 9.05 0 011.28.1 6.31 6.31 0 011.18.27l-.16 3.34c0 .64.18 1 .52 1s.53-.21.7-.64a4.53 4.53 0 00.26-1.74 4 4 0 00-.46-1.94 3.09 3.09 0 00-1.28-1.3 4.08 4.08 0 00-1.91-.44 4.83 4.83 0 00-2.39.57 3.77 3.77 0 00-1.57 1.64A5.37 5.37 0 0040 53a3.53 3.53 0 004 3.93 8.09 8.09 0 001.64-.17 10.64 10.64 0 001.66-.46v1.32a8.21 8.21 0 01-3.24.61A5.65 5.65 0 0140 56.86a5 5 0 01-1.45-3.8 6.34 6.34 0 01.71-3.06 5.35 5.35 0 012.12-2.15 6.28 6.28 0 013.14-.78 5.77 5.77 0 012.69.62A4.33 4.33 0 0149 49.43a5.18 5.18 0 01.68 2.57zm-7 .86q0 1.44 1.17 1.44a1.07 1.07 0 00.93-.43 2.73 2.73 0 00.4-1.42l.09-1.45a3.56 3.56 0 00-.79-.07 1.71 1.71 0 00-1.33.53 2.1 2.1 0 00-.47 1.44zM56.32 57.06l-.4-1h-.06a3.09 3.09 0 01-1.08.92 3.53 3.53 0 01-1.45.25 2.35 2.35 0 01-1.74-.63 2.41 2.41 0 01-.59-1.83 2 2 0 01.81-1.77 4.88 4.88 0 012.57-.64h1.32V52a1 1 0 00-1.18-1.16 5.58 5.58 0 00-2.16.55L51.67 50a6.24 6.24 0 012.93-.69 3.65 3.65 0 012.36.67 2.47 2.47 0 01.82 2v5.1zm-.62-3.55h-.8a2.63 2.63 0 00-1.36.33 1 1 0 00-.44.92c0 .58.34.88 1 .88a1.6 1.6 0 001.16-.42 1.47 1.47 0 00.43-1.11zM64.12 57.19a2.51 2.51 0 01-2.11-1h-.11c.07.64.11 1 .11 1.11v3.1h-2.09v-11h1.7l.29 1H62a2.42 2.42 0 012.16-1.13 2.47 2.47 0 012.12 1 4.81 4.81 0 01.77 2.9 5.72 5.72 0 01-.36 2.13 3 3 0 01-1 1.37 2.57 2.57 0 01-1.57.52zm-.62-6.25a1.31 1.31 0 00-1.12.47A2.72 2.72 0 0062 53v.23a3.24 3.24 0 00.37 1.77 1.3 1.3 0 001.16.53c.94 0 1.4-.77 1.4-2.31a3.31 3.31 0 00-.34-1.69 1.19 1.19 0 00-1.09-.59zM73 57.19a2.51 2.51 0 01-2.11-1h-.11c.07.64.11 1 .11 1.11v3.1h-2.11v-11h1.7l.29 1h.1A2.41 2.41 0 0173 49.27a2.47 2.47 0 012.12 1 4.81 4.81 0 01.77 2.9 5.72 5.72 0 01-.36 2.13 3 3 0 01-1 1.37 2.57 2.57 0 01-1.53.52zm-.62-6.25a1.31 1.31 0 00-1.12.47 2.72 2.72 0 00-.39 1.59v.23a3.24 3.24 0 00.36 1.77 1.3 1.3 0 001.16.53c.94 0 1.4-.77 1.4-2.31a3.31 3.31 0 00-.34-1.69 1.19 1.19 0 00-1.09-.59zM77.61 50.43a1.27 1.27 0 01.1-.54.86.86 0 01.25-.36 1 1 0 01.39-.2 1.73 1.73 0 01.47-.06 1.63 1.63 0 01.45.06 1 1 0 01.38.2.88.88 0 01.26.36 1.44 1.44 0 01.1.54 1.39 1.39 0 01-.1.53 1 1 0 01-.64.57 1.63 1.63 0 01-.45.06 1.73 1.73 0 01-.47-.06.92.92 0 01-.39-.21.86.86 0 01-.25-.36 1.22 1.22 0 01-.1-.53zm0 5.65a1.29 1.29 0 01.1-.55.9.9 0 01.25-.35.91.91 0 01.39-.2 1.73 1.73 0 01.47-.06 1.63 1.63 0 01.45.06.87.87 0 01.38.2.92.92 0 01.26.35 1.46 1.46 0 01.1.55 1.34 1.34 0 01-.1.52 1 1 0 01-.26.37 1.17 1.17 0 01-.38.21 1.63 1.63 0 01-.45.06 1.73 1.73 0 01-.47-.06A1.22 1.22 0 0178 57a1 1 0 01-.25-.37 1.18 1.18 0 01-.14-.55zM84.18 52.9l.91-1.16 2.14-2.33h2.35l-3 3.32 3.22 4.33h-2.45L85.15 54l-.89.72v2.38h-2.09V46.42h2.09v4.74l-.11 1.74zM93.62 46.93a4.49 4.49 0 011.18.15 3 3 0 011 .45 2.19 2.19 0 01.91 1.81 2.31 2.31 0 01-.14.82 2.13 2.13 0 01-.37.66 2.62 2.62 0 01-.57.53 5.58 5.58 0 01-.71.43 8.81 8.81 0 01.77.47 3.85 3.85 0 01.68.58 2.94 2.94 0 01.47.73 2.19 2.19 0 01.18.9 2.57 2.57 0 01-.25 1.13 2.31 2.31 0 01-.69.86A3.23 3.23 0 0195 57a4.58 4.58 0 01-1.37.19 5.23 5.23 0 01-1.44-.19 3.19 3.19 0 01-1.06-.53 2.12 2.12 0 01-.65-.84 2.7 2.7 0 01-.23-1.12 2.59 2.59 0 01.56-1.66 3.35 3.35 0 01.61-.58 4.66 4.66 0 01.75-.45 4.25 4.25 0 01-.63-.46 2.65 2.65 0 01-.51-.55 2.55 2.55 0 01-.34-.68 2.3 2.3 0 01-.13-.81 2.05 2.05 0 01.25-1 2.3 2.3 0 01.67-.75 3 3 0 011-.46 4.45 4.45 0 011.14-.18zm-1.41 7.47a1.35 1.35 0 00.09.5 1 1 0 00.26.39 1.24 1.24 0 00.43.26 1.91 1.91 0 00.61.09 1.5 1.5 0 001.07-.34 1.15 1.15 0 00.35-.89 1.27 1.27 0 00-.11-.52 2.07 2.07 0 00-.31-.42 3 3 0 00-.43-.36l-.48-.31-.15-.1a4.21 4.21 0 00-.54.3 2.19 2.19 0 00-.42.38 2.07 2.07 0 00-.27.45 1.61 1.61 0 00-.1.57zm1.4-5.92a1.42 1.42 0 00-.42.06 1.27 1.27 0 00-.34.2 1.21 1.21 0 00-.22.32 1.31 1.31 0 000 .93 1.1 1.1 0 00.23.37 1.93 1.93 0 00.34.29l.41.25.41-.24a2.43 2.43 0 00.34-.3 1.6 1.6 0 00.24-.36 1.21 1.21 0 00.09-.48 1.23 1.23 0 00-.08-.44 1 1 0 00-.23-.32 1.13 1.13 0 00-.34-.2 1.49 1.49 0 00-.43-.08zM103.9 54.79a2.1 2.1 0 01-.82 1.79 4 4 0 01-2.44.61 8.11 8.11 0 01-1.42-.11 6.24 6.24 0 01-1.11-.33V55a7.44 7.44 0 001.31.45 5.09 5.09 0 001.29.19c.75 0 1.13-.22 1.13-.66a.55.55 0 00-.15-.4 2.17 2.17 0 00-.52-.35c-.25-.13-.57-.28-1-.45a6.44 6.44 0 01-1.3-.69 1.77 1.77 0 01-.6-.72 2.29 2.29 0 01-.19-1 1.79 1.79 0 01.79-1.57 3.86 3.86 0 012.24-.56 6.38 6.38 0 012.69.6l-.63 1.51c-.39-.17-.74-.3-1.08-.41a3.49 3.49 0 00-1-.16c-.62 0-.93.17-.93.5a.59.59 0 00.3.49 7.88 7.88 0 001.3.61 5.72 5.72 0 011.31.67 2 2 0 01.62.73 2.25 2.25 0 01.21 1.01zM105.5 50.43a1.45 1.45 0 01.09-.54.88.88 0 01.26-.36 1 1 0 01.38-.2 1.78 1.78 0 01.47-.06 1.76 1.76 0 01.46.06 1 1 0 01.37.2.88.88 0 01.26.36 1.27 1.27 0 01.1.54 1.22 1.22 0 01-.1.53.88.88 0 01-.26.36.85.85 0 01-.37.21 1.76 1.76 0 01-.46.06 1.78 1.78 0 01-.47-.06 1 1 0 01-.64-.57 1.4 1.4 0 01-.09-.53zm0 5.65a1.47 1.47 0 01.09-.55.92.92 0 01.26-.35.87.87 0 01.38-.2 1.78 1.78 0 01.47-.06 1.76 1.76 0 01.46.06.83.83 0 01.37.2.92.92 0 01.26.35 1.29 1.29 0 01.1.55 1.18 1.18 0 01-.1.52 1 1 0 01-.26.37 1.12 1.12 0 01-.37.21 1.76 1.76 0 01-.46.06 1.78 1.78 0 01-.47-.06 1.17 1.17 0 01-.38-.21 1 1 0 01-.26-.37 1.35 1.35 0 01-.09-.52zM113.16 57.19q-3.57 0-3.57-3.91a4.21 4.21 0 011-3 3.65 3.65 0 012.79-1 5.22 5.22 0 012.37.52l-.61 1.61a9.27 9.27 0 00-.92-.32 2.72 2.72 0 00-.84-.13c-1.09 0-1.63.77-1.63 2.31s.54 2.24 1.63 2.24a3.59 3.59 0 001.11-.16 3.7 3.7 0 001-.5v1.78a3.07 3.07 0 01-1 .45 5.87 5.87 0 01-1.33.11zM124.2 53.22a4.14 4.14 0 01-1 2.92 3.58 3.58 0 01-2.74 1 3.86 3.86 0 01-2-.48 3.19 3.19 0 01-1.29-1.38 4.71 4.71 0 01-.45-2.11 4.08 4.08 0 011-2.91 3.6 3.6 0 012.75-1 3.85 3.85 0 011.94.48 3.17 3.17 0 011.29 1.37 4.64 4.64 0 01.5 2.11zm-5.28 0a3.21 3.21 0 00.37 1.72 1.34 1.34 0 001.21.58 1.29 1.29 0 001.2-.58 4.14 4.14 0 000-3.42 1.34 1.34 0 00-1.21-.57 1.31 1.31 0 00-1.2.57 3.09 3.09 0 00-.37 1.7zM133 57.06h-2.09v-4.47a2.2 2.2 0 00-.29-1.24 1.09 1.09 0 00-.94-.41 1.4 1.4 0 00-1.26.58 3.64 3.64 0 00-.39 1.94v3.6h-2.09v-7.65h1.6l.28 1h.11a2.3 2.3 0 011-.84 3.26 3.26 0 011.39-.28 2.69 2.69 0 012 .72 2.9 2.9 0 01.69 2.08zM138.34 55.53a4.52 4.52 0 001.32-.24v1.55a4.58 4.58 0 01-1.92.35 2.35 2.35 0 01-1.82-.63 2.75 2.75 0 01-.57-1.9V51h-1v-.9l1.15-.7.6-1.61h1.34v1.62h2.13V51h-2.13v3.68a.83.83 0 00.24.66 1 1 0 00.66.19zM146.06 57.06l-.41-1h-.05a3 3 0 01-1.09.92 3.5 3.5 0 01-1.45.25 2.34 2.34 0 01-1.73-.63 2.41 2.41 0 01-.63-1.79 2 2 0 01.85-1.79 4.84 4.84 0 012.56-.64h1.33V52a1 1 0 00-1.19-1.16 5.54 5.54 0 00-2.15.55l-.69-1.4a6.2 6.2 0 012.92-.69 3.63 3.63 0 012.36.67 2.44 2.44 0 01.82 2v5.1zm-.62-3.55h-.81a2.62 2.62 0 00-1.35.33 1 1 0 00-.44.92c0 .58.33.88 1 .88a1.6 1.6 0 001.16-.42 1.47 1.47 0 00.43-1.11zM149.57 47.44c0-.68.38-1 1.13-1s1.14.34 1.14 1a1 1 0 01-.29.75 1.17 1.17 0 01-.85.27c-.7 0-1.13-.34-1.13-1.02zm2.17 9.62h-2.08v-7.65h2.08zM161 57.06h-2.1v-4.47a2.2 2.2 0 00-.29-1.24 1.09 1.09 0 00-.94-.41 1.42 1.42 0 00-1.27.58 3.75 3.75 0 00-.38 1.94v3.6h-2.09v-7.65h1.59l.28 1h.12a2.18 2.18 0 011-.84 3.26 3.26 0 011.39-.28 2.66 2.66 0 012 .72 2.9 2.9 0 01.69 2.08zM166.59 57.19a3.93 3.93 0 01-2.88-1 3.83 3.83 0 01-1-2.88 4.24 4.24 0 011-3 3.9 3.9 0 015.18-.13 3.51 3.51 0 01.9 2.55v1h-4.93a2 2 0 00.53 1.39 1.84 1.84 0 001.38.5 6 6 0 001.3-.14 6.94 6.94 0 001.29-.46v1.61a5.24 5.24 0 01-1.17.41 7.35 7.35 0 01-1.6.15zm-.29-6.44a1.31 1.31 0 00-1 .42 1.92 1.92 0 00-.43 1.2h2.92a1.75 1.75 0 00-.4-1.2 1.36 1.36 0 00-1.09-.42zM175.67 49.27a3.37 3.37 0 01.7.06l-.15 2a2.68 2.68 0 00-2.18.44 1.85 1.85 0 00-.55 1.44v3.89h-2.09v-7.69h1.6l.31 1.29h.1a2.91 2.91 0 011-1 2.4 2.4 0 011.26-.43zM184 52.06a11.57 11.57 0 01-.19 2.16 5 5 0 01-.6 1.61 2.8 2.8 0 01-1.07 1 3.2 3.2 0 01-1.57.35 3.08 3.08 0 01-1.52-.35 2.92 2.92 0 01-1.06-1 4.79 4.79 0 01-.63-1.61 10 10 0 01-.21-2.16 11 11 0 01.19-2.17 4.75 4.75 0 01.59-1.62 2.84 2.84 0 011.06-1 3.24 3.24 0 011.58-.36 3.13 3.13 0 011.5.35 3 3 0 011.07 1 5 5 0 01.64 1.62 9.63 9.63 0 01.22 2.18zm-4.75 0a8.32 8.32 0 00.3 2.57 1.06 1.06 0 001 .86c.47 0 .81-.28 1-.85a8.25 8.25 0 00.31-2.58 8.25 8.25 0 00-.31-2.58q-.31-.87-1-.87a.94.94 0 00-.62.22 1.57 1.57 0 00-.4.65 4.61 4.61 0 00-.23 1.08c-.07.44-.1.93-.1 1.5zM185.44 50.43a1.27 1.27 0 01.1-.54.86.86 0 01.25-.36 1 1 0 01.39-.2 1.73 1.73 0 01.47-.06 1.63 1.63 0 01.45.06 1 1 0 01.38.2.88.88 0 01.26.36 1.44 1.44 0 01.1.54 1.39 1.39 0 01-.1.53 1 1 0 01-.64.57 1.63 1.63 0 01-.45.06 1.73 1.73 0 01-.47-.06.92.92 0 01-.39-.21.86.86 0 01-.25-.36 1.22 1.22 0 01-.1-.53zm0 5.65a1.29 1.29 0 01.1-.55.9.9 0 01.25-.35.91.91 0 01.39-.2 1.73 1.73 0 01.47-.06 1.63 1.63 0 01.45.06.87.87 0 01.38.2.92.92 0 01.26.35 1.46 1.46 0 01.1.55 1.34 1.34 0 01-.1.52 1 1 0 01-.26.37 1.17 1.17 0 01-.38.21 1.63 1.63 0 01-.45.06 1.73 1.73 0 01-.47-.06 1.22 1.22 0 01-.39-.21 1 1 0 01-.25-.37 1.18 1.18 0 01-.1-.52zM189.91 47.44q0-1 1.14-1c.76 0 1.13.34 1.13 1a1 1 0 01-.28.75 1.19 1.19 0 01-.85.27q-1.14 0-1.14-1.02zm2.18 9.62H190v-7.65h2.09zM201.12 57.06H199v-4.47a2.31 2.31 0 00-.27-1.24 1 1 0 00-.87-.41 1.25 1.25 0 00-1.17.59 3.85 3.85 0 00-.36 1.93v3.6h-2.08v-7.65h1.59l.28 1h.12a2.12 2.12 0 01.88-.82 2.91 2.91 0 011.34-.3 2.39 2.39 0 012.32 1.12h.22a2.08 2.08 0 01.9-.83 3.11 3.11 0 011.35-.29 2.66 2.66 0 012 .67 2.92 2.92 0 01.66 2.13v5h-2.09v-4.5a2.21 2.21 0 00-.28-1.24 1 1 0 00-.87-.41 1.29 1.29 0 00-1.14.54 3.16 3.16 0 00-.38 1.74zM212.88 57.06l-.41-1h-.05a3 3 0 01-1.09.92 3.5 3.5 0 01-1.45.25 2.34 2.34 0 01-1.73-.63 2.41 2.41 0 01-.63-1.79 2 2 0 01.85-1.79 4.88 4.88 0 012.57-.64h1.32V52a1 1 0 00-1.19-1.16 5.54 5.54 0 00-2.15.55l-.69-1.4a6.2 6.2 0 012.92-.69 3.61 3.61 0 012.36.67 2.44 2.44 0 01.82 2v5.1zm-.62-3.55h-.81a2.62 2.62 0 00-1.35.33 1 1 0 00-.44.92c0 .58.33.88 1 .88a1.6 1.6 0 001.16-.42 1.47 1.47 0 00.43-1.11zM223.16 57.07a3.17 3.17 0 01-1 2.5 4.19 4.19 0 01-2.86.85 8.06 8.06 0 01-2.86-.45V58.3a7.58 7.58 0 003 .59c1.07 0 1.61-.58 1.61-1.74V57l.06-.94h-.06a2.41 2.41 0 01-2.17 1.13 2.45 2.45 0 01-2.13-1.06 4.9 4.9 0 01-.76-2.88 4.75 4.75 0 01.79-2.93 2.53 2.53 0 012.15-1 2.58 2.58 0 012.22 1.12h.05l.17-1h1.77zm-3.52-1.51a1.42 1.42 0 001.21-.48 2.67 2.67 0 00.36-1.57v-.25a3.17 3.17 0 00-.38-1.76 1.38 1.38 0 00-1.22-.54c-1 0-1.47.77-1.47 2.32a3.15 3.15 0 00.37 1.71 1.24 1.24 0 001.13.57zM228.8 57.19a4 4 0 01-2.89-1 3.86 3.86 0 01-1-2.88 4.24 4.24 0 011-3 3.43 3.43 0 012.66-1 3.38 3.38 0 012.52.92 3.52 3.52 0 01.91 2.55v1h-5a2 2 0 00.52 1.39 1.87 1.87 0 001.38.5 6.12 6.12 0 001.31-.14 6.61 6.61 0 001.28-.46v1.61a4.91 4.91 0 01-1.17.41 7.25 7.25 0 01-1.52.1zm-.3-6.44a1.33 1.33 0 00-1 .42 2 2 0 00-.43 1.2H230a1.75 1.75 0 00-.4-1.2 1.37 1.37 0 00-1.1-.42zM233.25 52v-1.53h6.51V52zm0 2.66v-1.5h6.51v1.5zM248.27 57.07a3.17 3.17 0 01-1 2.5 4.18 4.18 0 01-2.86.85 8.1 8.1 0 01-2.86-.45V58.3a7.63 7.63 0 003 .59c1.07 0 1.6-.58 1.6-1.74V57l.06-.94h-.06a2.41 2.41 0 01-2.15 1.13 2.44 2.44 0 01-2.12-1.06 4.82 4.82 0 01-.76-2.88 4.82 4.82 0 01.78-2.93 2.74 2.74 0 014.37.07h.06l.17-1h1.76zm-3.51-1.51a1.4 1.4 0 001.2-.48 2.67 2.67 0 00.37-1.57v-.25a3.17 3.17 0 00-.33-1.76 1.4 1.4 0 00-1.22-.54c-1 0-1.47.77-1.47 2.32a3.25 3.25 0 00.36 1.71 1.27 1.27 0 001.09.57zM253.56 57.19q-3.57 0-3.57-3.91a4.16 4.16 0 011-3 3.62 3.62 0 012.78-1 5.24 5.24 0 012.38.52l-.61 1.61c-.33-.13-.64-.24-.92-.32a2.79 2.79 0 00-.85-.13q-1.62 0-1.62 2.31c0 1.5.54 2.24 1.62 2.24a3.63 3.63 0 002.14-.66v1.78a3.25 3.25 0 01-1 .45 5.87 5.87 0 01-1.35.11zM261.92 49.27a3.37 3.37 0 01.7.06l-.16 2a2.13 2.13 0 00-.61-.07 2.24 2.24 0 00-1.56.51 1.85 1.85 0 00-.55 1.44v3.89h-2.09v-7.69h1.58l.31 1.29h.1a2.91 2.91 0 011-1 2.4 2.4 0 011.28-.43zM263.72 56.08a1.47 1.47 0 01.09-.55 1 1 0 01.25-.35.91.91 0 01.39-.2 1.73 1.73 0 01.47-.06 1.63 1.63 0 01.45.06.87.87 0 01.38.2.92.92 0 01.26.35 1.29 1.29 0 01.1.55 1.18 1.18 0 01-.1.52 1 1 0 01-.26.37 1.17 1.17 0 01-.38.21 1.63 1.63 0 01-.45.06 1.73 1.73 0 01-.47-.06 1.22 1.22 0 01-.39-.21 1.1 1.1 0 01-.25-.37 1.35 1.35 0 01-.09-.52zM267.91 47.44q0-1 1.14-1c.75 0 1.13.34 1.13 1a1 1 0 01-.28.75 1.19 1.19 0 01-.85.27q-1.14 0-1.14-1.02zm2.18 9.62H268v-7.65h2.09zM279.22 53.22a4.14 4.14 0 01-1 2.92 3.59 3.59 0 01-2.75 1 3.85 3.85 0 01-1.94-.48 3.19 3.19 0 01-1.29-1.38 4.71 4.71 0 01-.45-2.11 4.08 4.08 0 011-2.91 3.59 3.59 0 012.75-1 3.85 3.85 0 011.94.48 3.17 3.17 0 011.29 1.37 4.64 4.64 0 01.45 2.11zm-5.28 0a3.21 3.21 0 00.37 1.72 1.34 1.34 0 001.21.58 1.29 1.29 0 001.2-.58 3.3 3.3 0 00.37-1.72 3.2 3.2 0 00-.37-1.7 1.57 1.57 0 00-2.42 0 3.19 3.19 0 00-.36 1.7zM286 45.4l-3.83 14h-1.79l3.83-14zM294.22 57.07a3.17 3.17 0 01-1 2.5 4.18 4.18 0 01-2.86.85 8 8 0 01-2.85-.45V58.3a7.55 7.55 0 003 .59c1.07 0 1.6-.58 1.6-1.74V57l.06-.94h-.06a2.39 2.39 0 01-2.11 1.13 2.45 2.45 0 01-2.13-1.06 4.82 4.82 0 01-.76-2.88 4.82 4.82 0 01.78-2.93 2.55 2.55 0 012.16-1 2.58 2.58 0 012.22 1.12h.05l.17-1h1.76zm-3.51-1.51a1.4 1.4 0 001.2-.48 2.59 2.59 0 00.37-1.57v-.25a3.17 3.17 0 00-.38-1.76 1.4 1.4 0 00-1.22-.54c-1 0-1.47.77-1.47 2.32a3.25 3.25 0 00.36 1.71 1.27 1.27 0 001.14.57zM303.35 53.22a4.14 4.14 0 01-1 2.92 3.59 3.59 0 01-2.75 1 3.85 3.85 0 01-1.94-.48 3.19 3.19 0 01-1.29-1.38 4.71 4.71 0 01-.45-2.11 4.08 4.08 0 011-2.91 3.6 3.6 0 012.75-1 3.85 3.85 0 011.94.48 3.17 3.17 0 011.29 1.37 4.64 4.64 0 01.45 2.11zm-5.28 0a3.21 3.21 0 00.37 1.72 1.34 1.34 0 001.21.58 1.29 1.29 0 001.2-.58 4.14 4.14 0 000-3.42 1.34 1.34 0 00-1.21-.57 1.31 1.31 0 00-1.2.57 3.09 3.09 0 00-.37 1.7zM312 53.22a4.1 4.1 0 01-1 2.92 3.56 3.56 0 01-2.74 1 3.85 3.85 0 01-1.94-.48 3.19 3.19 0 01-1.29-1.38 4.71 4.71 0 01-.45-2.11 4 4 0 011-2.91 3.58 3.58 0 012.74-1 3.89 3.89 0 011.95.48 3.17 3.17 0 011.29 1.37 4.64 4.64 0 01.44 2.11zm-5.29 0a3.2 3.2 0 00.38 1.72 1.34 1.34 0 001.21.58 1.29 1.29 0 001.2-.58 3.3 3.3 0 00.37-1.72 3.2 3.2 0 00-.37-1.7 1.57 1.57 0 00-2.42 0 3.18 3.18 0 00-.35 1.7zM320.42 57.07a3.17 3.17 0 01-1 2.5 4.18 4.18 0 01-2.86.85 8.06 8.06 0 01-2.86-.45V58.3a7.62 7.62 0 003 .59c1.07 0 1.61-.58 1.61-1.74V57l.06-.94h-.06a2.41 2.41 0 01-2.17 1.13 2.47 2.47 0 01-2.14-1.06 4.9 4.9 0 01-.75-2.88 4.82 4.82 0 01.78-2.93 2.54 2.54 0 012.16-1 2.58 2.58 0 012.21 1.12h.06l.17-1h1.76zm-3.51-1.51a1.4 1.4 0 001.2-.48 2.67 2.67 0 00.36-1.57v-.25a3.17 3.17 0 00-.38-1.76 1.38 1.38 0 00-1.22-.54c-1 0-1.47.77-1.47 2.32a3.15 3.15 0 00.37 1.71 1.25 1.25 0 001.14.57zM324.69 57.06h-2.09V46.42h2.09zM330.33 57.19a3.93 3.93 0 01-2.88-1 3.83 3.83 0 01-1-2.88 4.24 4.24 0 011-3 3.9 3.9 0 015.18-.13 3.51 3.51 0 01.9 2.55v1h-4.93a2 2 0 00.53 1.39 1.85 1.85 0 001.38.5 6 6 0 001.3-.14A6.94 6.94 0 00333 55v1.61a5.24 5.24 0 01-1.17.41 7.35 7.35 0 01-1.5.17zm-.33-6.44a1.33 1.33 0 00-1 .42 1.92 1.92 0 00-.43 1.2h2.92a1.7 1.7 0 00-.4-1.2 1.36 1.36 0 00-1.09-.42zM334.78 53.75V52h3.67v1.71zM345.6 54.79a2.12 2.12 0 01-.82 1.79 4 4 0 01-2.44.61 8.32 8.32 0 01-1.43-.11 6.39 6.39 0 01-1.1-.33V55a7.44 7.44 0 001.31.45 5.08 5.08 0 001.28.19q1.14 0 1.14-.66a.55.55 0 00-.15-.4 2.17 2.17 0 00-.52-.35q-.37-.19-1-.45a6.59 6.59 0 01-1.29-.69 1.77 1.77 0 01-.6-.72 2.29 2.29 0 01-.19-1 1.79 1.79 0 01.79-1.57 3.86 3.86 0 012.24-.56 6.34 6.34 0 012.68.6l-.62 1.51c-.39-.17-.74-.3-1.08-.41a3.51 3.51 0 00-1-.16c-.61 0-.92.17-.92.5a.59.59 0 00.3.49 7.88 7.88 0 001.3.61 6 6 0 011.31.67 2 2 0 01.62.73 2.25 2.25 0 01.19 1.01zM352.08 57.06l-.41-1h-.05a3.09 3.09 0 01-1.08.92 3.58 3.58 0 01-1.46.25 2.34 2.34 0 01-1.73-.63 2.41 2.41 0 01-.63-1.79 2 2 0 01.85-1.79 4.88 4.88 0 012.57-.64h1.32V52a1 1 0 00-1.19-1.16 5.54 5.54 0 00-2.15.55l-.69-1.4a6.2 6.2 0 012.92-.69 3.61 3.61 0 012.36.67 2.44 2.44 0 01.82 2v5.1zm-.62-3.55h-.81a2.62 2.62 0 00-1.35.33 1 1 0 00-.44.92c0 .58.33.88 1 .88a1.6 1.6 0 001.16-.42 1.47 1.47 0 00.43-1.11zM362.52 57.06h-2.08v-4.47a2.21 2.21 0 00-.28-1.24 1 1 0 00-.87-.41 1.25 1.25 0 00-1.16.59 3.83 3.83 0 00-.37 1.93v3.6h-2.08v-7.65h1.59l.28 1h.12a2.09 2.09 0 01.89-.82 2.83 2.83 0 011.33-.3 2.39 2.39 0 012.32 1.12h.19a2.13 2.13 0 01.9-.83 3.11 3.11 0 011.35-.29 2.64 2.64 0 012 .67 2.92 2.92 0 01.67 2.13v5h-2.1v-4.5a2.31 2.31 0 00-.27-1.24 1 1 0 00-.87-.41 1.31 1.31 0 00-1.15.54 3.16 3.16 0 00-.38 1.74zM373.62 57.19a2.52 2.52 0 01-2.11-1h-.11c.08.64.11 1 .11 1.11v3.1h-2.08v-11h1.69l.3 1h.09a2.43 2.43 0 012.17-1.13 2.48 2.48 0 012.12 1 4.81 4.81 0 01.76 2.9 5.72 5.72 0 01-.36 2.13 2.9 2.9 0 01-1 1.37 2.57 2.57 0 01-1.58.52zm-.62-6.25a1.33 1.33 0 00-1.13.47 2.72 2.72 0 00-.37 1.57v.23a3.13 3.13 0 00.37 1.76 1.29 1.29 0 001.16.53c.93 0 1.4-.77 1.4-2.31a3.3 3.3 0 00-.35-1.69 1.18 1.18 0 00-1.08-.56zM380.37 57.06h-2.08V46.42h2.08zM386 57.19a4 4 0 01-2.89-1 3.86 3.86 0 01-1-2.88 4.24 4.24 0 011-3 3.43 3.43 0 012.66-1 3.38 3.38 0 012.52.92 3.51 3.51 0 01.9 2.55v1h-4.92a2 2 0 00.52 1.39 1.87 1.87 0 001.38.5 6.12 6.12 0 001.31-.14 6.61 6.61 0 001.22-.53v1.61a4.91 4.91 0 01-1.17.41 7.25 7.25 0 01-1.53.17zm-.3-6.44a1.34 1.34 0 00-1 .42 2 2 0 00-.43 1.2h2.93a1.75 1.75 0 00-.4-1.2 1.37 1.37 0 00-1.08-.42zM396.16 54.79a2.11 2.11 0 01-.81 1.79 4.06 4.06 0 01-2.45.61 8.19 8.19 0 01-1.42-.11 6.13 6.13 0 01-1.1-.33V55a7.17 7.17 0 001.31.45 5 5 0 001.28.19c.76 0 1.13-.22 1.13-.66a.55.55 0 00-.15-.4 2.17 2.17 0 00-.52-.35c-.24-.13-.57-.28-1-.45a6.44 6.44 0 01-1.3-.69 2 2 0 01-.6-.72 2.44 2.44 0 01-.19-1 1.82 1.82 0 01.79-1.57 3.88 3.88 0 012.24-.56 6.38 6.38 0 012.69.6l-.63 1.51c-.38-.17-.74-.3-1.07-.41a3.56 3.56 0 00-1-.16c-.62 0-.92.17-.92.5a.58.58 0 00.29.49 8.12 8.12 0 001.31.61 6.19 6.19 0 011.31.67 2 2 0 01.61.73 2.12 2.12 0 01.2 1.01zM402.81 45.4l-3.83 14h-1.79l3.83-14zM411.23 57.06h-2.08v-4.47a2.21 2.21 0 00-.28-1.24 1 1 0 00-.87-.41 1.25 1.25 0 00-1.16.59 3.85 3.85 0 00-.36 1.93v3.6h-2.09v-7.65H406l.29 1h.11a2.14 2.14 0 01.89-.82 2.86 2.86 0 011.33-.3 2.4 2.4 0 012.33 1.12h.18a2.16 2.16 0 01.91-.83 3.11 3.11 0 011.35-.29 2.63 2.63 0 012 .67 2.88 2.88 0 01.67 2.13v5h-2.09v-4.5a2.21 2.21 0 00-.28-1.24 1 1 0 00-.87-.41 1.32 1.32 0 00-1.15.54 3.16 3.16 0 00-.38 1.74zM418.05 47.44q0-1 1.14-1c.75 0 1.13.34 1.13 1a1 1 0 01-.28.75 1.2 1.2 0 01-.85.27q-1.14 0-1.14-1.02zm2.17 9.62h-2.08v-7.65h2.08zM425.52 57.19q-3.57 0-3.57-3.91a4.16 4.16 0 011-3 3.61 3.61 0 012.78-1 5.27 5.27 0 012.38.52l-.62 1.61a9.14 9.14 0 00-.91-.32 2.79 2.79 0 00-.85-.13c-1.09 0-1.63.77-1.63 2.31s.54 2.24 1.63 2.24a3.68 3.68 0 002.14-.66v1.78a3.25 3.25 0 01-1 .45 5.93 5.93 0 01-1.35.11zM433.88 49.27a3.44 3.44 0 01.7.06l-.16 2a2.18 2.18 0 00-.61-.07 2.22 2.22 0 00-1.56.51 1.86 1.86 0 00-.56 1.44v3.89h-2.08v-7.69h1.58l.31 1.29h.1a2.91 2.91 0 011-1 2.37 2.37 0 011.28-.43zM442.78 53.22a4.1 4.1 0 01-1 2.92 3.56 3.56 0 01-2.74 1 3.85 3.85 0 01-1.94-.48 3.19 3.19 0 01-1.29-1.38 4.71 4.71 0 01-.45-2.11 4.08 4.08 0 011-2.91 3.6 3.6 0 012.75-1 3.85 3.85 0 011.94.48 3.17 3.17 0 011.29 1.37 4.51 4.51 0 01.44 2.11zm-5.29 0a3.3 3.3 0 00.37 1.72 1.36 1.36 0 001.22.58 1.32 1.32 0 001.2-.58 3.31 3.31 0 00.36-1.72 3.11 3.11 0 00-.37-1.7 1.56 1.56 0 00-2.41 0 3.09 3.09 0 00-.37 1.7zM449.83 54.79a2.1 2.1 0 01-.82 1.79 4 4 0 01-2.44.61 8.11 8.11 0 01-1.42-.11 6.13 6.13 0 01-1.1-.33V55a7.17 7.17 0 001.31.45 5 5 0 001.28.19c.76 0 1.13-.22 1.13-.66a.55.55 0 00-.15-.4 2.17 2.17 0 00-.52-.35c-.24-.13-.57-.28-1-.45a6.44 6.44 0 01-1.3-.69 2 2 0 01-.6-.72 2.44 2.44 0 01-.19-1 1.82 1.82 0 01.79-1.57 3.88 3.88 0 012.24-.56 6.38 6.38 0 012.69.6l-.63 1.51c-.38-.17-.74-.3-1.07-.41a3.61 3.61 0 00-1-.16c-.62 0-.93.17-.93.5a.59.59 0 00.3.49 7.88 7.88 0 001.3.61 6.07 6.07 0 011.32.67 2 2 0 01.61.73 2.25 2.25 0 01.2 1.01zM454.92 57.19a4 4 0 01-2.89-1 3.86 3.86 0 01-1-2.88 4.24 4.24 0 011-3 3.43 3.43 0 012.66-1 3.38 3.38 0 012.52.92 3.51 3.51 0 01.9 2.55v1h-5.01a2 2 0 00.53 1.39 1.87 1.87 0 001.38.5 6.12 6.12 0 001.31-.14 6.61 6.61 0 001.28-.53v1.61a4.91 4.91 0 01-1.17.41 7.25 7.25 0 01-1.51.17zm-.3-6.44a1.33 1.33 0 00-1 .42 2 2 0 00-.43 1.2h2.93a1.75 1.75 0 00-.4-1.2 1.39 1.39 0 00-1.1-.42zM464 49.27a3.48 3.48 0 01.71.06l-.16 2a2.18 2.18 0 00-.61-.07 2.22 2.22 0 00-1.56.51 1.86 1.86 0 00-.56 1.44v3.89h-2.08v-7.69h1.58l.31 1.29h.1a2.91 2.91 0 011-1 2.36 2.36 0 011.27-.43zM467.9 57.06l-2.9-7.65h2.18l1.48 4.36a6.65 6.65 0 01.29 1.56h.05a5.91 5.91 0 01.31-1.56l1.47-4.36H473l-3 7.65zM474 47.44q0-1 1.14-1c.75 0 1.13.34 1.13 1a1 1 0 01-.28.75 1.2 1.2 0 01-.85.27q-1.14 0-1.14-1.02zm2.18 9.62h-2.09v-7.65h2.09zM481.43 57.19q-3.57 0-3.57-3.91a4.16 4.16 0 011-3 3.62 3.62 0 012.78-1 5.27 5.27 0 012.38.52l-.62 1.61a9.14 9.14 0 00-.91-.32 2.79 2.79 0 00-.85-.13c-1.08 0-1.63.77-1.63 2.31s.55 2.24 1.63 2.24a3.63 3.63 0 002.14-.66v1.78a3.25 3.25 0 01-1 .45 5.93 5.93 0 01-1.35.11zM489 57.19a3.93 3.93 0 01-2.88-1 3.83 3.83 0 01-1-2.88 4.24 4.24 0 011-3 3.89 3.89 0 015.17-.13 3.48 3.48 0 01.91 2.55v1h-4.93a2 2 0 00.52 1.39 1.88 1.88 0 001.39.5 6 6 0 001.3-.14 6.94 6.94 0 001.29-.46v1.61a5.24 5.24 0 01-1.17.41 7.35 7.35 0 01-1.6.15zm-.29-6.44a1.31 1.31 0 00-1 .42 1.92 1.92 0 00-.43 1.2h2.92a1.75 1.75 0 00-.4-1.2 1.36 1.36 0 00-1.11-.42zM499.12 54.79a2.11 2.11 0 01-.81 1.79 4.06 4.06 0 01-2.45.61 8.19 8.19 0 01-1.42-.11 6.13 6.13 0 01-1.1-.33V55a7.44 7.44 0 001.31.45 5 5 0 001.28.19q1.14 0 1.14-.66a.55.55 0 00-.15-.4 2.41 2.41 0 00-.52-.35q-.37-.19-1-.45a6 6 0 01-1.29-.69 1.77 1.77 0 01-.6-.72 2.29 2.29 0 01-.19-1 1.79 1.79 0 01.79-1.57 3.84 3.84 0 012.24-.56 6.34 6.34 0 012.68.6l-.63 1.51c-.38-.17-.74-.3-1.07-.41a3.51 3.51 0 00-1-.16c-.61 0-.92.17-.92.5a.59.59 0 00.3.49 7.47 7.47 0 001.3.61 6 6 0 011.31.67 2.13 2.13 0 01.62.73 2.26 2.26 0 01.18 1.01zM500.38 53.75V52h3.67v1.71zM508.29 57.19a2.48 2.48 0 01-2.11-1 4.78 4.78 0 01-.77-2.9 4.82 4.82 0 01.78-2.93 2.54 2.54 0 012.16-1 2.49 2.49 0 012.2 1.12h.07a8.11 8.11 0 01-.16-1.52v-2.54h2.09v10.64H511l-.4-1h-.09a2.38 2.38 0 01-2.22 1.13zm.73-1.66a1.42 1.42 0 001.18-.46 2.76 2.76 0 00.4-1.58v-.23a3 3 0 00-.38-1.76A1.39 1.39 0 00509 51a1.23 1.23 0 00-1.09.6 3.2 3.2 0 00-.38 1.72 3 3 0 00.39 1.69 1.28 1.28 0 001.08.52zM518.19 57.19a3.93 3.93 0 01-2.88-1 3.83 3.83 0 01-1-2.88 4.24 4.24 0 011-3 3.89 3.89 0 015.17-.13 3.48 3.48 0 01.91 2.55v1h-4.93a2 2 0 00.52 1.39 1.88 1.88 0 001.39.5 6 6 0 001.3-.14 6.94 6.94 0 001.29-.46v1.61a5.24 5.24 0 01-1.17.41 7.35 7.35 0 01-1.6.15zm-.29-6.44a1.31 1.31 0 00-1 .42 1.92 1.92 0 00-.43 1.2h2.92a1.75 1.75 0 00-.4-1.2 1.36 1.36 0 00-1.09-.42zM529.85 57.06h-2.09v-4.47a2.21 2.21 0 00-.28-1.24 1 1 0 00-.87-.41 1.25 1.25 0 00-1.16.59 3.85 3.85 0 00-.36 1.93v3.6H523v-7.65h1.6l.28 1h.12a2.14 2.14 0 01.89-.82 2.86 2.86 0 011.33-.3 2.4 2.4 0 012.33 1.12h.18a2.16 2.16 0 01.91-.83 3.11 3.11 0 011.35-.29 2.63 2.63 0 012 .67 2.88 2.88 0 01.67 2.13v5h-2.09v-4.5a2.21 2.21 0 00-.28-1.24 1 1 0 00-.87-.41 1.29 1.29 0 00-1.14.54 3.08 3.08 0 00-.38 1.74zM543.69 53.22a4.09 4.09 0 01-1 2.92 3.58 3.58 0 01-2.74 1 3.85 3.85 0 01-1.94-.48 3.19 3.19 0 01-1.29-1.38 4.71 4.71 0 01-.46-2.11 4.08 4.08 0 011-2.91 3.6 3.6 0 012.75-1 3.85 3.85 0 011.94.48 3.17 3.17 0 011.29 1.37 4.64 4.64 0 01.45 2.11zm-5.28 0a3.21 3.21 0 00.37 1.72 1.36 1.36 0 001.22.58 1.32 1.32 0 001.2-.58 3.31 3.31 0 00.36-1.72 3.11 3.11 0 00-.37-1.7 1.56 1.56 0 00-2.41 0 3.09 3.09 0 00-.37 1.7zM550.44 45.4l-3.83 14h-1.79l3.82-14zM556.25 51h-1.81v6.08h-2.08V51h-1.15v-1l1.15-.56v-.56A2.48 2.48 0 01553 47a2.9 2.9 0 012.06-.61 5.22 5.22 0 011.92.33l-.54 1.53a3.63 3.63 0 00-1.16-.2.77.77 0 00-.64.26 1.11 1.11 0 00-.2.67v.48h1.81zM561.71 49.27a3.37 3.37 0 01.7.06l-.16 2a2.13 2.13 0 00-.61-.07 2.24 2.24 0 00-1.56.51 1.85 1.85 0 00-.55 1.44v3.89h-2.09v-7.69H559l.31 1.29h.1a2.91 2.91 0 011-1 2.4 2.4 0 011.3-.43zM570.61 53.22a4.1 4.1 0 01-1 2.92 3.56 3.56 0 01-2.74 1 3.85 3.85 0 01-1.94-.48 3.19 3.19 0 01-1.29-1.38 4.71 4.71 0 01-.45-2.11 4 4 0 011-2.91 3.58 3.58 0 012.74-1 3.82 3.82 0 011.94.48 3.13 3.13 0 011.3 1.37 4.64 4.64 0 01.44 2.11zm-5.29 0a3.2 3.2 0 00.38 1.72 1.33 1.33 0 001.21.58 1.29 1.29 0 001.2-.58 3.3 3.3 0 00.37-1.72 3.2 3.2 0 00-.37-1.7 1.57 1.57 0 00-2.42 0 3.18 3.18 0 00-.37 1.7zM579.39 57.06h-2.09v-4.47a2.2 2.2 0 00-.29-1.24 1.09 1.09 0 00-.94-.41 1.39 1.39 0 00-1.26.58 3.64 3.64 0 00-.39 1.94v3.6h-2.09v-7.65h1.59l.28 1h.12a2.18 2.18 0 011-.84 3.26 3.26 0 011.39-.28 2.66 2.66 0 012 .72 2.9 2.9 0 01.7 2.08zM584.75 55.53a4.46 4.46 0 001.31-.24v1.55a4.53 4.53 0 01-1.91.35 2.35 2.35 0 01-1.82-.63 2.75 2.75 0 01-.57-1.9V51h-1v-.9l1.15-.7.6-1.61h1.33v1.62H586V51h-2.14v3.68a.84.84 0 00.25.66 1 1 0 00.64.19zM591.07 57.19a4 4 0 01-2.89-1 3.86 3.86 0 01-1-2.88 4.24 4.24 0 011-3 3.43 3.43 0 012.66-1 3.38 3.38 0 012.52.92 3.52 3.52 0 01.91 2.55v1h-4.93a2 2 0 00.52 1.39 1.87 1.87 0 001.38.5 6.12 6.12 0 001.31-.14 6.61 6.61 0 001.28-.46v1.61a5 5 0 01-1.16.41 7.42 7.42 0 01-1.6.1zm-.3-6.44a1.34 1.34 0 00-1 .42 2 2 0 00-.43 1.2h2.93a1.75 1.75 0 00-.4-1.2 1.37 1.37 0 00-1.1-.42zM602.94 57.06h-2.09v-4.47a2.2 2.2 0 00-.29-1.24 1.09 1.09 0 00-.94-.41 1.42 1.42 0 00-1.27.58 3.75 3.75 0 00-.38 1.94v3.6h-2.09v-7.65h1.59l.28 1h.12a2.18 2.18 0 011-.84 3.26 3.26 0 011.39-.28 2.66 2.66 0 012 .72 2.9 2.9 0 01.7 2.08zM607.5 57.19a2.48 2.48 0 01-2.11-1 4.78 4.78 0 01-.77-2.9 4.82 4.82 0 01.78-2.93 2.54 2.54 0 012.16-1 2.49 2.49 0 012.2 1.12h.07a8.11 8.11 0 01-.16-1.52v-2.54h2.09v10.64h-1.6l-.4-1h-.09a2.38 2.38 0 01-2.17 1.13zm.73-1.66a1.42 1.42 0 001.18-.46 2.76 2.76 0 00.4-1.58v-.23a3 3 0 00-.38-1.76 1.39 1.39 0 00-1.23-.5 1.23 1.23 0 00-1.09.6 3.2 3.2 0 00-.38 1.72 3 3 0 00.39 1.69 1.28 1.28 0 001.11.52zM613.91 50.43a1.27 1.27 0 01.1-.54.86.86 0 01.25-.36 1 1 0 01.39-.2 1.73 1.73 0 01.47-.06 1.63 1.63 0 01.45.06 1.07 1.07 0 01.38.2.88.88 0 01.26.36 1.44 1.44 0 01.1.54 1.39 1.39 0 01-.1.53.88.88 0 01-.26.36 1 1 0 01-.38.21 1.63 1.63 0 01-.45.06 1.73 1.73 0 01-.47-.06.92.92 0 01-.39-.21.86.86 0 01-.26-.32 1.22 1.22 0 01-.09-.57zm0 5.65a1.29 1.29 0 01.1-.55.9.9 0 01.25-.35.91.91 0 01.39-.2 1.73 1.73 0 01.47-.06 1.63 1.63 0 01.45.06.93.93 0 01.38.2.92.92 0 01.26.35 1.46 1.46 0 01.1.55 1.34 1.34 0 01-.1.52 1 1 0 01-.21.4 1.28 1.28 0 01-.38.21 1.63 1.63 0 01-.45.06 1.73 1.73 0 01-.47-.06 1.22 1.22 0 01-.39-.21 1 1 0 01-.25-.37 1.18 1.18 0 01-.15-.55zM620.29 57.06l-2.91-7.65h2.18l1.44 4.36a7.21 7.21 0 01.29 1.56h.06a5.88 5.88 0 01.3-1.56l1.47-4.36h2.18l-2.91 7.65zM632.62 52.06a11.63 11.63 0 01-.18 2.16 4.78 4.78 0 01-.61 1.61 2.77 2.77 0 01-1.06 1 3.24 3.24 0 01-1.58.35 3 3 0 01-1.51-.35 3 3 0 01-1.07-1 5 5 0 01-.63-1.61 10 10 0 01-.21-2.16 11.76 11.76 0 01.19-2.17 5 5 0 01.6-1.62 2.77 2.77 0 011.06-1 3.2 3.2 0 011.57-.36 2.89 2.89 0 012.58 1.36 5 5 0 01.64 1.62 10.27 10.27 0 01.21 2.17zm-4.74 0a8.7 8.7 0 00.29 2.57 1 1 0 002 0 8 8 0 00.31-2.58 8 8 0 00-.31-2.58q-.3-.87-1-.87a.93.93 0 00-.61.22 1.58 1.58 0 00-.41.65 4.65 4.65 0 00-.22 1.08 13.26 13.26 0 00-.05 1.51zM633.85 56.08a1.29 1.29 0 01.1-.55.9.9 0 01.25-.35.91.91 0 01.39-.2 1.73 1.73 0 01.47-.06 1.63 1.63 0 01.45.06.87.87 0 01.38.2.92.92 0 01.26.35 1.46 1.46 0 01.1.55 1.34 1.34 0 01-.1.52 1 1 0 01-.26.37 1.17 1.17 0 01-.38.21 1.63 1.63 0 01-.45.06 1.73 1.73 0 01-.47-.06 1.22 1.22 0 01-.39-.21 1 1 0 01-.25-.37 1.18 1.18 0 01-.1-.52zM644.31 57.06h-6.7v-1.47l2.39-2.54.81-.88a8.19 8.19 0 00.62-.79 3.6 3.6 0 00.4-.78 2.37 2.37 0 00.14-.85 1 1 0 00-.3-.79 1.15 1.15 0 00-.82-.28 2.18 2.18 0 00-1 .27 5.34 5.34 0 00-1 .76l-1.15-1.36a8.3 8.3 0 01.64-.54 4.56 4.56 0 01.74-.45 4.08 4.08 0 01.89-.32 4.49 4.49 0 011.09-.12 3.7 3.7 0 011.28.2 2.86 2.86 0 011 .56 2.46 2.46 0 01.62.89 3 3 0 01.21 1.16 3.28 3.28 0 01-.2 1.13 5.33 5.33 0 01-.56 1 8.51 8.51 0 01-.83 1c-.31.34-.64.68-1 1l-1.2 1.21v.1h4.07zM645.56 56.08a1.47 1.47 0 01.09-.55.92.92 0 01.26-.35.87.87 0 01.38-.2 1.73 1.73 0 01.47-.06 1.63 1.63 0 01.45.06.87.87 0 01.38.2.92.92 0 01.26.35 1.29 1.29 0 01.1.55 1.18 1.18 0 01-.1.52 1 1 0 01-.26.37 1.17 1.17 0 01-.38.21 1.63 1.63 0 01-.45.06 1.73 1.73 0 01-.47-.06 1.17 1.17 0 01-.38-.21 1 1 0 01-.26-.37 1.35 1.35 0 01-.09-.52zM656 57.06h-6.71v-1.47l2.35-2.54.81-.88a6.87 6.87 0 00.62-.79 3.2 3.2 0 00.4-.78 2.37 2.37 0 00.15-.85 1 1 0 00-.31-.79 1.13 1.13 0 00-.81-.28 2.15 2.15 0 00-1 .27 5.39 5.39 0 00-1.05.76l-1.15-1.36c.21-.19.42-.37.65-.54a4.46 4.46 0 01.73-.45 4.08 4.08 0 01.89-.32 4.61 4.61 0 011.09-.12 3.72 3.72 0 011.29.2 2.81 2.81 0 011 .56 2.34 2.34 0 01.62.89 3.16 3.16 0 010 2.29 4.85 4.85 0 01-.56 1 9.48 9.48 0 01-.82 1c-.32.34-.65.68-1 1l-1.21 1.21v.1H656z"/>
  <path class="b" d="M232.05 30.56h-192M232.05 44.3V30.56"/>
  <g>
    <path d="M129.29 7l-1.49 1.4v1.8h-.8V1.3h.85v6l3.77-3.44h1.05l-2.7 2.58 3 3.73h-1zM139.4 7.31h-5.28a2.27 2.27 0 00.76 1.59 2.51 2.51 0 001.73.6 2.74 2.74 0 001.08-.21 2.42 2.42 0 00.85-.61l.48.55A2.81 2.81 0 01138 10a3.66 3.66 0 01-1.39.26 3.56 3.56 0 01-1.72-.41 3 3 0 01-1.17-1.15 3.28 3.28 0 01-.45-1.7 3.36 3.36 0 01.4-1.65 2.9 2.9 0 011.11-1.14 3.06 3.06 0 011.57-.41 3.1 3.1 0 011.58.41A3 3 0 01139 5.38a3.48 3.48 0 01.41 1.62zm-4.58-2.16a2.33 2.33 0 00-.7 1.52h4.48a2.33 2.33 0 00-.7-1.52 2.33 2.33 0 00-3.08 0zM146.34 3.89L143.18 11a3 3 0 01-.89 1.26 2 2 0 01-1.21.37 2.37 2.37 0 01-.85-.15 1.79 1.79 0 01-.68-.43l.39-.63a1.58 1.58 0 001.15.48 1.15 1.15 0 00.74-.24 2.1 2.1 0 00.57-.82l.28-.61-2.82-6.3h.89l2.37 5.36 2.38-5.36z"/>
  </g>
  <path stroke-linejoin="round" fill="none" stroke="#000" stroke-linecap="round" d="M658.52 30.56h-417"/>
  <g>
    <path d="M440.54 3.89l-2.81 6.31h-.87l-2.8-6.31h.94l2.36 5.37 2.39-5.37zM445.65 4.46a2.38 2.38 0 01.66 1.83v3.91h-.81v-1a2 2 0 01-.85.76 2.87 2.87 0 01-1.33.28 2.65 2.65 0 01-1.68-.5 1.65 1.65 0 01-.64-1.32 1.61 1.61 0 01.58-1.29 2.86 2.86 0 011.86-.49h2v-.39A1.59 1.59 0 00445 5a1.88 1.88 0 00-1.33-.43 3.43 3.43 0 00-1.15.2 3 3 0 00-.95.55l-.38-.64a3.45 3.45 0 011.15-.63 4.44 4.44 0 011.42-.22 2.67 2.67 0 011.89.63zm-1 4.8a2 2 0 00.77-1v-1h-2c-1.08 0-1.62.38-1.62 1.13a1 1 0 00.42.87 1.93 1.93 0 001.18.32 2.22 2.22 0 001.29-.32zM448.63 1.3h.85v8.9h-.85zM457.54 3.89v6.31h-.81V9.05a2.34 2.34 0 01-.93.89 2.79 2.79 0 01-1.34.32 2.7 2.7 0 01-1.95-.69 2.66 2.66 0 01-.71-2V3.89h.85v3.57a2.12 2.12 0 00.49 1.54 1.87 1.87 0 001.4.51 2.1 2.1 0 001.58-.6 2.38 2.38 0 00.57-1.69V3.89zM465.43 7.31h-5.28a2.31 2.31 0 00.75 1.59 2.55 2.55 0 001.73.6 2.74 2.74 0 001.08-.21 2.34 2.34 0 00.85-.61l.48.55A2.81 2.81 0 01464 10a3.65 3.65 0 01-1.38.26 3.56 3.56 0 01-1.72-.41 3 3 0 01-1.17-1.15 3.28 3.28 0 01-.43-1.7 3.36 3.36 0 01.4-1.65 2.87 2.87 0 011.1-1.14 3.13 3.13 0 011.58-.41 3.06 3.06 0 011.57.41A2.82 2.82 0 01465 5.38a3.37 3.37 0 01.4 1.66zm-4.58-2.16a2.28 2.28 0 00-.7 1.52h4.47a2.28 2.28 0 00-.7-1.52 2.32 2.32 0 00-3.07 0z"/>
  </g>
  <g>
    <path d="M10.09 96.51v8.4h-.85v-6.72l-3.3 5.65h-.42l-3.3-5.62v6.69h-.85v-8.4h.73l3.65 6.23 3.61-6.23zM16.75 99.17a2.38 2.38 0 01.66 1.83v3.91h-.81v-1a2 2 0 01-.85.77 2.87 2.87 0 01-1.33.28 2.59 2.59 0 01-1.68-.51 1.63 1.63 0 01-.62-1.33 1.61 1.61 0 01.58-1.29 2.85 2.85 0 011.86-.5h2V101a1.59 1.59 0 00-.46-1.24 1.88 1.88 0 00-1.33-.43 3.43 3.43 0 00-1.15.2 2.79 2.79 0 00-.95.55l-.38-.64a3.45 3.45 0 011.15-.63 4.44 4.44 0 011.42-.22 2.63 2.63 0 011.89.58zm-1 4.8a2 2 0 00.77-1v-1h-2c-1.08 0-1.62.38-1.62 1.13a1 1 0 00.42.87 1.93 1.93 0 001.18.32 2.22 2.22 0 001.29-.29zM24.91 98.6l-3.15 7.06a3 3 0 01-.89 1.26 2 2 0 01-1.21.38 2.43 2.43 0 01-.86-.15 1.79 1.79 0 01-.68-.43l.4-.64a1.56 1.56 0 001.15.48 1.17 1.17 0 00.74-.24 2.28 2.28 0 00.57-.81l.27-.61-2.82-6.3h.89l2.38 5.4 2.37-5.36zM34.12 99a2.9 2.9 0 011.12 1.13 3.61 3.61 0 010 3.34 2.86 2.86 0 01-1.12 1.14 3.24 3.24 0 01-1.61.41 2.9 2.9 0 01-1.42-.34 2.64 2.64 0 01-1-1v1.25h-.81V96h.85v3.8a2.57 2.57 0 011-.93 2.91 2.91 0 011.39-.32 3.23 3.23 0 011.6.45zm-.47 5a2.2 2.2 0 00.84-.87 2.62 2.62 0 00.31-1.29 2.55 2.55 0 00-.31-1.28 2.07 2.07 0 00-.84-.87 2.5 2.5 0 00-2.41 0 2.2 2.2 0 00-.84.87 2.66 2.66 0 00-.3 1.28 2.73 2.73 0 00.3 1.29 2.34 2.34 0 00.84.87 2.57 2.57 0 002.41 0zM42.89 102h-5.28a2.31 2.31 0 00.75 1.59 2.55 2.55 0 001.73.6 2.74 2.74 0 001.08-.21 2.25 2.25 0 00.85-.62l.48.56a2.68 2.68 0 01-1 .76 3.7 3.7 0 01-3.1-.15 2.92 2.92 0 01-1.17-1.14 3.28 3.28 0 01-.42-1.66 3.33 3.33 0 01.4-1.65A2.87 2.87 0 0138.26 99a3.13 3.13 0 011.58-.41 3.06 3.06 0 011.57.41 2.82 2.82 0 011.09 1.13 3.34 3.34 0 01.4 1.66zm-4.58-2.16a2.28 2.28 0 00-.7 1.52h4.47a2.28 2.28 0 00-.7-1.52 2.32 2.32 0 00-3.07 0zM50.48 98.6v5.54a3.22 3.22 0 01-.78 2.38 3.25 3.25 0 01-2.37.78 5.3 5.3 0 01-1.66-.26 3.3 3.3 0 01-1.28-.72l.43-.64a3.16 3.16 0 001.11.63 4.19 4.19 0 001.37.23 2.46 2.46 0 001.77-.56 2.37 2.37 0 00.56-1.73v-.81a2.57 2.57 0 01-1 .92 3.29 3.29 0 01-1.42.31 3.33 3.33 0 01-1.61-.39 2.85 2.85 0 01-1.14-1.09 3.22 3.22 0 010-3.18 2.87 2.87 0 011.13-1.08 3.46 3.46 0 011.62-.38 3.25 3.25 0 011.45.32 2.64 2.64 0 011.05.94V98.6zm-2 5a2.13 2.13 0 00.86-.82 2.44 2.44 0 00.31-1.2 2.38 2.38 0 00-.31-1.2 2.07 2.07 0 00-.85-.81 2.56 2.56 0 00-1.24-.3 2.6 2.6 0 00-1.23.29 2.06 2.06 0 00-.86.82 2.38 2.38 0 00-.3 1.2 2.43 2.43 0 00.3 1.2 2.19 2.19 0 00.86.82 2.6 2.6 0 001.23.29 2.66 2.66 0 001.24-.27zM52.86 97a.6.6 0 01-.18-.44.58.58 0 01.18-.42.6.6 0 01.44-.14.61.61 0 01.45.18.54.54 0 01.18.41.62.62 0 01-.63.63.6.6 0 01-.44-.22zm0 1.56h.85v6.31h-.85zM61.21 99.24a2.73 2.73 0 01.7 2v3.66h-.85v-3.58a2.11 2.11 0 00-.5-1.5 1.84 1.84 0 00-1.4-.51 2.15 2.15 0 00-1.61.6 2.29 2.29 0 00-.6 1.68v3.31h-.85v-6.3h.82v1.16a2.36 2.36 0 011-.89 3 3 0 011.44-.32 2.59 2.59 0 011.85.69zM10.45 113l-2.39 6.31h-.8l-2-5.17-2 5.17h-.79L.1 113h.81l2 5.36 2-5.36h.73l2 5.36 2-5.36zM11.72 111.44a.6.6 0 01-.18-.44.58.58 0 01.18-.42.61.61 0 01.45-.18.6.6 0 01.44.18.54.54 0 01.18.41.61.61 0 01-.18.45.6.6 0 01-.44.18.61.61 0 01-.45-.18zm0 1.56h.85v6.31h-.85zM18.29 118.92a1.46 1.46 0 01-.6.33 2.24 2.24 0 01-.73.12 1.67 1.67 0 01-1.85-1.84v-3.81H14V113h1.13v-1.38H16V113h1.92v.72H16v3.76a1.17 1.17 0 00.28.86 1.06 1.06 0 00.81.3 1.44 1.44 0 00.51-.09 1.07 1.07 0 00.43-.24zM24.94 113.64a2.69 2.69 0 01.7 2v3.66h-.85v-3.58a2.1 2.1 0 00-.49-1.5 1.87 1.87 0 00-1.4-.51 2.19 2.19 0 00-1.62.6 2.32 2.32 0 00-.59 1.68v3.31h-.85v-8.9h.85v3.7a2.27 2.27 0 011-.85 3.13 3.13 0 011.4-.3 2.59 2.59 0 011.85.69zM39 111.5a4.93 4.93 0 012 1.87 5.4 5.4 0 01.71 2.76 4.56 4.56 0 01-.53 2.38 1.64 1.64 0 01-1.46.86 1.37 1.37 0 01-1-.35 1.41 1.41 0 01-.4-1 2.54 2.54 0 01-1 1 3.11 3.11 0 01-2.94-.06 2.9 2.9 0 01-1.06-1.11 3.3 3.3 0 01-.39-1.6 3.23 3.23 0 01.39-1.59 2.87 2.87 0 011.06-1.1 3 3 0 011.52-.39 2.91 2.91 0 011.39.33 2.6 2.6 0 011 .93v-1.22h.78v4.55a1 1 0 00.2.7.73.73 0 00.54.21 1 1 0 00.9-.67 4.32 4.32 0 00.33-1.87 4.68 4.68 0 00-.63-2.45 4.26 4.26 0 00-1.7-1.68 5.85 5.85 0 00-5.14 0 4.43 4.43 0 00-1.75 1.71 5 5 0 00-.62 2.5 5.08 5.08 0 00.62 2.51 4.31 4.31 0 001.73 1.71 5.18 5.18 0 002.55.62 5.57 5.57 0 001.18-.14 4.36 4.36 0 001.12-.39l.2.59a4.75 4.75 0 01-1.19.4 6.06 6.06 0 01-1.31.15 5.84 5.84 0 01-2.9-.7 4.94 4.94 0 01-2-1.94 6 6 0 010-5.62 5 5 0 012-1.92 6.07 6.07 0 012.91-.69 6.14 6.14 0 012.89.71zm-1.8 6.87a2.14 2.14 0 00.82-.84 2.62 2.62 0 00.3-1.27A2.54 2.54 0 0038 115a2 2 0 00-.82-.84 2.25 2.25 0 00-1.16-.3 2.33 2.33 0 00-1.18.3 2.14 2.14 0 00-.82.84 2.84 2.84 0 000 2.5 2.19 2.19 0 00.82.86 2.33 2.33 0 001.18.3 2.25 2.25 0 001.2-.29zM47.58 119a2.93 2.93 0 01-1.15-1.14 3.28 3.28 0 01-.42-1.66 3.24 3.24 0 01.42-1.65 2.93 2.93 0 011.15-1.14 3.51 3.51 0 013.29 0A2.84 2.84 0 0152 114.5a3.24 3.24 0 01.42 1.65 3.28 3.28 0 01-.42 1.66 2.84 2.84 0 01-1.13 1.19 3.43 3.43 0 01-3.29 0zm2.85-.64a2.17 2.17 0 00.83-.87 2.73 2.73 0 00.3-1.29 2.66 2.66 0 00-.3-1.28 2.05 2.05 0 00-.83-.87 2.34 2.34 0 00-1.21-.31A2.31 2.31 0 0048 114a2.07 2.07 0 00-.84.87 2.55 2.55 0 00-.31 1.28 2.62 2.62 0 00.31 1.29 2.2 2.2 0 00.84.87 2.4 2.4 0 001.2.3 2.44 2.44 0 001.23-.3zM55.88 113.27a3.08 3.08 0 011.47-.32v.83h-.21a2 2 0 00-1.56.62 2.45 2.45 0 00-.56 1.71v3.22h-.85V113H55v1.23a2.09 2.09 0 01.88-.96zM67 118.65a3.24 3.24 0 01-2.07.72v1.38h-.6v-1.37a5.5 5.5 0 01-1.65-.34 3.43 3.43 0 01-1.22-.75l.35-.69a3.29 3.29 0 001.1.69 4.52 4.52 0 001.42.32v-3.15A10.82 10.82 0 0163 115a2.36 2.36 0 01-.92-.69 1.84 1.84 0 01-.37-1.19 2 2 0 01.68-1.55 3.18 3.18 0 012-.74v-1.38H65v1.37a4.86 4.86 0 011.32.22 3.8 3.8 0 011.11.52l-.3.71a4.53 4.53 0 00-2.13-.7v3.18a12.44 12.44 0 011.45.44 2.31 2.31 0 011 .68 1.82 1.82 0 01.38 1.2 2 2 0 01-.83 1.58zm-4-4.59a4.31 4.31 0 001.33.56v-3a2.19 2.19 0 00-1.34.48 1.34 1.34 0 00-.45 1 1.06 1.06 0 00.46.96zm3.36 4.08a1.24 1.24 0 00.48-1 1.1 1.1 0 00-.5-1 4.69 4.69 0 00-1.41-.55v3a2.5 2.5 0 001.47-.45z"/>
  </g>
  <g>
    <path d="M86.41 104.25a4 4 0 01-1.57-1.54 4.25 4.25 0 01-.56-2.19 4.36 4.36 0 01.58-2.19 4 4 0 011.59-1.52 4.9 4.9 0 014-.22 3.53 3.53 0 011.34.92l-.57.56a3.33 3.33 0 00-2.47-1 3.72 3.72 0 00-1.82.45 3.32 3.32 0 00-1.28 1.24 3.48 3.48 0 001.25 4.81 3.72 3.72 0 001.81.46 3.28 3.28 0 002.49-1l.56.57a3.62 3.62 0 01-1.35.91 4.88 4.88 0 01-4-.25zM94.12 104.41a3 3 0 01-1.12-1.15 3.17 3.17 0 01-.41-1.66A3.27 3.27 0 0193 100a3 3 0 011.16-1.14 3.36 3.36 0 011.65-.4 3.44 3.44 0 011.64.42 2.91 2.91 0 011.12 1.12 3.4 3.4 0 01.41 1.66 3.49 3.49 0 01-.42 1.66 3.1 3.1 0 01-1.16 1.14 3.49 3.49 0 01-3.28 0zm2.85-.63a2.2 2.2 0 00.84-.87 2.66 2.66 0 00.3-1.28 2.72 2.72 0 00-.29-1.29 2.18 2.18 0 00-.83-.87 2.34 2.34 0 00-1.21-.31 2.4 2.4 0 00-1.2.3 2.2 2.2 0 00-.85.86 2.73 2.73 0 00-.31 1.29 2.66 2.66 0 00.3 1.28 2.16 2.16 0 00.84.88 2.38 2.38 0 001.2.31 2.44 2.44 0 001.24-.3zM100.74 95.89h.85v8.9h-.85zM104.87 104.46a3 3 0 01-1.15-1.15 3.27 3.27 0 01-.41-1.66 3.15 3.15 0 01.43-1.65 2.93 2.93 0 011.15-1.14 3.5 3.5 0 013.29 0 2.84 2.84 0 011.14 1.14 3.3 3.3 0 01.41 1.66 3.38 3.38 0 01-.42 1.66 3.14 3.14 0 01-1.15 1.14 3.25 3.25 0 01-1.65.4 3.2 3.2 0 01-1.64-.4zm2.85-.63a2.2 2.2 0 00.84-.87 2.69 2.69 0 00.3-1.28 2.61 2.61 0 00-.29-1.29 2.11 2.11 0 00-.83-.87 2.31 2.31 0 00-1.2-.31 2.25 2.25 0 00-1.21.3 2.2 2.2 0 00-.85.86 2.73 2.73 0 00-.31 1.29 2.69 2.69 0 00.3 1.28 2.16 2.16 0 00.84.88 2.49 2.49 0 001.2.31 2.44 2.44 0 001.21-.3zM116.59 99.2a2.72 2.72 0 01.69 2v3.66h-.85v-3.58a2.1 2.1 0 00-.49-1.5 1.82 1.82 0 00-1.4-.52 2.11 2.11 0 00-1.62.6 2.26 2.26 0 00-.6 1.67v3.31h-.86v-6.32h.82v1.18a2.45 2.45 0 011-.89 3.15 3.15 0 011.44-.31 2.59 2.59 0 011.87.7zM128.44 98.61v6.31h-.82v-1.15a2.41 2.41 0 01-.93.89 2.79 2.79 0 01-1.34.31 2.45 2.45 0 01-2.66-2.72v-3.67h.85v3.58a2.07 2.07 0 00.48 1.51 1.86 1.86 0 001.4.52 2.1 2.1 0 001.58-.6 2.35 2.35 0 00.58-1.68V98.6zM131 104.77a3.14 3.14 0 01-1.1-.56l.39-.67a3.13 3.13 0 001 .51 3.67 3.67 0 001.24.21 2.39 2.39 0 001.28-.27.84.84 0 00.42-.76.68.68 0 00-.23-.54 1.42 1.42 0 00-.57-.31 9.15 9.15 0 00-.92-.2 10.84 10.84 0 01-1.24-.3 1.75 1.75 0 01-.79-.51 1.42 1.42 0 01-.33-1 1.52 1.52 0 01.67-1.29 2.93 2.93 0 011.83-.5 4.74 4.74 0 011.23.17 3.2 3.2 0 011 .43l-.37.68a3.27 3.27 0 00-1.86-.55 2.19 2.19 0 00-1.23.29.87.87 0 00-.42.75.78.78 0 00.23.58 1.55 1.55 0 00.58.32 9.29 9.29 0 001 .21 10.11 10.11 0 011.21.3 1.68 1.68 0 01.78.49 1.36 1.36 0 01.32 1 1.51 1.51 0 01-.69 1.31 3.22 3.22 0 01-1.92.48 4.81 4.81 0 01-1.51-.27zM142.17 102.09h-5.28a2.27 2.27 0 00.75 1.59 2.54 2.54 0 001.73.62 2.74 2.74 0 001.08-.21 2.34 2.34 0 00.85-.61l.48.55a2.71 2.71 0 01-1.05.77 3.84 3.84 0 01-3.11-.17 2.92 2.92 0 01-1.16-1.15 3.28 3.28 0 01-.42-1.66 3.45 3.45 0 01.41-1.65 2.9 2.9 0 011.11-1.17 3.12 3.12 0 011.58-.4 3 3 0 011.57.42 2.79 2.79 0 011.09 1.14 3.45 3.45 0 01.39 1.66zm-4.56-2.17a2.27 2.27 0 00-.71 1.51h4.47a2.27 2.27 0 00-.69-1.52 2.19 2.19 0 00-1.54-.59 2.13 2.13 0 00-1.53.6zM149.71 96.12v8.9h-.81v-1.25a2.64 2.64 0 01-1 1 3 3 0 01-1.42.33 3.35 3.35 0 01-1.61-.42 3 3 0 01-1.12-1.14 3.41 3.41 0 01-.4-1.67 3.29 3.29 0 01.42-1.67 2.86 2.86 0 011.07-1.2 3.12 3.12 0 011.61-.39 3 3 0 011.38.32 2.68 2.68 0 011 .93v-3.75zm-2 7.89a2.16 2.16 0 00.85-.87 2.84 2.84 0 000-2.56 2.16 2.16 0 00-.84-.88 2.37 2.37 0 00-1.19-.31 2.44 2.44 0 00-1.21.3 2.14 2.14 0 00-.84.87 2.55 2.55 0 00-.31 1.28 2.45 2.45 0 00.3 1.28 2.2 2.2 0 00.83.88 2.45 2.45 0 001.21.31 2.39 2.39 0 001.18-.31zM88.89 113.4a2.36 2.36 0 01.65 1.83v3.91h-.81v-1a1.92 1.92 0 01-.85.76 3 3 0 01-1.32.27 2.55 2.55 0 01-1.68-.51 1.73 1.73 0 010-2.63 2.85 2.85 0 011.85-.48h2v-.39a1.62 1.62 0 00-.45-1.24 1.85 1.85 0 00-1.33-.43 3.43 3.43 0 00-1.15.19 2.84 2.84 0 00-1 .54l-.38-.64a3.43 3.43 0 011.15-.62 4.44 4.44 0 011.42-.22 2.72 2.72 0 011.9.66zm-1 4.8a2 2 0 00.77-1v-1h-2c-1.08 0-1.63.37-1.63 1.13a1.05 1.05 0 00.42.87 1.89 1.89 0 001.17.32 2.36 2.36 0 001.29-.32zM92.06 119a3.09 3.09 0 01-1.09-.56l.38-.67a3.48 3.48 0 001 .52 4 4 0 001.25.2 2.46 2.46 0 001.27-.26.86.86 0 00.42-.76.68.68 0 00-.22-.55 1.45 1.45 0 00-.58-.3 8.78 8.78 0 00-.92-.21 8.38 8.38 0 01-1.24-.3 1.8 1.8 0 01-.79-.51 1.42 1.42 0 01-.33-1 1.58 1.58 0 01.67-1.29 3 3 0 011.84-.5 5.2 5.2 0 011.22.17 3.65 3.65 0 011 .43l-.38.68a3.19 3.19 0 00-1.86-.54 2.12 2.12 0 00-1.23.28.88.88 0 00-.41.75.7.7 0 00.23.58 1.48 1.48 0 00.58.32c.23.07.55.14 1 .22a9.45 9.45 0 011.21.29 1.79 1.79 0 01.77.49 1.33 1.33 0 01.32 1 1.53 1.53 0 01-.69 1.31 3.25 3.25 0 01-1.92.47 4.52 4.52 0 01-1.5-.26zM106.65 110.32v8.9h-.81V118a2.64 2.64 0 01-1 1 3 3 0 01-1.42.33 3.14 3.14 0 01-1.61-.42 2.92 2.92 0 01-1.12-1.14 3.41 3.41 0 01-.4-1.67 3.29 3.29 0 01.42-1.67 2.92 2.92 0 011.13-1.13 3.33 3.33 0 011.61-.39 3 3 0 011.38.32 2.6 2.6 0 011 .94v-3.79zm-2 7.89a2.11 2.11 0 00.84-.86 2.74 2.74 0 00.32-1.29 2.69 2.69 0 00-.3-1.28 2.23 2.23 0 00-.84-.88 2.37 2.37 0 00-1.19-.31 2.44 2.44 0 00-1.21.3 2.13 2.13 0 00-.84.87 2.67 2.67 0 00-.32 1.28 2.62 2.62 0 00.31 1.29 2.18 2.18 0 00.83.87 2.34 2.34 0 001.21.31 2.39 2.39 0 001.17-.3zM114.5 116.37h-5.28a2.23 2.23 0 00.75 1.6 2.49 2.49 0 001.72.61 2.92 2.92 0 001.08-.2 2.4 2.4 0 00.86-.62l.47.56a2.79 2.79 0 01-1 .76 3.66 3.66 0 01-1.39.26 3.59 3.59 0 01-1.72-.43 2.92 2.92 0 01-1.16-1.15 3.16 3.16 0 01-.41-1.65 3.38 3.38 0 01.41-1.66 2.87 2.87 0 011.11-1.13 3 3 0 011.57-.4 3.1 3.1 0 011.58.41 2.83 2.83 0 011.08 1.14 3.45 3.45 0 01.39 1.66zm-4.57-2.18a2.27 2.27 0 00-.71 1.52h4.48a2.31 2.31 0 00-.7-1.52 2.14 2.14 0 00-1.54-.59 2.12 2.12 0 00-1.53.59zM116.28 110.36h.85v8.9h-.85zM119.49 111.41a.58.58 0 01-.18-.43.58.58 0 01.18-.42.61.61 0 01.45-.18.6.6 0 01.44.18.54.54 0 01.18.41.59.59 0 01-.18.44.63.63 0 01-.45.18.59.59 0 01-.44-.18zm0 1.56h.85v6.32h-.86zM132.46 113.67a2.7 2.7 0 01.66 2v3.66h-.85v-3.58a2.14 2.14 0 00-.47-1.5 1.71 1.71 0 00-1.33-.52 2 2 0 00-1.55.6 2.33 2.33 0 00-.57 1.67v3.31h-.85v-3.58a2.19 2.19 0 00-.47-1.5 1.75 1.75 0 00-1.35-.52 2 2 0 00-1.54.6 2.29 2.29 0 00-.58 1.67v3.31h-.85v-6.32h.82v1.15a2.28 2.28 0 01.94-.88 2.92 2.92 0 011.38-.31 2.77 2.77 0 011.38.34 2.12 2.12 0 01.86 1 2.43 2.43 0 011-1 3.12 3.12 0 011.49-.35 2.55 2.55 0 011.88.75zM135.45 111.48a.58.58 0 01-.18-.43.58.58 0 01.18-.42.61.61 0 01.45-.18.6.6 0 01.44.18.55.55 0 01.18.41.61.61 0 01-.18.45.63.63 0 01-.45.18.64.64 0 01-.44-.19zm0 1.56h.85v6.31h-.86zM142 119a1.73 1.73 0 01-.6.33 2.55 2.55 0 01-.74.11 1.68 1.68 0 01-1.84-1.84v-3.82h-1.13v-.72h1.12v-1.38h.85v1.38h1.92v.72h-1.92v3.77a1.19 1.19 0 00.27.86 1.06 1.06 0 00.81.3 1.7 1.7 0 00.51-.08 1.37 1.37 0 00.43-.24zM148.81 116.52h-5.29a2.27 2.27 0 00.75 1.59 2.54 2.54 0 001.73.62 2.74 2.74 0 001.08-.21 2.34 2.34 0 00.85-.61l.48.55a2.71 2.71 0 01-1 .77 3.84 3.84 0 01-3.11-.17 2.92 2.92 0 01-1.16-1.15 3.28 3.28 0 01-.42-1.66 3.48 3.48 0 01.41-1.65 2.9 2.9 0 011.11-1.14 3.12 3.12 0 011.58-.4 3 3 0 011.57.42 2.79 2.79 0 011.09 1.14 3.45 3.45 0 01.39 1.66zm-4.57-2.17a2.27 2.27 0 00-.71 1.51H148a2.28 2.28 0 00-.69-1.53 2.19 2.19 0 00-1.54-.59 2.13 2.13 0 00-1.53.61zM152.28 113.4a3 3 0 011.47-.32v.83h-.2a2 2 0 00-1.57.61 2.42 2.42 0 00-.57 1.71v3.22h-.86v-6.31h.82v1.23a2 2 0 01.91-.97z"/>
  </g>
  <g>
    <path d="M210.53 104.14v.77h-5.94v-8.4h5.76v.77h-4.88v3h4.35v.72h-4.35v3.12zM218.1 98.6v8.64h-.85v-3.52a2.67 2.67 0 01-1 .93 3 3 0 01-1.38.32 3.35 3.35 0 01-1.62-.4 2.92 2.92 0 01-1.12-1.14 3.63 3.63 0 010-3.35 2.92 2.92 0 011.11-1.08 3.21 3.21 0 011.61-.4 3 3 0 011.42.33 2.66 2.66 0 011 1V98.6zm-2 5.31a2.2 2.2 0 00.9-.91 2.62 2.62 0 00.31-1.29 2.58 2.58 0 00-.31-1.28 2.2 2.2 0 00-.84-.87 2.37 2.37 0 00-1.19-.31 2.45 2.45 0 00-1.21.31 2.34 2.34 0 00-.84.87 2.69 2.69 0 00-.3 1.28 2.73 2.73 0 00.3 1.29 2.34 2.34 0 00.84.87 2.44 2.44 0 001.21.3 2.36 2.36 0 001.14-.26zM226.16 98.6v6.31h-.81v-1.15a2.41 2.41 0 01-.93.89 2.79 2.79 0 01-1.34.32 2.45 2.45 0 01-2.67-2.71V98.6h.86v3.57a2.08 2.08 0 00.49 1.51 1.82 1.82 0 001.4.52 2 2 0 001.57-.61 2.3 2.3 0 00.58-1.68V98.6zM232.65 99.17a2.38 2.38 0 01.66 1.83v3.91h-.81v-1a1.93 1.93 0 01-.85.77 2.86 2.86 0 01-1.32.28 2.55 2.55 0 01-1.68-.51 1.61 1.61 0 01-.63-1.33 1.64 1.64 0 01.58-1.29 2.85 2.85 0 011.86-.5h2V101a1.62 1.62 0 00-.45-1.24 1.92 1.92 0 00-1.34-.43 3.43 3.43 0 00-1.15.2 2.79 2.79 0 00-1 .55l-.38-.64a3.45 3.45 0 011.15-.63 4.44 4.44 0 011.42-.22 2.63 2.63 0 011.94.58zm-1 4.8a2 2 0 00.77-1v-1h-2c-1.08 0-1.62.38-1.62 1.13a1 1 0 00.42.87 1.93 1.93 0 001.18.32 2.22 2.22 0 001.29-.29zM235.63 96h.85v8.91h-.85zM239.08 104.75a3.32 3.32 0 01-1.1-.56l.39-.67a3.53 3.53 0 001 .51 4 4 0 001.25.19 2.39 2.39 0 001.28-.27.86.86 0 00.41-.76.65.65 0 00-.23-.54 1.3 1.3 0 00-.57-.3 6.85 6.85 0 00-.93-.2 11.13 11.13 0 01-1.23-.3 1.83 1.83 0 01-.8-.51 1.41 1.41 0 01-.33-1 1.57 1.57 0 01.66-1.3 3 3 0 011.84-.5 4.7 4.7 0 011.22.16 3.37 3.37 0 011 .43l-.37.68a3.19 3.19 0 00-1.86-.54 2.15 2.15 0 00-1.23.29.87.87 0 00-.42.75.74.74 0 00.24.58 1.48 1.48 0 00.58.32 8.23 8.23 0 001 .21 9 9 0 011.21.29 1.79 1.79 0 01.78.49 1.33 1.33 0 01.32 1 1.52 1.52 0 01-.69 1.31 3.21 3.21 0 01-1.91.49 4.8 4.8 0 01-1.51-.25zM248.09 104.75a3.32 3.32 0 01-1.1-.56l.39-.67a3.53 3.53 0 001 .51 4 4 0 001.25.19 2.39 2.39 0 001.28-.27.84.84 0 00.41-.76.67.67 0 00-.22-.54 1.4 1.4 0 00-.58-.3 7 7 0 00-.92-.2 10.84 10.84 0 01-1.24-.3 1.83 1.83 0 01-.8-.51 1.41 1.41 0 01-.33-1 1.57 1.57 0 01.66-1.3 3 3 0 011.84-.5 4.65 4.65 0 011.22.16 3.27 3.27 0 011 .43l-.37.68a3.19 3.19 0 00-1.86-.54 2.15 2.15 0 00-1.23.29.87.87 0 00-.42.75.74.74 0 00.24.58 1.48 1.48 0 00.58.32 8.23 8.23 0 001 .21 9 9 0 011.21.29 1.68 1.68 0 01.78.49 1.33 1.33 0 01.33 1 1.52 1.52 0 01-.69 1.31 3.25 3.25 0 01-1.92.49 4.8 4.8 0 01-1.51-.25zM253.73 97a.6.6 0 01-.18-.44.58.58 0 01.18-.42.63.63 0 01.88 0 .54.54 0 01.18.41.61.61 0 01-.18.45.63.63 0 01-.88 0zm0 1.56h.85v6.31h-.85zM262.81 98.6v5.54a3.18 3.18 0 01-.79 2.38 3.22 3.22 0 01-2.37.78 5.39 5.39 0 01-1.65-.3 3.37 3.37 0 01-1.28-.72l.44-.64a3.16 3.16 0 001.11.63 4.15 4.15 0 001.37.23 2.41 2.41 0 001.76-.56 2.33 2.33 0 00.57-1.73v-.81a2.63 2.63 0 01-1 .92 3.32 3.32 0 01-1.42.31 3.4 3.4 0 01-1.62-.39 3 3 0 01-1.14-1.09 3.29 3.29 0 010-3.18 3 3 0 011.14-1.08 3.46 3.46 0 011.62-.38 3.28 3.28 0 011.45.32 2.62 2.62 0 011 .94V98.6zm-2 5a2.19 2.19 0 00.86-.82 2.43 2.43 0 00.3-1.2 2.38 2.38 0 00-.3-1.2 2.1 2.1 0 00-.86-.81 2.5 2.5 0 00-1.24-.3 2.66 2.66 0 00-1.23.29 2 2 0 00-.85.82 2.38 2.38 0 00-.31 1.2 2.44 2.44 0 00.31 1.2 2.16 2.16 0 00.85.82 2.77 2.77 0 002.47 0zM270.3 99.24a2.69 2.69 0 01.71 2v3.66h-.86v-3.58a2.1 2.1 0 00-.49-1.5 1.85 1.85 0 00-1.4-.51 2.19 2.19 0 00-1.62.6 2.32 2.32 0 00-.59 1.68v3.31h-.85v-6.3h.8v1.16a2.45 2.45 0 011-.89 3 3 0 011.43-.32 2.55 2.55 0 011.87.69zM210.17 119.15a3.22 3.22 0 01-1.1-.56l.38-.67a3.74 3.74 0 001 .51 4 4 0 001.25.19 2.35 2.35 0 001.27-.27.85.85 0 00.42-.76.68.68 0 00-.23-.54 1.28 1.28 0 00-.58-.3 7 7 0 00-.92-.2 12 12 0 01-1.24-.3 1.8 1.8 0 01-.79-.51 1.41 1.41 0 01-.33-1 1.57 1.57 0 01.66-1.3 3 3 0 011.83-.5 4.72 4.72 0 011.23.16 3.31 3.31 0 011 .43l-.37.68a3.19 3.19 0 00-1.86-.54 2.19 2.19 0 00-1.23.29.88.88 0 00-.41.75.77.77 0 00.23.58 1.55 1.55 0 00.58.32 9.29 9.29 0 001 .21 9.25 9.25 0 011.22.29 1.79 1.79 0 01.78.49 1.37 1.37 0 01.32 1 1.52 1.52 0 01-.69 1.31 3.23 3.23 0 01-1.91.49 5 5 0 01-1.51-.25zM221.31 116.42H216a2.31 2.31 0 00.75 1.59 2.55 2.55 0 001.73.6 2.74 2.74 0 001.08-.21 2.25 2.25 0 00.85-.62l.48.56a2.68 2.68 0 01-1 .76 3.7 3.7 0 01-3.1-.15 2.92 2.92 0 01-1.17-1.14 3.28 3.28 0 01-.42-1.66 3.33 3.33 0 01.4-1.65 2.87 2.87 0 011.1-1.14 3 3 0 011.58-.41 3 3 0 011.57.41 2.82 2.82 0 011.09 1.13 3.34 3.34 0 01.4 1.66zm-4.58-2.16a2.28 2.28 0 00-.7 1.52h4.47a2.28 2.28 0 00-.7-1.52 2.32 2.32 0 00-3.07 0zM227.92 113.35a2.92 2.92 0 011.13 1.13 3.63 3.63 0 010 3.35 2.92 2.92 0 01-1.12 1.14 3.35 3.35 0 01-1.62.4 3 3 0 01-1.38-.32 2.6 2.6 0 01-1-.93v3.52h-.85V113h.82v1.24a2.66 2.66 0 011-1 3 3 0 011.42-.33 3.23 3.23 0 011.6.44zm-.47 5a2.29 2.29 0 00.85-.87 2.73 2.73 0 00.3-1.29 2.69 2.69 0 00-.3-1.28 2.29 2.29 0 00-.85-.87 2.44 2.44 0 00-1.2-.31 2.38 2.38 0 00-1.2.31 2.2 2.2 0 00-.84.87 2.58 2.58 0 00-.31 1.28 2.62 2.62 0 00.31 1.29 2.2 2.2 0 00.84.87 2.38 2.38 0 001.2.3 2.43 2.43 0 001.2-.34zM235.26 113.57a2.38 2.38 0 01.66 1.83v3.91h-.81v-1a1.93 1.93 0 01-.85.77 2.86 2.86 0 01-1.32.28 2.55 2.55 0 01-1.68-.51 1.72 1.72 0 010-2.62 2.85 2.85 0 011.86-.5h2v-.38a1.62 1.62 0 00-.45-1.24 1.88 1.88 0 00-1.34-.43 3.43 3.43 0 00-1.15.2 2.79 2.79 0 00-.95.55l-.38-.64a3.45 3.45 0 011.15-.63 4.44 4.44 0 011.42-.22 2.63 2.63 0 011.84.63zm-1 4.8a2 2 0 00.77-1v-1h-2c-1.08 0-1.62.38-1.62 1.13a1 1 0 00.42.87 1.93 1.93 0 001.18.32 2.22 2.22 0 001.29-.32zM240 113.27a3.13 3.13 0 011.47-.32v.83h-.2a2 2 0 00-1.56.62 2.4 2.4 0 00-.57 1.71v3.22h-.85V113h.82v1.23a2.07 2.07 0 01.89-.96zM247.05 113.57a2.38 2.38 0 01.66 1.83v3.91h-.82v-1a1.91 1.91 0 01-.84.77 2.93 2.93 0 01-1.33.28 2.59 2.59 0 01-1.68-.51 1.73 1.73 0 010-2.62 2.82 2.82 0 011.85-.5h2v-.38a1.63 1.63 0 00-.46-1.24 1.85 1.85 0 00-1.33-.43 3.39 3.39 0 00-1.15.2 2.7 2.7 0 00-.95.55l-.39-.64a3.5 3.5 0 011.16-.63 4.38 4.38 0 011.41-.22 2.64 2.64 0 011.87.63zm-1 4.8a2 2 0 00.77-1v-1h-2c-1.08 0-1.62.38-1.62 1.13a1 1 0 00.42.87 1.91 1.91 0 001.17.32 2.27 2.27 0 001.3-.32zM253.35 118.92a1.46 1.46 0 01-.6.33 2.24 2.24 0 01-.73.12 1.67 1.67 0 01-1.85-1.84v-3.81H249V113h1.13v-1.38h.87V113h1.92v.72H251v3.76a1.17 1.17 0 00.28.86 1.06 1.06 0 00.81.3 1.44 1.44 0 00.51-.09 1.07 1.07 0 00.43-.24zM260.16 116.42h-5.28a2.27 2.27 0 00.76 1.59 2.53 2.53 0 001.73.6 2.74 2.74 0 001.08-.21 2.25 2.25 0 00.85-.62l.48.56a2.68 2.68 0 01-1 .76 3.72 3.72 0 01-3.11-.15 2.92 2.92 0 01-1.17-1.14 3.28 3.28 0 01-.42-1.66 3.44 3.44 0 01.4-1.65 2.9 2.9 0 011.11-1.14 3.23 3.23 0 013.15 0 2.89 2.89 0 011.09 1.13 3.45 3.45 0 01.4 1.66zm-4.57-2.16a2.29 2.29 0 00-.71 1.52h4.48a2.33 2.33 0 00-.7-1.52 2.15 2.15 0 00-1.54-.58 2.13 2.13 0 00-1.53.58zM262.14 119.15a3.22 3.22 0 01-1.1-.56l.38-.67a3.74 3.74 0 001 .51 4 4 0 001.25.19 2.42 2.42 0 001.28-.27.86.86 0 00.41-.76.68.68 0 00-.23-.54 1.3 1.3 0 00-.57-.3 7.21 7.21 0 00-.93-.2 11.13 11.13 0 01-1.23-.3 1.78 1.78 0 01-.8-.51 1.41 1.41 0 01-.33-1 1.57 1.57 0 01.66-1.3 3 3 0 011.83-.5 4.72 4.72 0 011.23.16 3.37 3.37 0 011 .43l-.38.68a3.19 3.19 0 00-1.86-.54 2.19 2.19 0 00-1.23.29.88.88 0 00-.41.75.77.77 0 00.23.58 1.52 1.52 0 00.59.32 8.23 8.23 0 001 .21 9.45 9.45 0 011.21.29 1.79 1.79 0 01.78.49 1.37 1.37 0 01.32 1 1.52 1.52 0 01-.69 1.31 3.23 3.23 0 01-1.91.49 5.13 5.13 0 01-1.5-.25zM200.11 130.54l-1.49 1.37v1.8h-.85v-8.91h.85v6l3.77-3.44h1.06l-2.7 2.58 2.95 3.73h-1zM210.23 130.82H205a2.27 2.27 0 00.75 1.59 2.53 2.53 0 001.73.6 2.74 2.74 0 001.08-.21 2.25 2.25 0 00.85-.62l.48.56a2.68 2.68 0 01-1.05.76 3.72 3.72 0 01-3.11-.15 2.92 2.92 0 01-1.17-1.14 3.28 3.28 0 01-.42-1.66 3.34 3.34 0 01.41-1.65 2.81 2.81 0 011.1-1.14 3 3 0 011.58-.41 3 3 0 011.57.41 2.89 2.89 0 011.09 1.13 3.34 3.34 0 01.4 1.66zm-4.58-2.16a2.28 2.28 0 00-.7 1.52h4.47a2.28 2.28 0 00-.7-1.52 2.15 2.15 0 00-1.54-.58 2.13 2.13 0 00-1.53.58zM217.16 127.4l-3.16 7.06a3 3 0 01-.89 1.26 2 2 0 01-1.21.38 2.43 2.43 0 01-.86-.15 1.79 1.79 0 01-.68-.43l.4-.64a1.56 1.56 0 001.15.48 1.17 1.17 0 00.74-.24 2.28 2.28 0 00.57-.81l.27-.61-2.82-6.3h.89l2.38 5.36 2.37-5.36zM225.61 128a2.38 2.38 0 01.66 1.83v3.91h-.82v-1a1.91 1.91 0 01-.84.77 2.9 2.9 0 01-1.33.28 2.59 2.59 0 01-1.68-.51 1.63 1.63 0 01-.62-1.33 1.59 1.59 0 01.58-1.29 2.84 2.84 0 011.85-.5h2v-.38a1.59 1.59 0 00-.46-1.24 1.85 1.85 0 00-1.33-.43 3.43 3.43 0 00-1.15.2 2.7 2.7 0 00-.95.55l-.38-.64a3.45 3.45 0 011.15-.63 4.43 4.43 0 011.41-.22 2.64 2.64 0 011.91.63zm-1 4.8a2 2 0 00.77-1v-1h-2c-1.08 0-1.62.38-1.62 1.13a1 1 0 00.42.87 1.91 1.91 0 001.17.32 2.25 2.25 0 001.3-.35zM233.69 128a2.69 2.69 0 01.7 2v3.66h-.85v-3.58a2.1 2.1 0 00-.49-1.5 1.87 1.87 0 00-1.4-.51 2.19 2.19 0 00-1.62.6 2.32 2.32 0 00-.59 1.68v3.31h-.85v-6.26h.81v1.16a2.39 2.39 0 011-.89 3 3 0 011.43-.32 2.59 2.59 0 011.86.65zM242.49 124.8v8.91h-.81v-1.25a2.64 2.64 0 01-1 1 2.9 2.9 0 01-1.42.34 3.24 3.24 0 01-1.61-.41 2.86 2.86 0 01-1.12-1.14 3.61 3.61 0 010-3.34 2.9 2.9 0 011.12-1.13 3.23 3.23 0 011.61-.4 2.91 2.91 0 011.39.32 2.57 2.57 0 011 .93v-3.8zm-2 7.91a2.34 2.34 0 00.84-.87 2.73 2.73 0 00.3-1.29 2.66 2.66 0 00-.3-1.28 2.2 2.2 0 00-.84-.87 2.33 2.33 0 00-1.2-.31 2.31 2.31 0 00-1.2.31 2.07 2.07 0 00-.84.87 2.55 2.55 0 00-.31 1.28 2.62 2.62 0 00.31 1.29 2.2 2.2 0 00.84.87 2.4 2.4 0 001.2.3 2.43 2.43 0 001.22-.3zM253.32 127.4l-2.81 6.31h-.88l-2.79-6.31h.89l2.36 5.37 2.39-5.37zM258.43 128a2.38 2.38 0 01.66 1.83v3.91h-.82v-1a1.91 1.91 0 01-.84.77 2.9 2.9 0 01-1.33.28 2.59 2.59 0 01-1.68-.51 1.63 1.63 0 01-.62-1.33 1.59 1.59 0 01.58-1.29 2.84 2.84 0 011.85-.5h2v-.38a1.59 1.59 0 00-.46-1.24 1.85 1.85 0 00-1.33-.43 3.43 3.43 0 00-1.15.2 2.7 2.7 0 00-1 .55l-.38-.64a3.45 3.45 0 011.15-.63 4.43 4.43 0 011.41-.22 2.64 2.64 0 011.96.63zm-1 4.8a2 2 0 00.77-1v-1h-2c-1.08 0-1.62.38-1.62 1.13a1 1 0 00.42.87 1.91 1.91 0 001.17.32 2.25 2.25 0 001.3-.35zM261.41 124.8h.85v8.91h-.85zM270.32 127.4v6.31h-.81v-1.15a2.41 2.41 0 01-.93.89 2.79 2.79 0 01-1.34.32 2.45 2.45 0 01-2.67-2.71v-3.66h.86v3.6a2.08 2.08 0 00.49 1.51 1.82 1.82 0 001.4.52 2 2 0 001.57-.61 2.3 2.3 0 00.58-1.68v-3.34zM278.21 130.82h-5.28a2.27 2.27 0 00.75 1.59 2.53 2.53 0 001.73.6 2.74 2.74 0 001.08-.21 2.25 2.25 0 00.85-.62l.48.56a2.68 2.68 0 01-1.05.76 3.72 3.72 0 01-3.11-.15 2.92 2.92 0 01-1.17-1.14 3.28 3.28 0 01-.42-1.66 3.34 3.34 0 01.41-1.65 2.81 2.81 0 011.1-1.14 3 3 0 011.58-.41 3 3 0 011.57.41 2.89 2.89 0 011.09 1.13 3.34 3.34 0 01.4 1.66zm-4.58-2.16a2.28 2.28 0 00-.7 1.52h4.47a2.28 2.28 0 00-.7-1.52 2.15 2.15 0 00-1.54-.58 2.13 2.13 0 00-1.53.58z"/>
  </g>
  <path class="b" d="M241.52 30.56v13.81M241.52 78.25h-9M241.52 64.43v13.82M237.02 78.91v11.52M232.05 64.43v13.82M136.05 18.48V30"/>
  <g>
    <path class="b" d="M110.72 78.21l-9-.04M110.79 64.39l-.07 13.82M106.22 78.85l-.05 11.52M101.32 64.35l-.06 13.82"/>
  </g>
  <g>
    <path class="b" d="M49.1 78.25h-9M49.1 64.43v13.82M44.6 78.91v11.52M39.64 64.43v13.82"/>
  </g>
  <path class="b" d="M39.64 44.3V30.56M450.02 18.26v11.52M658.52 30.56v13.81"/>
</svg>
