<svg width="1000" height="358" viewBox="0 0 1000 358" fill="none" xmlns="http://www.w3.org/2000/svg">
<rect width="1000" height="358" fill="white"/>
<path d="M45.3438 52.5781C44.1406 52.5781 43.2031 53.1875 42.7344 54.1484H42.6953V52.7188H40.7969V63.7266H42.7422V59.625H42.7812C43.2344 60.5547 44.1719 61.1328 45.375 61.1328C47.4531 61.1328 48.7812 59.5 48.7812 56.8594C48.7812 54.2109 47.4453 52.5781 45.3438 52.5781ZM44.75 59.5391C43.5391 59.5391 42.7344 58.4844 42.7266 56.8594C42.7344 55.25 43.5391 54.1797 44.75 54.1797C46.0078 54.1797 46.7891 55.2266 46.7891 56.8594C46.7891 58.5 46.0078 59.5391 44.75 59.5391ZM50.0312 61H51.9766V56.1797C51.9766 55.0156 52.6406 54.3047 53.7422 54.3047C54.0703 54.3047 54.3672 54.3516 54.5312 54.4141V52.6562C54.3906 52.625 54.1719 52.5781 53.9219 52.5781C52.9453 52.5781 52.2188 53.1562 51.9375 54.1641H51.8984V52.7188H50.0312V61ZM58.8828 61.1641C61.3125 61.1641 62.8906 59.5469 62.8906 56.8594C62.8906 54.1797 61.2969 52.5469 58.8828 52.5469C56.4688 52.5469 54.875 54.1875 54.875 56.8594C54.875 59.5469 56.4531 61.1641 58.8828 61.1641ZM58.8828 59.625C57.6484 59.625 56.8516 58.625 56.8516 56.8594C56.8516 55.1016 57.6562 54.0938 58.8828 54.0938C60.1172 54.0938 60.9141 55.1016 60.9141 56.8594C60.9141 58.625 60.1172 59.625 58.8828 59.625ZM71.4375 55.6719C71.3047 53.9297 69.9531 52.5469 67.7656 52.5469C65.3594 52.5469 63.7969 54.2109 63.7969 56.8594C63.7969 59.5469 65.3594 61.1641 67.7812 61.1641C69.8594 61.1641 71.2891 59.9453 71.4453 58.0938H69.6094C69.4297 59.0312 68.7891 59.5938 67.8047 59.5938C66.5703 59.5938 65.7734 58.5938 65.7734 56.8594C65.7734 55.1562 66.5625 54.125 67.7891 54.125C68.8281 54.125 69.4453 54.7891 69.6016 55.6719H71.4375ZM78.0938 58.5234C77.8828 59.2109 77.1953 59.6641 76.2891 59.6641C75.0156 59.6641 74.2031 58.7734 74.2031 57.4453V57.3281H79.9922V56.6953C79.9922 54.1797 78.5234 52.5469 76.1719 52.5469C73.7812 52.5469 72.2656 54.2734 72.2656 56.8906C72.2656 59.5312 73.7656 61.1641 76.25 61.1641C78.2109 61.1641 79.6641 60.0859 79.9141 58.5234H78.0938ZM76.1797 54.0547C77.2969 54.0547 78.0469 54.875 78.0859 56.0469H74.2188C74.2969 54.8906 75.0859 54.0547 76.1797 54.0547ZM81.1016 55.0938C81.1016 56.3203 81.8984 57.1016 83.4844 57.4531L84.8594 57.7578C85.7266 57.9531 86.0234 58.2344 86.0234 58.7344C86.0234 59.3516 85.4375 59.7422 84.4922 59.7422C83.5078 59.7422 82.9531 59.3359 82.8047 58.5312H80.8906C81.0469 60.1328 82.3281 61.1641 84.4922 61.1641C86.5234 61.1641 87.9609 60.1094 87.9609 58.5469C87.9609 57.3438 87.2969 56.6797 85.5781 56.2969L84.2031 55.9922C83.3359 55.7969 82.9922 55.4688 82.9922 54.9922C82.9922 54.3828 83.5625 53.9766 84.4219 53.9766C85.3203 53.9766 85.875 54.4531 85.9531 55.2031H87.7656C87.7188 53.6328 86.4375 52.5469 84.4219 52.5469C82.4219 52.5469 81.1016 53.5781 81.1016 55.0938ZM89.0547 55.0938C89.0547 56.3203 89.8516 57.1016 91.4375 57.4531L92.8125 57.7578C93.6797 57.9531 93.9766 58.2344 93.9766 58.7344C93.9766 59.3516 93.3906 59.7422 92.4453 59.7422C91.4609 59.7422 90.9062 59.3359 90.7578 58.5312H88.8438C89 60.1328 90.2812 61.1641 92.4453 61.1641C94.4766 61.1641 95.9141 60.1094 95.9141 58.5469C95.9141 57.3438 95.25 56.6797 93.5312 56.2969L92.1562 55.9922C91.2891 55.7969 90.9453 55.4688 90.9453 54.9922C90.9453 54.3828 91.5156 53.9766 92.375 53.9766C93.2734 53.9766 93.8281 54.4531 93.9062 55.2031H95.7188C95.6719 53.6328 94.3906 52.5469 92.375 52.5469C90.375 52.5469 89.0547 53.5781 89.0547 55.0938ZM98.1719 51.4688C98.7656 51.4688 99.2344 50.9922 99.2344 50.4141C99.2344 49.8281 98.7656 49.3594 98.1719 49.3594C97.5781 49.3594 97.1016 49.8281 97.1016 50.4141C97.1016 50.9922 97.5781 51.4688 98.1719 51.4688ZM97.2031 61H99.1484V52.7188H97.2031V61ZM100.781 61H102.727V56.2031C102.727 55.0156 103.438 54.2109 104.555 54.2109C105.664 54.2109 106.211 54.8672 106.211 56.0391V61H108.156V55.6484C108.156 53.7344 107.117 52.5625 105.289 52.5625C104.016 52.5625 103.133 53.1562 102.688 54.1406H102.648V52.7188H100.781V61ZM113.367 64.125C115.781 64.125 117.367 62.8438 117.367 60.8672V52.7188H115.461V54.1406H115.43C114.953 53.1875 114 52.5781 112.82 52.5781C110.703 52.5781 109.375 54.2109 109.375 56.8281C109.375 59.4062 110.734 61.0078 112.781 61.0078C113.969 61.0078 114.945 60.4141 115.375 59.5234H115.422V60.9219C115.422 61.9766 114.695 62.6875 113.43 62.6875C112.508 62.6875 111.797 62.2578 111.586 61.625H109.656C109.852 63.0781 111.32 64.125 113.367 64.125ZM113.375 59.4609C112.148 59.4609 111.367 58.4766 111.367 56.8359C111.367 55.2109 112.148 54.1797 113.375 54.1797C114.617 54.1797 115.422 55.2266 115.422 56.8359C115.422 58.4531 114.617 59.4609 113.375 59.4609ZM129.5 52.7188H127.555V57.5078C127.555 58.7109 126.859 59.5078 125.734 59.5078C124.641 59.5078 124.062 58.8672 124.062 57.6797V52.7188H122.117V58.0703C122.117 59.9844 123.258 61.1484 125.055 61.1484C126.312 61.1484 127.148 60.5703 127.586 59.5625H127.625V61H129.5V52.7188ZM131.094 61H133.039V56.2031C133.039 55.0156 133.75 54.2109 134.867 54.2109C135.977 54.2109 136.523 54.8672 136.523 56.0391V61H138.469V55.6484C138.469 53.7344 137.43 52.5625 135.602 52.5625C134.328 52.5625 133.445 53.1562 133 54.1406H132.961V52.7188H131.094V61ZM141.047 51.4688C141.641 51.4688 142.109 50.9922 142.109 50.4141C142.109 49.8281 141.641 49.3594 141.047 49.3594C140.453 49.3594 139.977 49.8281 139.977 50.4141C139.977 50.9922 140.453 51.4688 141.047 51.4688ZM140.078 61H142.023V52.7188H140.078V61ZM144.195 50.7812V52.7188H143.008V54.2188H144.195V58.7969C144.195 60.4062 144.898 61.0391 146.688 61.0391C147.102 61.0391 147.484 61.0078 147.695 60.9609V59.4766C147.57 59.5 147.32 59.5156 147.141 59.5156C146.453 59.5156 146.141 59.2031 146.141 58.5234V54.2188H147.703V52.7188H146.141V50.7812H144.195Z" fill="black"/>
<path d="M857.109 49.5781C855.906 49.5781 854.969 50.1875 854.5 51.1484H854.461V49.7188H852.562V60.7266H854.508V56.625H854.547C855 57.5547 855.938 58.1328 857.141 58.1328C859.219 58.1328 860.547 56.5 860.547 53.8594C860.547 51.2109 859.211 49.5781 857.109 49.5781ZM856.516 56.5391C855.305 56.5391 854.5 55.4844 854.492 53.8594C854.5 52.25 855.305 51.1797 856.516 51.1797C857.773 51.1797 858.555 52.2266 858.555 53.8594C858.555 55.5 857.773 56.5391 856.516 56.5391ZM861.797 58H863.742V53.1797C863.742 52.0156 864.406 51.3047 865.508 51.3047C865.836 51.3047 866.133 51.3516 866.297 51.4141V49.6562C866.156 49.625 865.938 49.5781 865.688 49.5781C864.711 49.5781 863.984 50.1562 863.703 51.1641H863.664V49.7188H861.797V58ZM870.648 58.1641C873.078 58.1641 874.656 56.5469 874.656 53.8594C874.656 51.1797 873.062 49.5469 870.648 49.5469C868.234 49.5469 866.641 51.1875 866.641 53.8594C866.641 56.5469 868.219 58.1641 870.648 58.1641ZM870.648 56.625C869.414 56.625 868.617 55.625 868.617 53.8594C868.617 52.1016 869.422 51.0938 870.648 51.0938C871.883 51.0938 872.68 52.1016 872.68 53.8594C872.68 55.625 871.883 56.625 870.648 56.625ZM883.203 52.6719C883.07 50.9297 881.719 49.5469 879.531 49.5469C877.125 49.5469 875.562 51.2109 875.562 53.8594C875.562 56.5469 877.125 58.1641 879.547 58.1641C881.625 58.1641 883.055 56.9453 883.211 55.0938H881.375C881.195 56.0312 880.555 56.5938 879.57 56.5938C878.336 56.5938 877.539 55.5938 877.539 53.8594C877.539 52.1562 878.328 51.125 879.555 51.125C880.594 51.125 881.211 51.7891 881.367 52.6719H883.203ZM889.859 55.5234C889.648 56.2109 888.961 56.6641 888.055 56.6641C886.781 56.6641 885.969 55.7734 885.969 54.4453V54.3281H891.758V53.6953C891.758 51.1797 890.289 49.5469 887.938 49.5469C885.547 49.5469 884.031 51.2734 884.031 53.8906C884.031 56.5312 885.531 58.1641 888.016 58.1641C889.977 58.1641 891.43 57.0859 891.68 55.5234H889.859ZM887.945 51.0547C889.062 51.0547 889.812 51.875 889.852 53.0469H885.984C886.062 51.8906 886.852 51.0547 887.945 51.0547ZM892.867 52.0938C892.867 53.3203 893.664 54.1016 895.25 54.4531L896.625 54.7578C897.492 54.9531 897.789 55.2344 897.789 55.7344C897.789 56.3516 897.203 56.7422 896.258 56.7422C895.273 56.7422 894.719 56.3359 894.57 55.5312H892.656C892.812 57.1328 894.094 58.1641 896.258 58.1641C898.289 58.1641 899.727 57.1094 899.727 55.5469C899.727 54.3438 899.062 53.6797 897.344 53.2969L895.969 52.9922C895.102 52.7969 894.758 52.4688 894.758 51.9922C894.758 51.3828 895.328 50.9766 896.188 50.9766C897.086 50.9766 897.641 51.4531 897.719 52.2031H899.531C899.484 50.6328 898.203 49.5469 896.188 49.5469C894.188 49.5469 892.867 50.5781 892.867 52.0938ZM900.82 52.0938C900.82 53.3203 901.617 54.1016 903.203 54.4531L904.578 54.7578C905.445 54.9531 905.742 55.2344 905.742 55.7344C905.742 56.3516 905.156 56.7422 904.211 56.7422C903.227 56.7422 902.672 56.3359 902.523 55.5312H900.609C900.766 57.1328 902.047 58.1641 904.211 58.1641C906.242 58.1641 907.68 57.1094 907.68 55.5469C907.68 54.3438 907.016 53.6797 905.297 53.2969L903.922 52.9922C903.055 52.7969 902.711 52.4688 902.711 51.9922C902.711 51.3828 903.281 50.9766 904.141 50.9766C905.039 50.9766 905.594 51.4531 905.672 52.2031H907.484C907.438 50.6328 906.156 49.5469 904.141 49.5469C902.141 49.5469 900.82 50.5781 900.82 52.0938ZM909.938 48.4688C910.531 48.4688 911 47.9922 911 47.4141C911 46.8281 910.531 46.3594 909.938 46.3594C909.344 46.3594 908.867 46.8281 908.867 47.4141C908.867 47.9922 909.344 48.4688 909.938 48.4688ZM908.969 58H910.914V49.7188H908.969V58ZM912.547 58H914.492V53.2031C914.492 52.0156 915.203 51.2109 916.32 51.2109C917.43 51.2109 917.977 51.8672 917.977 53.0391V58H919.922V52.6484C919.922 50.7344 918.883 49.5625 917.055 49.5625C915.781 49.5625 914.898 50.1562 914.453 51.1406H914.414V49.7188H912.547V58ZM925.133 61.125C927.547 61.125 929.133 59.8438 929.133 57.8672V49.7188H927.227V51.1406H927.195C926.719 50.1875 925.766 49.5781 924.586 49.5781C922.469 49.5781 921.141 51.2109 921.141 53.8281C921.141 56.4062 922.5 58.0078 924.547 58.0078C925.734 58.0078 926.711 57.4141 927.141 56.5234H927.188V57.9219C927.188 58.9766 926.461 59.6875 925.195 59.6875C924.273 59.6875 923.562 59.2578 923.352 58.625H921.422C921.617 60.0781 923.086 61.125 925.133 61.125ZM925.141 56.4609C923.914 56.4609 923.133 55.4766 923.133 53.8359C923.133 52.2109 923.914 51.1797 925.141 51.1797C926.383 51.1797 927.188 52.2266 927.188 53.8359C927.188 55.4531 926.383 56.4609 925.141 56.4609ZM941.266 49.7188H939.32V54.5078C939.32 55.7109 938.625 56.5078 937.5 56.5078C936.406 56.5078 935.828 55.8672 935.828 54.6797V49.7188H933.883V55.0703C933.883 56.9844 935.023 58.1484 936.82 58.1484C938.078 58.1484 938.914 57.5703 939.352 56.5625H939.391V58H941.266V49.7188ZM942.859 58H944.805V53.2031C944.805 52.0156 945.516 51.2109 946.633 51.2109C947.742 51.2109 948.289 51.8672 948.289 53.0391V58H950.234V52.6484C950.234 50.7344 949.195 49.5625 947.367 49.5625C946.094 49.5625 945.211 50.1562 944.766 51.1406H944.727V49.7188H942.859V58ZM952.812 48.4688C953.406 48.4688 953.875 47.9922 953.875 47.4141C953.875 46.8281 953.406 46.3594 952.812 46.3594C952.219 46.3594 951.742 46.8281 951.742 47.4141C951.742 47.9922 952.219 48.4688 952.812 48.4688ZM951.844 58H953.789V49.7188H951.844V58ZM955.961 47.7812V49.7188H954.773V51.2188H955.961V55.7969C955.961 57.4062 956.664 58.0391 958.453 58.0391C958.867 58.0391 959.25 58.0078 959.461 57.9609V56.4766C959.336 56.5 959.086 56.5156 958.906 56.5156C958.219 56.5156 957.906 56.2031 957.906 55.5234V51.2188H959.469V49.7188H957.906V47.7812H955.961Z" fill="black"/>
<path d="M322.586 55.5234C322.375 56.2109 321.688 56.6641 320.781 56.6641C319.508 56.6641 318.695 55.7734 318.695 54.4453V54.3281H324.484V53.6953C324.484 51.1797 323.016 49.5469 320.664 49.5469C318.273 49.5469 316.758 51.2734 316.758 53.8906C316.758 56.5312 318.258 58.1641 320.742 58.1641C322.703 58.1641 324.156 57.0859 324.406 55.5234H322.586ZM320.672 51.0547C321.789 51.0547 322.539 51.875 322.578 53.0469H318.711C318.789 51.8906 319.578 51.0547 320.672 51.0547ZM325.742 58H327.688V53.2031C327.688 52.0156 328.398 51.2109 329.516 51.2109C330.625 51.2109 331.172 51.8672 331.172 53.0391V58H333.117V52.6484C333.117 50.7344 332.078 49.5625 330.25 49.5625C328.977 49.5625 328.094 50.1562 327.648 51.1406H327.609V49.7188H325.742V58ZM335.219 58H337.164V51.2188H338.789V49.7422H337.133V49.0625C337.133 48.3906 337.469 48.0391 338.211 48.0391C338.438 48.0391 338.664 48.0625 338.828 48.0859V46.7266C338.586 46.6797 338.164 46.6406 337.781 46.6406C335.984 46.6406 335.219 47.3984 335.219 49.0078V49.7422H334.086V51.2188H335.219V58ZM343.438 58.1641C345.867 58.1641 347.445 56.5469 347.445 53.8594C347.445 51.1797 345.852 49.5469 343.438 49.5469C341.023 49.5469 339.43 51.1875 339.43 53.8594C339.43 56.5469 341.008 58.1641 343.438 58.1641ZM343.438 56.625C342.203 56.625 341.406 55.625 341.406 53.8594C341.406 52.1016 342.211 51.0938 343.438 51.0938C344.672 51.0938 345.469 52.1016 345.469 53.8594C345.469 55.625 344.672 56.625 343.438 56.625ZM348.695 58H350.641V53.1797C350.641 52.0156 351.305 51.3047 352.406 51.3047C352.734 51.3047 353.031 51.3516 353.195 51.4141V49.6562C353.055 49.625 352.836 49.5781 352.586 49.5781C351.609 49.5781 350.883 50.1562 350.602 51.1641H350.562V49.7188H348.695V58ZM361.18 52.6719C361.047 50.9297 359.695 49.5469 357.508 49.5469C355.102 49.5469 353.539 51.2109 353.539 53.8594C353.539 56.5469 355.102 58.1641 357.523 58.1641C359.602 58.1641 361.031 56.9453 361.188 55.0938H359.352C359.172 56.0312 358.531 56.5938 357.547 56.5938C356.312 56.5938 355.516 55.5938 355.516 53.8594C355.516 52.1562 356.305 51.125 357.531 51.125C358.57 51.125 359.188 51.7891 359.344 52.6719H361.18ZM367.836 55.5234C367.625 56.2109 366.938 56.6641 366.031 56.6641C364.758 56.6641 363.945 55.7734 363.945 54.4453V54.3281H369.734V53.6953C369.734 51.1797 368.266 49.5469 365.914 49.5469C363.523 49.5469 362.008 51.2734 362.008 53.8906C362.008 56.5312 363.508 58.1641 365.992 58.1641C367.953 58.1641 369.406 57.0859 369.656 55.5234H367.836ZM365.922 51.0547C367.039 51.0547 367.789 51.875 367.828 53.0469H363.961C364.039 51.8906 364.828 51.0547 365.922 51.0547ZM370.992 58H372.938V53.1797C372.938 52.0156 373.602 51.3047 374.703 51.3047C375.031 51.3047 375.328 51.3516 375.492 51.4141V49.6562C375.352 49.625 375.133 49.5781 374.883 49.5781C373.906 49.5781 373.18 50.1562 372.898 51.1641H372.859V49.7188H370.992V58Z" fill="black"/>
<path d="M393.851 135.123C394.808 135.123 395.71 134.59 396.134 133.776H396.161V135H397.289V130.085C397.289 128.67 396.236 127.768 394.568 127.768C392.887 127.768 391.834 128.711 391.752 129.941H392.9C393.051 129.244 393.625 128.813 394.541 128.813C395.525 128.813 396.1 129.333 396.1 130.201V130.796L394.062 130.912C392.422 131.008 391.485 131.773 391.485 132.99C391.485 134.269 392.436 135.123 393.851 135.123ZM394.117 134.111C393.263 134.111 392.695 133.667 392.695 132.99C392.695 132.32 393.242 131.896 394.199 131.835L396.1 131.719V132.3C396.1 133.325 395.238 134.111 394.117 134.111ZM401.493 135.123C402.519 135.123 403.332 134.617 403.79 133.797H403.811V135H404.945V125.136H403.756V129.046H403.729C403.305 128.267 402.484 127.768 401.466 127.768C399.675 127.768 398.451 129.217 398.451 131.445C398.451 133.674 399.682 135.123 401.493 135.123ZM401.719 128.813C402.942 128.813 403.763 129.859 403.763 131.445C403.763 133.038 402.942 134.077 401.719 134.077C400.461 134.077 399.668 133.059 399.668 131.445C399.668 129.839 400.461 128.813 401.719 128.813ZM409.245 135.123C410.271 135.123 411.084 134.617 411.542 133.797H411.562V135H412.697V125.136H411.508V129.046H411.48C411.057 128.267 410.236 127.768 409.218 127.768C407.427 127.768 406.203 129.217 406.203 131.445C406.203 133.674 407.434 135.123 409.245 135.123ZM409.471 128.813C410.694 128.813 411.515 129.859 411.515 131.445C411.515 133.038 410.694 134.077 409.471 134.077C408.213 134.077 407.42 133.059 407.42 131.445C407.42 129.839 408.213 128.813 409.471 128.813ZM417.831 126.626C418.248 126.626 418.576 126.291 418.576 125.881C418.576 125.464 418.248 125.136 417.831 125.136C417.421 125.136 417.086 125.464 417.086 125.881C417.086 126.291 417.421 126.626 417.831 126.626ZM417.236 135H418.426V127.891H417.236V135ZM422.726 135.123C423.751 135.123 424.564 134.617 425.022 133.797H425.043V135H426.178V125.136H424.988V129.046H424.961C424.537 128.267 423.717 127.768 422.698 127.768C420.907 127.768 419.684 129.217 419.684 131.445C419.684 133.674 420.914 135.123 422.726 135.123ZM422.951 128.813C424.175 128.813 424.995 129.859 424.995 131.445C424.995 133.038 424.175 134.077 422.951 134.077C421.693 134.077 420.9 133.059 420.9 131.445C420.9 129.839 421.693 128.813 422.951 128.813ZM432.501 132.963C432.303 133.633 431.64 134.091 430.737 134.091C429.459 134.091 428.659 133.195 428.659 131.835V131.767H433.759V131.315C433.759 129.162 432.576 127.768 430.655 127.768C428.693 127.768 427.436 129.265 427.436 131.473C427.436 133.708 428.673 135.123 430.71 135.123C432.262 135.123 433.465 134.207 433.67 132.963H432.501ZM430.635 128.8C431.756 128.8 432.501 129.647 432.528 130.837H428.666C428.741 129.654 429.521 128.8 430.635 128.8ZM434.962 135H436.151V130.816C436.151 129.613 436.883 128.82 438.004 128.82C439.098 128.82 439.638 129.449 439.638 130.598V135H440.827V130.386C440.827 128.772 439.925 127.768 438.366 127.768C437.266 127.768 436.507 128.26 436.11 129.025H436.083V127.891H434.962V135ZM442.728 126.175V127.891H441.668V128.868H442.728V133.154C442.728 134.521 443.233 135.055 444.539 135.055C444.819 135.055 445.147 135.034 445.291 135V134.002C445.209 134.016 444.936 134.036 444.799 134.036C444.19 134.036 443.917 133.742 443.917 133.093V128.868H445.298V127.891H443.917V126.175H442.728ZM447.226 126.626C447.643 126.626 447.971 126.291 447.971 125.881C447.971 125.464 447.643 125.136 447.226 125.136C446.815 125.136 446.48 125.464 446.48 125.881C446.48 126.291 446.815 126.626 447.226 126.626ZM446.631 135H447.82V127.891H446.631V135ZM449.81 126.175V127.891H448.75V128.868H449.81V133.154C449.81 134.521 450.315 135.055 451.621 135.055C451.901 135.055 452.229 135.034 452.373 135V134.002C452.291 134.016 452.018 134.036 451.881 134.036C451.272 134.036 450.999 133.742 450.999 133.093V128.868H452.38V127.891H450.999V126.175H449.81ZM454.246 137.659C455.531 137.659 456.119 137.16 456.728 135.499L459.523 127.891H458.272L456.304 133.811H456.283L454.314 127.891H453.043L455.668 135.007L455.504 135.506C455.23 136.333 454.861 136.654 454.198 136.654C454.048 136.654 453.863 136.647 453.733 136.62V137.618C453.863 137.646 454.103 137.659 454.246 137.659Z" fill="#13171A"/>
<path d="M361.5 166C361.5 166.552 361.948 167 362.5 167H371.5C372.052 167 372.5 166.552 372.5 166C372.5 165.448 372.052 165 371.5 165H363.5V157C363.5 156.448 363.052 156 362.5 156C361.948 156 361.5 156.448 361.5 157V166ZM363.207 166.707L387.207 142.707L385.793 141.293L361.793 165.293L363.207 166.707Z" fill="#13171A"/>
<path d="M550.163 135.123C551.12 135.123 552.022 134.59 552.446 133.776H552.474V135H553.602V130.085C553.602 128.67 552.549 127.768 550.881 127.768C549.199 127.768 548.146 128.711 548.064 129.941H549.213C549.363 129.244 549.938 128.813 550.854 128.813C551.838 128.813 552.412 129.333 552.412 130.201V130.796L550.375 130.912C548.734 131.008 547.798 131.773 547.798 132.99C547.798 134.269 548.748 135.123 550.163 135.123ZM550.43 134.111C549.575 134.111 549.008 133.667 549.008 132.99C549.008 132.32 549.555 131.896 550.512 131.835L552.412 131.719V132.3C552.412 133.325 551.551 134.111 550.43 134.111ZM557.806 135.123C558.831 135.123 559.645 134.617 560.103 133.797H560.123V135H561.258V125.136H560.068V129.046H560.041C559.617 128.267 558.797 127.768 557.778 127.768C555.987 127.768 554.764 129.217 554.764 131.445C554.764 133.674 555.994 135.123 557.806 135.123ZM558.031 128.813C559.255 128.813 560.075 129.859 560.075 131.445C560.075 133.038 559.255 134.077 558.031 134.077C556.773 134.077 555.98 133.059 555.98 131.445C555.98 129.839 556.773 128.813 558.031 128.813ZM565.558 135.123C566.583 135.123 567.396 134.617 567.854 133.797H567.875V135H569.01V125.136H567.82V129.046H567.793C567.369 128.267 566.549 127.768 565.53 127.768C563.739 127.768 562.516 129.217 562.516 131.445C562.516 133.674 563.746 135.123 565.558 135.123ZM565.783 128.813C567.007 128.813 567.827 129.859 567.827 131.445C567.827 133.038 567.007 134.077 565.783 134.077C564.525 134.077 563.732 133.059 563.732 131.445C563.732 129.839 564.525 128.813 565.783 128.813ZM574.144 126.626C574.561 126.626 574.889 126.291 574.889 125.881C574.889 125.464 574.561 125.136 574.144 125.136C573.733 125.136 573.398 125.464 573.398 125.881C573.398 126.291 573.733 126.626 574.144 126.626ZM573.549 135H574.738V127.891H573.549V135ZM579.038 135.123C580.063 135.123 580.877 134.617 581.335 133.797H581.355V135H582.49V125.136H581.301V129.046H581.273C580.85 128.267 580.029 127.768 579.011 127.768C577.22 127.768 575.996 129.217 575.996 131.445C575.996 133.674 577.227 135.123 579.038 135.123ZM579.264 128.813C580.487 128.813 581.308 129.859 581.308 131.445C581.308 133.038 580.487 134.077 579.264 134.077C578.006 134.077 577.213 133.059 577.213 131.445C577.213 129.839 578.006 128.813 579.264 128.813ZM588.813 132.963C588.615 133.633 587.952 134.091 587.05 134.091C585.771 134.091 584.972 133.195 584.972 131.835V131.767H590.071V131.315C590.071 129.162 588.889 127.768 586.968 127.768C585.006 127.768 583.748 129.265 583.748 131.473C583.748 133.708 584.985 135.123 587.022 135.123C588.574 135.123 589.777 134.207 589.982 132.963H588.813ZM586.947 128.8C588.068 128.8 588.813 129.647 588.841 130.837H584.979C585.054 129.654 585.833 128.8 586.947 128.8ZM591.274 135H592.464V130.816C592.464 129.613 593.195 128.82 594.316 128.82C595.41 128.82 595.95 129.449 595.95 130.598V135H597.14V130.386C597.14 128.772 596.237 127.768 594.679 127.768C593.578 127.768 592.819 128.26 592.423 129.025H592.396V127.891H591.274V135ZM599.04 126.175V127.891H597.98V128.868H599.04V133.154C599.04 134.521 599.546 135.055 600.852 135.055C601.132 135.055 601.46 135.034 601.604 135V134.002C601.521 134.016 601.248 134.036 601.111 134.036C600.503 134.036 600.229 133.742 600.229 133.093V128.868H601.61V127.891H600.229V126.175H599.04ZM603.538 126.626C603.955 126.626 604.283 126.291 604.283 125.881C604.283 125.464 603.955 125.136 603.538 125.136C603.128 125.136 602.793 125.464 602.793 125.881C602.793 126.291 603.128 126.626 603.538 126.626ZM602.943 135H604.133V127.891H602.943V135ZM606.122 126.175V127.891H605.062V128.868H606.122V133.154C606.122 134.521 606.628 135.055 607.934 135.055C608.214 135.055 608.542 135.034 608.686 135V134.002C608.604 134.016 608.33 134.036 608.193 134.036C607.585 134.036 607.312 133.742 607.312 133.093V128.868H608.692V127.891H607.312V126.175H606.122ZM610.559 137.659C611.844 137.659 612.432 137.16 613.04 135.499L615.836 127.891H614.585L612.616 133.811H612.596L610.627 127.891H609.355L611.98 135.007L611.816 135.506C611.543 136.333 611.174 136.654 610.511 136.654C610.36 136.654 610.176 136.647 610.046 136.62V137.618C610.176 137.646 610.415 137.659 610.559 137.659Z" fill="#13171A"/>
<path d="M640 167C640.552 167 641 166.552 641 166L641 157C641 156.448 640.552 156 640 156C639.448 156 639 156.448 639 157L639 165L631 165C630.448 165 630 165.448 630 166C630 166.552 630.448 167 631 167L640 167ZM640.707 165.293L616.707 141.293L615.293 142.707L639.293 166.707L640.707 165.293Z" fill="#13171A"/>
<path d="M629.586 55.5234C629.375 56.2109 628.688 56.6641 627.781 56.6641C626.508 56.6641 625.695 55.7734 625.695 54.4453V54.3281H631.484V53.6953C631.484 51.1797 630.016 49.5469 627.664 49.5469C625.273 49.5469 623.758 51.2734 623.758 53.8906C623.758 56.5312 625.258 58.1641 627.742 58.1641C629.703 58.1641 631.156 57.0859 631.406 55.5234H629.586ZM627.672 51.0547C628.789 51.0547 629.539 51.875 629.578 53.0469H625.711C625.789 51.8906 626.578 51.0547 627.672 51.0547ZM632.742 58H634.688V53.2031C634.688 52.0156 635.398 51.2109 636.516 51.2109C637.625 51.2109 638.172 51.8672 638.172 53.0391V58H640.117V52.6484C640.117 50.7344 639.078 49.5625 637.25 49.5625C635.977 49.5625 635.094 50.1562 634.648 51.1406H634.609V49.7188H632.742V58ZM642.219 58H644.164V51.2188H645.789V49.7422H644.133V49.0625C644.133 48.3906 644.469 48.0391 645.211 48.0391C645.438 48.0391 645.664 48.0625 645.828 48.0859V46.7266C645.586 46.6797 645.164 46.6406 644.781 46.6406C642.984 46.6406 642.219 47.3984 642.219 49.0078V49.7422H641.086V51.2188H642.219V58ZM650.438 58.1641C652.867 58.1641 654.445 56.5469 654.445 53.8594C654.445 51.1797 652.852 49.5469 650.438 49.5469C648.023 49.5469 646.43 51.1875 646.43 53.8594C646.43 56.5469 648.008 58.1641 650.438 58.1641ZM650.438 56.625C649.203 56.625 648.406 55.625 648.406 53.8594C648.406 52.1016 649.211 51.0938 650.438 51.0938C651.672 51.0938 652.469 52.1016 652.469 53.8594C652.469 55.625 651.672 56.625 650.438 56.625ZM655.695 58H657.641V53.1797C657.641 52.0156 658.305 51.3047 659.406 51.3047C659.734 51.3047 660.031 51.3516 660.195 51.4141V49.6562C660.055 49.625 659.836 49.5781 659.586 49.5781C658.609 49.5781 657.883 50.1562 657.602 51.1641H657.562V49.7188H655.695V58ZM668.18 52.6719C668.047 50.9297 666.695 49.5469 664.508 49.5469C662.102 49.5469 660.539 51.2109 660.539 53.8594C660.539 56.5469 662.102 58.1641 664.523 58.1641C666.602 58.1641 668.031 56.9453 668.188 55.0938H666.352C666.172 56.0312 665.531 56.5938 664.547 56.5938C663.312 56.5938 662.516 55.5938 662.516 53.8594C662.516 52.1562 663.305 51.125 664.531 51.125C665.57 51.125 666.188 51.7891 666.344 52.6719H668.18ZM674.836 55.5234C674.625 56.2109 673.938 56.6641 673.031 56.6641C671.758 56.6641 670.945 55.7734 670.945 54.4453V54.3281H676.734V53.6953C676.734 51.1797 675.266 49.5469 672.914 49.5469C670.523 49.5469 669.008 51.2734 669.008 53.8906C669.008 56.5312 670.508 58.1641 672.992 58.1641C674.953 58.1641 676.406 57.0859 676.656 55.5234H674.836ZM672.922 51.0547C674.039 51.0547 674.789 51.875 674.828 53.0469H670.961C671.039 51.8906 671.828 51.0547 672.922 51.0547ZM677.992 58H679.938V53.1797C679.938 52.0156 680.602 51.3047 681.703 51.3047C682.031 51.3047 682.328 51.3516 682.492 51.4141V49.6562C682.352 49.625 682.133 49.5781 681.883 49.5781C680.906 49.5781 680.18 50.1562 679.898 51.1641H679.859V49.7188H677.992V58Z" fill="black"/>
<line x1="41" y1="80" x2="41" y2="318" stroke="black" stroke-width="2"/>
<line x1="961" y1="80" x2="961" y2="318" stroke="black" stroke-width="2"/>
<line x1="348" y1="80" x2="348" y2="220" stroke="black" stroke-width="2"/>
<line x1="655" y1="80" x2="655" y2="220" stroke="black" stroke-width="2"/>
<path d="M458.917 205V196.243H462.027V195.136H454.576V196.243H457.687V205H458.917ZM466.771 205.164C468.952 205.164 470.415 204.077 470.866 202.129H469.622C469.267 203.332 468.228 204.029 466.778 204.029C464.83 204.029 463.593 202.484 463.593 200.064C463.593 197.665 464.844 196.106 466.771 196.106C468.18 196.106 469.308 196.954 469.622 198.246H470.866C470.552 196.277 468.918 194.972 466.771 194.972C464.071 194.972 462.328 196.968 462.328 200.064C462.328 203.188 464.051 205.164 466.771 205.164ZM472.322 195.136V205H473.553V201.479H475.829C477.682 201.479 479.001 200.174 479.001 198.301C479.001 196.435 477.695 195.136 475.843 195.136H472.322ZM473.553 196.229H475.521C476.937 196.229 477.736 196.995 477.736 198.301C477.736 199.613 476.93 200.386 475.521 200.386H473.553V196.229ZM483.164 205H484.354V200.857C484.354 199.627 485.085 198.82 486.268 198.82C487.382 198.82 487.949 199.497 487.949 200.625V205H489.139V200.406C489.139 198.82 488.195 197.768 486.637 197.768C485.557 197.768 484.777 198.232 484.381 199.025H484.354V195.136H483.164V205ZM492.728 205.123C493.685 205.123 494.587 204.59 495.011 203.776H495.038V205H496.166V200.085C496.166 198.67 495.113 197.768 493.445 197.768C491.764 197.768 490.711 198.711 490.629 199.941H491.777C491.928 199.244 492.502 198.813 493.418 198.813C494.402 198.813 494.977 199.333 494.977 200.201V200.796L492.939 200.912C491.299 201.008 490.362 201.773 490.362 202.99C490.362 204.269 491.312 205.123 492.728 205.123ZM492.994 204.111C492.14 204.111 491.572 203.667 491.572 202.99C491.572 202.32 492.119 201.896 493.076 201.835L494.977 201.719V202.3C494.977 203.325 494.115 204.111 492.994 204.111ZM497.677 205H498.866V200.816C498.866 199.613 499.598 198.82 500.719 198.82C501.812 198.82 502.353 199.449 502.353 200.598V205H503.542V200.386C503.542 198.772 502.64 197.768 501.081 197.768C499.98 197.768 499.222 198.26 498.825 199.025H498.798V197.891H497.677V205ZM507.753 205.123C508.778 205.123 509.592 204.617 510.05 203.797H510.07V205H511.205V195.136H510.016V199.046H509.988C509.564 198.267 508.744 197.768 507.726 197.768C505.935 197.768 504.711 199.217 504.711 201.445C504.711 203.674 505.941 205.123 507.753 205.123ZM507.979 198.813C509.202 198.813 510.022 199.859 510.022 201.445C510.022 203.038 509.202 204.077 507.979 204.077C506.721 204.077 505.928 203.059 505.928 201.445C505.928 199.839 506.721 198.813 507.979 198.813ZM512.688 199.853C512.688 200.878 513.338 201.5 514.678 201.821L515.806 202.095C516.619 202.293 516.899 202.587 516.899 203.1C516.899 203.742 516.305 204.152 515.341 204.152C514.377 204.152 513.83 203.763 513.687 202.949H512.497C512.634 204.282 513.673 205.123 515.341 205.123C516.927 205.123 518.096 204.248 518.096 203.011C518.096 201.992 517.576 201.432 516.141 201.083L515.013 200.81C514.22 200.618 513.857 200.283 513.857 199.791C513.857 199.169 514.432 198.738 515.3 198.738C516.175 198.738 516.722 199.196 516.811 199.941H517.945C517.897 198.684 516.858 197.768 515.3 197.768C513.762 197.768 512.688 198.636 512.688 199.853ZM519.395 205H520.584V200.857C520.584 199.627 521.315 198.82 522.498 198.82C523.612 198.82 524.18 199.497 524.18 200.625V205H525.369V200.406C525.369 198.82 524.426 197.768 522.867 197.768C521.787 197.768 521.008 198.232 520.611 199.025H520.584V195.136H519.395V205ZM528.958 205.123C529.915 205.123 530.817 204.59 531.241 203.776H531.269V205H532.396V200.085C532.396 198.67 531.344 197.768 529.676 197.768C527.994 197.768 526.941 198.711 526.859 199.941H528.008C528.158 199.244 528.732 198.813 529.648 198.813C530.633 198.813 531.207 199.333 531.207 200.201V200.796L529.17 200.912C527.529 201.008 526.593 201.773 526.593 202.99C526.593 204.269 527.543 205.123 528.958 205.123ZM529.225 204.111C528.37 204.111 527.803 203.667 527.803 202.99C527.803 202.32 528.35 201.896 529.307 201.835L531.207 201.719V202.3C531.207 203.325 530.346 204.111 529.225 204.111ZM535.158 202.32L535.821 201.691L538.46 205H539.841L536.662 200.96L539.745 197.891H538.303L535.158 201.049V195.136H533.969V205H535.158V202.32ZM545.077 202.963C544.879 203.633 544.216 204.091 543.313 204.091C542.035 204.091 541.235 203.195 541.235 201.835V201.767H546.335V201.315C546.335 199.162 545.152 197.768 543.231 197.768C541.27 197.768 540.012 199.265 540.012 201.473C540.012 203.708 541.249 205.123 543.286 205.123C544.838 205.123 546.041 204.207 546.246 202.963H545.077ZM543.211 198.8C544.332 198.8 545.077 199.647 545.104 200.837H541.242C541.317 199.654 542.097 198.8 543.211 198.8Z" fill="#7F691D"/>
<mask maskUnits="userSpaceOnUse" x="0" y="0" width="0" height="0" fill="black">
<rect fill="white" width="0" height="0"/>
</mask>
<path d="M40.2929 180.293C39.9024 180.683 39.9024 181.317 40.2929 181.707L46.6569 188.071C47.0474 188.462 47.6805 188.462 48.0711 188.071C48.4616 187.681 48.4616 187.047 48.0711 186.657L42.4142 181L48.0711 175.343C48.4616 174.953 48.4616 174.319 48.0711 173.929C47.6805 173.538 47.0474 173.538 46.6569 173.929L40.2929 180.293ZM959.707 181.707C960.098 181.317 960.098 180.683 959.707 180.293L953.343 173.929C952.953 173.538 952.319 173.538 951.929 173.929C951.538 174.319 951.538 174.953 951.929 175.343L957.586 181L951.929 186.657C951.538 187.047 951.538 187.681 951.929 188.071C952.319 188.462 952.953 188.462 953.343 188.071L959.707 181.707ZM41 182H959V180H41V182Z" fill="#FDD13A" mask="url(#)"/>
<path d="M444.103 273.123C445.06 273.123 445.962 272.59 446.386 271.776H446.413V273H447.541V268.085C447.541 266.67 446.488 265.768 444.82 265.768C443.139 265.768 442.086 266.711 442.004 267.941H443.152C443.303 267.244 443.877 266.813 444.793 266.813C445.777 266.813 446.352 267.333 446.352 268.201V268.796L444.314 268.912C442.674 269.008 441.737 269.773 441.737 270.99C441.737 272.269 442.688 273.123 444.103 273.123ZM444.369 272.111C443.515 272.111 442.947 271.667 442.947 270.99C442.947 270.32 443.494 269.896 444.451 269.835L446.352 269.719V270.3C446.352 271.325 445.49 272.111 444.369 272.111ZM454.89 265.891H453.7V270.067C453.7 271.277 453.003 272.07 451.848 272.07C450.747 272.07 450.207 271.448 450.207 270.293V265.891H449.018V270.505C449.018 272.118 449.927 273.123 451.479 273.123C452.572 273.123 453.311 272.665 453.734 271.845H453.762V273H454.89V265.891ZM456.817 264.175V265.891H455.758V266.868H456.817V271.154C456.817 272.521 457.323 273.055 458.629 273.055C458.909 273.055 459.237 273.034 459.381 273V272.002C459.299 272.016 459.025 272.036 458.889 272.036C458.28 272.036 458.007 271.742 458.007 271.093V266.868H459.388V265.891H458.007V264.175H456.817ZM460.721 273H461.91V268.857C461.91 267.627 462.642 266.82 463.824 266.82C464.938 266.82 465.506 267.497 465.506 268.625V273H466.695V268.406C466.695 266.82 465.752 265.768 464.193 265.768C463.113 265.768 462.334 266.232 461.938 267.025H461.91V263.136H460.721V273ZM472.923 270.963C472.725 271.633 472.062 272.091 471.159 272.091C469.881 272.091 469.081 271.195 469.081 269.835V269.767H474.181V269.315C474.181 267.162 472.998 265.768 471.077 265.768C469.115 265.768 467.857 267.265 467.857 269.473C467.857 271.708 469.095 273.123 471.132 273.123C472.684 273.123 473.887 272.207 474.092 270.963H472.923ZM471.057 266.8C472.178 266.8 472.923 267.647 472.95 268.837H469.088C469.163 267.654 469.942 266.8 471.057 266.8ZM475.384 273H476.573V268.816C476.573 267.613 477.305 266.82 478.426 266.82C479.52 266.82 480.06 267.449 480.06 268.598V273H481.249V268.386C481.249 266.772 480.347 265.768 478.788 265.768C477.688 265.768 476.929 266.26 476.532 267.025H476.505V265.891H475.384V273ZM483.149 264.175V265.891H482.09V266.868H483.149V271.154C483.149 272.521 483.655 273.055 484.961 273.055C485.241 273.055 485.569 273.034 485.713 273V272.002C485.631 272.016 485.357 272.036 485.221 272.036C484.612 272.036 484.339 271.742 484.339 271.093V266.868H485.72V265.891H484.339V264.175H483.149ZM487.647 264.626C488.064 264.626 488.393 264.291 488.393 263.881C488.393 263.464 488.064 263.136 487.647 263.136C487.237 263.136 486.902 263.464 486.902 263.881C486.902 264.291 487.237 264.626 487.647 264.626ZM487.053 273H488.242V265.891H487.053V273ZM495.755 268.222C495.604 266.943 494.545 265.768 492.768 265.768C490.806 265.768 489.5 267.203 489.5 269.445C489.5 271.735 490.812 273.123 492.781 273.123C494.395 273.123 495.584 272.125 495.769 270.71H494.6C494.395 271.564 493.759 272.077 492.788 272.077C491.558 272.077 490.71 271.1 490.71 269.445C490.71 267.832 491.544 266.813 492.774 266.813C493.82 266.813 494.422 267.449 494.593 268.222H495.755ZM498.94 273.123C499.897 273.123 500.8 272.59 501.224 271.776H501.251V273H502.379V268.085C502.379 266.67 501.326 265.768 499.658 265.768C497.977 265.768 496.924 266.711 496.842 267.941H497.99C498.141 267.244 498.715 266.813 499.631 266.813C500.615 266.813 501.189 267.333 501.189 268.201V268.796L499.152 268.912C497.512 269.008 496.575 269.773 496.575 270.99C496.575 272.269 497.525 273.123 498.94 273.123ZM499.207 272.111C498.353 272.111 497.785 271.667 497.785 270.99C497.785 270.32 498.332 269.896 499.289 269.835L501.189 269.719V270.3C501.189 271.325 500.328 272.111 499.207 272.111ZM504.272 264.175V265.891H503.213V266.868H504.272V271.154C504.272 272.521 504.778 273.055 506.084 273.055C506.364 273.055 506.692 273.034 506.836 273V272.002C506.754 272.016 506.48 272.036 506.344 272.036C505.735 272.036 505.462 271.742 505.462 271.093V266.868H506.843V265.891H505.462V264.175H504.272ZM512.626 270.963C512.428 271.633 511.765 272.091 510.862 272.091C509.584 272.091 508.784 271.195 508.784 269.835V269.767H513.884V269.315C513.884 267.162 512.701 265.768 510.78 265.768C508.818 265.768 507.561 267.265 507.561 269.473C507.561 271.708 508.798 273.123 510.835 273.123C512.387 273.123 513.59 272.207 513.795 270.963H512.626ZM510.76 266.8C511.881 266.8 512.626 267.647 512.653 268.837H508.791C508.866 267.654 509.646 266.8 510.76 266.8ZM517.78 273.123C518.806 273.123 519.619 272.617 520.077 271.797H520.098V273H521.232V263.136H520.043V267.046H520.016C519.592 266.267 518.771 265.768 517.753 265.768C515.962 265.768 514.738 267.217 514.738 269.445C514.738 271.674 515.969 273.123 517.78 273.123ZM518.006 266.813C519.229 266.813 520.05 267.859 520.05 269.445C520.05 271.038 519.229 272.077 518.006 272.077C516.748 272.077 515.955 271.059 515.955 269.445C515.955 267.839 516.748 266.813 518.006 266.813ZM526.093 264.175V265.891H525.033V266.868H526.093V271.154C526.093 272.521 526.599 273.055 527.904 273.055C528.185 273.055 528.513 273.034 528.656 273V272.002C528.574 272.016 528.301 272.036 528.164 272.036C527.556 272.036 527.282 271.742 527.282 271.093V266.868H528.663V265.891H527.282V264.175H526.093ZM529.935 273H531.124V268.57C531.124 267.565 531.726 266.902 532.648 266.902C532.936 266.902 533.188 266.937 533.284 266.971V265.815C533.188 265.802 533.011 265.768 532.806 265.768C531.972 265.768 531.315 266.267 531.083 267.053H531.056V265.891H529.935V273ZM536.196 273.123C537.153 273.123 538.056 272.59 538.479 271.776H538.507V273H539.635V268.085C539.635 266.67 538.582 265.768 536.914 265.768C535.232 265.768 534.18 266.711 534.098 267.941H535.246C535.396 267.244 535.971 266.813 536.887 266.813C537.871 266.813 538.445 267.333 538.445 268.201V268.796L536.408 268.912C534.768 269.008 533.831 269.773 533.831 270.99C533.831 272.269 534.781 273.123 536.196 273.123ZM536.463 272.111C535.608 272.111 535.041 271.667 535.041 270.99C535.041 270.32 535.588 269.896 536.545 269.835L538.445 269.719V270.3C538.445 271.325 537.584 272.111 536.463 272.111ZM541.528 273H542.718V266.868H544.167V265.891H542.711V265.104C542.711 264.4 543.019 264.059 543.661 264.059C543.859 264.059 544.058 264.079 544.201 264.1V263.136C544.03 263.108 543.743 263.081 543.477 263.081C542.164 263.081 541.528 263.73 541.528 265.098V265.891H540.537V266.868H541.528V273ZM545.78 273H546.97V266.868H548.419V265.891H546.963V265.104C546.963 264.4 547.271 264.059 547.913 264.059C548.111 264.059 548.31 264.079 548.453 264.1V263.136C548.282 263.108 547.995 263.081 547.729 263.081C546.416 263.081 545.78 263.73 545.78 265.098V265.891H544.789V266.868H545.78V273ZM550.306 264.626C550.723 264.626 551.051 264.291 551.051 263.881C551.051 263.464 550.723 263.136 550.306 263.136C549.896 263.136 549.561 263.464 549.561 263.881C549.561 264.291 549.896 264.626 550.306 264.626ZM549.711 273H550.9V265.891H549.711V273ZM558.413 268.222C558.263 266.943 557.203 265.768 555.426 265.768C553.464 265.768 552.158 267.203 552.158 269.445C552.158 271.735 553.471 273.123 555.439 273.123C557.053 273.123 558.242 272.125 558.427 270.71H557.258C557.053 271.564 556.417 272.077 555.446 272.077C554.216 272.077 553.368 271.1 553.368 269.445C553.368 267.832 554.202 266.813 555.433 266.813C556.479 266.813 557.08 267.449 557.251 268.222H558.413Z" fill="#007D79"/>
<path d="M959.707 249.707C960.098 249.317 960.098 248.683 959.707 248.293L953.343 241.929C952.953 241.538 952.319 241.538 951.929 241.929C951.538 242.319 951.538 242.953 951.929 243.343L957.586 249L951.929 254.657C951.538 255.047 951.538 255.681 951.929 256.071C952.319 256.462 952.953 256.462 953.343 256.071L959.707 249.707ZM41 250H959V248H41V250Z" fill="#00BAB6"/>
<circle cx="347" cy="182" r="10" fill="#FDD13A"/>
<circle cx="654" cy="182" r="10" fill="#FDD13A"/>
</svg>
