<svg id="namespace-mulit-tenant" xmlns="http://www.w3.org/2000/svg" width="1050" height="505" viewBox="0 0 1070 505">
  <defs>
    <style>
      @import url('https://fonts.googleapis.com/css?family=Open+Sans');
      .cls-1 {
	    fill: #e8e8e8
      }
      .cls-2,
      .cls-4 {
	    isolation: isolate;
	    font-size: 13.63px;
	    font-family: &apos;Open Sans&apos;, sans-serif;
      }
      .cls-3 {
	    fill: #6ea6ff
      }
      .cls-4 {
	    fill: #231f20
      }
      .cls-5 {
	    fill: #0530ad
      }
      .cls-6 {
	    fill: #fff
      }
      .cls-7 {
	    fill: #c9deff
      }
      .cls-14,
      .cls-16,
      .cls-8 {
	    fill: none
      }
      .cls-8 {
	    stroke: #e8e8e8
      }
      .cls-12,
      .cls-14,
      .cls-16,
      .cls-18,
      .cls-19,
      .cls-8,
      .cls-9 {
	    stroke-linecap: round;
	    stroke-linejoin: round
      }
      .cls-12,
      .cls-13,
      .cls-14,
      .cls-18,
      .cls-19,
      .cls-8 {
	    stroke-width: 3.03px
      }
      .cls-17,
      .cls-9 {
	    fill: #585959
      }
      .cls-16,
      .cls-9 {
	    stroke: #585959;
	    stroke-width: 2.27px
      }
      .cls-10 {
	    fill: #424a60
      }
      .cls-11 {
	    fill: #b3bcf5
      }
      .cls-12,
      .cls-13,
      .cls-15,
      .cls-18,
      .cls-19 {
	    fill: #3dbb61
      }
      .cls-12,
      .cls-13,
      .cls-14,
      .cls-18,
      .cls-19 {
	    stroke: #3dbb61
      }
      .cls-13 {
	    stroke-miterlimit: 7.57
      }
      .cls-14 {
	    stroke-dasharray: 4.54 4.34
      }
      .cls-18 {
	    stroke-dasharray: 4.49 4.49
      }
      .cls-19 {
	    stroke-dasharray: 4.74 4.74
      }
    </style>
  </defs>
  <path class="cls-1" d="M343.58 243.1h171.01v142.54H343.58zM446.51 0h167.3v73.43h-167.3zM135.02 243.1h171.01v142.54H135.02z"/>
  <text class="cls-2" transform="translate(510.47 22.29)">
    /acme
  </text>
  <text class="cls-2" transform="translate(379.39 266.5)">
    /acme/team-a/prod
  </text>
  <text class="cls-2" transform="translate(147.98 266.5)">
    /acme/team-a/dev
  </text>
  <path class="cls-3" d="M147.21 283.37h147.62v25.82H147.21z"/>
  <text class="cls-4" transform="translate(202.61 300.27)">
    policy
  </text>
  <path class="cls-5" d="M21.35 137.71h30.28v28.92H21.35z"/>
  <path class="cls-6" d="M36.34 146.79a1.52 1.52 0 11-1.52 1.52 1.52 1.52 0 011.52-1.52zm0 7.57c2 0 4.39 1 4.54 1.52H31.8c.2-.53 2.49-1.52 4.54-1.52zm0-9.08a3 3 0 103 3 3 3 0 00-3-3zm0 7.57c-2.05 0-6.06 1-6.06 3v1.51h12.11v-1.51c0-2.02-4.08-3-6.05-3z"/>
  <text class="cls-2" transform="translate(2.95 183.7)">
    operator a
  </text>
  <path class="cls-5" d="M22.27 301h30.28v28.91H22.27z"/>
  <path class="cls-6" d="M37.26 310.09a1.52 1.52 0 11-1.52 1.51 1.52 1.52 0 011.52-1.51zm0 7.57c2 0 4.39 1 4.54 1.51h-9.08c.15-.53 2.49-1.51 4.54-1.51zm0-9.08a3 3 0 103 3 3 3 0 00-3-3zm0 7.57c-2 0-6.06 1-6.06 3v1.52h12.11v-1.52c0-1.94-4.08-3-6.05-3z"/>
  <text class="cls-2" transform="translate(0 348.6)">
    developer a
  </text>
  <path class="cls-7" d="M376.36 476.71c14.83 0 26.87-7 26.87-15.52 0-7.34-8.86-13.55-20.74-15.14-.23-15.59-22.18-28.16-49.21-28.16-18.54 0-34.67 5.91-43.07 14.69a36.09 36.09 0 00-8.33-1c-10.67 0-19.45 4.61-20.74 10.52-13.85 1.59-24.3 8.63-24.3 17.11 0 9.61 13.55 17.41 30.21 17.41 4.61.07 106.13.07 109.31.07z"/>
  <text class="cls-2" transform="translate(303.31 458.1)">
    internet
  </text>
  <path class="cls-8" d="M325.17 60.17h154.5M325.17 61.17l-.07 66.01"/>
  <path class="cls-9" d="M530.01 61.92l-.08 34.37M375.7 97.5h324"/>
  <path class="cls-8" d="M738.02 60.17l-.07 65.59M582.92 60.17H738"/>
  <path class="cls-10" d="M206.71 445.15c-.91-3.11-13.85-5.61-29.67-5.61s-28.85 2.5-29.68 5.61h-.07v26h.07c.91 3.1 13.86 5.6 29.68 5.6s28.84-2.5 29.67-5.6h.08v-25.63z"/>
  <path class="cls-11" d="M177 468.31c-16.43 0-29.82-2.65-29.82-5.9v8.78h.07c.91 3.1 13.85 5.6 29.68 5.6s28.84-2.5 29.67-5.6h.08v-8.78c.07 3.18-13.25 5.9-29.68 5.9zm29.71-6.31a.66.66 0 01.08.38z"/>
  <path class="cls-11" d="M177 459.91c-16.43 0-29.82-2.65-29.82-5.91v8.78h.07c.91 3.11 13.85 5.61 29.68 5.61s28.84-2.5 29.67-5.61h.08V454c.07 3.18-13.25 5.91-29.68 5.91zm-29.75-6.36h59.5a.66.66 0 01.08.38z"/>
  <ellipse class="cls-7" cx="176.96" cy="445.52" rx="29.83" ry="5.9"/>
  <path class="cls-11" d="M177 451.5c-16.43 0-29.82-2.64-29.82-5.9v8.78h.07c.91 3.11 13.85 5.6 29.68 5.6s28.84-2.49 29.67-5.6h.08v-8.78c.07 3.18-13.25 5.9-29.68 5.9zm-29.75-6.35h59.5a.62.62 0 01.08.37z"/>
  <path class="cls-12" d="M119.73 315.89H122"/>
  <path class="cls-13" d="M120.34 321.49l9.84-5.6-9.84-5.68z"/>
  <path class="cls-11" d="M222.79 321h68.13v55h-68.13v-55z"/>
  <text class="cls-4" transform="translate(237.02 345.49)">
    web
  </text>
  <text class="cls-4" transform="translate(237.02 361.84)">
    server
  </text>
  <path class="cls-11" d="M147 321h68.13v55H147v-55z"/>
  <text class="cls-4" transform="translate(153.5 345.49)">
    backend
  </text>
  <text class="cls-4" transform="translate(153.5 361.84)">
    app
  </text>
  <path class="cls-11" d="M434.8 321h68.13v55.03H434.8V321zM356.83 321h68.13v55.03h-68.13V321z"/>
  <text class="cls-4" transform="translate(442.94 344.8)">
    backend
  </text>
  <text class="cls-4" transform="translate(442.94 361.16)">
    app
  </text>
  <text class="cls-4" transform="translate(367.7 344.8)">
    web
  </text>
  <text class="cls-4" transform="translate(367.7 361.16)">
    server
  </text>
  <path class="cls-3" d="M356.83 283.37h147.61v25.82H356.83z"/>
  <text class="cls-4" transform="translate(409.12 300.53)">
    policy
  </text>
  <path class="cls-3" d="M456.13 36.11h147.61v25.81H456.13z"/>
  <text class="cls-4" transform="translate(511.52 53.26)">
    policy
  </text>
  <path class="cls-14" d="M173.93 390v36.6"/>
  <path class="cls-15" d="M166.36 392.23l7.57-13 7.57 13zm0 32.1l7.57 13.09 7.57-13.09z"/>
  <path class="cls-14" d="M481.66 390v36.6"/>
  <path class="cls-15" d="M474.09 392.23l7.57-13 7.57 13zm0 32.1l7.57 13.09 7.57-13.09z"/>
  <path class="cls-14" d="M386.2 390v36.6"/>
  <path class="cls-15" d="M378.63 392.23l7.57-13 7.57 13zm0 32.1l7.57 13.09 7.57-13.09z"/>
  <path class="cls-1" d="M242.06 124.39h167.3v73.43h-167.3z"/>
  <text class="cls-2" transform="translate(253.98 146.95)">
    /acme/team-a
  </text>
  <path class="cls-1" d="M656.68 124.92h167.3v73.43h-167.3z"/>
  <text class="cls-2" transform="translate(722.6 146.95)">
    /acme/team-b
  </text>
  <path class="cls-1" d="M757.73 242.8h171.01v142.54H757.73zM549.17 242.8h171.01v142.54H549.17z"/>
  <text class="cls-2" transform="translate(561.13 266.5)">
    /acme/team-b/prod
  </text>
  <text class="cls-2" transform="translate(799.27 266.5)">
    /acme/team-b/dev
  </text>
  <path class="cls-3" d="M561.36 283.07H709v25.81H561.36z"/>
  <text class="cls-4" transform="translate(613.67 300.22)">
    policy
  </text>
  <path class="cls-7" d="M790.51 476.41c14.83 0 26.87-7 26.87-15.52 0-7.34-8.86-13.55-20.74-15.14-.23-15.59-22.18-28.16-49.21-28.16-18.54 0-34.67 5.91-43.07 14.69a36.22 36.22 0 00-8.33-1c-10.67 0-19.45 4.62-20.74 10.52-13.85 1.59-24.3 8.63-24.3 17.11 0 9.62 13.55 17.41 30.2 17.41 4.62.08 106.14.08 109.32.08z"/>
  <text class="cls-2" transform="translate(717.46 457.79)">
    internet
  </text>
  <path class="cls-10" d="M620.86 444.84c-.91-3.1-13.85-5.6-29.67-5.6s-28.85 2.5-29.68 5.6h-.07v26h.07c.91 3.11 13.85 5.61 29.68 5.61s28.84-2.5 29.67-5.61h.08v-25.62z"/>
  <path class="cls-11" d="M591.11 468c-16.43 0-29.83-2.65-29.83-5.91v8.78h.08c.91 3.11 13.85 5.61 29.67 5.61s28.85-2.5 29.68-5.61h.07v-8.77c.08 3.18-13.24 5.91-29.67 5.91zm-29.75-6.36h59.5a.66.66 0 01.08.38z"/>
  <path class="cls-11" d="M591.11 459.6c-16.43 0-29.83-2.64-29.83-5.9v8.78h.08c.91 3.11 13.85 5.6 29.67 5.6s28.85-2.49 29.68-5.6h.07v-8.78c.08 3.18-13.24 5.9-29.67 5.9zm-29.75-6.35h59.5a.62.62 0 01.08.37z"/>
  <ellipse class="cls-7" cx="591.11" cy="445.22" rx="29.83" ry="5.9"/>
  <path class="cls-11" d="M591.11 451.2c-16.43 0-29.83-2.65-29.83-5.9v8.78h.08c.91 3.1 13.85 5.6 29.67 5.6s28.85-2.5 29.68-5.6h.07v-8.78c.08 3.18-13.24 5.9-29.67 5.9zm-29.75-6.36h59.5a.66.66 0 01.08.38z"/>
  <path class="cls-10" d="M917.68 444.84c-.9-3.1-13.85-5.6-29.67-5.6s-28.84 2.5-29.68 5.6h-.07v26h.07c.91 3.11 13.86 5.61 29.68 5.61s28.84-2.5 29.67-5.61h.08v-25.62z"/>
  <path class="cls-11" d="M887.93 468c-16.42 0-29.82-2.65-29.82-5.91v8.78h.07c.91 3.11 13.86 5.61 29.68 5.61s28.84-2.5 29.67-5.61h.08v-8.77c.15 3.18-13.17 5.91-29.68 5.91zm-29.75-6.36h59.5a.66.66 0 01.08.38z"/>
  <path class="cls-11" d="M887.93 459.6c-16.42 0-29.82-2.64-29.82-5.9v8.78h.07c.91 3.11 13.86 5.6 29.68 5.6s28.84-2.49 29.67-5.6h.08v-8.78c.15 3.18-13.17 5.9-29.68 5.9zm-29.75-6.35h59.5a.62.62 0 01.08.37z"/>
  <ellipse class="cls-7" cx="887.93" cy="445.22" rx="29.83" ry="5.9"/>
  <path class="cls-11" d="M887.93 451.2c-16.42 0-29.82-2.65-29.82-5.9v8.78h.07c.91 3.1 13.86 5.6 29.68 5.6s28.84-2.5 29.67-5.6h.08v-8.78c.15 3.18-13.17 5.9-29.68 5.9zm-29.75-6.36h59.5a.66.66 0 01.08.38zM639.94 320.69h68.13v55h-68.13v-55z"/>
  <text class="cls-4" transform="translate(654.17 345.18)">
    web
  </text>
  <text class="cls-4" transform="translate(654.17 361.53)">
    server
  </text>
  <path class="cls-11" d="M561.13 320.69h68.13v55h-68.13v-55z"/>
  <text class="cls-4" transform="translate(567.65 345.18)">
    backend
  </text>
  <text class="cls-4" transform="translate(567.65 361.53)">
    app
  </text>
  <path class="cls-11" d="M849 320.69h68.13v55H849v-55zm-78 0h68.13v55H771v-55z"/>
  <text class="cls-4" transform="translate(857.09 344.5)">
    backend
  </text>
  <text class="cls-4" transform="translate(857.09 360.85)">
    app
  </text>
  <text class="cls-4" transform="translate(781.85 344.5)">
    web
  </text>
  <text class="cls-4" transform="translate(781.85 360.85)">
    server
  </text>
  <path class="cls-3" d="M771 283.07h147.59v25.81H771z"/>
  <text class="cls-4" transform="translate(823.27 300.22)">
    policy
  </text>
  <path class="cls-14" d="M588.08 389.73v36.57"/>
  <path class="cls-15" d="M580.51 391.93l7.57-13 7.57 13zm0 32.1l7.57 13.09 7.57-13.12z"/>
  <path class="cls-14" d="M895.81 389.73v36.57"/>
  <path class="cls-15" d="M888.24 391.93l7.57-13 7.57 13zm0 32.1l7.57 13.09 7.57-13.12z"/>
  <path class="cls-14" d="M671.3 389.73v36.57"/>
  <path class="cls-15" d="M663.73 391.93l7.57-13 7.57 13zm0 32.1l7.57 13.09 7.57-13.12z"/>
  <path class="cls-5" d="M1009.62 300.51h30.28v28.91h-30.28z"/>
  <path class="cls-6" d="M1024.61 309.59a1.52 1.52 0 11-1.52 1.51 1.52 1.52 0 011.52-1.51zm0 7.57c2 0 4.39 1 4.54 1.51h-9.08c.15-.53 2.49-1.51 4.54-1.51zm0-9.08a3 3 0 103 3 3 3 0 00-3-3zm0 7.57c-2 0-6.06 1-6.06 3v1.52h12.11v-1.52c0-1.94-4.08-3-6.05-3z"/>
  <text class="cls-2" transform="translate(986.97 349.1)">
    developer b
  </text>
  <path class="cls-5" d="M1009.62 137.71h30.28v28.92h-30.28z"/>
  <path class="cls-6" d="M1024.61 146.79a1.52 1.52 0 11-1.52 1.52 1.52 1.52 0 011.52-1.52zm0 7.57c2 0 4.39 1 4.54 1.52h-9.08c.15-.53 2.49-1.52 4.54-1.52zm0-9.08a3 3 0 103 3 3 3 0 00-3-3zm0 7.57c-2 0-6.06 1-6.06 3v1.51h12.11v-1.51c0-2.02-4.08-3-6.05-3z"/>
  <text class="cls-2" transform="translate(990.83 183.7)">
    operator b
  </text>
  <path class="cls-16" d="M285.23 220.84l-.08 52"/>
  <path class="cls-17" d="M279.47 271.19l5.68 9.84 5.68-9.84h-11.36z"/>
  <path class="cls-16" d="M368.35 220.84l-.08 52"/>
  <path class="cls-17" d="M362.59 271.19l5.68 9.84 5.68-9.84z"/>
  <path class="cls-9" d="M326.68 185.15l-.08 34.37M285.17 220.73h82.94"/>
  <path class="cls-8" d="M190.09 184.77h55.49M190.09 184.77l-.08 66.01"/>
  <path class="cls-16" d="M375.7 98.67l-.07 52"/>
  <path class="cls-17" d="M370 149l5.68 9.84 5.68-9.84z"/>
  <path class="cls-16" d="M699.7 98.67l-.08 52"/>
  <path class="cls-17" d="M693.94 149l5.68 9.84 5.68-9.84z"/>
  <path class="cls-13" d="M944.47 310.21l-9.84 5.6 9.84 5.68z"/>
  <path class="cls-12" d="M1004 153.29h-2"/>
  <path class="cls-18" d="M998.1 153.29l-154.5-.15"/>
  <path class="cls-12" d="M839.63 153.14h-2"/>
  <path class="cls-13" d="M839.1 147.47l-8.55 5.67 8.55 5.68z"/>
  <path class="cls-3" d="M251.9 160.5h147.62v25.82H251.9z"/>
  <text class="cls-4" transform="translate(307.3 177.66)">
    policy
  </text>
  <path class="cls-16" d="M699.85 220.84l-.08 52"/>
  <path class="cls-17" d="M694.09 271.19l5.68 9.84 5.68-9.84h-11.36z"/>
  <path class="cls-16" d="M783 220.84l-.08 52"/>
  <path class="cls-17" d="M777.22 271.19l5.67 9.84 5.68-9.84z"/>
  <path class="cls-9" d="M741.3 185.15l-.08 34.37M699.79 220.73h82.94"/>
  <path class="cls-3" d="M666.52 161h147.62v25.82H666.52z"/>
  <text class="cls-4" transform="translate(721.92 178.18)">
    policy
  </text>
  <path class="cls-8" d="M461.68 184.77l-.07 58.6M406.58 184.77h55.1M877.08 184.77l-.07 58.6M822 184.77h55.1"/>
  <path class="cls-10" d="M503.54 445.15c-.91-3.11-13.86-5.61-29.68-5.61S445 442 444.19 445.15h-.08v26h.08c.9 3.1 13.85 5.6 29.67 5.6s28.84-2.5 29.68-5.6h.07v-25.63z"/>
  <path class="cls-11" d="M473.78 459.91c-16.42 0-29.82-2.65-29.82-5.91v8.78h.04c.91 3.11 13.86 5.61 29.68 5.61s28.84-2.5 29.67-5.61h.08V454c.15 3.18-13.17 5.91-29.68 5.91zM503.51 453.55a.74.74 0 01.07.38z"/>
  <path class="cls-11" d="M473.78 468.31c-16.42 0-29.82-2.65-29.82-5.9v8.78h.04c.91 3.1 13.86 5.6 29.68 5.6s28.84-2.5 29.67-5.6h.08v-8.78c.15 3.18-13.17 5.9-29.68 5.9zM503.51 462a.74.74 0 01.07.38z"/>
  <ellipse class="cls-7" cx="473.78" cy="445.52" rx="29.83" ry="5.9"/>
  <path class="cls-11" d="M473.78 451.5c-16.42 0-29.82-2.64-29.82-5.9v8.78h.04c.91 3.11 13.86 5.6 29.68 5.6s28.84-2.49 29.67-5.6h.08v-8.78c.15 3.18-13.17 5.9-29.68 5.9zM503.51 445.15a.7.7 0 01.07.37z"/>
  <path class="cls-8" d="M603.97 184.77h55.49M603.97 184.77l-.08 66.01"/>
  <path class="cls-12" d="M226.52 153.14h2"/>
  <path class="cls-13" d="M227.05 158.82l8.55-5.68-8.55-5.67z"/>
  <path class="cls-12" d="M63.14 153h2"/>
  <path class="cls-18" d="M69.05 153l154.5.15"/>
  <path class="cls-12" d="M56.34 153.07h2M997.43 315.89h-2.27"/>
  <path class="cls-19" d="M990.47 315.89l-45-.08"/>
  <path class="cls-12" d="M945.08 315.81h-2.27M1002 315.85h2M110.47 315.89h-2.27"/>
  <path class="cls-19" d="M103.51 315.89l-45-.08"/>
  <path class="cls-12" d="M58.12 315.81h-2.27M115.07 315.85h2"/>
</svg>
