<svg xmlns="http://www.w3.org/2000/svg" viewBox="0 0 1220.05 406.99">
  <defs>
    <style>
      @import url('https://fonts.googleapis.com/css?family=Montserrat|Montserrat:600');
      .b {
        fill: none;
        stroke: #000;
        stroke-linecap: round;
        stroke-linejoin: round;
        stroke-width: 4px
      }
      .c {
        fill: #006fcc
      }
      .d,
      .h {
        isolation: isolate;
        font-family: Montserrat-SemiBold, Montserrat, Helvetica, Arial, sans-serif;
        font-weight: 600
      }
      .d {
        font-size: 18px;
        fill: #fff
      }
      .f {
        fill: #54bee4
      }
      .g,
      .h {
        fill: #050505
      }
      .h {
        font-size: 13px
      }
    </style>
  </defs>
  <path fill="#f0f4f7" d="M295.58 189.51h324.48v217.48H295.58z"/>
  <path class="b" d="M448.64 214.78L365.5 104.87"/>
  <path d="M373.27 101.92l-14.7-6.21 1.97 15.83 12.73-9.62z"/>
  <path class="c" d="M135.56 376.21H45.19L0 297.94l45.19-78.26h90.37l45.18 78.26-45.18 78.27z"/>
  <path class="b" d="M101.12 225.32l93.6-121.52"/>
  <path d="M199.62 110.52l2.11-15.81-14.75 6.08 12.64 9.73z"/>
  <path class="b" d="M182.25 81.91L84.83 209.33"/>
  <path d="M79.91 202.63l-2.06 15.82 14.73-6.13-12.67-9.69z"/>
  <text class="d" transform="translate(68.19 344.94)">
    host
  </text>
  <path class="f" d="M53.69 223.22h69.93v74H53.69z"/>
  <path class="g" d="M88.72 229.25l11.81 5.29v7.87a16.31 16.31 0 01-3.38 10 14.66 14.66 0 01-8.43 5.75 14.64 14.64 0 01-8.42-5.75 16.24 16.24 0 01-3.38-10v-7.87zm0 14.45v11.75a12.62 12.62 0 006.15-4.4 14.53 14.53 0 003-7.35zm0 0v-11.56l-9.16 4.06v7.5z"/>
  <text class="h" transform="translate(60.72 275.64)">
    enforcer<tspan x="4.58" y="15.6">se</tspan><tspan x="19.36" y="15.6" letter-spacing=".02em">r</tspan><tspan x="25.01" y="15.6">vi</tspan><tspan x="36.28" y="15.6" letter-spacing="-.01em">c</tspan><tspan x="43.73" y="15.6">e</tspan>
  </text>
  <path class="f" d="M408.86 193.78h93v76.85h-93z"/>
  <path class="g" d="M454.72 199.81l11.81 5.29v7.9a16.31 16.31 0 01-3.38 10 14.74 14.74 0 01-8.43 5.75 14.68 14.68 0 01-8.42-5.75 16.25 16.25 0 01-3.39-10v-7.9zm0 14.45V226a12.54 12.54 0 006.15-4.39 14.6 14.6 0 003-7.35zm0 0V202.7l-9.16 4.06v7.5z"/>
  <text class="h" transform="translate(426.72 246.2)">
    enforcer<tspan x="-11.6" y="15.6">D</tspan><tspan x="-.86" y="15.6" letter-spacing="0">a</tspan><tspan x="7.09" y="15.6">e</tspan><tspan x="15.18" y="15.6" letter-spacing="0">m</tspan><tspan x="28.93" y="15.6" letter-spacing="0">onSet</tspan>
  </text>
  <path class="c" d="M375.41 387.01h-47.69l-23.84-41.3 23.84-41.3h47.69l23.85 41.3-23.85 41.3z"/>
  <text class="d" transform="translate(335.81 352.44)">
    pod
  </text>
  <path class="c" d="M483.41 386.06h-47.69l-23.85-41.31 23.85-41.3h47.69l23.84 41.3-23.84 41.31z"/>
  <text class="d" transform="translate(443.8 351.48)">
    pod
  </text>
  <path class="c" d="M589 385.36h-47.69l-23.84-41.3 23.84-41.31H589l23.85 41.31-23.85 41.3z"/>
  <text class="d" transform="translate(549.4 350.78)">
    pod
  </text>
  <text class="h" transform="translate(66.54 124.67)">
    network<tspan x="1.55" y="15.6">rulesets</tspan>
  </text>
  <text class="h" transform="translate(164.47 176.92)">
    flow &amp;<tspan x="-9.72" y="15.6">DNS logs</tspan>
  </text>
  <path class="b" d="M382.57 85.88l75.66 97.03"/>
  <path d="M450.5 185.98l14.79 5.99-2.2-15.8-12.59 9.81z"/>
  <path class="f" d="M160.4 0h250.35v90.39H160.4z"/>
  <text transform="translate(219.6 41.2)" style="isolation:isolate" font-size="13" font-family="Montserrat-SemiBold,Montserrat" font-weight="600">
    Microsegmentation<tspan x="39.27" y="15.6" letter-spacing="-.02em">C</tspan><tspan x="48.46" y="15.6">onsole</tspan>
  </text>
  <text class="h" transform="translate(337.94 149.15)">
    flow &amp;<tspan x="-9.72" y="15.6">DNS logs</tspan>
  </text>
  <text class="h" transform="translate(429.38 119.78)">
    network<tspan x="1.55" y="15.6">rulesets</tspan>
  </text>
</svg>
