<svg xmlns="http://www.w3.org/2000/svg" width="1090" height="350" viewBox="0 0 1050 330">
  <defs>
    <style>
      @import url('https://fonts.googleapis.com/css?family=Montserrat|Montserrat:700');
      .a {
        fill: #f0f4f7 !important;
      }
      .b,
      .d {
        font-size: 12px;
      }
      .b {
        font-family: Montserrat, Helvetica, Arial, sans-serif; 
        font-weight: 700;
      }
      .c {
        fill: #dfe5eb;
      }
      .d {
        fill: #000102;
        font-family: Montserrat, Helvetica, Arial, sans-serif; 
        font-weight: 600;
      }
      .e,
      .h {
        fill: none;
        stroke-width: 2px;
        animation: dash 5s linear reverse infinite;
        stroke-dasharray: 6 9;
      }
      @keyframes dash {
        to {
          stroke-dashoffset: 30;
        }
      }
      .e {
        stroke: #1db846;
      }
      .e,
      .h {
        stroke-miterlimit: 10;
      }
      .f {
        fill: #1db846;
      }
      .g {
        fill: #ac1818;
      }
      .h {
        stroke: #ac1818;
      }
      .border-override {
        stroke: #000; 
        stroke-miterlimit: 10;
        stroke-width: 2px;
        fill: #f0f4f7;
      }
    </style>
  </defs>
  <path class="a" d="M47.99 164.74L.58 82.62 47.99.5h94.82l47.42 82.12-47.42 82.12H47.99z"/>
  <path d="M142.53 1l47.12 81.62-47.12 81.62H48.28L1.15 82.62 48.28 1h94.25m.57-1H47.7L0 82.62l47.7 82.62h95.4l47.7-82.62L143.1 0z"/>
  <text class="b" transform="translate(84.26 17.33)">
    pod
  </text>
  <path class="c" d="M61.32 76.3h68.16v70.54H61.32z"/>
  <path d="M129 76.8v69.54H61.82V76.8H129m1-1H60.82v71.54H130V75.8z"/>
  <text class="d" transform="translate(71.16 115.45)">
    enforcer
  </text>
  <path class="e" d="M112.05 28.71v39.22"/>
  <path class="f" d="M116.91 67.28h-9.72l4.86 4.86 4.86-4.86z"/>
  <path class="g" d="M76.62 72v-2.37l3.28-1.94-3.28-2v-2.32l5 3.32 5.18-3.46v2.36l-3.38 2.1 3.38 2.08v2.37l-5.18-3.36z"/>
  <path class="h" d="M81.52 27.72v38.79"/>
  <path class="e" d="M96.79 72.14V32.46"/>
  <path class="f" d="M91.93 33.12h9.72l-4.86-4.86-4.86 4.86z"/>
  <path class="border-override" d="M170.84 203.99h136.85v123.52H170.84z"/>
  <text class="b" transform="translate(210.15 263.47)">
    external<tspan x="-.1" y="14.4">network</tspan>
  </text>
  <path class="a" d="M327.43 164.74l-47.41-82.12L327.43.5h94.83l47.41 82.12-47.41 82.12h-94.83z"/>
  <path d="M422 1l47.12 81.62L422 164.24h-94.28L280.6 82.62 327.72 1H422m.58-1h-95.44l-47.7 82.62 47.7 82.62h95.41l47.7-82.62L422.55 0z"/>
  <path class="c" d="M340.77 76.3h68.16v70.54h-68.16z"/>
  <path d="M408.42 76.8v69.54h-67.15V76.8h67.15m1-1h-69.15v71.54h69.15V75.8z"/>
  <text class="d" transform="translate(350.6 115.45)">
    enforcer
  </text>
  <path class="e" d="M376.23 26.75v39.76"/>
  <path class="f" d="M381.09 65.86h-9.72l4.86 4.85 4.86-4.85z"/>
  <path class="g" d="M386.43 70.57v-2.36l3.28-1.95-3.28-2v-2.32l5 3.32 5.17-3.45v2.35l-3.37 2.1 3.37 2.09v2.36l-5.17-3.35z"/>
  <path class="h" d="M391.42 26.66v37.05"/>
  <path class="e" d="M361.04 70.71V30.77"/>
  <path class="f" d="M356.18 31.42h9.72l-4.86-4.86-4.86 4.86z"/>
  <path class="e" d="M337.22 101.22H137.97"/>
  <path class="f" d="M138.63 106.08v-9.72l-4.86 4.86 4.86 4.86z"/>
  <path class="e" d="M134.6 84.75h199.05"/>
  <path class="f" d="M333 79.89v9.72l4.86-4.86-4.86-4.86z"/>
  <path class="g" d="M337.51 122.9h-2.37l-1.94-3.27-2 3.27h-2.36l3.32-5-3.45-5.17h2.35l2.1 3.37 2.09-3.37h2.36l-3.35 5.17z"/>
  <path class="h" d="M134.05 117.69h198.1"/>
  <path class="g" d="M133.56 129.26h2.36l2 3.28 1.95-3.28h2.37l-3.32 5 3.45 5.18H140l-2.13-3.44-2.09 3.38h-2.37l3.36-5.18z"/>
  <path class="h" d="M336.67 134.16H138.78"/>
  <path class="g" d="M396.56 151.29v2.36l-3.27 1.95 3.27 2v2.36l-5-3.32-5.17 3.45v-2.39l3.37-2.1-3.37-2.09v-2.36l5.17 3.35z"/>
  <path class="h" d="M391.57 262.08V156.37"/>
  <path class="e" d="M361.04 232.98v-78.63"/>
  <path class="f" d="M356.18 155h9.72l-4.86-4.85-4.86 4.85z"/>
  <path class="e" d="M310.81 239.85h51.28"/>
  <path class="h" d="M311.71 271.06h81.65"/>
  <text class="b" transform="translate(362.09 17.33)">
    host
  </text>
  <path class="g" d="M86.76 149.71v2.36l-3.28 2 3.28 2v2.36l-5-3.32-5.17 3.45v-2.35L80 154l-3.37-2.09v-2.36l5.17 3.36z"/>
  <path class="h" d="M81.85 271.85V154.93"/>
  <path class="e" d="M96.79 256.25V154.08"/>
  <path class="f" d="M91.93 154.73h9.72l-4.86-4.86-4.86 4.86z"/>
  <path class="e" d="M167.85 255.46H94.89"/>
  <path class="h" d="M168.18 271.06H83.82"/>
  <path class="e" d="M376.23 152.15v101.7M112.05 150.35v86.67M110.82 239.85h53.07"/>
  <path class="f" d="M163.24 234.99v9.72l4.86-4.86-4.86-4.86z"/>
  <path class="e" d="M377 255.46h-62.24"/>
  <path class="f" d="M315.42 260.32v-9.72l-4.86 4.86 4.86 4.86z"/>
</svg>
