<svg width="1000" height="452" viewBox="0 0 1000 452" fill="none" xmlns="http://www.w3.org/2000/svg">
<rect width="1000" height="452" fill="white"/>
<rect x="200.5" y="72.5" width="759" height="339" stroke="#D5D9E0"/>
<rect x="300.5" y="172.5" width="659" height="239" stroke="#D5D9E0"/>
<rect x="400.5" y="272.5" width="559" height="139" stroke="#D5D9E0"/>
<path d="M217.531 108.398L221.523 94.7266H220.359L216.367 108.398H217.531ZM224.781 106.141C225.875 106.141 226.906 105.531 227.391 104.602H227.422V106H228.711V100.383C228.711 98.7656 227.508 97.7344 225.602 97.7344C223.68 97.7344 222.477 98.8125 222.383 100.219H223.695C223.867 99.4219 224.523 98.9297 225.57 98.9297C226.695 98.9297 227.352 99.5234 227.352 100.516V101.195L225.023 101.328C223.148 101.438 222.078 102.312 222.078 103.703C222.078 105.164 223.164 106.141 224.781 106.141ZM225.086 104.984C224.109 104.984 223.461 104.477 223.461 103.703C223.461 102.938 224.086 102.453 225.18 102.383L227.352 102.25V102.914C227.352 104.086 226.367 104.984 225.086 104.984ZM237.188 100.539C237.016 99.0781 235.805 97.7344 233.773 97.7344C231.531 97.7344 230.039 99.375 230.039 101.938C230.039 104.555 231.539 106.141 233.789 106.141C235.633 106.141 236.992 105 237.203 103.383H235.867C235.633 104.359 234.906 104.945 233.797 104.945C232.391 104.945 231.422 103.828 231.422 101.938C231.422 100.094 232.375 98.9297 233.781 98.9297C234.977 98.9297 235.664 99.6562 235.859 100.539H237.188ZM238.453 106H239.812V100.906C239.812 99.7812 240.594 98.9375 241.672 98.9375C242.68 98.9375 243.336 99.5781 243.336 100.555V106H244.695V100.836C244.695 99.7344 245.453 98.9375 246.531 98.9375C247.602 98.9375 248.219 99.5938 248.219 100.703V106H249.578V100.391C249.578 98.7812 248.539 97.7344 246.93 97.7344C245.789 97.7344 244.836 98.3125 244.383 99.2812H244.352C244 98.2969 243.18 97.7344 242.07 97.7344C240.977 97.7344 240.148 98.3125 239.766 99.1719H239.734V97.875H238.453V106ZM256.703 103.672C256.477 104.438 255.719 104.961 254.688 104.961C253.227 104.961 252.312 103.938 252.312 102.383V102.305H258.141V101.789C258.141 99.3281 256.789 97.7344 254.594 97.7344C252.352 97.7344 250.914 99.4453 250.914 101.969C250.914 104.523 252.328 106.141 254.656 106.141C256.43 106.141 257.805 105.094 258.039 103.672H256.703ZM254.57 98.9141C255.852 98.9141 256.703 99.8828 256.734 101.242H252.32C252.406 99.8906 253.297 98.9141 254.57 98.9141Z" fill="#13171A"/>
<path d="M317.602 208.398L321.594 194.727H320.43L316.438 208.398H317.602ZM324.852 206.141C325.945 206.141 326.977 205.531 327.461 204.602H327.492V206H328.781V200.383C328.781 198.766 327.578 197.734 325.672 197.734C323.75 197.734 322.547 198.812 322.453 200.219H323.766C323.938 199.422 324.594 198.93 325.641 198.93C326.766 198.93 327.422 199.523 327.422 200.516V201.195L325.094 201.328C323.219 201.438 322.148 202.312 322.148 203.703C322.148 205.164 323.234 206.141 324.852 206.141ZM325.156 204.984C324.18 204.984 323.531 204.477 323.531 203.703C323.531 202.938 324.156 202.453 325.25 202.383L327.422 202.25V202.914C327.422 204.086 326.438 204.984 325.156 204.984ZM337.258 200.539C337.086 199.078 335.875 197.734 333.844 197.734C331.602 197.734 330.109 199.375 330.109 201.938C330.109 204.555 331.609 206.141 333.859 206.141C335.703 206.141 337.062 205 337.273 203.383H335.938C335.703 204.359 334.977 204.945 333.867 204.945C332.461 204.945 331.492 203.828 331.492 201.938C331.492 200.094 332.445 198.93 333.852 198.93C335.047 198.93 335.734 199.656 335.93 200.539H337.258ZM338.523 206H339.883V200.906C339.883 199.781 340.664 198.938 341.742 198.938C342.75 198.938 343.406 199.578 343.406 200.555V206H344.766V200.836C344.766 199.734 345.523 198.938 346.602 198.938C347.672 198.938 348.289 199.594 348.289 200.703V206H349.648V200.391C349.648 198.781 348.609 197.734 347 197.734C345.859 197.734 344.906 198.312 344.453 199.281H344.422C344.07 198.297 343.25 197.734 342.141 197.734C341.047 197.734 340.219 198.312 339.836 199.172H339.805V197.875H338.523V206ZM356.773 203.672C356.547 204.438 355.789 204.961 354.758 204.961C353.297 204.961 352.383 203.938 352.383 202.383V202.305H358.211V201.789C358.211 199.328 356.859 197.734 354.664 197.734C352.422 197.734 350.984 199.445 350.984 201.969C350.984 204.523 352.398 206.141 354.727 206.141C356.5 206.141 357.875 205.094 358.109 203.672H356.773ZM354.641 198.914C355.922 198.914 356.773 199.883 356.805 201.242H352.391C352.477 199.891 353.367 198.914 354.641 198.914ZM359.867 208.398L363.859 194.727H362.695L358.703 208.398H359.867ZM368.688 197.734C367.508 197.734 366.562 198.336 366.062 199.25H366.031V197.875H364.742V208.711H366.102V204.68H366.133C366.617 205.57 367.555 206.141 368.719 206.141C370.766 206.141 372.164 204.484 372.164 201.938C372.164 199.391 370.758 197.734 368.688 197.734ZM368.422 204.945C367.031 204.945 366.094 203.75 366.094 201.938C366.094 200.133 367.031 198.93 368.422 198.93C369.867 198.93 370.773 200.102 370.773 201.938C370.773 203.781 369.867 204.945 368.422 204.945ZM373.539 206H374.898V200.938C374.898 199.789 375.586 199.031 376.641 199.031C376.969 199.031 377.258 199.07 377.367 199.109V197.789C377.258 197.773 377.055 197.734 376.82 197.734C375.867 197.734 375.117 198.305 374.852 199.203H374.82V197.875H373.539V206ZM381.453 206.141C383.695 206.141 385.211 204.523 385.211 201.938C385.211 199.344 383.695 197.734 381.453 197.734C379.203 197.734 377.688 199.344 377.688 201.938C377.688 204.523 379.203 206.141 381.453 206.141ZM381.453 204.945C380.016 204.945 379.07 203.852 379.07 201.938C379.07 200.023 380.016 198.93 381.453 198.93C382.891 198.93 383.828 200.023 383.828 201.938C383.828 203.852 382.891 204.945 381.453 204.945ZM389.664 206.141C390.836 206.141 391.766 205.562 392.289 204.625H392.312V206H393.609V194.727H392.25V199.195H392.219C391.734 198.305 390.797 197.734 389.633 197.734C387.586 197.734 386.188 199.391 386.188 201.938C386.188 204.484 387.594 206.141 389.664 206.141ZM389.922 198.93C391.32 198.93 392.258 200.125 392.258 201.938C392.258 203.758 391.32 204.945 389.922 204.945C388.484 204.945 387.578 203.781 387.578 201.938C387.578 200.102 388.484 198.93 389.922 198.93Z" fill="#13171A"/>
<path d="M417.445 308.398L421.438 294.727H420.273L416.281 308.398H417.445ZM424.695 306.141C425.789 306.141 426.82 305.531 427.305 304.602H427.336V306H428.625V300.383C428.625 298.766 427.422 297.734 425.516 297.734C423.594 297.734 422.391 298.812 422.297 300.219H423.609C423.781 299.422 424.438 298.93 425.484 298.93C426.609 298.93 427.266 299.523 427.266 300.516V301.195L424.938 301.328C423.062 301.438 421.992 302.312 421.992 303.703C421.992 305.164 423.078 306.141 424.695 306.141ZM425 304.984C424.023 304.984 423.375 304.477 423.375 303.703C423.375 302.938 424 302.453 425.094 302.383L427.266 302.25V302.914C427.266 304.086 426.281 304.984 425 304.984ZM437.102 300.539C436.93 299.078 435.719 297.734 433.688 297.734C431.445 297.734 429.953 299.375 429.953 301.938C429.953 304.555 431.453 306.141 433.703 306.141C435.547 306.141 436.906 305 437.117 303.383H435.781C435.547 304.359 434.82 304.945 433.711 304.945C432.305 304.945 431.336 303.828 431.336 301.938C431.336 300.094 432.289 298.93 433.695 298.93C434.891 298.93 435.578 299.656 435.773 300.539H437.102ZM438.367 306H439.727V300.906C439.727 299.781 440.508 298.938 441.586 298.938C442.594 298.938 443.25 299.578 443.25 300.555V306H444.609V300.836C444.609 299.734 445.367 298.938 446.445 298.938C447.516 298.938 448.133 299.594 448.133 300.703V306H449.492V300.391C449.492 298.781 448.453 297.734 446.844 297.734C445.703 297.734 444.75 298.312 444.297 299.281H444.266C443.914 298.297 443.094 297.734 441.984 297.734C440.891 297.734 440.062 298.312 439.68 299.172H439.648V297.875H438.367V306ZM456.617 303.672C456.391 304.438 455.633 304.961 454.602 304.961C453.141 304.961 452.227 303.938 452.227 302.383V302.305H458.055V301.789C458.055 299.328 456.703 297.734 454.508 297.734C452.266 297.734 450.828 299.445 450.828 301.969C450.828 304.523 452.242 306.141 454.57 306.141C456.344 306.141 457.719 305.094 457.953 303.672H456.617ZM454.484 298.914C455.766 298.914 456.617 299.883 456.648 301.242H452.234C452.32 299.891 453.211 298.914 454.484 298.914ZM459.711 308.398L463.703 294.727H462.539L458.547 308.398H459.711ZM468.531 297.734C467.352 297.734 466.406 298.336 465.906 299.25H465.875V297.875H464.586V308.711H465.945V304.68H465.977C466.461 305.57 467.398 306.141 468.562 306.141C470.609 306.141 472.008 304.484 472.008 301.938C472.008 299.391 470.602 297.734 468.531 297.734ZM468.266 304.945C466.875 304.945 465.938 303.75 465.938 301.938C465.938 300.133 466.875 298.93 468.266 298.93C469.711 298.93 470.617 300.102 470.617 301.938C470.617 303.781 469.711 304.945 468.266 304.945ZM473.383 306H474.742V300.938C474.742 299.789 475.43 299.031 476.484 299.031C476.812 299.031 477.102 299.07 477.211 299.109V297.789C477.102 297.773 476.898 297.734 476.664 297.734C475.711 297.734 474.961 298.305 474.695 299.203H474.664V297.875H473.383V306ZM481.297 306.141C483.539 306.141 485.055 304.523 485.055 301.938C485.055 299.344 483.539 297.734 481.297 297.734C479.047 297.734 477.531 299.344 477.531 301.938C477.531 304.523 479.047 306.141 481.297 306.141ZM481.297 304.945C479.859 304.945 478.914 303.852 478.914 301.938C478.914 300.023 479.859 298.93 481.297 298.93C482.734 298.93 483.672 300.023 483.672 301.938C483.672 303.852 482.734 304.945 481.297 304.945ZM489.508 306.141C490.68 306.141 491.609 305.562 492.133 304.625H492.156V306H493.453V294.727H492.094V299.195H492.062C491.578 298.305 490.641 297.734 489.477 297.734C487.43 297.734 486.031 299.391 486.031 301.938C486.031 304.484 487.438 306.141 489.508 306.141ZM489.766 298.93C491.164 298.93 492.102 300.125 492.102 301.938C492.102 303.758 491.164 304.945 489.766 304.945C488.328 304.945 487.422 303.781 487.422 301.938C487.422 300.102 488.328 298.93 489.766 298.93ZM495.57 308.398L499.562 294.727H498.398L494.406 308.398H495.57ZM504.391 297.734C503.211 297.734 502.266 298.336 501.766 299.25H501.734V297.875H500.445V308.711H501.805V304.68H501.836C502.32 305.57 503.258 306.141 504.422 306.141C506.469 306.141 507.867 304.484 507.867 301.938C507.867 299.391 506.461 297.734 504.391 297.734ZM504.125 304.945C502.734 304.945 501.797 303.75 501.797 301.938C501.797 300.133 502.734 298.93 504.125 298.93C505.57 298.93 506.477 300.102 506.477 301.938C506.477 303.781 505.57 304.945 504.125 304.945ZM509.242 306H510.602V300.938C510.602 299.789 511.289 299.031 512.344 299.031C512.672 299.031 512.961 299.07 513.07 299.109V297.789C512.961 297.773 512.758 297.734 512.523 297.734C511.57 297.734 510.82 298.305 510.555 299.203H510.523V297.875H509.242V306ZM517.156 306.141C519.398 306.141 520.914 304.523 520.914 301.938C520.914 299.344 519.398 297.734 517.156 297.734C514.906 297.734 513.391 299.344 513.391 301.938C513.391 304.523 514.906 306.141 517.156 306.141ZM517.156 304.945C515.719 304.945 514.773 303.852 514.773 301.938C514.773 300.023 515.719 298.93 517.156 298.93C518.594 298.93 519.531 300.023 519.531 301.938C519.531 303.852 518.594 304.945 517.156 304.945ZM523.031 296.43C523.508 296.43 523.883 296.047 523.883 295.578C523.883 295.102 523.508 294.727 523.031 294.727C522.562 294.727 522.18 295.102 522.18 295.578C522.18 296.047 522.562 296.43 523.031 296.43ZM523.719 297.875H522.359V306.414C522.359 307.32 522.039 307.656 521.156 307.656H520.945V308.789C520.961 308.797 521.18 308.797 521.203 308.797C522.938 308.797 523.719 308.047 523.719 306.398V297.875ZM530.945 303.672C530.719 304.438 529.961 304.961 528.93 304.961C527.469 304.961 526.555 303.938 526.555 302.383V302.305H532.383V301.789C532.383 299.328 531.031 297.734 528.836 297.734C526.594 297.734 525.156 299.445 525.156 301.969C525.156 304.523 526.57 306.141 528.898 306.141C530.672 306.141 532.047 305.094 532.281 303.672H530.945ZM528.812 298.914C530.094 298.914 530.945 299.883 530.977 301.242H526.562C526.648 299.891 527.539 298.914 528.812 298.914ZM540.508 300.539C540.336 299.078 539.125 297.734 537.094 297.734C534.852 297.734 533.359 299.375 533.359 301.938C533.359 304.555 534.859 306.141 537.109 306.141C538.953 306.141 540.312 305 540.523 303.383H539.188C538.953 304.359 538.227 304.945 537.117 304.945C535.711 304.945 534.742 303.828 534.742 301.938C534.742 300.094 535.695 298.93 537.102 298.93C538.297 298.93 538.984 299.656 539.18 300.539H540.508ZM542.211 295.914V297.875H541V298.992H542.211V303.891C542.211 305.453 542.789 306.062 544.281 306.062C544.602 306.062 544.977 306.039 545.141 306V304.859C545.047 304.875 544.734 304.898 544.578 304.898C543.883 304.898 543.57 304.562 543.57 303.82V298.992H545.148V297.875H543.57V295.914H542.211Z" fill="#13171A"/>
<path d="M70.8359 246.164C73.2656 246.164 74.8438 244.547 74.8438 241.859C74.8438 239.18 73.25 237.547 70.8359 237.547C68.4219 237.547 66.8281 239.188 66.8281 241.859C66.8281 244.547 68.4062 246.164 70.8359 246.164ZM70.8359 244.625C69.6016 244.625 68.8047 243.625 68.8047 241.859C68.8047 240.102 69.6094 239.094 70.8359 239.094C72.0703 239.094 72.8672 240.102 72.8672 241.859C72.8672 243.625 72.0703 244.625 70.8359 244.625ZM80.6406 237.578C79.4375 237.578 78.5 238.188 78.0312 239.148H77.9922V237.719H76.0938V248.727H78.0391V244.625H78.0781C78.5312 245.555 79.4688 246.133 80.6719 246.133C82.75 246.133 84.0781 244.5 84.0781 241.859C84.0781 239.211 82.7422 237.578 80.6406 237.578ZM80.0469 244.539C78.8359 244.539 78.0312 243.484 78.0234 241.859C78.0312 240.25 78.8359 239.18 80.0469 239.18C81.3047 239.18 82.0859 240.227 82.0859 241.859C82.0859 243.5 81.3047 244.539 80.0469 244.539ZM90.8125 243.523C90.6016 244.211 89.9141 244.664 89.0078 244.664C87.7344 244.664 86.9219 243.773 86.9219 242.445V242.328H92.7109V241.695C92.7109 239.18 91.2422 237.547 88.8906 237.547C86.5 237.547 84.9844 239.273 84.9844 241.891C84.9844 244.531 86.4844 246.164 88.9688 246.164C90.9297 246.164 92.3828 245.086 92.6328 243.523H90.8125ZM88.8984 239.055C90.0156 239.055 90.7656 239.875 90.8047 241.047H86.9375C87.0156 239.891 87.8047 239.055 88.8984 239.055ZM93.9688 246H95.9141V241.18C95.9141 240.016 96.5781 239.305 97.6797 239.305C98.0078 239.305 98.3047 239.352 98.4688 239.414V237.656C98.3281 237.625 98.1094 237.578 97.8594 237.578C96.8828 237.578 96.1562 238.156 95.875 239.164H95.8359V237.719H93.9688V246ZM101.719 246.133C102.781 246.133 103.82 245.578 104.297 244.68H104.336V246H106.211V240.297C106.211 238.633 104.875 237.547 102.82 237.547C100.711 237.547 99.3906 238.656 99.3047 240.203H101.109C101.234 239.516 101.82 239.07 102.742 239.07C103.703 239.07 104.289 239.57 104.289 240.438V241.031L102.102 241.156C100.086 241.281 98.9531 242.164 98.9531 243.633C98.9531 245.125 100.117 246.133 101.719 246.133ZM102.305 244.664C101.461 244.664 100.898 244.234 100.898 243.555C100.898 242.898 101.438 242.477 102.375 242.414L104.289 242.297V242.93C104.289 243.93 103.406 244.664 102.305 244.664ZM108.32 235.781V237.719H107.133V239.219H108.32V243.797C108.32 245.406 109.023 246.039 110.812 246.039C111.227 246.039 111.609 246.008 111.82 245.961V244.477C111.695 244.5 111.445 244.516 111.266 244.516C110.578 244.516 110.266 244.203 110.266 243.523V239.219H111.828V237.719H110.266V235.781H108.32ZM116.664 246.164C119.094 246.164 120.672 244.547 120.672 241.859C120.672 239.18 119.078 237.547 116.664 237.547C114.25 237.547 112.656 239.188 112.656 241.859C112.656 244.547 114.234 246.164 116.664 246.164ZM116.664 244.625C115.43 244.625 114.633 243.625 114.633 241.859C114.633 240.102 115.438 239.094 116.664 239.094C117.898 239.094 118.695 240.102 118.695 241.859C118.695 243.625 117.898 244.625 116.664 244.625ZM121.922 246H123.867V241.18C123.867 240.016 124.531 239.305 125.633 239.305C125.961 239.305 126.258 239.352 126.422 239.414V237.656C126.281 237.625 126.062 237.578 125.812 237.578C124.836 237.578 124.109 238.156 123.828 239.164H123.789V237.719H121.922V246Z" fill="#13171A"/>
<rect x="76" y="180" width="40" height="40" fill="#0062FF"/>
<path d="M96 194C97.1 194 98 194.9 98 196C98 197.1 97.1 198 96 198C94.9 198 94 197.1 94 196C94 194.9 94.9 194 96 194ZM96 204C98.7 204 101.8 205.29 102 206H90C90.23 205.28 93.31 204 96 204ZM96 192C93.79 192 92 193.79 92 196C92 198.21 93.79 200 96 200C98.21 200 100 198.21 100 196C100 193.79 98.21 192 96 192ZM96 202C93.33 202 88 203.34 88 206V208H104V206C104 203.34 98.67 202 96 202Z" fill="white"/>
<path d="M65.1953 347.133C66.4062 347.133 67.3594 346.516 67.8125 345.586H67.8438V347H69.75V335.727H67.8047V340.109H67.7578C67.3203 339.195 66.3828 338.578 65.1953 338.578C63.1094 338.578 61.7578 340.234 61.7578 342.852C61.7578 345.484 63.1094 347.133 65.1953 347.133ZM65.7812 340.18C67.0078 340.18 67.8125 341.234 67.8125 342.859C67.8125 344.5 67.0078 345.539 65.7812 345.539C64.5234 345.539 63.75 344.508 63.75 342.859C63.75 341.219 64.5312 340.18 65.7812 340.18ZM76.8672 344.523C76.6562 345.211 75.9688 345.664 75.0625 345.664C73.7891 345.664 72.9766 344.773 72.9766 343.445V343.328H78.7656V342.695C78.7656 340.18 77.2969 338.547 74.9453 338.547C72.5547 338.547 71.0391 340.273 71.0391 342.891C71.0391 345.531 72.5391 347.164 75.0234 347.164C76.9844 347.164 78.4375 346.086 78.6875 344.523H76.8672ZM74.9531 340.055C76.0703 340.055 76.8203 340.875 76.8594 342.047H72.9922C73.0703 340.891 73.8594 340.055 74.9531 340.055ZM87.2344 338.719H85.2031L83.2812 345.195H83.2422L81.3203 338.719H79.2422L82.1797 347H84.3203L87.2344 338.719ZM93.3828 344.523C93.1719 345.211 92.4844 345.664 91.5781 345.664C90.3047 345.664 89.4922 344.773 89.4922 343.445V343.328H95.2812V342.695C95.2812 340.18 93.8125 338.547 91.4609 338.547C89.0703 338.547 87.5547 340.273 87.5547 342.891C87.5547 345.531 89.0547 347.164 91.5391 347.164C93.5 347.164 94.9531 346.086 95.2031 344.523H93.3828ZM91.4688 340.055C92.5859 340.055 93.3359 340.875 93.375 342.047H89.5078C89.5859 340.891 90.375 340.055 91.4688 340.055ZM96.5938 347H98.5391V335.727H96.5938V347ZM103.859 347.164C106.289 347.164 107.867 345.547 107.867 342.859C107.867 340.18 106.273 338.547 103.859 338.547C101.445 338.547 99.8516 340.188 99.8516 342.859C99.8516 345.547 101.43 347.164 103.859 347.164ZM103.859 345.625C102.625 345.625 101.828 344.625 101.828 342.859C101.828 341.102 102.633 340.094 103.859 340.094C105.094 340.094 105.891 341.102 105.891 342.859C105.891 344.625 105.094 345.625 103.859 345.625ZM113.664 338.578C112.461 338.578 111.523 339.188 111.055 340.148H111.016V338.719H109.117V349.727H111.062V345.625H111.102C111.555 346.555 112.492 347.133 113.695 347.133C115.773 347.133 117.102 345.5 117.102 342.859C117.102 340.211 115.766 338.578 113.664 338.578ZM113.07 345.539C111.859 345.539 111.055 344.484 111.047 342.859C111.055 341.25 111.859 340.18 113.07 340.18C114.328 340.18 115.109 341.227 115.109 342.859C115.109 344.5 114.328 345.539 113.07 345.539ZM123.836 344.523C123.625 345.211 122.938 345.664 122.031 345.664C120.758 345.664 119.945 344.773 119.945 343.445V343.328H125.734V342.695C125.734 340.18 124.266 338.547 121.914 338.547C119.523 338.547 118.008 340.273 118.008 342.891C118.008 345.531 119.508 347.164 121.992 347.164C123.953 347.164 125.406 346.086 125.656 344.523H123.836ZM121.922 340.055C123.039 340.055 123.789 340.875 123.828 342.047H119.961C120.039 340.891 120.828 340.055 121.922 340.055ZM126.992 347H128.938V342.18C128.938 341.016 129.602 340.305 130.703 340.305C131.031 340.305 131.328 340.352 131.492 340.414V338.656C131.352 338.625 131.133 338.578 130.883 338.578C129.906 338.578 129.18 339.156 128.898 340.164H128.859V338.719H126.992V347Z" fill="#13171A"/>
<rect x="76" y="281" width="40" height="40" fill="#0062FF"/>
<path d="M96 295C97.1 295 98 295.9 98 297C98 298.1 97.1 299 96 299C94.9 299 94 298.1 94 297C94 295.9 94.9 295 96 295ZM96 305C98.7 305 101.8 306.29 102 307H90C90.23 306.28 93.31 305 96 305ZM96 293C93.79 293 92 294.79 92 297C92 299.21 93.79 301 96 301C98.21 301 100 299.21 100 297C100 294.79 98.21 293 96 293ZM96 303C93.33 303 88 304.34 88 307V309H104V307C104 304.34 98.67 303 96 303Z" fill="white"/>
<rect x="904" y="88" width="40" height="40" fill="#0530AD"/>
<path d="M930 104H929V102C929 99.24 926.76 97 924 97C921.24 97 919 99.24 919 102V104H918C916.9 104 916 104.9 916 106V116C916 117.1 916.9 118 918 118H930C931.1 118 932 117.1 932 116V106C932 104.9 931.1 104 930 104ZM921 102C921 100.34 922.34 99 924 99C925.66 99 927 100.34 927 102V104H921V102ZM930 116H918V106H930V116ZM924 113C925.1 113 926 112.1 926 111C926 109.9 925.1 109 924 109C922.9 109 922 109.9 922 111C922 112.1 922.9 113 924 113Z" fill="white"/>
<rect x="904" y="288" width="40" height="40" fill="#0530AD"/>
<path d="M930 304H929V302C929 299.24 926.76 297 924 297C921.24 297 919 299.24 919 302V304H918C916.9 304 916 304.9 916 306V316C916 317.1 916.9 318 918 318H930C931.1 318 932 317.1 932 316V306C932 304.9 931.1 304 930 304ZM921 302C921 300.34 922.34 299 924 299C925.66 299 927 300.34 927 302V304H921V302ZM930 316H918V306H930V316ZM924 313C925.1 313 926 312.1 926 311C926 309.9 925.1 309 924 309C922.9 309 922 309.9 922 311C922 312.1 922.9 313 924 313Z" fill="white"/>
<rect x="904" y="188" width="40" height="40" fill="#0530AD"/>
<path d="M930 204H929V202C929 199.24 926.76 197 924 197C921.24 197 919 199.24 919 202V204H918C916.9 204 916 204.9 916 206V216C916 217.1 916.9 218 918 218H930C931.1 218 932 217.1 932 216V206C932 204.9 931.1 204 930 204ZM921 202C921 200.34 922.34 199 924 199C925.66 199 927 200.34 927 202V204H921V202ZM930 216H918V206H930V216ZM924 213C925.1 213 926 212.1 926 211C926 209.9 925.1 209 924 209C922.9 209 922 209.9 922 211C922 212.1 922.9 213 924 213Z" fill="white"/>
<rect x="856" y="288" width="40" height="40" fill="#5C6AC4"/>
<path d="M882 304H881V302C881 299.24 878.76 297 876 297C873.24 297 871 299.24 871 302V304H870C868.9 304 868 304.9 868 306V316C868 317.1 868.9 318 870 318H882C883.1 318 884 317.1 884 316V306C884 304.9 883.1 304 882 304ZM873 302C873 300.34 874.34 299 876 299C877.66 299 879 300.34 879 302V304H873V302ZM882 316H870V306H882V316ZM876 313C877.1 313 878 312.1 878 311C878 309.9 877.1 309 876 309C874.9 309 874 309.9 874 311C874 312.1 874.9 313 876 313Z" fill="white"/>
<rect x="856" y="188" width="40" height="40" fill="#5C6AC4"/>
<path d="M882 204H881V202C881 199.24 878.76 197 876 197C873.24 197 871 199.24 871 202V204H870C868.9 204 868 204.9 868 206V216C868 217.1 868.9 218 870 218H882C883.1 218 884 217.1 884 216V206C884 204.9 883.1 204 882 204ZM873 202C873 200.34 874.34 199 876 199C877.66 199 879 200.34 879 202V204H873V202ZM882 216H870V206H882V216ZM876 213C877.1 213 878 212.1 878 211C878 209.9 877.1 209 876 209C874.9 209 874 209.9 874 211C874 212.1 874.9 213 876 213Z" fill="white"/>
<rect x="808" y="288" width="40" height="40" fill="#00BAB6"/>
<path d="M834 304H833V302C833 299.24 830.76 297 828 297C825.24 297 823 299.24 823 302V304H822C820.9 304 820 304.9 820 306V316C820 317.1 820.9 318 822 318H834C835.1 318 836 317.1 836 316V306C836 304.9 835.1 304 834 304ZM825 302C825 300.34 826.34 299 828 299C829.66 299 831 300.34 831 302V304H825V302ZM834 316H822V306H834V316ZM828 313C829.1 313 830 312.1 830 311C830 309.9 829.1 309 828 309C826.9 309 826 309.9 826 311C826 312.1 826.9 313 828 313Z" fill="white"/>
<path d="M922.293 171.707C922.683 172.098 923.317 172.098 923.707 171.707L930.071 165.343C930.462 164.953 930.462 164.319 930.071 163.929C929.681 163.538 929.047 163.538 928.657 163.929L923 169.586L917.343 163.929C916.953 163.538 916.319 163.538 915.929 163.929C915.538 164.319 915.538 164.953 915.929 165.343L922.293 171.707ZM922 128V171H924V128H922Z" fill="#13171A"/>
<path d="M922.293 272.707C922.683 273.098 923.317 273.098 923.707 272.707L930.071 266.343C930.462 265.953 930.462 265.319 930.071 264.929C929.681 264.538 929.047 264.538 928.657 264.929L923 270.586L917.343 264.929C916.953 264.538 916.319 264.538 915.929 264.929C915.538 265.319 915.538 265.953 915.929 266.343L922.293 272.707ZM922 228V272H924V228H922Z" fill="#13171A"/>
<path d="M875.293 272.707C875.683 273.098 876.317 273.098 876.707 272.707L883.071 266.343C883.462 265.953 883.462 265.319 883.071 264.929C882.681 264.538 882.047 264.538 881.657 264.929L876 270.586L870.343 264.929C869.953 264.538 869.319 264.538 868.929 264.929C868.538 265.319 868.538 265.953 868.929 266.343L875.293 272.707ZM875 228V272H877V228H875Z" fill="#13171A"/>
<path d="M400.707 300.707C401.098 300.317 401.098 299.683 400.707 299.293L394.343 292.929C393.953 292.538 393.319 292.538 392.929 292.929C392.538 293.319 392.538 293.953 392.929 294.343L398.586 300L392.929 305.657C392.538 306.047 392.538 306.681 392.929 307.071C393.319 307.462 393.953 307.462 394.343 307.071L400.707 300.707ZM116 301H400V299H116V301Z" fill="#13171A"/>
<path d="M300.707 200.707C301.098 200.317 301.098 199.683 300.707 199.293L294.343 192.929C293.953 192.538 293.319 192.538 292.929 192.929C292.538 193.319 292.538 193.953 292.929 194.343L298.586 200L292.929 205.657C292.538 206.047 292.538 206.681 292.929 207.071C293.319 207.462 293.953 207.462 294.343 207.071L300.707 200.707ZM116 201H300V199H116V201Z" fill="#13171A"/>
<path d="M923.078 49.5781C921.875 49.5781 920.938 50.1875 920.469 51.1484H920.43V49.7188H918.531V60.7266H920.477V56.625H920.516C920.969 57.5547 921.906 58.1328 923.109 58.1328C925.188 58.1328 926.516 56.5 926.516 53.8594C926.516 51.2109 925.18 49.5781 923.078 49.5781ZM922.484 56.5391C921.273 56.5391 920.469 55.4844 920.461 53.8594C920.469 52.25 921.273 51.1797 922.484 51.1797C923.742 51.1797 924.523 52.2266 924.523 53.8594C924.523 55.5 923.742 56.5391 922.484 56.5391ZM931.43 58.1641C933.859 58.1641 935.438 56.5469 935.438 53.8594C935.438 51.1797 933.844 49.5469 931.43 49.5469C929.016 49.5469 927.422 51.1875 927.422 53.8594C927.422 56.5469 929 58.1641 931.43 58.1641ZM931.43 56.625C930.195 56.625 929.398 55.625 929.398 53.8594C929.398 52.1016 930.203 51.0938 931.43 51.0938C932.664 51.0938 933.461 52.1016 933.461 53.8594C933.461 55.625 932.664 56.625 931.43 56.625ZM936.742 58H938.688V46.7266H936.742V58ZM941.359 48.4688C941.953 48.4688 942.422 47.9922 942.422 47.4141C942.422 46.8281 941.953 46.3594 941.359 46.3594C940.766 46.3594 940.289 46.8281 940.289 47.4141C940.289 47.9922 940.766 48.4688 941.359 48.4688ZM940.391 58H942.336V49.7188H940.391V58ZM951.266 52.6719C951.133 50.9297 949.781 49.5469 947.594 49.5469C945.188 49.5469 943.625 51.2109 943.625 53.8594C943.625 56.5469 945.188 58.1641 947.609 58.1641C949.688 58.1641 951.117 56.9453 951.273 55.0938H949.438C949.258 56.0312 948.617 56.5938 947.633 56.5938C946.398 56.5938 945.602 55.5938 945.602 53.8594C945.602 52.1562 946.391 51.125 947.617 51.125C948.656 51.125 949.273 51.7891 949.43 52.6719H951.266ZM953.367 61.0781C955.258 61.0781 956.172 60.3828 956.875 58.3281L959.875 49.7188H957.828L955.875 56.3438H955.836L953.891 49.7188H951.766L954.711 58.0078C954.719 58.0312 954.594 58.4453 954.594 58.4688C954.383 59.2344 953.969 59.5391 953.164 59.5391C953.047 59.5391 952.703 59.5312 952.602 59.5078V61.0469C952.703 61.0703 953.25 61.0781 953.367 61.0781Z" fill="#13171A"/>
<path d="M201.797 58H203.742V53.2031C203.742 52.0156 204.453 51.2109 205.57 51.2109C206.68 51.2109 207.227 51.8672 207.227 53.0391V58H209.172V52.6484C209.172 50.7344 208.133 49.5625 206.305 49.5625C205.031 49.5625 204.148 50.1562 203.703 51.1406H203.664V49.7188H201.797V58ZM213.172 58.1328C214.234 58.1328 215.273 57.5781 215.75 56.6797H215.789V58H217.664V52.2969C217.664 50.6328 216.328 49.5469 214.273 49.5469C212.164 49.5469 210.844 50.6562 210.758 52.2031H212.562C212.688 51.5156 213.273 51.0703 214.195 51.0703C215.156 51.0703 215.742 51.5703 215.742 52.4375V53.0312L213.555 53.1562C211.539 53.2812 210.406 54.1641 210.406 55.6328C210.406 57.125 211.57 58.1328 213.172 58.1328ZM213.758 56.6641C212.914 56.6641 212.352 56.2344 212.352 55.5547C212.352 54.8984 212.891 54.4766 213.828 54.4141L215.742 54.2969V54.9297C215.742 55.9297 214.859 56.6641 213.758 56.6641ZM219.234 58H221.18V52.9297C221.18 51.9297 221.836 51.2031 222.773 51.2031C223.68 51.2031 224.242 51.7734 224.242 52.6953V58H226.133V52.8828C226.133 51.8906 226.773 51.2031 227.711 51.2031C228.664 51.2031 229.195 51.7812 229.195 52.7969V58H231.141V52.3203C231.141 50.6641 230.07 49.5625 228.438 49.5625C227.242 49.5625 226.258 50.2031 225.859 51.2266H225.812C225.508 50.1641 224.672 49.5625 223.5 49.5625C222.375 49.5625 221.5 50.1953 221.141 51.1562H221.102V49.7188H219.234V58ZM238.188 55.5234C237.977 56.2109 237.289 56.6641 236.383 56.6641C235.109 56.6641 234.297 55.7734 234.297 54.4453V54.3281H240.086V53.6953C240.086 51.1797 238.617 49.5469 236.266 49.5469C233.875 49.5469 232.359 51.2734 232.359 53.8906C232.359 56.5312 233.859 58.1641 236.344 58.1641C238.305 58.1641 239.758 57.0859 240.008 55.5234H238.188ZM236.273 51.0547C237.391 51.0547 238.141 51.875 238.18 53.0469H234.312C234.391 51.8906 235.18 51.0547 236.273 51.0547ZM241.195 52.0938C241.195 53.3203 241.992 54.1016 243.578 54.4531L244.953 54.7578C245.82 54.9531 246.117 55.2344 246.117 55.7344C246.117 56.3516 245.531 56.7422 244.586 56.7422C243.602 56.7422 243.047 56.3359 242.898 55.5312H240.984C241.141 57.1328 242.422 58.1641 244.586 58.1641C246.617 58.1641 248.055 57.1094 248.055 55.5469C248.055 54.3438 247.391 53.6797 245.672 53.2969L244.297 52.9922C243.43 52.7969 243.086 52.4688 243.086 51.9922C243.086 51.3828 243.656 50.9766 244.516 50.9766C245.414 50.9766 245.969 51.4531 246.047 52.2031H247.859C247.812 50.6328 246.531 49.5469 244.516 49.5469C242.516 49.5469 241.195 50.5781 241.195 52.0938ZM253.844 49.5781C252.641 49.5781 251.703 50.1875 251.234 51.1484H251.195V49.7188H249.297V60.7266H251.242V56.625H251.281C251.734 57.5547 252.672 58.1328 253.875 58.1328C255.953 58.1328 257.281 56.5 257.281 53.8594C257.281 51.2109 255.945 49.5781 253.844 49.5781ZM253.25 56.5391C252.039 56.5391 251.234 55.4844 251.227 53.8594C251.234 52.25 252.039 51.1797 253.25 51.1797C254.508 51.1797 255.289 52.2266 255.289 53.8594C255.289 55.5 254.508 56.5391 253.25 56.5391ZM260.969 58.1328C262.031 58.1328 263.07 57.5781 263.547 56.6797H263.586V58H265.461V52.2969C265.461 50.6328 264.125 49.5469 262.07 49.5469C259.961 49.5469 258.641 50.6562 258.555 52.2031H260.359C260.484 51.5156 261.07 51.0703 261.992 51.0703C262.953 51.0703 263.539 51.5703 263.539 52.4375V53.0312L261.352 53.1562C259.336 53.2812 258.203 54.1641 258.203 55.6328C258.203 57.125 259.367 58.1328 260.969 58.1328ZM261.555 56.6641C260.711 56.6641 260.148 56.2344 260.148 55.5547C260.148 54.8984 260.688 54.4766 261.625 54.4141L263.539 54.2969V54.9297C263.539 55.9297 262.656 56.6641 261.555 56.6641ZM274.328 52.6719C274.195 50.9297 272.844 49.5469 270.656 49.5469C268.25 49.5469 266.688 51.2109 266.688 53.8594C266.688 56.5469 268.25 58.1641 270.672 58.1641C272.75 58.1641 274.18 56.9453 274.336 55.0938H272.5C272.32 56.0312 271.68 56.5938 270.695 56.5938C269.461 56.5938 268.664 55.5938 268.664 53.8594C268.664 52.1562 269.453 51.125 270.68 51.125C271.719 51.125 272.336 51.7891 272.492 52.6719H274.328ZM280.984 55.5234C280.773 56.2109 280.086 56.6641 279.18 56.6641C277.906 56.6641 277.094 55.7734 277.094 54.4453V54.3281H282.883V53.6953C282.883 51.1797 281.414 49.5469 279.062 49.5469C276.672 49.5469 275.156 51.2734 275.156 53.8906C275.156 56.5312 276.656 58.1641 279.141 58.1641C281.102 58.1641 282.555 57.0859 282.805 55.5234H280.984ZM279.07 51.0547C280.188 51.0547 280.938 51.875 280.977 53.0469H277.109C277.188 51.8906 277.977 51.0547 279.07 51.0547Z" fill="#13171A"/>
</svg>
